<svg width="240" height="120" viewBox="0 0 240 120" xmlns="http://www.w3.org/2000/svg"><title>Group</title><desc>Created with Sketch.</desc><g fill="none" fill-rule="evenodd"><path fill="#65DCC8" d="M0 0h240v120H0z"/><path d="M92 34c0-3.314 2.687-6 6-6h44c3.313 0 6 2.686 6 6v52c0 3.314-2.687 6-6 6H98c-3.313 0-6-2.686-6-6V34z" fill="#84462D"/><path d="M98 40c0-1.105.896-2 2-2h40c1.104 0 2 .895 2 2v42c0 2.21-1.79 4-4 4h-36c-2.21 0-4-1.79-4-4V40z" fill="#CFD3D4"/><path d="M140 38c1.104 0 2 .895 2 2v41c0 1.105-.896 2-2 2h-40c-1.1 0-2-.9-2-2V40c0-1.105.896-2 2-2h40z" fill="#fff"/><path d="M126 34c0-3.314-2.687-6-6-6s-6 2.686-6 6h-4c-1.104 0-2 .895-2 2v5c0 1.105.896 2 2 2h20c1.104 0 2-.895 2-2v-5c0-1.105-.896-2-2-2h-4z" fill="#FACB1B"/><path d="M136 52h-32v-2h32v2zm0 6h-32v-2h32v2zm0 6h-32v-2h32v2zm-12 6h-20v-2h20v2z" fill="#E2E4E5"/><path d="M130 34h-4c0-3.314-2.687-6-6-6s-6 2.686-6 6h-4c-1.104 0-2 .896-2 2v2h24v-2c0-1.104-.896-2-2-2" fill="#FBE158"/><path d="M164.026 56.87L148.21 72.673l-10.38 3.307c-.165-.662-.503-1.285-1.016-1.798-.512-.513-1.136-.85-1.797-1.016.013-.045 3.3-10.386 3.3-10.386l15.81-15.81 9.9 9.9z" fill="#F4D0A1"/><path d="M154.126 46.97l-15.81 15.81-3.3 10.386c.65.162 1.258.492 1.765.987l22.267-22.264-4.92-4.92z" fill="#F9E1C2"/><path d="M164.712 56.184l-.707.707-9.9-9.896.707-.707c1.563-1.563 4.094-1.563 5.657 0l4.24 4.242c1.562 1.562 1.562 4.094 0 5.656" fill="#F8B4B4"/><path d="M137.83 75.98l-3.51 1.007c-.09.025-.183 0-.247-.064s-.09-.158-.064-.245l1.004-3.513c.655.174 1.273.517 1.786 1.03.514.512.857 1.13 1.03 1.785" fill="#3E3E3F"/><path d="M164.005 56.89l-2.1 2.1-9.9-9.898 2.1-2.1 9.9 9.9z" fill="#FACB1B"/><path d="M161.883 59.013l-13.58 13.58c-.116.117-.3.117-.417 0-.11-.11-.14-.276-.08-.42.313-.733.176-1.606-.418-2.2-.587-.587-1.443-.728-2.17-.43-.142.062-.342.04-.48-.097l-.006-.007c-.123-.127-.166-.318-.095-.48.297-.73.156-1.584-.43-2.17-.588-.588-1.444-.73-2.172-.43-.163.07-.354.026-.478-.098-.145-.145-.167-.34-.102-.484.297-.73.156-1.585-.43-2.17-.595-.596-1.47-.734-2.2-.42-.145.06-.312.03-.42-.08-.118-.117-.118-.3 0-.418l13.58-13.58 9.898 9.9z" fill="#059BBF"/><path d="M158.7 55.83l-13.734 13.736c-.085-.014-.166-.06-.227-.12-.144-.142-.17-.332-.105-.484.297-.73.156-1.584-.43-2.17-.588-.588-1.444-.73-2.172-.432-.153.066-.343.04-.485-.103-.06-.06-.107-.14-.12-.226l13.735-13.733 3.535 3.536z" fill="#21B2D1"/><path d="M160.47 46.285c-1.564-1.563-4.095-1.563-5.658 0l-.707.707 4.918 4.92 3.536-3.537-2.09-2.09z" fill="#FBC8C8"/></g></svg>