<?xml version="1.0" encoding="UTF-8" standalone="no"?>
<svg width="240px" height="120px" viewBox="0 0 240 120" version="1.1" xmlns="http://www.w3.org/2000/svg" xmlns:xlink="http://www.w3.org/1999/xlink" xmlns:sketch="http://www.bohemiancoding.com/sketch/ns">
    <!-- Generator: Sketch 3.2.2 (9983) - http://www.bohemiancoding.com/sketch -->
    <title>Group</title>
    <desc>Created with Sketch.</desc>
    <defs></defs>
    <g id="Main" stroke="none" stroke-width="1" fill="none" fill-rule="evenodd" sketch:type="MSPage">
        <g id="Profile-5" sketch:type="MSArtboardGroup" transform="translate(-21.000000, -148.000000)">
            <g id="Tile-1" sketch:type="MSLayerGroup" transform="translate(10.000000, 137.000000)">
                <g id="Group" transform="translate(11.000000, 11.000000)" sketch:type="MSShapeGroup">
                    <rect id="Rectangle-264" fill="#65DCC8" x="0" y="0" width="240" height="120"></rect>
                    <path d="M92,34 C92,30.686 94.687,28 98,28 L142,28 C145.313,28 148,30.686 148,34 L148,86 C148,89.314 145.313,92 142,92 L98,92 C94.687,92 92,89.314 92,86 L92,34 Z" id="Fill-7367" fill="#84462D"></path>
                    <path d="M98,40 C98,38.895 98.896,38 100,38 L140,38 C141.104,38 142,38.895 142,40 L142,82 C142,84.209 140.209,86 138,86 L102,86 C99.791,86 98,84.209 98,82 L98,40 Z" id="Fill-7368" fill="#CFD3D4"></path>
                    <path d="M140,38 C141.104,38 142,38.895 142,40 L142,81 C142,82.105 141.104,83 140,83 L100,83 C98.9,83 98,82.1 98,81 L98,40 C98,38.895 98.896,38 100,38 L140,38 Z" id="Fill-7369" fill="#FFFFFF"></path>
                    <path d="M126,34 C126,30.686 123.313,28 120,28 C116.687,28 114,30.686 114,34 L110,34 C108.896,34 108,34.895 108,36 L108,41 C108,42.105 108.896,43 110,43 L130,43 C131.104,43 132,42.105 132,41 L132,36 C132,34.895 131.104,34 130,34 L126,34 Z" id="Fill-7370" fill="#FACB1B"></path>
                    <path d="M136,52 L104,52 L104,50 L136,50 L136,52 Z" id="Fill-7371" fill="#E2E4E5"></path>
                    <path d="M136,58 L104,58 L104,56 L136,56 L136,58 Z" id="Fill-7372" fill="#E2E4E5"></path>
                    <path d="M136,64 L104,64 L104,62 L136,62 L136,64 Z" id="Fill-7373" fill="#E2E4E5"></path>
                    <path d="M124,70 L104,70 L104,68 L124,68 L124,70 Z" id="Fill-7374" fill="#E2E4E5"></path>
                    <path d="M130,34 L126,34 C126,30.686 123.313,28 120,28 C116.687,28 114,30.686 114,34 L110,34 C108.896,34 108,34.896 108,36 L108,38 L132,38 L132,36 C132,34.896 131.104,34 130,34" id="Fill-7375" fill="#FBE158"></path>
                    <g transform="translate(134.000000, 45.000000)">
                        <path d="M30.0258,11.8701 L14.2093,27.6726 C14.2093,27.6726 3.8758,30.9661 3.8308,30.9796 C3.6653,30.3181 3.3273,29.6946 2.8143,29.1821 C2.3018,28.6691 1.6783,28.3311 1.0168,28.1656 C1.0303,28.1206 4.3168,17.7801 4.3168,17.7801 L20.1263,1.9706 L30.0258,11.8701 Z" id="Fill-5031" fill="#F4D0A1"></path>
                        <path d="M20.1262,1.9707 L4.3167,17.7802 C4.3167,17.7802 1.0302,28.1207 1.0167,28.1657 C1.6652,28.3277 2.2742,28.6582 2.7812,29.1532 L25.0447,6.8892 L20.1262,1.9707 Z" id="Fill-5032" fill="#F9E1C2"></path>
                        <path d="M30.71165,11.1842 L30.00465,11.8912 L20.10515,1.9917 L20.81215,1.2847 C22.37465,-0.2778 24.90615,-0.2778 26.46915,1.2847 L30.71165,5.5272 C32.27415,7.0902 32.27415,9.6217 30.71165,11.1842" id="Fill-5033" fill="#F8B4B4"></path>
                        <path d="M3.831,30.97975 L0.319,31.98675 C0.2315,32.01175 0.1375,31.98775 0.073,31.92325 C0.009,31.85925 -0.0155,31.76475 0.0095,31.67775 L1.0165,28.16525 C1.671,28.33875 2.2895,28.68175 2.802,29.19425 C3.315,29.70725 3.658,30.32575 3.831,30.97975" id="Fill-5034" fill="#3E3E3F"></path>
                        <path d="M30.0046,11.89135 L27.9046,13.99135 L18.0051,4.09185 L20.1051,1.99185 L30.0046,11.89135 Z" id="Fill-5035" fill="#FACB1B"></path>
                        <path d="M27.88325,14.0127 L14.30325,27.5927 C14.18675,27.7097 14.00275,27.7097 13.88625,27.5927 C13.77625,27.4832 13.74475,27.3167 13.80475,27.1722 C14.11925,26.4402 13.98175,25.5667 13.38775,24.9727 C12.80075,24.3857 11.94525,24.2447 11.21675,24.5417 C11.07625,24.6052 10.87625,24.5827 10.73925,24.4457 L10.73225,24.4392 C10.60875,24.3152 10.56625,24.1242 10.63725,23.9617 C10.93375,23.2332 10.79275,22.3777 10.20575,21.7907 C9.61875,21.2037 8.76325,21.0627 8.03475,21.3597 C7.87225,21.4302 7.68125,21.3877 7.55725,21.2642 C7.41225,21.1192 7.38975,20.9232 7.45525,20.7797 C7.75175,20.0512 7.61075,19.1957 7.02375,18.6087 C6.42975,18.0147 5.55625,17.8772 4.82425,18.1917 C4.67975,18.2522 4.51325,18.2202 4.40375,18.1102 C4.28675,17.9937 4.28675,17.8097 4.40375,17.6932 L17.98375,4.1132 L27.88325,14.0127 Z" id="Fill-5036" fill="#059BBF"></path>
                        <path d="M24.70125,10.8307 L10.96575,24.5662 C10.88075,24.5522 10.79975,24.5062 10.73925,24.4457 C10.59775,24.3042 10.57075,24.1142 10.63725,23.9617 C10.93375,23.2332 10.79275,22.3777 10.20575,21.7907 C9.61875,21.2037 8.76325,21.0627 8.03475,21.3597 C7.88225,21.4257 7.69225,21.3987 7.55025,21.2572 C7.49025,21.1967 7.44425,21.1157 7.43025,21.0307 L21.16575,7.2952 L24.70125,10.8307 Z" id="Fill-5037" fill="#21B2D1"></path>
                        <path d="M26.469,1.28465 C24.9065,-0.27785 22.375,-0.27785 20.8125,1.28465 L20.105,1.99215 L25.0235,6.91065 L28.5595,3.37515 L26.469,1.28465 Z" id="Fill-5038" fill="#FBC8C8"></path>
                    </g>
                </g>
            </g>
        </g>
    </g>
</svg>