<svg width="320" height="160" viewBox="0 0 320 160" xmlns="http://www.w3.org/2000/svg" xmlns:xlink="http://www.w3.org/1999/xlink"><title>brushes</title><desc>Created with Sketch.</desc><defs><path id="a" d="M0 0h320v160H0z"/></defs><g fill="none" fill-rule="evenodd"><g><g><g transform="translate(0 0)"><mask id="b"><use xlink:href="#a"/></mask><use fill="#EE8950" xlink:href="#a"/><path fill="#EE7936" mask="url(#b)" d="M0 114.667h320V160H0z"/><g mask="url(#b)"><path d="M161.333 68h-16l4-13.333h8l4 13.333z" fill="#3E3E3F"/><path d="M153.333 36l-8 13.333 4 5.334h8l4-5.334-8-13.333z" fill="#FACB1B"/><path d="M149.333 54.667l-4-5.334 8-13.333v18.667h-4z" fill="#FBE158"/><path d="M175.525 58.692c-7.596-4.64-3.638-11.814.52-13.743 4.16-1.932 9.304-2.42 11.955-6.76 2.973 12 .093 28.178-12.475 20.502" fill="#3E3E3F"/><path d="M175.525 58.692c-7.596-4.64-3.638-11.814.52-13.743 4.16-1.932 9.304-2.42 11.955-6.76 2.973 12 .093 28.178-12.475 20.502" fill="#3E3E3F"/><path d="M134.765 47.142l-7.557-7.644-2.75 10.392v.002c.38 1.417 1.847 2.266 3.264 1.888 1.418-.378 2.267-1.846 1.89-3.263.377 1.417 1.846 2.267 3.264 1.89 1.417-.38 2.268-1.847 1.89-3.265" fill="#F4D0A1"/><path d="M180 105.538V82.655c8.864.02 9.333.512 9.333 7.156 0 11.89-4.302 14.942-9.333 15.728m17.333-15.727c0-4.442-.58-9.92-5.104-12.868-3.107-2.024-7.218-2.267-12.23-2.284v-3.99c0-1.474-1.195-2.668-2.667-2.668h-48c-1.472 0-2.666 1.194-2.666 2.667V116c0 2.946 2.388 5.334 5.333 5.334h42.667c2.945 0 5.333-2.388 5.333-5.334v-2.45c7.347-.915 17.333-5.048 17.333-23.74" fill="#E2E4E5"/><path d="M169.333 94.667c0 8.836-7.164 16-16 16s-16-7.164-16-16 7.164-16 16-16 16 7.164 16 16" fill="#FACB1B"/><path d="M137.333 94.667c0-8.836 7.164-16 16-16V68h-24c-1.472 0-2.666 1.195-2.666 2.667V116c0 2.945 2.388 5.333 5.333 5.333h21.333v-10.666c-8.836 0-16-7.164-16-16" fill="#fff"/><path d="M137.333 94.667c0 8.836 7.164 16 16 16v-5.334c-6.845 0-9.153-5.945-9.25-6.198-.256-.69.093-1.458.782-1.718.688-.254 1.455.09 1.715.776.077.2 1.796 4.474 6.753 4.474v-24c-8.836 0-16 7.164-16 16" fill="#FBE158"/><path d="M160 89.333c0 .736-.597 1.334-1.333 1.334s-1.334-.598-1.334-1.334c0-.736.598-1.333 1.334-1.333.736 0 1.333.597 1.333 1.333" fill="#3E3E3F"/><path d="M149.333 89.333c0 .736-.597 1.334-1.333 1.334s-1.333-.598-1.333-1.334c0-.736.597-1.333 1.333-1.333s1.333.597 1.333 1.333" fill="#3E3E3F"/><path d="M153.333 105.333c-6.845 0-9.153-5.945-9.248-6.2-.258-.688.09-1.456.78-1.716.688-.255 1.455.09 1.715.776.077.2 1.796 4.473 6.753 4.473 4.967 0 6.684-4.292 6.754-4.474.265-.684 1.033-1.03 1.72-.768.685.26 1.033 1.024.774 1.71-.093.254-2.4 6.2-9.247 6.2" fill="#3E3E3F"/><path d="M130.028 42.334c-.482.473-1.087.84-1.783 1.027-.696.187-1.404.17-2.057-.002l1.026-3.86 2.814 2.836z" fill="#3E3E3F"/><path d="M179.59 59.61l-6.828-4.168c-.628-.384-1.448-.185-1.833.443l-1.39 2.276-5.05 9.84h10.996l3.156-4.28 1.39-2.275c.385-.63.186-1.45-.442-1.834" fill="#F3B606"/><path d="M169.54 58.16L164.49 68h1.802l7.34-7.34-4.093-2.5z" fill="#FBED9A"/><path d="M175.486 68l3.157-4.28-9.104-5.56-5.05 9.84h10.996z" fill="#84462D"/><path d="M140.327 68l-5.388-20.205c-.016-.054-.085-.042-.085.013.008 1.185-.784 2.28-1.98 2.597-1.175.315-2.387-.217-2.98-1.217-.06-.1-.192-.063-.194.05-.016 1.165-.803 2.23-1.98 2.542-1.193.32-2.424-.236-3.008-1.268-.027-.048-.095-.023-.08.03L129.288 68h11.04z" fill="#0484AB"/><path d="M134.807 68l-5.014-18.805c-.016-.06-.09-.046-.09.014-.006 1.174-.794 2.254-1.98 2.57-1.186.316-2.41-.228-2.998-1.244-.03-.052-.102-.025-.086.032L129.286 68h5.52z" fill="#21B2D1"/></g></g></g></g></g></svg>