<?xml version="1.0" encoding="UTF-8" standalone="no"?>
<svg width="320px" height="160px" viewBox="0 0 320 160" version="1.1" xmlns="http://www.w3.org/2000/svg" xmlns:xlink="http://www.w3.org/1999/xlink" xmlns:sketch="http://www.bohemiancoding.com/sketch/ns">
    <!-- Generator: Sketch 3.2.2 (9983) - http://www.bohemiancoding.com/sketch -->
    <title>brushes</title>
    <desc>Created with Sketch.</desc>
    <defs>
        <rect id="path-1" x="0" y="0" width="320" height="160"></rect>
    </defs>
    <g id="Main" stroke="none" stroke-width="1" fill="none" fill-rule="evenodd" sketch:type="MSPage">
        <g id="Profile-7" sketch:type="MSArtboardGroup" transform="translate(0.000000, -138.000000)">
            <g id="Tile-1" sketch:type="MSLayerGroup" transform="translate(0.000000, 137.000000)">
                <g id="brushes" transform="translate(0.000000, 1.000000)">
                    <mask id="mask-2" sketch:name="Rectangle 264" fill="white">
                        <use xlink:href="#path-1"></use>
                    </mask>
                    <use id="Rectangle-264" fill="#EE8950" sketch:type="MSShapeGroup" xlink:href="#path-1"></use>
                    <rect id="Rectangle-345" fill="#EE7936" sketch:type="MSShapeGroup" mask="url(#mask-2)" x="0" y="114.666667" width="320" height="45.3333333"></rect>
                    <g id="Group" mask="url(#mask-2)" sketch:type="MSShapeGroup">
                        <g transform="translate(124.000000, 36.000000)">
                            <path d="M37.3333333,32 L21.3333333,32 L25.3333333,18.6666667 L33.3333333,18.6666667 L37.3333333,32 Z" id="Fill-3039" fill="#3E3E3F"></path>
                            <path d="M29.3333333,0 L21.3333333,13.3333333 L25.3333333,18.6666667 L29.3333333,18.6666667 L33.3333333,18.6666667 L37.3333333,13.3333333 L29.3333333,0 Z" id="Fill-3040" fill="#FACB1B"></path>
                            <path d="M25.3333333,18.6666667 L21.3333333,13.3333333 L29.3333333,0 L29.3333333,18.6666667 L25.3333333,18.6666667 Z" id="Fill-3041" fill="#FBE158"></path>
                            <path d="M51.5254667,22.6917333 C43.9294667,18.0530667 47.8868,10.8784 52.0454667,8.94906667 C56.2041333,7.0184 61.3494667,6.52906667 64.0001333,2.18906667 C66.9734667,14.1890667 64.0934667,30.3677333 51.5254667,22.6917333" id="Fill-3042" fill="#3E3E3F"></path>
                            <path d="M51.5254667,22.6917333 C43.9294667,18.0530667 47.8868,10.8784 52.0454667,8.94906667 C56.2041333,7.0184 61.3494667,6.52906667 64.0001333,2.18906667 C66.9734667,14.1890667 64.0934667,30.3677333 51.5254667,22.6917333" id="Fill-3043" fill="#3E3E3F"></path>
                            <path d="M10.7649333,11.1422667 L3.2076,3.49826667 L0.458266667,13.8902667 L0.458266667,13.8916 C0.838266667,15.3089333 2.30493333,16.1582667 3.72226667,15.7796 C5.1396,15.4022667 5.98893333,13.9342667 5.6116,12.5169333 C5.98893333,13.9342667 7.45826667,14.7836 8.8756,14.4062667 C10.2929333,14.0276 11.1436,12.5596 10.7649333,11.1422667" id="Fill-3044" fill="#F4D0A1"></path>
                            <path d="M56,69.5377333 L56,46.6550667 C64.864,46.6764 65.3333333,47.1670667 65.3333333,53.8110667 C65.3333333,65.6990667 61.0306667,68.7524 56,69.5377333 M73.3333333,53.8110667 C73.3333333,49.3684 72.7533333,43.8897333 68.2293333,40.9417333 C65.1226667,38.9177333 61.012,38.6750667 56,38.6577333 L56,34.6670667 C56,33.1937333 54.8053333,32.0004 53.3333333,32.0004 L5.33333333,32.0004 C3.86133333,32.0004 2.66666667,33.1937333 2.66666667,34.6670667 L2.66666667,80.0004 C2.66666667,82.9457333 5.05466667,85.3337333 8,85.3337333 L50.6666667,85.3337333 C53.612,85.3337333 56,82.9457333 56,80.0004 L56,77.5497333 C63.3466667,76.6350667 73.3333333,72.5017333 73.3333333,53.8110667" id="Fill-3045" fill="#E2E4E5"></path>
                            <path d="M45.3333333,58.6666667 C45.3333333,67.5026667 38.1693333,74.6666667 29.3333333,74.6666667 C20.4973333,74.6666667 13.3333333,67.5026667 13.3333333,58.6666667 C13.3333333,49.8306667 20.4973333,42.6666667 29.3333333,42.6666667 C38.1693333,42.6666667 45.3333333,49.8306667 45.3333333,58.6666667" id="Fill-3046" fill="#FACB1B"></path>
                            <path d="M13.3333333,58.6666667 C13.3333333,49.8306667 20.4973333,42.6666667 29.3333333,42.6666667 L29.3333333,32 L5.33333333,32 C3.86133333,32 2.66666667,33.1946667 2.66666667,34.6666667 L2.66666667,80 C2.66666667,82.9453333 5.05466667,85.3333333 8,85.3333333 L29.3333333,85.3333333 L29.3333333,74.6666667 C20.4973333,74.6666667 13.3333333,67.5026667 13.3333333,58.6666667" id="Fill-3047" fill="#FFFFFF"></path>
                            <path d="M13.3333333,58.6666667 C13.3333333,67.5026667 20.4973333,74.6666667 29.3333333,74.6666667 L29.3333333,69.3333333 C22.488,69.3333333 20.18,63.388 20.084,63.1346667 C19.8266667,62.4453333 20.176,61.6773333 20.8653333,61.4173333 C21.5533333,61.1626667 22.32,61.508 22.58,62.1933333 C22.6573333,62.392 24.376,66.6666667 29.3333333,66.6666667 L29.3333333,42.6666667 C20.4973333,42.6666667 13.3333333,49.8306667 13.3333333,58.6666667" id="Fill-3048" fill="#FBE158"></path>
                            <path d="M36,53.3333333 C36,54.0693333 35.4026667,54.6666667 34.6666667,54.6666667 C33.9306667,54.6666667 33.3333333,54.0693333 33.3333333,53.3333333 C33.3333333,52.5973333 33.9306667,52 34.6666667,52 C35.4026667,52 36,52.5973333 36,53.3333333" id="Fill-3049" fill="#3E3E3F"></path>
                            <path d="M25.3333333,53.3333333 C25.3333333,54.0693333 24.736,54.6666667 24,54.6666667 C23.264,54.6666667 22.6666667,54.0693333 22.6666667,53.3333333 C22.6666667,52.5973333 23.264,52 24,52 C24.736,52 25.3333333,52.5973333 25.3333333,53.3333333" id="Fill-3050" fill="#3E3E3F"></path>
                            <path d="M29.3333333,69.3330667 C22.488,69.3330667 20.18,63.3877333 20.0853333,63.1344 C19.8266667,62.4450667 20.176,61.6770667 20.8653333,61.4170667 C21.5533333,61.1624 22.32,61.5077333 22.58,62.1930667 C22.6573333,62.3917333 24.376,66.6664 29.3333333,66.6664 C34.3,66.6664 36.0173333,62.3744 36.0866667,62.1917333 C36.352,61.5077333 37.12,61.1610667 37.8066667,61.4237333 C38.492,61.6850667 38.84,62.4477333 38.5813333,63.1344 C38.4866667,63.3877333 36.1786667,69.3330667 29.3333333,69.3330667" id="Fill-3051" fill="#3E3E3F"></path>
                            <path d="M6.0276,6.33386667 C5.54626667,6.8072 4.94093333,7.1752 4.24493333,7.36053333 C3.54893333,7.5472 2.84093333,7.52853333 2.1876,7.35786667 L3.21426667,3.49653333 L6.0276,6.33386667 Z" id="Fill-3052" fill="#3E3E3F"></path>
                            <path d="M55.5898667,23.6113333 L48.7618667,19.442 C48.1338667,19.058 47.3138667,19.2566667 46.9285333,19.8846667 L45.5392,22.1606667 L40.4898667,32.0006667 L51.4858667,32.0006667 L54.6418667,27.7193333 L56.0325333,25.4446667 C56.4165333,24.8153333 56.2178667,23.9953333 55.5898667,23.6113333" id="Fill-3053" fill="#F3B606"></path>
                            <path d="M45.5390667,22.1608 L40.4897333,31.9994667 L42.2924,31.9994667 L49.6324,24.6608 L45.5390667,22.1608 Z" id="Fill-3054" fill="#FBED9A"></path>
                            <path d="M51.4857333,32 L54.6430667,27.72 L45.5390667,22.1613333 L40.4897333,32 L51.4857333,32 Z" id="Fill-3055" fill="#84462D"></path>
                            <path d="M16.3268,32 L10.9388,11.7946667 C10.9241333,11.7413333 10.8548,11.7533333 10.8548,11.808 C10.8628,12.9933333 10.0708,14.0866667 8.87613333,14.4053333 C7.70013333,14.72 6.48813333,14.188 5.8948,13.188 C5.83613333,13.0893333 5.7028,13.1253333 5.70146667,13.2386667 C5.68413333,14.4026667 4.89746667,15.4666667 3.72146667,15.78 C2.5268,16.0986667 1.29613333,15.544 0.712133333,14.512 C0.685466667,14.464 0.617466667,14.4893333 0.632133333,14.5426667 L5.28813333,32 L16.3268,32 Z" id="Fill-3056" fill="#0484AB"></path>
                            <path d="M10.8073333,32 L5.79266667,13.1946667 C5.77666667,13.136 5.702,13.1493333 5.702,13.2093333 C5.69666667,14.384 4.90866667,15.464 3.722,15.78 C2.53666667,16.096 1.314,15.552 0.724666667,14.536 C0.695333333,14.484 0.623333333,14.5106667 0.639333333,14.568 L5.28733333,32 L10.8073333,32 Z" id="Fill-3057" fill="#21B2D1"></path>
                        </g>
                    </g>
                </g>
            </g>
        </g>
    </g>
</svg>