<svg xmlns="http://www.w3.org/2000/svg" viewBox="0 0 330 170" enable-background="new 0 0 330 170"><path fill="#ED874F" d="M0 0h330v170H0z"/><path fill="#ED7936" d="M0 114.7h330V170H0z"/><g fill-rule="evenodd" clip-rule="evenodd"><path fill="#3F3F40" d="M170.3 73.9h-16l4-13.3h8z"/><path fill="#FACB1C" d="M162.3 41.9l-8 13.3 4 5.4h8l4-5.4z"/><path fill="#F9E057" d="M158.3 60.6l-4-5.4 8-13.3v18.7z"/><path fill="#3F3F40" d="M184.5 64.6c-7.6-4.6-3.6-11.8.5-13.7 4.2-1.9 9.3-2.4 12-6.8 3 12 .1 28.2-12.5 20.5"/><path fill="#F3CFA0" d="M143.8 53.1l-7.6-7.6-2.7 10.4c.4 1.4 1.8 2.3 3.3 1.9 1.4-.4 2.3-1.8 1.9-3.3.4 1.4 1.8 2.3 3.3 1.9 1.3-.5 2.1-1.9 1.8-3.3"/><path fill="#3F3F40" d="M139 48.2c-.5.5-1.1.8-1.8 1-.7.2-1.4.2-2.1 0l1-3.9 2.9 2.9z"/><path fill="#F1B51B" d="M188.6 65.5l-6.8-4.2c-.6-.4-1.4-.2-1.8.4l-1.4 2.3-5 9.8h11l3.2-4.3 1.4-2.3c.2-.5 0-1.3-.6-1.7"/><path fill="#83472D" d="M184.5 73.9l3.1-4.3-9.1-5.5-5 9.8z"/><path fill="#0A83AA" d="M149.3 73.9l-5.4-20.2c0-.1-.1 0-.1 0 0 1.2-.8 2.3-2 2.6-1.2.3-2.4-.2-3-1.2-.1-.1-.2-.1-.2.1 0 1.2-.8 2.2-2 2.5-1.2.3-2.4-.2-3-1.3h-.1l4.7 17.5h11.1z"/><path fill="#1EB1CF" d="M143.8 73.9l-5-18.8c0-.1-.1 0-.1 0 0 1.2-.8 2.3-2 2.6-1.2.3-2.4-.2-3-1.2 0-.1-.1 0-.1 0l4.6 17.4h5.6z"/></g><g fill-rule="evenodd" clip-rule="evenodd"><path fill="#E1E3E4" d="M205.3 95.7c0-4.4-.6-9.9-5.1-12.9-3.1-2-7.2-2.3-12.2-2.3v-4c0-1.5-1.2-2.7-2.7-2.7h-48c-1.5 0-2.7 1.2-2.7 2.7v45.3c0 2.9 2.4 5.3 5.3 5.3h42.7c2.9 0 5.3-2.4 5.3-5.3v-2.5c7.4-.8 17.4-4.9 17.4-23.6M188 111.4V88.6c8.9 0 9.3.5 9.3 7.2 0 11.8-4.3 14.9-9.3 15.6"/><path fill="#FACB1C" d="M177.3 100.6c0 8.8-7.2 16-16 16s-16-7.2-16-16 7.2-16 16-16 16 7.1 16 16"/><path fill="#fff" d="M145.3 100.6c0-8.8 7.2-16 16-16V73.9h-24c-1.5 0-2.7 1.2-2.7 2.7v45.3c0 2.9 2.4 5.3 5.3 5.3h21.3v-10.7c-8.7.1-15.9-7.1-15.9-15.9"/><path fill="#F9E057" d="M145.3 100.6c0 8.8 7.2 16 16 16v-5.3c-6.8 0-9.2-5.9-9.2-6.2-.3-.7.1-1.5.8-1.7.7-.3 1.5.1 1.7.8.1.2 1.8 4.5 6.8 4.5v-24c-8.9-.1-16.1 7-16.1 15.9"/><path fill="#3F3F40" d="M168 95.2c0 .7-.6 1.3-1.3 1.3-.7 0-1.3-.6-1.3-1.3s.6-1.3 1.3-1.3c.7 0 1.3.6 1.3 1.3m-10.7 0c0 .7-.6 1.3-1.3 1.3s-1.3-.6-1.3-1.3.6-1.3 1.3-1.3 1.3.6 1.3 1.3m4 16c-6.8 0-9.2-5.9-9.2-6.2-.3-.7.1-1.5.8-1.7.7-.3 1.5.1 1.7.8.1.2 1.8 4.5 6.8 4.5s6.7-4.3 6.8-4.5c.3-.7 1-1 1.7-.8.7.3 1 1 .8 1.7-.2.3-2.5 6.2-9.4 6.2"/></g></svg>