<svg width="320" height="161" viewBox="0 0 320 161" xmlns="http://www.w3.org/2000/svg"><title>instruments</title><desc>Created with Sketch.</desc><g fill="none" fill-rule="evenodd"><path fill="#97CC3B" d="M0 0h320.656v161H0z"/><g id="Group"><path d="M269.472 60.835c3.892-.007 20.463.23 14.742 15.038-6.19 16.018 8.708 18.45 8.685 29.53-.04 18.467-21.188 17.28-23.605 17.286-2.416.003-23.35 1.277-23.31-17.19.024-11.08 14.802-13.573 8.68-29.565-5.66-14.786 10.913-15.093 14.806-15.1z" fill="#9C6144"/><path d="M269.438 60.836h.033c3.895-.01 20.467.228 14.744 15.038-6.188 16.017 8.71 18.45 8.685 29.53-.04 18.442-21.125 17.283-23.59 17.284l.13-61.852z" fill="#AF7653"/><path d="M264.58 44.795c.363.21.78.34 1.23.338l7.387-.014c.45-.003.87-.134 1.233-.347l-.062 28.978c2.228 1.554 3.686 4.133 3.68 7.06-.01 4.76-3.877 8.626-8.637 8.636-4.757.01-8.61-3.84-8.6-8.6.008-2.926 1.477-5.512 3.71-7.073l.06-28.98z" fill="#84462D"/><path d="M258.295 106.707c0 .68.55 1.23 1.228 1.228l19.7-.04c.678-.002 1.23-.555 1.233-1.235l.005-2.46c.003-.682-.547-1.232-1.227-1.23l-19.697.04c-.68.002-1.233.554-1.235 1.235l-.004 2.462z" fill="#EDBC7C"/><path d="M260.812 80.847c-.01 4.76 3.84 8.61 8.6 8.6 4.76-.01 8.626-3.876 8.635-8.636.01-4.757-3.84-8.607-8.6-8.597-4.76.01-8.625 3.875-8.635 8.635" fill="#3E3E3F"/><path d="M267.655 45.13c0 .005.003.008.003.013l-1.36 60.328c-.007.34-.287.61-.628.607-.34-.006-.61-.288-.6-.627l1.356-60.318 1.23-.002zM270.12 45.125l-.127 60.326c0 .34-.276.62-.616.62-.34 0-.615-.276-.615-.616l.127-60.325 1.23-.004zM272.583 45.12l1.103 60.31c.007.34-.263.622-.604.63-.34.008-.62-.262-.626-.602l-1.105-60.323c.003-.004.006-.01.005-.013l1.23-.002z" fill="#FCF1E2"/><path d="M275.686 32.802c.003-1.36-1.097-2.46-2.457-2.457l-7.39.015c-1.36.003-2.464 1.108-2.467 2.468l-.02 9.85c-.003 1.36 1.097 2.46 2.457 2.456l7.388-.015c1.36-.005 2.464-1.11 2.467-2.47l.02-9.85z" fill="#9C6144"/><path d="M260.895 41.015c-.002.92.547 1.666 1.227 1.664l2.462-.007c.68 0 1.234-.75 1.235-1.67 0-.92-.55-1.664-1.23-1.663l-2.46.007c-.68 0-1.234.747-1.236 1.668M260.91 34.5c-.004.92.546 1.664 1.226 1.663l2.462-.005c.68-.002 1.234-.75 1.235-1.67.002-.92-.547-1.664-1.228-1.663l-2.462.005c-.68.002-1.232.748-1.234 1.67" fill="#FBED9A"/><path d="M273.23 30.345c1.358-.003 2.458 1.097 2.456 2.457l-.02 9.85c-.004 1.36-1.11 2.464-2.468 2.466l-3.726.008.03-14.773 3.727-.008z" fill="#AF7653"/><path d="M273.206 40.99c-.002.92.548 1.666 1.228 1.663l2.463-.004c.68-.004 1.232-.75 1.234-1.67.004-.92-.546-1.667-1.226-1.665l-2.462.005c-.678.002-1.232.75-1.234 1.67M273.22 34.473c-.002.92.548 1.666 1.227 1.664l2.462-.005c.68-.002 1.232-.75 1.233-1.67.003-.92-.547-1.664-1.228-1.663l-2.462.004c-.68 0-1.232.747-1.234 1.668" fill="#FBED9A"/></g><g><path d="M156.803 73.926h-50.355V55.143c0-1.037.806-1.88 1.8-1.88l49.285-.006-.73 20.67z" fill="#88543F"/><path fill="#87543F" d="M155.904 53.264h59.346v20.662h-59.346z"/><path d="M106.56 105.622l108.69-.352-.465 1.762c-.24.908-1.204 1.643-2.137 1.643H109.05c-.94 0-1.893-.74-2.128-1.65l-.36-1.403z" fill="#D4D4D4"/><path fill="#E3EAEE" d="M106.448 73.926H215.25v33.81H106.448z"/><path d="M126.44 73.926l19.783-20.662h-37.977c-.992 0-1.798.842-1.798 1.88v18.782h19.993z" fill="#9C6C54"/><path d="M138.82 66.413c0 1.036-.807 1.878-1.8 1.878h-14.386c-.993 0-1.8-.84-1.8-1.877V58.9c0-1.038.807-1.88 1.8-1.88h14.387c.994 0 1.8.842 1.8 1.88v7.513z" fill="#4BC6FA"/><path d="M144.214 60.778c-.993 0-1.798-.842-1.798-1.88 0-1.036.805-1.877 1.798-1.877s1.798.843 1.798 1.88-.805 1.88-1.798 1.88zM146.012 66.413c0 1.036-.805 1.878-1.798 1.878s-1.798-.84-1.798-1.877c0-1.036.805-1.878 1.798-1.878s1.798.842 1.798 1.88" fill="#F0F1F1"/><path d="M117.238 59.838c0 .52-.402.94-.9.94h-5.394c-.496 0-.9-.42-.9-.94V57.96c0-.518.404-.94.9-.94h5.395c.495 0 .897.422.897.94v1.878zM117.238 67.352c0 .518-.402.94-.9.94h-5.394c-.496 0-.9-.422-.9-.94v-1.88c0-.517.404-.938.9-.938h5.395c.495 0 .897.42.897.94v1.878z" fill="#fff"/><path d="M148.71 73.925h-5.396v24.42h1.8v9.39h1.798v-9.39h1.797v-24.42zM134.322 73.925h-5.395v24.42h1.8v9.39h1.798v-9.39h1.797v-24.42zM119.935 73.925h-5.395v24.42h1.8v9.39h1.798v-9.39h1.797v-24.42zM178.383 73.925h-5.395v24.42h1.8v9.39h1.797v-9.39h1.798v-24.42zM192.77 73.925h-5.395v24.42h1.8v9.39h1.797v-9.39h1.798v-24.42zM207.157 73.925h-5.395v24.42h1.8v9.39h1.797v-9.39h1.796v-24.42zM163.995 73.925H158.6v24.42h1.8v9.39h1.798v-9.39h1.797v-24.42z" fill="#3E3E3F"/><path d="M122.634 57.02c-.993 0-1.8.842-1.8 1.88v7.513c0 1.036.807 1.878 1.8 1.878h2.008l10.79-11.27h-12.798z" fill="#7CD5FB"/></g><path d="M48.766 87.585c-11.582 0-20.972 2.78-20.972 6.206v4.655c0 3.43 9.393 6.206 20.972 6.206 11.58 0 20.972-2.776 20.972-6.205V93.79c0-3.426-9.39-6.205-20.972-6.205" fill="#FACB1B"/><path d="M69.738 93.79c0 3.427-9.39 6.206-20.972 6.206s-20.972-2.78-20.972-6.205c0-3.425 9.39-6.204 20.972-6.204 11.583 0 20.972 2.78 20.972 6.206" fill="#CFD3D4"/><path d="M50.264 81.4c-1.317.02-1.677.02-2.996 0-6.328-.128-14.447-1.276-17.976-3.898v18.615c3.873 2.878 12.786 3.793 17.976 3.897.495.008.996.016 1.498.016s1.004-.008 1.498-.016c6.33-.126 14.448-1.275 17.976-3.897V77.502c-3.873 2.877-12.786 3.793-17.976 3.897" fill="#DF2C2C"/><path d="M57.754 80.783V99.4c-.958.13-1.962.247-2.996.34V81.124c1.034-.093 2.038-.21 2.996-.34M65.244 79.014V97.63c-.89.334-1.895.644-2.996.908V79.922c1.1-.264 2.105-.574 2.996-.908" fill="#fff"/><path d="M27.794 93.79v4.654c0 3.43 9.393 6.206 20.972 6.206V87.585c-11.582 0-20.972 2.78-20.972 6.206" fill="#FBE158"/><path d="M47.268 81.365c-6.328-.128-14.447-1.276-17.976-3.897v18.615c3.873 2.878 12.786 3.793 17.976 3.897.495.008.996.016 1.498.016V81.38c-.42 0-.84-.005-1.498-.015" fill="#FA5655"/><path d="M48.766 64.316c-11.582 0-20.972 2.778-20.972 6.205v4.656c0 3.428 9.393 6.205 20.972 6.205 11.58 0 20.972-2.776 20.972-6.204V70.52c0-3.426-9.39-6.204-20.972-6.204" fill="#FACB1B"/><path d="M69.738 70.52c0 .536-.232 1.056-.66 1.552-2.328 2.676-10.545 4.654-20.312 4.654-9.767 0-17.983-1.978-20.313-4.654-.427-.496-.66-1.016-.66-1.55 0-3.43 9.394-6.206 20.973-6.206 11.58 0 20.972 2.777 20.972 6.205" fill="#F3B606"/><path d="M69.08 72.072c-2.33 2.676-10.547 4.654-20.314 4.654s-17.983-1.978-20.313-4.654c2.33-2.676 10.546-4.654 20.313-4.654s17.984 1.978 20.313 4.654" fill="#F0F1F1"/><path d="M52.42 70.14c-.49.394-.577 1.125-.196 1.633.38.507 1.086.6 1.576.205L72.3 57.09c.49-.394.58-1.125.198-1.632-.38-.508-1.086-.6-1.576-.205l-18.5 14.887z" fill="#84462D"/><path d="M27.794 70.52v4.655c0 3.428 9.393 6.205 20.972 6.205V64.316c-11.582 0-20.972 2.778-20.972 6.205" fill="#FBE158"/><path d="M27.794 70.52c0 .536.232 1.056.66 1.552 2.33 2.676 10.545 4.654 20.312 4.654v-12.41c-8.294 0-20.972 1.95-20.972 6.205" fill="#FACB1B"/><path d="M28.453 72.072c2.33 2.676 10.546 4.654 20.313 4.654v-9.308c-9.767 0-17.984 1.978-20.313 4.654" fill="#fff"/><path d="M45.11 70.14c.49.394.58 1.125.2 1.633-.382.507-1.088.6-1.578.205l-18.5-14.888c-.49-.394-.578-1.125-.197-1.632.38-.508 1.086-.6 1.576-.205l18.5 14.887z" fill="#84462D"/><path d="M35.284 79.922v18.616c-1.1-.264-2.105-.574-2.996-.908V79.014c.89.334 1.895.644 2.996.908M42.774 81.124V99.74c-1.033-.093-2.037-.21-2.996-.342V80.783c.96.132 1.963.248 2.996.34M50.264 81.365V99.98c-.494.008-.996.016-1.498.016s-1.003-.008-1.498-.016V81.365c.495.007.996.015 1.498.015s1.004-.008 1.498-.015" fill="#fff"/></g></svg>