<?xml version="1.0" encoding="UTF-8" standalone="no"?>
<svg width="320px" height="161px" viewBox="0 0 320 161" version="1.1" xmlns="http://www.w3.org/2000/svg" xmlns:xlink="http://www.w3.org/1999/xlink" xmlns:sketch="http://www.bohemiancoding.com/sketch/ns">
    <!-- Generator: Sketch 3.2.2 (9983) - http://www.bohemiancoding.com/sketch -->
    <title>instruments</title>
    <desc>Created with Sketch.</desc>
    <defs></defs>
    <g id="Main" stroke="none" stroke-width="1" fill="none" fill-rule="evenodd" sketch:type="MSPage">
        <g id="Profile-5" sketch:type="MSArtboardGroup" transform="translate(0.000000, -92.000000)">
            <g id="Tile-1" sketch:type="MSLayerGroup" transform="translate(0.000000, 81.000000)">
                <g id="instruments" transform="translate(0.000000, 11.000000)" sketch:type="MSShapeGroup">
                    <rect id="Rectangle-264" fill="#97CC3B" x="0" y="0" width="320.655738" height="161"></rect>
                    <g id="Group" transform="translate(269.618879, 81.060038) scale(-1, 1) rotate(-45.000000) translate(-269.618879, -81.060038) translate(229.536912, 41.480871)">
                        <path d="M54.4887699,25.3798573 C51.7412726,22.6220757 39.8542919,11.070241 33.4279006,25.5896214 C26.4768308,41.2947862 14.2212234,32.4785227 6.40142337,40.3311051 C-6.63075749,53.4191537 9.16366573,67.5350467 10.8691784,69.2477092 C12.574691,70.9603717 26.4768308,86.6655366 39.5090116,73.5787218 C47.3288116,65.7249055 38.6402815,53.5104628 54.2798815,46.5302525 C68.7398762,40.0769203 57.2362672,28.1388727 54.4887699,25.3798573 Z" id="Fill-1940" fill="#9C6144"></path>
                        <path d="M54.5121163,25.4041652 C54.5047437,25.3967618 54.4961425,25.3881245 54.4887699,25.380721 C51.7412726,22.6217056 39.8542919,11.0698708 33.4279006,25.5904852 C26.4768308,41.2944161 14.2212234,32.4793864 6.40265212,40.3319688 C-6.61355491,53.4015089 9.11820178,67.4939576 10.8605771,69.2387017 L54.5121163,25.4041652 Z" id="Fill-1941" fill="#AF7653"></path>
                        <path d="M69.2919561,17.4951933 C68.8864668,17.3878434 68.4994088,17.1842488 68.1823899,16.864667 L62.9687803,11.6304346 C62.6505326,11.3108528 62.4477879,10.9234061 62.3408862,10.5149829 L41.8907084,31.0521265 C39.2169364,30.5746046 36.3625374,31.3680066 34.2969994,33.4422038 C30.9375818,36.8157048 30.9375818,42.2843794 34.2969994,45.6578804 C37.6551882,49.0313814 43.1010326,49.0313814 46.4604501,45.6578804 C48.5259881,43.5836832 49.3160779,40.716084 48.8405495,38.0323368 L69.2919561,17.4951933 Z" id="Fill-1942" fill="#84462D"></path>
                        <path d="M29.9519971,65.7253991 C29.4715537,66.2066227 28.6937514,66.2066227 28.2145368,65.7253991 L14.312397,51.7649784 C13.8331824,51.2837547 13.8331824,50.5026918 14.312397,50.0202343 L16.0498573,48.2754901 C16.5303007,47.7930326 17.3081029,47.7930326 17.7885464,48.2754901 L31.6894573,62.2346769 C32.1699007,62.7171345 32.1699007,63.4981974 31.6894573,63.980655 L29.9519971,65.7253991 Z" id="Fill-1943" fill="#EDBC7C"></path>
                        <path d="M46.4603272,45.6575102 C43.1009097,49.0310112 37.6550653,49.0310112 34.2968765,45.6575102 C30.937459,42.2840093 30.937459,36.8153346 34.2968765,33.4430676 C37.6550653,30.0695666 43.1009097,30.0695666 46.4603272,33.4430676 C49.8197448,36.8153346 49.8197448,42.2840093 46.4603272,45.6575102" id="Fill-1944" fill="#3E3E3F"></path>
                        <path d="M66.8802777,15.5575896 C66.8765914,15.5612913 66.8729051,15.5612913 66.8692189,15.564993 L25.1652571,59.1909992 C24.9305648,59.4365467 24.9379374,59.8264612 25.1824597,60.0633713 C25.4269821,60.2990475 25.8164975,60.2904101 26.0511898,60.0448627 L67.747779,16.4287277 L66.8802777,15.5575896 Z" id="Fill-1945" fill="#FCF1E2"></path>
                        <path d="M65.1409742,13.8116115 L22.5670536,56.5640118 C22.3262175,56.8046236 22.3262175,57.195772 22.5670536,57.4363839 C22.8066609,57.6769957 23.1961764,57.6769957 23.4357838,57.4363839 L66.0097044,14.6839836 L65.1409742,13.8116115 Z" id="Fill-1946" fill="#FCF1E2"></path>
                        <path d="M63.4027767,12.0655101 L19.969956,53.9381349 C19.7242049,54.1738111 19.7168324,54.5637256 19.9515247,54.8105069 C20.186217,55.0560544 20.5757325,55.0634578 20.8202548,54.8277816 L64.2629056,12.9477535 C64.2653631,12.9440517 64.2665918,12.9391161 64.2702781,12.9366483 L63.4027767,12.0655101 Z" id="Fill-1947" fill="#FCF1E2"></path>
                        <path d="M69.9194815,1.1601191 C70.8791396,0.196437951 72.434744,0.196437951 73.3944021,1.1601191 L78.6080117,6.39435144 C79.5676697,7.35803259 79.5676697,8.92139241 78.6080117,9.88507356 L71.6569418,16.8652839 C70.6972837,17.8289651 69.1416793,17.8289651 68.1820212,16.8652839 L62.9684116,11.6298177 C62.0087536,10.6661365 62.0087536,9.10401061 62.9684116,8.14032945 L69.9194815,1.1601191 Z" id="Fill-1948" fill="#9C6144"></path>
                        <path d="M74.5711812,17.4289325 C73.9211696,18.0816692 73.0057467,18.2198667 72.5265321,17.7374092 L70.7890718,15.9926651 C70.3086284,15.5102075 70.446249,14.590947 71.0962607,13.9394443 C71.7450436,13.2867076 72.6604664,13.1485101 73.1409098,13.6309676 L74.8783701,15.3757117 C75.3575847,15.8569353 75.2211929,16.7761958 74.5711812,17.4289325" id="Fill-1949" fill="#FBED9A"></path>
                        <path d="M79.1696758,12.8107898 C78.5208929,13.4635265 77.6054701,13.601724 77.1250267,13.1192665 L75.3875664,11.3745224 C74.907123,10.8920648 75.0447436,9.97280433 75.6947552,9.32130158 C76.3435382,8.66856492 77.258961,8.53036737 77.7394044,9.0128249 L79.4768647,10.757569 C79.9573081,11.2400265 79.8196875,12.1580531 79.1696758,12.8107898" id="Fill-1950" fill="#FBED9A"></path>
                        <path d="M73.3951393,1.15974893 C72.4354813,0.196067779 70.8798768,0.196067779 69.91899,1.15974893 L62.9691489,8.13995928 C62.0094908,9.10364044 62.0094908,10.6670003 62.9691489,11.6294475 L65.5986857,14.2700079 L76.0246761,3.80154323 L73.3951393,1.15974893 Z" id="Fill-1951" fill="#AF7653"></path>
                        <path d="M65.8825282,8.70397805 C65.2325165,9.3567147 64.3170937,9.49491226 63.837879,9.01245473 L62.09919,7.26771062 C61.6199754,6.78525309 61.757596,5.86599258 62.4063789,5.21448982 C63.0563905,4.56175317 63.9718134,4.42355561 64.4522568,4.90601314 L66.1897171,6.65075725 C66.6689317,7.13198088 66.5325398,8.05124139 65.8825282,8.70397805" id="Fill-1952" fill="#FBED9A"></path>
                        <path d="M70.4813914,4.08583534 C69.8313797,4.738572 68.9159569,4.87676955 68.4367423,4.39431202 L66.699282,2.64956791 C66.2188386,2.16711038 66.3564592,1.24784987 67.0064708,0.596347121 C67.6552538,-0.0563895374 68.5706766,-0.194587091 69.05112,0.287870439 L70.7885803,2.03261455 C71.2677949,2.51383817 71.1314031,3.43309868 70.4813914,4.08583534" id="Fill-1953" fill="#FBED9A"></path>
                    </g>
                    <g id="Group" transform="translate(105.549180, 52.325000)">
                        <path d="M51.2537646,21.6008333 L0.899188853,21.6008333 L0.899188853,2.8175 C0.899188853,1.78066 1.70486206,0.939166667 2.69756656,0.939166667 L51.9839165,0.931829427 L51.2537646,21.6008333 Z" id="Fill-1868" fill="#88543F"></path>
                        <rect id="Rectangle-446" fill="#87543F" x="50.3545757" y="0.939166667" width="59.3464643" height="20.6616667"></rect>
                        <path d="M1.01158746,53.2972498 L109.70104,52.9450623 L109.235642,54.7073726 C108.996066,55.6145707 108.032021,56.35 107.099477,56.35 L3.50075168,56.35 C2.56055649,56.35 1.60791773,55.6110143 1.37274406,54.6985392 L1.01158746,53.2972498 Z" id="Rectangle-447" fill="#D4D4D4"></path>
                        <rect id="Rectangle-448" fill="#E3EAEE" x="0.899188853" y="21.6008333" width="108.801851" height="33.81"></rect>
                        <path d="M20.8916639,21.6008333 L40.6738186,0.939166667 L2.69747664,0.939166667 C1.70477215,0.939166667 0.899098934,1.78066 0.899098934,2.8175 L0.899098934,21.6008333 L20.8916639,21.6008333 Z" id="Fill-1869" fill="#9C6C54"></path>
                        <path d="M33.2699875,14.0875 C33.2699875,15.12434 32.4643143,15.9658333 31.4716098,15.9658333 L17.0845882,15.9658333 C16.0918837,15.9658333 15.2862105,15.12434 15.2862105,14.0875 L15.2862105,6.57416667 C15.2862105,5.53732667 16.0918837,4.69583333 17.0845882,4.69583333 L31.4716098,4.69583333 C32.4643143,4.69583333 33.2699875,5.53732667 33.2699875,6.57416667 L33.2699875,14.0875 Z" id="Fill-1871" fill="#4BC6FA"></path>
                        <path d="M38.6651207,8.4525 C37.6724162,8.4525 36.866743,7.61100667 36.866743,6.57416667 C36.866743,5.53732667 37.6724162,4.69583333 38.6651207,4.69583333 C39.6578252,4.69583333 40.4634984,5.53732667 40.4634984,6.57416667 C40.4634984,7.61100667 39.6578252,8.4525 38.6651207,8.4525 Z" id="Fill-1872" fill="#F0F1F1"></path>
                        <path d="M40.4634984,14.0875 C40.4634984,15.12434 39.6578252,15.9658333 38.6651207,15.9658333 C37.6724162,15.9658333 36.866743,15.12434 36.866743,14.0875 C36.866743,13.05066 37.6724162,12.2091667 38.6651207,12.2091667 C39.6578252,12.2091667 40.4634984,13.05066 40.4634984,14.0875" id="Fill-1873" fill="#F0F1F1"></path>
                        <path d="M11.6894551,7.51333333 C11.6894551,8.03175333 11.2866185,8.4525 10.7902662,8.4525 L5.39513312,8.4525 C4.89878087,8.4525 4.49594426,8.03175333 4.49594426,7.51333333 L4.49594426,5.635 C4.49594426,5.11658 4.89878087,4.69583333 5.39513312,4.69583333 L10.7902662,4.69583333 C11.2866185,4.69583333 11.6894551,5.11658 11.6894551,5.635 L11.6894551,7.51333333 Z" id="Fill-1874" fill="#FFFFFF"></path>
                        <path d="M11.6894551,15.0266667 C11.6894551,15.5450867 11.2866185,15.9658333 10.7902662,15.9658333 L5.39513312,15.9658333 C4.89878087,15.9658333 4.49594426,15.5450867 4.49594426,15.0266667 L4.49594426,13.1483333 C4.49594426,12.6299133 4.89878087,12.2091667 5.39513312,12.2091667 L10.7902662,12.2091667 C11.2866185,12.2091667 11.6894551,12.6299133 11.6894551,13.1483333 L11.6894551,15.0266667 Z" id="Fill-1875" fill="#FFFFFF"></path>
                        <path d="M43.1604355,21.6003637 L37.7653024,21.6003637 L37.7653024,46.0186971 L39.5645793,46.0186971 L39.5645793,55.4103637 L41.362957,55.4103637 L41.362957,46.0186971 L43.1604355,46.0186971 L43.1604355,21.6003637 Z" id="Fill-1878" fill="#3E3E3F"></path>
                        <path d="M28.7731441,21.6003637 L23.378011,21.6003637 L23.378011,46.0186971 L25.1772879,46.0186971 L25.1772879,55.4103637 L26.9756656,55.4103637 L26.9756656,46.0186971 L28.7731441,46.0186971 L28.7731441,21.6003637 Z" id="Fill-1879" fill="#3E3E3F"></path>
                        <path d="M14.3861225,21.6003637 L8.99098934,21.6003637 L8.99098934,46.0186971 L10.7902662,46.0186971 L10.7902662,55.4103637 L12.5886439,55.4103637 L12.5886439,46.0186971 L14.3861225,46.0186971 L14.3861225,21.6003637 Z" id="Fill-1880" fill="#3E3E3F"></path>
                        <path d="M72.8336676,21.6003637 L67.4385345,21.6003637 L67.4385345,46.0186971 L69.2378114,46.0186971 L69.2378114,55.4103637 L71.0361891,55.4103637 L71.0361891,46.0186971 L72.8336676,46.0186971 L72.8336676,21.6003637 Z" id="Fill-1884" fill="#3E3E3F"></path>
                        <path d="M87.2206893,21.6003637 L81.8255562,21.6003637 L81.8255562,46.0186971 L83.624833,46.0186971 L83.624833,55.4103637 L85.4232108,55.4103637 L85.4232108,46.0186971 L87.2206893,46.0186971 L87.2206893,21.6003637 Z" id="Fill-1885" fill="#3E3E3F"></path>
                        <path d="M101.607711,21.6003637 L96.2125778,21.6003637 L96.2125778,46.0186971 L98.0118547,46.0186971 L98.0118547,55.4103637 L99.8102324,55.4103637 L99.8102324,46.0186971 L101.607711,46.0186971 L101.607711,21.6003637 Z" id="Fill-1886" fill="#3E3E3F"></path>
                        <path d="M58.4463762,21.6003637 L53.0512431,21.6003637 L53.0512431,46.0186971 L54.85052,46.0186971 L54.85052,55.4103637 L56.6488977,55.4103637 L56.6488977,46.0186971 L58.4463762,46.0186971 L58.4463762,21.6003637 Z" id="Fill-1883" fill="#3E3E3F"></path>
                        <path d="M17.0845882,4.69583333 C16.0918837,4.69583333 15.2862105,5.53732667 15.2862105,6.57416667 L15.2862105,14.0875 C15.2862105,15.12434 16.0918837,15.9658333 17.0845882,15.9658333 L19.0933761,15.9658333 L29.8836423,4.69583333 L17.0845882,4.69583333 Z" id="Fill-1881" fill="#7CD5FB"></path>
                    </g>
                    <g id="Group" transform="translate(24.049180, 55.008333)">
                        <path d="M24.7172131,32.5773437 C13.1345772,32.5773437 3.74503229,35.3557258 3.74503229,38.7825521 L3.74503229,43.4364583 C3.74503229,46.8648359 13.1375733,49.6416667 24.7172131,49.6416667 C36.296853,49.6416667 45.6893939,46.8648359 45.6893939,43.4364583 L45.6893939,38.7825521 C45.6893939,35.3557258 36.299849,32.5773437 24.7172131,32.5773437" id="Fill-1954" fill="#FACB1B"></path>
                        <path d="M45.6893939,38.7825521 C45.6893939,42.2093784 36.299849,44.9877604 24.7172131,44.9877604 C13.1345772,44.9877604 3.74503229,42.2093784 3.74503229,38.7825521 C3.74503229,35.3557258 13.1345772,32.5773437 24.7172131,32.5773437 C36.299849,32.5773437 45.6893939,35.3557258 45.6893939,38.7825521" id="Fill-1955" fill="#CFD3D4"></path>
                        <path d="M26.215226,26.3906735 C24.8977237,26.4116161 24.5382006,26.4116161 23.2192002,26.3906735 C16.8908446,26.2642424 8.77161463,25.1155032 5.24304521,22.4938026 L5.24304521,41.1094276 C9.1161576,43.987093 18.0293345,44.9023612 23.2192002,45.0062985 C23.7135445,45.014055 24.2153788,45.0218115 24.7172131,45.0218115 C25.2190474,45.0218115 25.7208818,45.014055 26.215226,45.0062985 C32.5435816,44.8798674 40.6628116,43.7311282 44.191381,41.1094276 L44.191381,22.4938026 C40.3182686,25.371468 31.4050918,26.2867362 26.215226,26.3906735" id="Fill-1956" fill="#DF2C2C"></path>
                        <path d="M33.7052906,25.7748841 L33.7052906,44.3905091 C32.7465623,44.5223698 31.7428937,44.6387174 30.7092648,44.7317956 L30.7092648,26.1161706 C31.7428937,26.0230924 32.7465623,25.9067448 33.7052906,25.7748841" id="Fill-1957" fill="#FFFFFF"></path>
                        <path d="M41.1953552,24.0063997 L41.1953552,42.6220247 C40.3040375,42.9555547 39.3003689,43.2658151 38.1993294,43.5295365 L38.1993294,24.9139115 C39.3003689,24.6501901 40.3040375,24.3399297 41.1953552,24.0063997" id="Fill-1958" fill="#FFFFFF"></path>
                        <path d="M3.74503229,38.7825521 L3.74503229,43.4364583 C3.74503229,46.8648359 13.1375733,49.6416667 24.7172131,49.6416667 L24.7172131,32.5773437 C13.1345772,32.5773437 3.74503229,35.3557258 3.74503229,38.7825521" id="Fill-1959" fill="#FBE158"></path>
                        <path d="M23.2192002,26.3566224 C16.8908446,26.2294156 8.77161463,25.0814521 5.24304521,22.4597516 L5.24304521,41.0753766 C9.1161576,43.9530419 18.0293345,44.8683102 23.2192002,44.9722474 C23.7135445,44.9800039 24.2153788,44.9877604 24.7172131,44.9877604 L24.7172131,26.3721354 C24.2977695,26.3721354 23.8783259,26.3667059 23.2192002,26.3566224" id="Fill-1960" fill="#FA5655"></path>
                        <path d="M24.7172131,9.3078125 C13.1345772,9.3078125 3.74503229,12.0861945 3.74503229,15.5130208 L3.74503229,20.1669271 C3.74503229,23.5953047 13.1375733,26.3721354 24.7172131,26.3721354 C36.296853,26.3721354 45.6893939,23.5953047 45.6893939,20.1669271 L45.6893939,15.5130208 C45.6893939,12.0861945 36.299849,9.3078125 24.7172131,9.3078125" id="Fill-1961" fill="#FACB1B"></path>
                        <path d="M45.6893939,15.5130208 C45.6893939,16.0482201 45.4572019,16.5679063 45.0302683,17.0643229 C42.7008582,19.740319 34.4842573,21.7182292 24.7172131,21.7182292 C14.9501689,21.7182292 6.73356806,19.740319 4.40415797,17.0643229 C3.97722429,16.5679063 3.74503229,16.0482201 3.74503229,15.5130208 C3.74503229,12.0846432 13.1375733,9.3078125 24.7172131,9.3078125 C36.296853,9.3078125 45.6893939,12.0846432 45.6893939,15.5130208" id="Fill-1962" fill="#F3B606"></path>
                        <path d="M45.0303432,17.0643229 C42.7009331,19.740319 34.4843322,21.7182292 24.717288,21.7182292 C14.9502438,21.7182292 6.73364296,19.740319 4.40423287,17.0643229 C6.73364296,14.3883268 14.9502438,12.4104167 24.717288,12.4104167 C34.4843322,12.4104167 42.7009331,14.3883268 45.0303432,17.0643229" id="Fill-1963" fill="#F0F1F1"></path>
                        <path d="M28.3722897,15.132021 C27.8824395,15.5260518 27.7940567,16.2574907 28.174552,16.7647665 C28.5550473,17.2720423 29.2613604,17.3635691 29.7512106,16.9695384 L48.2516701,2.08246792 C48.7415204,1.68766154 48.8299031,0.956998255 48.4486588,0.449722474 C48.0681635,-0.0575533073 47.3625995,-0.14908013 46.8727492,0.244950599 L28.3722897,15.132021 Z" id="Fill-1964" fill="#84462D"></path>
                        <path d="M3.74503229,15.5130208 L3.74503229,20.1669271 C3.74503229,23.5953047 13.1375733,26.3721354 24.7172131,26.3721354 L24.7172131,9.3078125 C13.1345772,9.3078125 3.74503229,12.0861945 3.74503229,15.5130208" id="Fill-1965" fill="#FBE158"></path>
                        <path d="M3.74503229,15.5130208 C3.74503229,16.0482201 3.97722429,16.5679063 4.40415797,17.0643229 C6.73356806,19.740319 14.9501689,21.7182292 24.7172131,21.7182292 L24.7172131,9.3078125 C16.4234646,9.3078125 3.74503229,11.2593505 3.74503229,15.5130208" id="Fill-1966" fill="#FACB1B"></path>
                        <path d="M4.40408307,17.0643229 C6.73349316,19.740319 14.950094,21.7182292 24.7171382,21.7182292 L24.7171382,12.4104167 C14.950094,12.4104167 6.73349316,14.3883268 4.40408307,17.0643229" id="Fill-1967" fill="#FFFFFF"></path>
                        <path d="M21.0621365,15.132021 C21.5519867,15.5260518 21.6403695,16.2574907 21.2598742,16.7647665 C20.8793789,17.2720423 20.1730658,17.3635691 19.6832156,16.9695384 L1.1827561,2.08246792 C0.692905874,1.68766154 0.604523112,0.956998255 0.985767399,0.449722474 C1.36626268,-0.0575533073 2.07182676,-0.14908013 2.56167699,0.244950599 L21.0621365,15.132021 Z" id="Fill-1968" fill="#84462D"></path>
                        <path d="M11.2350969,24.913989 L11.2350969,43.529614 C10.1340574,43.2658927 9.13038872,42.9556323 8.23907104,42.6221023 L8.23907104,24.0064773 C9.13038872,24.3400073 10.1340574,24.6502677 11.2350969,24.913989" id="Fill-1969" fill="#FFFFFF"></path>
                        <path d="M18.7251615,26.116093 L18.7251615,44.731718 C17.6915325,44.6386399 16.6878639,44.5222922 15.7291356,44.3904315 L15.7291356,25.7748065 C16.6878639,25.9066672 17.6915325,26.0230149 18.7251615,26.116093" id="Fill-1970" fill="#FFFFFF"></path>
                        <path d="M26.215226,26.3566224 L26.215226,44.9722474 C25.7208818,44.9800039 25.2190474,44.9877604 24.7172131,44.9877604 C24.2153788,44.9877604 23.7135445,44.9800039 23.2192002,44.9722474 L23.2192002,26.3566224 C23.7135445,26.3643789 24.2153788,26.3721354 24.7172131,26.3721354 C25.2190474,26.3721354 25.7208818,26.3643789 26.215226,26.3566224" id="Fill-1971" fill="#FFFFFF"></path>
                    </g>
                </g>
            </g>
        </g>
    </g>
</svg>