<?xml version="1.0" encoding="UTF-8" standalone="no"?>
<svg width="240px" height="120px" viewBox="0 0 240 120" version="1.1" xmlns="http://www.w3.org/2000/svg" xmlns:xlink="http://www.w3.org/1999/xlink" xmlns:sketch="http://www.bohemiancoding.com/sketch/ns">
    <!-- Generator: Sketch 3.2.2 (9983) - http://www.bohemiancoding.com/sketch -->
    <title>survey-illustration</title>
    <desc>Created with Sketch.</desc>
    <defs></defs>
    <g id="Main" stroke="none" stroke-width="1" fill="none" fill-rule="evenodd" sketch:type="MSPage">
        <g id="Profile-4" sketch:type="MSArtboardGroup" transform="translate(-21.000000, -148.000000)">
            <g id="survey-illustration" sketch:type="MSLayerGroup" transform="translate(21.000000, 148.000000)">
                <rect id="Rectangle-307" fill="#64A8EE" sketch:type="MSShapeGroup" x="0" y="0" width="240" height="120"></rect>
                <g id="Group" transform="translate(88.000000, 28.000000)" sketch:type="MSShapeGroup">
                    <path d="M0,3.8401 C0,1.7191 1.719,9.99999997e-05 3.84,9.99999997e-05 L32,9.99999997e-05 L48,13.4401 L48,60.1601 C48,62.2811 46.281,64.0001 44.16,64.0001 L3.84,64.0001 C1.719,64.0001 0,62.2811 0,60.1601 L0,3.8401 Z" id="Fill-2700" fill="#FFFFFF"></path>
                    <path d="M32,0 L32,9.6 C32,11.721 33.719,13.44 35.84,13.44 L48,13.44 L32,0 Z" id="Fill-2701" fill="#F0F1F1"></path>
                    <path d="M54,18.5 L59,8 L64,18.5 L64,57 L54,57 L54,18.5 Z" id="Fill-2702" fill="#F4D0A1"></path>
                    <path d="M64,24 L64,18.5 L59,8 L59,24 L64,24 Z" id="Fill-2703" fill="#EDBC7C"></path>
                    <path d="M64,61 C64,62.657 62.657,64 61,64 L57,64 C55.343,64 54,62.657 54,61 L54,59 L64,59 L64,61 Z" id="Fill-2704" fill="#F89392"></path>
                    <path d="M39,22 C39,22.55 38.55,23 38,23 L23,23 C22.45,23 22,22.55 22,22 C22,21.45 22.45,21 23,21 L38,21 C38.55,21 39,21.45 39,22" id="Fill-2705" fill="#E2E4E5"></path>
                    <path d="M33,27 C33,27.55 32.55,28 32,28 L23,28 C22.45,28 22,27.55 22,27 C22,26.45 22.45,26 23,26 L32,26 C32.55,26 33,26.45 33,27" id="Fill-2706" fill="#E2E4E5"></path>
                    <path d="M39,35 C39,35.55 38.55,36 38,36 L23,36 C22.45,36 22,35.55 22,35 C22,34.45 22.45,34 23,34 L38,34 C38.55,34 39,34.45 39,35" id="Fill-2707" fill="#E2E4E5"></path>
                    <path d="M33,40 C33,40.55 32.55,41 32,41 L23,41 C22.45,41 22,40.55 22,40 C22,39.45 22.45,39 23,39 L32,39 C32.55,39 33,39.45 33,40" id="Fill-2708" fill="#E2E4E5"></path>
                    <path d="M39,48 C39,48.55 38.55,49 38,49 L23,49 C22.45,49 22,48.55 22,48 C22,47.45 22.45,47 23,47 L38,47 C38.55,47 39,47.45 39,48" id="Fill-2709" fill="#E2E4E5"></path>
                    <path d="M33,53 C33,53.55 32.55,54 32,54 L23,54 C22.45,54 22,53.55 22,53 C22,52.45 22.45,52 23,52 L32,52 C32.55,52 33,52.45 33,53" id="Fill-2710" fill="#E2E4E5"></path>
                    <path d="M12.0673,29 L8.2923,25.226 C7.9023,24.835 7.9023,24.202 8.2923,23.812 C8.6833,23.421 9.3163,23.421 9.7073,23.812 L11.9333,26.037 L16.2313,20.878 C16.5853,20.454 17.2163,20.397 17.6403,20.75 C18.0643,21.104 18.1223,21.734 17.7683,22.159 L12.0673,29 Z" id="Fill-2711" fill="#64A8EE"></path>
                    <path d="M12.0673,42 L8.2923,38.226 C7.9023,37.835 7.9023,37.202 8.2923,36.812 C8.6833,36.421 9.3163,36.421 9.7073,36.812 L11.9333,39.037 L16.2313,33.878 C16.5853,33.454 17.2163,33.397 17.6403,33.75 C18.0643,34.104 18.1223,34.734 17.7683,35.159 L12.0673,42 Z" id="Fill-2712" fill="#64A8EE"></path>
                    <path d="M12.0673,55 L8.2923,51.226 C7.9023,50.835 7.9023,50.202 8.2923,49.812 C8.6833,49.421 9.3163,49.421 9.7073,49.812 L11.9333,52.037 L16.2313,46.878 C16.5853,46.454 17.2163,46.397 17.6403,46.75 C18.0643,47.104 18.1223,47.734 17.7683,48.159 L12.0673,55 Z" id="Fill-2713" fill="#64A8EE"></path>
                    <path d="M64,59 L54,59 L54,56 L64,56 L64,59 Z" id="Fill-2714" fill="#FACB1B"></path>
                    <path d="M59,59 L54,59 L54,57 L59,57 L59,59 Z" id="Fill-2715" fill="#FBE158"></path>
                    <path d="M59.0132,7.9844 L57.1562,11.8834 C57.6682,12.5624 58.3082,12.9844 59.0132,12.9844 C59.7182,12.9844 60.3582,12.5624 60.8702,11.8834 L59.0132,7.9844 Z" id="Fill-2716" fill="#3E3E3F"></path>
                    <path d="M61.5,20 C60.346,20 59.374,19.218 59.087,18.155 C59.06,18.058 58.94,18.058 58.913,18.155 C58.626,19.218 57.654,20 56.5,20 C55.448,20 54.547,19.35 54.178,18.429 C54.139,18.332 54,18.359 54,18.463 L54,57 L64,57 L64,18.463 C64,18.359 63.861,18.332 63.822,18.429 C63.453,19.35 62.552,20 61.5,20" id="Fill-2717" fill="#0484AB"></path>
                    <path d="M54,57 L54,18.493 C54,18.382 54.147,18.354 54.19,18.457 C54.565,19.363 55.458,20 56.5,20 C57.659,20 58.634,19.211 58.917,18.141 C58.931,18.089 59,18.095 59,18.149 L59,57 L54,57 Z" id="Fill-2718" fill="#21B2D1"></path>
                    <path d="M54,59 L54,61 C54,62.657 55.343,64 57,64 L59,64 L59,59 L54,59 Z" id="Fill-2719" fill="#F8B4B4"></path>
                </g>
            </g>
        </g>
    </g>
</svg>