<svg width="240" height="120" viewBox="0 0 240 120" xmlns="http://www.w3.org/2000/svg"><title>survey-illustration</title><desc>Created with Sketch.</desc><g fill="none" fill-rule="evenodd"><g><g><path fill="#64A8EE" d="M0 0h240v120H0z"/><g><path d="M88 31.84c0-2.12 1.72-3.84 3.84-3.84H120l16 13.44v46.72c0 2.12-1.72 3.84-3.84 3.84H91.84C89.72 92 88 90.28 88 88.16V31.84z" fill="#fff"/><path d="M120 28v9.6c0 2.12 1.72 3.84 3.84 3.84H136L120 28z" fill="#F0F1F1"/><path d="M142 46.5l5-10.5 5 10.5V85h-10V46.5z" fill="#F4D0A1"/><path d="M152 52v-5.5L147 36v16h5z" fill="#EDBC7C"/><path d="M152 89c0 1.657-1.343 3-3 3h-4c-1.657 0-3-1.343-3-3v-2h10v2z" fill="#F89392"/><path d="M127 50c0 .55-.45 1-1 1h-15c-.55 0-1-.45-1-1s.45-1 1-1h15c.55 0 1 .45 1 1" fill="#E2E4E5"/><path d="M121 55c0 .55-.45 1-1 1h-9c-.55 0-1-.45-1-1s.45-1 1-1h9c.55 0 1 .45 1 1" fill="#E2E4E5"/><path d="M127 63c0 .55-.45 1-1 1h-15c-.55 0-1-.45-1-1s.45-1 1-1h15c.55 0 1 .45 1 1" fill="#E2E4E5"/><path d="M121 68c0 .55-.45 1-1 1h-9c-.55 0-1-.45-1-1s.45-1 1-1h9c.55 0 1 .45 1 1" fill="#E2E4E5"/><path d="M127 76c0 .55-.45 1-1 1h-15c-.55 0-1-.45-1-1s.45-1 1-1h15c.55 0 1 .45 1 1" fill="#E2E4E5"/><path d="M121 81c0 .55-.45 1-1 1h-9c-.55 0-1-.45-1-1s.45-1 1-1h9c.55 0 1 .45 1 1" fill="#E2E4E5"/><path d="M100.067 57l-3.775-3.774c-.39-.39-.39-1.024 0-1.414.39-.39 1.024-.39 1.415 0l2.226 2.225 4.298-5.16c.355-.423.986-.48 1.41-.127.424.354.482.984.128 1.41l-5.7 6.84z" fill="#64A8EE"/><path d="M100.067 70l-3.775-3.774c-.39-.39-.39-1.024 0-1.414.39-.39 1.024-.39 1.415 0l2.226 2.225 4.298-5.16c.355-.423.986-.48 1.41-.127.424.354.482.984.128 1.41l-5.7 6.84z" fill="#64A8EE"/><path d="M100.067 83l-3.775-3.774c-.39-.39-.39-1.024 0-1.414.39-.39 1.024-.39 1.415 0l2.226 2.225 4.298-5.16c.355-.423.986-.48 1.41-.127.424.354.482.984.128 1.41l-5.7 6.84z" fill="#64A8EE"/><path d="M152 87h-10v-3h10v3z" fill="#FACB1B"/><path d="M147 87h-5v-2h5v2z" fill="#FBE158"/><path d="M147.013 35.984l-1.857 3.9c.512.678 1.152 1.1 1.857 1.1.705 0 1.345-.422 1.857-1.1l-1.857-3.9z" fill="#3E3E3F"/><path d="M149.5 48c-1.154 0-2.126-.782-2.413-1.845-.027-.097-.147-.097-.174 0-.287 1.063-1.26 1.845-2.413 1.845-1.052 0-1.953-.65-2.322-1.57-.04-.098-.178-.07-.178.033V85h10V46.463c0-.104-.14-.13-.178-.034-.37.92-1.27 1.57-2.322 1.57" fill="#0484AB"/><path d="M142 85V46.493c0-.11.147-.14.19-.036.375.906 1.268 1.543 2.31 1.543 1.16 0 2.134-.79 2.417-1.86.014-.05.083-.045.083.01V85h-5z" fill="#21B2D1"/><path d="M142 87v2c0 1.657 1.343 3 3 3h2v-5h-5z" fill="#F8B4B4"/></g></g></g></g></svg>