<?xml version="1.0" encoding="UTF-8" standalone="no"?>
<svg width="320px" height="160px" viewBox="0 0 320 160" version="1.1" xmlns="http://www.w3.org/2000/svg" xmlns:xlink="http://www.w3.org/1999/xlink" xmlns:sketch="http://www.bohemiancoding.com/sketch/ns">
    <!-- Generator: Sketch 3.2.2 (9983) - http://www.bohemiancoding.com/sketch -->
    <title>survey-illustration</title>
    <desc>Created with Sketch.</desc>
    <defs></defs>
    <g id="Main" stroke="none" stroke-width="1" fill="none" fill-rule="evenodd" sketch:type="MSPage">
        <g id="Make-8" sketch:type="MSArtboardGroup" transform="translate(0.000000, -106.000000)">
            <g id="survey-illustration" sketch:type="MSLayerGroup" transform="translate(0.000000, 106.000000)">
                <rect id="Rectangle-307" fill="#78A3F0" sketch:type="MSShapeGroup" x="0" y="0" width="320" height="160"></rect>
                <g id="Group" transform="translate(117.333333, 37.333333)" sketch:type="MSShapeGroup">
                    <path d="M0,5.12013333 C0,2.29213333 2.292,0.000133333333 5.12,0.000133333333 L42.6666667,0.000133333333 L64,17.9201333 L64,80.2134667 C64,83.0414667 61.708,85.3334667 58.88,85.3334667 L5.12,85.3334667 C2.292,85.3334667 0,83.0414667 0,80.2134667 L0,5.12013333 Z" id="Fill-2700" fill="#FFFFFF"></path>
                    <path d="M42.6666667,0 L42.6666667,12.8 C42.6666667,15.628 44.9586667,17.92 47.7866667,17.92 L64,17.92 L42.6666667,0 Z" id="Fill-2701" fill="#F0F1F1"></path>
                    <path d="M72,24.6666667 L78.6666667,10.6666667 L85.3333333,24.6666667 L85.3333333,76 L72,76 L72,24.6666667 Z" id="Fill-2702" fill="#F4D0A1"></path>
                    <path d="M85.3333333,32 L85.3333333,24.6666667 L78.6666667,10.6666667 L78.6666667,32 L85.3333333,32 Z" id="Fill-2703" fill="#EDBC7C"></path>
                    <path d="M85.3333333,81.3333333 C85.3333333,83.5426667 83.5426667,85.3333333 81.3333333,85.3333333 L76,85.3333333 C73.7906667,85.3333333 72,83.5426667 72,81.3333333 L72,78.6666667 L85.3333333,78.6666667 L85.3333333,81.3333333 Z" id="Fill-2704" fill="#F89392"></path>
                    <path d="M52,29.3333333 C52,30.0666667 51.4,30.6666667 50.6666667,30.6666667 L30.6666667,30.6666667 C29.9333333,30.6666667 29.3333333,30.0666667 29.3333333,29.3333333 C29.3333333,28.6 29.9333333,28 30.6666667,28 L50.6666667,28 C51.4,28 52,28.6 52,29.3333333" id="Fill-2705" fill="#E2E4E5"></path>
                    <path d="M44,36 C44,36.7333333 43.4,37.3333333 42.6666667,37.3333333 L30.6666667,37.3333333 C29.9333333,37.3333333 29.3333333,36.7333333 29.3333333,36 C29.3333333,35.2666667 29.9333333,34.6666667 30.6666667,34.6666667 L42.6666667,34.6666667 C43.4,34.6666667 44,35.2666667 44,36" id="Fill-2706" fill="#E2E4E5"></path>
                    <path d="M52,46.6666667 C52,47.4 51.4,48 50.6666667,48 L30.6666667,48 C29.9333333,48 29.3333333,47.4 29.3333333,46.6666667 C29.3333333,45.9333333 29.9333333,45.3333333 30.6666667,45.3333333 L50.6666667,45.3333333 C51.4,45.3333333 52,45.9333333 52,46.6666667" id="Fill-2707" fill="#E2E4E5"></path>
                    <path d="M44,53.3333333 C44,54.0666667 43.4,54.6666667 42.6666667,54.6666667 L30.6666667,54.6666667 C29.9333333,54.6666667 29.3333333,54.0666667 29.3333333,53.3333333 C29.3333333,52.6 29.9333333,52 30.6666667,52 L42.6666667,52 C43.4,52 44,52.6 44,53.3333333" id="Fill-2708" fill="#E2E4E5"></path>
                    <path d="M52,64 C52,64.7333333 51.4,65.3333333 50.6666667,65.3333333 L30.6666667,65.3333333 C29.9333333,65.3333333 29.3333333,64.7333333 29.3333333,64 C29.3333333,63.2666667 29.9333333,62.6666667 30.6666667,62.6666667 L50.6666667,62.6666667 C51.4,62.6666667 52,63.2666667 52,64" id="Fill-2709" fill="#E2E4E5"></path>
                    <path d="M44,70.6666667 C44,71.4 43.4,72 42.6666667,72 L30.6666667,72 C29.9333333,72 29.3333333,71.4 29.3333333,70.6666667 C29.3333333,69.9333333 29.9333333,69.3333333 30.6666667,69.3333333 L42.6666667,69.3333333 C43.4,69.3333333 44,69.9333333 44,70.6666667" id="Fill-2710" fill="#E2E4E5"></path>
                    <path d="M16.0897333,38.6666667 L11.0564,33.6346667 C10.5364,33.1133333 10.5364,32.2693333 11.0564,31.7493333 C11.5777333,31.228 12.4217333,31.228 12.9430667,31.7493333 L15.9110667,34.716 L21.6417333,27.8373333 C22.1137333,27.272 22.9550667,27.196 23.5204,27.6666667 C24.0857333,28.1386667 24.1630667,28.9786667 23.6910667,29.5453333 L16.0897333,38.6666667 Z" id="Fill-2711" fill="#3FB58E"></path>
                    <path d="M16.0897333,56 L11.0564,50.968 C10.5364,50.4466667 10.5364,49.6026667 11.0564,49.0826667 C11.5777333,48.5613333 12.4217333,48.5613333 12.9430667,49.0826667 L15.9110667,52.0493333 L21.6417333,45.1706667 C22.1137333,44.6053333 22.9550667,44.5293333 23.5204,45 C24.0857333,45.472 24.1630667,46.312 23.6910667,46.8786667 L16.0897333,56 Z" id="Fill-2712" fill="#3FB58E"></path>
                    <path d="M16.0897333,73.3333333 L11.0564,68.3013333 C10.5364,67.78 10.5364,66.936 11.0564,66.416 C11.5777333,65.8946667 12.4217333,65.8946667 12.9430667,66.416 L15.9110667,69.3826667 L21.6417333,62.504 C22.1137333,61.9386667 22.9550667,61.8626667 23.5204,62.3333333 C24.0857333,62.8053333 24.1630667,63.6453333 23.6910667,64.212 L16.0897333,73.3333333 Z" id="Fill-2713" fill="#3FB58E"></path>
                    <path d="M85.3333333,78.6666667 L72,78.6666667 L72,74.6666667 L85.3333333,74.6666667 L85.3333333,78.6666667 Z" id="Fill-2714" fill="#FACB1B"></path>
                    <path d="M78.6666667,78.6666667 L72,78.6666667 L72,76 L78.6666667,76 L78.6666667,78.6666667 Z" id="Fill-2715" fill="#FBE158"></path>
                    <path d="M78.6842667,10.6458667 L76.2082667,15.8445333 C76.8909333,16.7498667 77.7442667,17.3125333 78.6842667,17.3125333 C79.6242667,17.3125333 80.4776,16.7498667 81.1602667,15.8445333 L78.6842667,10.6458667 Z" id="Fill-2716" fill="#3E3E3F"></path>
                    <path d="M82,26.6666667 C80.4613333,26.6666667 79.1653333,25.624 78.7826667,24.2066667 C78.7466667,24.0773333 78.5866667,24.0773333 78.5506667,24.2066667 C78.168,25.624 76.872,26.6666667 75.3333333,26.6666667 C73.9306667,26.6666667 72.7293333,25.8 72.2373333,24.572 C72.1853333,24.4426667 72,24.4786667 72,24.6173333 L72,76 L85.3333333,76 L85.3333333,24.6173333 C85.3333333,24.4786667 85.148,24.4426667 85.096,24.572 C84.604,25.8 83.4026667,26.6666667 82,26.6666667" id="Fill-2717" fill="#0484AB"></path>
                    <path d="M72,76 L72,24.6573333 C72,24.5093333 72.196,24.472 72.2533333,24.6093333 C72.7533333,25.8173333 73.944,26.6666667 75.3333333,26.6666667 C76.8786667,26.6666667 78.1786667,25.6146667 78.556,24.188 C78.5746667,24.1186667 78.6666667,24.1266667 78.6666667,24.1986667 L78.6666667,76 L72,76 Z" id="Fill-2718" fill="#21B2D1"></path>
                    <path d="M72,78.6666667 L72,81.3333333 C72,83.5426667 73.7906667,85.3333333 76,85.3333333 L78.6666667,85.3333333 L78.6666667,78.6666667 L72,78.6666667 Z" id="Fill-2719" fill="#F8B4B4"></path>
                </g>
            </g>
        </g>
    </g>
</svg>