<?xml version="1.0" encoding="UTF-8" standalone="no"?>
<svg width="240px" height="120px" viewBox="0 0 240 120" version="1.1" xmlns="http://www.w3.org/2000/svg" xmlns:xlink="http://www.w3.org/1999/xlink" xmlns:sketch="http://www.bohemiancoding.com/sketch/ns">
    <!-- Generator: Sketch 3.2.2 (9983) - http://www.bohemiancoding.com/sketch -->
    <title>shop</title>
    <desc>Created with Sketch.</desc>
    <defs></defs>
    <g id="Main" stroke="none" stroke-width="1" fill="none" fill-rule="evenodd" sketch:type="MSPage">
        <g id="Profile-6" sketch:type="MSArtboardGroup" transform="translate(-21.000000, -148.000000)">
            <g id="Tile-1" sketch:type="MSLayerGroup" transform="translate(10.000000, 137.000000)">
                <g id="shop" transform="translate(11.000000, 11.000000)" sketch:type="MSShapeGroup">
                    <g id="Group-2" fill="#60ABE1">
                        <rect id="Rectangle-264" x="0" y="0" width="240" height="120"></rect>
                    </g>
                    <rect id="Rectangle-345" fill="#439FE1" x="0" y="86" width="240" height="34"></rect>
                    <g id="Group" transform="translate(88.000000, 30.000000)">
                        <path d="M64,60 L0,60 L0,59.96 C0,57.773 1.773,56 3.96,56 L60.04,56 C62.227,56 64,57.773 64,59.96 L64,60 Z" id="Fill-4083" fill="#E2E4E5"></path>
                        <path d="M60,20 L4,20 L4,56 L60,56 L60,20 Z" id="Fill-4084" fill="#FFFFFF"></path>
                        <path d="M9.1431,20 C9.1431,22.209 7.0961,24 4.5711,24 C2.0471,24 0.0001,22.209 0.0001,20 L9.1431,20 Z" id="Fill-4085" fill="#DF2C2C"></path>
                        <path d="M18.2856,20 C18.2856,22.209 16.2386,24 13.7146,24 C11.1896,24 9.1426,22.209 9.1426,20 L18.2856,20 Z" id="Fill-4086" fill="#CFD3D4"></path>
                        <path d="M27.4287,20 C27.4287,22.209 25.3817,24 22.8567,24 C20.3327,24 18.2857,22.209 18.2857,20 L27.4287,20 Z" id="Fill-4087" fill="#DF2C2C"></path>
                        <path d="M36.5713,20 C36.5713,22.209 34.5253,24 32.0003,24 C29.4753,24 27.4283,22.209 27.4283,20 L36.5713,20 Z" id="Fill-4088" fill="#CFD3D4"></path>
                        <path d="M54.8569,20 C54.8569,22.209 52.8109,24 50.2859,24 C47.7609,24 45.7139,22.209 45.7139,20 L54.8569,20 Z" id="Fill-4089" fill="#CFD3D4"></path>
                        <path d="M45.7144,20 C45.7144,22.209 43.6674,24 41.1434,24 C38.6184,24 36.5714,22.209 36.5714,20 L45.7144,20 Z" id="Fill-4090" fill="#DF2C2C"></path>
                        <path d="M64,20 C64,22.209 61.953,24 59.429,24 C56.904,24 54.857,22.209 54.857,20 L64,20 Z" id="Fill-4091" fill="#DF2C2C"></path>
                        <path d="M0,20 L9.143,20 L17.143,0 L9.143,0 L0,20 Z" id="Fill-4092" fill="#FA5655"></path>
                        <path d="M9.1431,20 L18.2861,20 L24.0001,0 L17.1431,0 L9.1431,20 Z" id="Fill-4093" fill="#FFFFFF"></path>
                        <path d="M18.2856,20 L27.4286,20 L30.8566,0 L23.9996,0 L18.2856,20 Z" id="Fill-4094" fill="#FA5655"></path>
                        <path d="M27.4287,20 L36.5717,20 L36.5717,0 L30.8567,0 L27.4287,20 Z" id="Fill-4095" fill="#FFFFFF"></path>
                        <path d="M64,20 L54.857,20 L49.143,0 L56,0 L64,20 Z" id="Fill-4096" fill="#FA5655"></path>
                        <path d="M54.8569,20 L45.7139,20 L42.2859,0 L49.1429,0 L54.8569,20 Z" id="Fill-4097" fill="#FFFFFF"></path>
                        <path d="M45.7144,20 L36.5714,20 L36.5714,0 L42.2854,0 L45.7144,20 Z" id="Fill-4098" fill="#FA5655"></path>
                        <path d="M36,44 L8,44 L8,28 L36,28 L36,44 Z" id="Fill-4099" fill="#6FDAF1"></path>
                        <path d="M36,44 L8,44 L36,28 L36,44 Z" id="Fill-4100" fill="#40C9E7"></path>
                        <path d="M56,28 L42,28 L42,41 L56,41 L56,28 Z" id="Fill-4101" fill="#40C9E7"></path>
                        <path d="M56,44 L42,44 L42,56 L56,56 L56,44 Z" id="Fill-4102" fill="#40C9E7"></path>
                        <path d="M34.978,49 C35.238,45.742 31.573,43.375 27.571,43.375 C25.248,43.375 23.175,44.139 21.812,45.334 C21.193,44.152 20.166,43.375 19,43.375 C17.907,43.375 16.945,44.067 16.317,45.125 C15.541,43.207 13.71,41.857 11.571,41.857 C9.071,41.857 6.991,43.702 6.529,46.145 C6.17,45.835 5.745,45.652 5.286,45.652 C3.931,45.652 2.88,47.192 3.024,49 L34.978,49 Z" id="Fill-4103" fill="#0D9681"></path>
                        <path d="M35,56 L3,56 L3,49 L35,49 L35,56 Z" id="Fill-4104" fill="#9C6144"></path>
                        <path d="M35,51 L3,51 L3,49 L35,49 L35,51 Z" id="Fill-4105" fill="#AF7653"></path>
                    </g>
                </g>
            </g>
        </g>
    </g>
</svg>