<?xml version="1.0" encoding="UTF-8" standalone="no"?>
<svg width="240px" height="120px" viewBox="0 0 240 120" version="1.1" xmlns="http://www.w3.org/2000/svg" xmlns:xlink="http://www.w3.org/1999/xlink" xmlns:sketch="http://www.bohemiancoding.com/sketch/ns">
    <!-- Generator: Sketch 3.2.2 (9983) - http://www.bohemiancoding.com/sketch -->
    <title>pie</title>
    <desc>Created with Sketch.</desc>
    <defs></defs>
    <g id="Main" stroke="none" stroke-width="1" fill="none" fill-rule="evenodd" sketch:type="MSPage">
        <g id="Profile-6" sketch:type="MSArtboardGroup" transform="translate(-21.000000, -738.000000)">
            <g id="Tile-3" sketch:type="MSLayerGroup" transform="translate(10.000000, 727.000000)">
                <g id="pie" transform="translate(11.000000, 11.000000)" sketch:type="MSShapeGroup">
                    <rect id="Rectangle-264" fill="#F0C233" x="0" y="0" width="240" height="120"></rect>
                    <rect id="Rectangle-346" fill="#E6B319" x="0" y="86" width="240" height="34"></rect>
                    <g id="Group" transform="translate(87.000000, 23.000000)">
                        <path d="M3.9487,41.1543 C6.7987,42.1043 9.4437,41.2163 12.2447,40.2753 C14.1137,39.6483 16.0437,39.0003 17.9997,39.0003 C20.4077,39.0003 22.3927,39.9573 24.3127,40.8833 C26.4697,41.9243 28.6987,43.0003 31.9997,43.0003 C35.3007,43.0003 37.5307,41.9243 39.6877,40.8833 C41.6067,39.9573 43.5927,39.0003 45.9997,39.0003 C47.9557,39.0003 49.8867,39.6483 51.7547,40.2753 C54.5557,41.2163 57.2017,42.1033 60.0517,41.1543 C60.5097,41.0013 60.9757,40.9773 61.4227,41.0413 C55.5487,30.8643 44.5777,24.0003 31.9817,24.0003 C19.3837,24.0003 8.4097,30.8673 2.5367,41.0493 C2.9967,40.9763 3.4767,40.9963 3.9487,41.1543" id="Fill-6308" fill="#F9E1C2"></path>
                        <path d="M31.9819,24 C19.3839,24 8.4099,30.867 2.5369,41.049 C2.9969,40.976 3.4769,40.997 3.9489,41.154 C6.7989,42.104 9.4439,41.216 12.2449,40.275 C14.1129,39.648 16.0439,39 17.9999,39 C20.4079,39 22.3929,39.958 24.3129,40.884 C26.4689,41.924 28.6989,43 31.9999,43 L31.9999,24 L31.9819,24" id="Fill-6309" fill="#FCF1E2"></path>
                        <path d="M49.8452,45.9634 C48.3692,45.4674 46.9752,45.0004 46.0002,45.0004 C44.9642,45.0004 43.7862,45.5684 42.2942,46.2874 C39.7902,47.4964 36.6722,49.0004 32.0002,49.0004 C27.3272,49.0004 24.2102,47.4964 21.7052,46.2874 C20.2142,45.5684 19.0362,45.0004 18.0002,45.0004 C17.0242,45.0004 15.6302,45.4674 14.1552,45.9634 C11.7982,46.7544 9.0242,47.6784 5.8842,47.5474 L8.0892,59.1224 C8.6282,61.9524 11.1022,64.0004 13.9832,64.0004 L49.2792,64.0004 C52.0572,64.0004 54.4722,62.0924 55.1162,59.3894 L57.9332,47.5554 C54.8672,47.6444 52.1562,46.7384 49.8452,45.9634" id="Fill-6310" fill="#8E6134"></path>
                        <path d="M32,49 C27.328,49 24.21,47.496 21.705,46.288 C20.214,45.568 19.036,45 18,45 C17.024,45 15.63,45.468 14.155,45.963 C10.88,47.063 6.805,48.43 2.051,46.846 C0.479,46.322 -0.37,44.623 0.154,43.051 C0.678,41.479 2.377,40.629 3.949,41.154 C6.799,42.104 9.444,41.216 12.245,40.275 C14.113,39.648 16.044,39 18,39 C20.408,39 22.393,39.958 24.313,40.884 C26.469,41.924 28.699,43 32,43 C35.301,43 37.531,41.924 39.687,40.884 C41.607,39.958 43.592,39 46,39 C47.956,39 49.887,39.648 51.755,40.275 C54.556,41.216 57.202,42.103 60.051,41.154 C61.623,40.629 63.322,41.479 63.846,43.051 C64.37,44.623 63.521,46.322 61.949,46.846 C57.194,48.431 53.12,47.062 49.845,45.963 C48.37,45.468 46.976,45 46,45 C44.964,45 43.786,45.568 42.295,46.288 C39.79,47.496 36.672,49 32,49" id="Fill-6311" fill="#D4A263"></path>
                        <path d="M34,32.5 C34,33.881 33.104,35 32,35 C30.896,35 30,33.881 30,32.5 C30,31.119 32,28 32,28 C32,28 34,31.119 34,32.5" id="Fill-6312" fill="#EDBC7C"></path>
                        <path d="M44.2288,31.6809 C44.7448,32.9619 44.3318,34.3349 43.3068,34.7469 C42.2818,35.1589 41.0338,34.4549 40.5178,33.1749 C40.0028,31.8939 40.6928,28.2529 40.6928,28.2529 C40.6928,28.2529 43.7128,30.3999 44.2288,31.6809" id="Fill-6313" fill="#EDBC7C"></path>
                        <path d="M19.7712,31.6809 C19.2552,32.9619 19.6682,34.3349 20.6932,34.7469 C21.7182,35.1589 22.9662,34.4549 23.4822,33.1749 C23.9972,31.8939 23.3072,28.2529 23.3072,28.2529 C23.3072,28.2529 20.2872,30.3999 19.7712,31.6809" id="Fill-6314" fill="#EDBC7C"></path>
                        <path d="M31,0 C31,0 34,2 34,6 C34,10 31,16 33,20 C30,20 27,16 27,12 C27,8 31,5 31,0" id="Fill-6315" fill="#FFFFFF"></path>
                        <path d="M40.7749,9 C40.7749,9 42.4249,10.1 42.4249,12.3 C42.4249,14.5 40.7749,17.8 41.8749,20 C40.2249,20 38.5749,17.8 38.5749,15.6 C38.5749,13.4 40.7749,11.75 40.7749,9" id="Fill-6316" fill="#FFFFFF"></path>
                        <path d="M20.2,9 C20.2,9 21.85,10.1 21.85,12.3 C21.85,14.5 20.2,17.8 21.3,20 C19.65,20 18,17.8 18,15.6 C18,13.4 20.2,11.75 20.2,9" id="Fill-6317" fill="#FFFFFF"></path>
                        <path d="M24.3125,40.8838 C22.3925,39.9578 20.4075,38.9998 18.0005,38.9998 C16.0435,38.9998 14.1135,39.6488 12.2455,40.2758 C9.4435,41.2158 6.7985,42.1038 3.9485,41.1548 C2.3765,40.6288 0.6775,41.4798 0.1545,43.0508 C-0.3705,44.6228 0.4795,46.3218 2.0515,46.8458 C6.8045,48.4308 10.8795,47.0628 14.1545,45.9638 C15.6305,45.4678 17.0245,44.9998 18.0005,44.9998 C19.0365,44.9998 20.2135,45.5688 21.7055,46.2878 C24.2095,47.4958 27.3275,48.9998 31.9995,48.9998 L31.9995,42.9998 C28.6995,42.9998 26.4695,41.9238 24.3125,40.8838" id="Fill-6318" fill="#EDBC7C"></path>
                        <path d="M32,49 C27.328,49 24.21,47.496 21.705,46.288 C20.214,45.568 19.036,45 18,45 C17.024,45 15.63,45.468 14.155,45.963 C11.798,46.754 9.024,47.679 5.884,47.547 L8.089,59.123 C8.628,61.953 11.102,64 13.983,64 L32,64 L32,49 Z" id="Fill-6319" fill="#A97A45"></path>
                    </g>
                </g>
            </g>
        </g>
    </g>
</svg>