<svg width="240" height="120" viewBox="0 0 240 120" xmlns="http://www.w3.org/2000/svg"><title>vendor_illustration</title><desc>Created with Sketch.</desc><g fill="none" fill-rule="evenodd"><g><g><g><g fill="#64A8EE"><path d="M0 0h240v120H0z"/></g><path fill="#4C9DEE" d="M0 86h240v34H0z"/><g><path d="M152 90H88v-.04c0-2.187 1.773-3.96 3.96-3.96h56.08c2.187 0 3.96 1.773 3.96 3.96V90z" fill="#E2E4E5"/><path d="M148 50H92v36h56V50z" fill="#fff"/><path d="M97.143 50c0 2.21-2.047 4-4.572 4-2.523 0-4.57-1.79-4.57-4h9.143z" fill="#DF2C2C"/><path d="M106.286 50c0 2.21-2.047 4-4.57 4-2.526 0-4.573-1.79-4.573-4h9.143z" fill="#CFD3D4"/><path d="M115.43 50c0 2.21-2.048 4-4.573 4-2.524 0-4.57-1.79-4.57-4h9.142z" fill="#DF2C2C"/><path d="M124.57 50c0 2.21-2.045 4-4.57 4-2.525 0-4.572-1.79-4.572-4h9.143z" fill="#CFD3D4"/><path d="M142.857 50c0 2.21-2.046 4-4.57 4-2.526 0-4.573-1.79-4.573-4h9.143z" fill="#CFD3D4"/><path d="M133.714 50c0 2.21-2.047 4-4.57 4-2.526 0-4.573-1.79-4.573-4h9.144z" fill="#DF2C2C"/><path d="M152 50c0 2.21-2.047 4-4.57 4-2.526 0-4.573-1.79-4.573-4H152z" fill="#DF2C2C"/><path d="M88 50h9.143l8-20h-8L88 50z" fill="#FA5655"/><path d="M97.143 50h9.143L112 30h-6.857l-8 20z" fill="#fff"/><path d="M106.286 50h9.143l3.427-20H112l-5.714 20z" fill="#FA5655"/><path d="M115.43 50h9.142V30h-5.715l-3.428 20z" fill="#fff"/><path d="M152 50h-9.143l-5.714-20H144l8 20z" fill="#FA5655"/><path d="M142.857 50h-9.143l-3.428-20h6.857l5.714 20z" fill="#fff"/><path d="M133.714 50h-9.143V30h5.715l3.43 20z" fill="#FA5655"/><path d="M124 74H96V58h28v16z" fill="#6FDAF1"/><path d="M124 74H96l28-16v16z" fill="#40C9E7"/><path d="M144 58h-14v13h14V58z" fill="#40C9E7"/><path d="M144 74h-14v12h14V74z" fill="#40C9E7"/><path d="M122.978 79c.26-3.258-3.405-5.625-7.407-5.625-2.322 0-4.395.764-5.758 1.96-.62-1.183-1.646-1.96-2.812-1.96-1.093 0-2.055.692-2.683 1.75-.776-1.918-2.607-3.268-4.746-3.268-2.5 0-4.58 1.845-5.04 4.288-.36-.31-.785-.493-1.244-.493-1.355 0-2.406 1.54-2.262 3.348h31.954z" fill="#0D9681"/><path d="M123 86H91v-7h32v7z" fill="#9C6144"/><path d="M123 81H91v-2h32v2z" fill="#AF7653"/></g></g></g></g></g></svg>