<svg width="240" height="120" viewBox="0 0 240 120" xmlns="http://www.w3.org/2000/svg"><title>tea</title><desc>Created with Sketch.</desc><g fill="none" fill-rule="evenodd"><path d="M0 0h240v120H0z" fill="#97CC3B"/><path fill="#89C226" d="M0 86h240v34H0z"/><path d="M139.178 72.46c.532-2.133.822-4.6.822-7.46v-2.76c1.01-.62 2.42-1.24 4-1.24 2.88 0 4 1.12 4 4 0 1.618-.026 5.948-8.822 7.46M144 57c-1.48 0-2.83.33-4 .79V57c0-2.21.21-4-2-4h-36c-2.21 0-2 1.79-2 4v8c0 16 8.936 19.908 20 20 7.607-.063 14.208-1.93 17.59-8.292C147.154 75.672 152 71.748 152 65c0-5.08-2.92-8-8-8" fill="#F0F1F1"/><path d="M102 53c-2.21 0-2 1.79-2 4v8c0 16 8.936 19.907 20 20V53h-18zm26-12c0-4-7-11-4-16-2 1-4 4-4 8s7 11 4 16c3-2 4-4 4-8m-10 2.667c0-2.667-4.667-7.333-2.667-10.667-1.333.667-2.666 2.667-2.666 5.334 0 2.666 4.666 7.333 2.666 10.666 2-1.333 2.667-2.666 2.667-5.333" fill="#fff"/><path d="M118 61h-2v-9h2v9z" fill="#5B5C5F"/><path d="M113 61h8l3 3v13h-14V64l3-3z" fill="#FACB1B"/><path d="M88 81c0 4.418 14.327 8 32 8 17.673 0 32-3.582 32-8H88z" fill="#E2E4E5"/><path d="M88 81c0 4.418 14.327 8 32 8v-8H88z" fill="#F0F1F1"/></g></svg>