<svg width="240" height="120" viewBox="0 0 240 120" xmlns="http://www.w3.org/2000/svg"><title>pie</title><desc>Created with Sketch.</desc><g fill="none" fill-rule="evenodd"><g><g><g><path fill="#F0C233" d="M0 0h240v120H0z"/><path fill="#E6B319" d="M0 86h240v34H0z"/><g><path d="M90.95 64.154c2.85.95 5.494.062 8.295-.88 1.87-.626 3.8-1.274 5.755-1.274 2.408 0 4.393.957 6.313 1.883C113.47 64.923 115.7 66 119 66c3.3 0 5.53-1.076 7.688-2.117C128.608 62.957 130.593 62 133 62c1.956 0 3.887.648 5.755 1.275 2.8.94 5.447 1.828 8.297.88.458-.154.924-.178 1.37-.114C142.55 53.865 131.58 47 118.983 47c-12.598 0-23.572 6.867-29.445 17.05.46-.074.94-.054 1.412.104" fill="#F9E1C2"/><path d="M118.982 47c-12.598 0-23.572 6.867-29.445 17.05.46-.074.94-.053 1.412.104 2.85.95 5.494.062 8.295-.88C101.113 62.65 103.045 62 105 62c2.408 0 4.393.958 6.313 1.884C113.47 64.924 115.7 66 119 66V47h-.018" fill="#FCF1E2"/><path d="M136.845 68.963C135.37 68.467 133.975 68 133 68c-1.036 0-2.214.568-3.706 1.287C126.79 70.497 123.672 72 119 72c-4.673 0-7.79-1.504-10.295-2.713-1.49-.72-2.67-1.287-3.705-1.287-.976 0-2.37.467-3.845.963-2.357.79-5.13 1.715-8.27 1.584l2.204 11.575C95.627 84.952 98.1 87 100.982 87h35.296c2.777 0 5.192-1.908 5.836-4.61l2.817-11.835c-3.066.09-5.777-.817-8.088-1.592" fill="#8E6134"/><path d="M119 72c-4.672 0-7.79-1.504-10.295-2.712-1.49-.72-2.67-1.288-3.705-1.288-.976 0-2.37.468-3.845.963-3.275 1.1-7.35 2.467-12.104.883-1.57-.524-2.42-2.223-1.896-3.795.524-1.57 2.223-2.42 3.795-1.896 2.85.95 5.494.062 8.295-.88C101.113 62.65 103.045 62 105 62c2.408 0 4.393.958 6.313 1.884C113.47 64.924 115.7 66 119 66c3.3 0 5.53-1.076 7.687-2.116C128.607 62.958 130.592 62 133 62c1.956 0 3.887.648 5.755 1.275 2.8.94 5.447 1.828 8.296.88 1.573-.526 3.272.324 3.796 1.896.524 1.573-.325 3.272-1.897 3.796-4.756 1.585-8.83.216-12.105-.883-1.475-.495-2.87-.963-3.845-.963-1.036 0-2.214.568-3.705 1.288C126.79 70.496 123.672 72 119 72" fill="#D4A263"/><path d="M121 55.5c0 1.38-.896 2.5-2 2.5s-2-1.12-2-2.5 2-4.5 2-4.5 2 3.12 2 4.5" fill="#EDBC7C"/><path d="M131.23 54.68c.515 1.282.102 2.655-.923 3.067-1.025.412-2.273-.292-2.79-1.572-.514-1.28.176-4.922.176-4.922s3.02 2.147 3.536 3.428" fill="#EDBC7C"/><path d="M106.77 54.68c-.515 1.282-.102 2.655.923 3.067 1.025.412 2.273-.292 2.79-1.572.514-1.28-.176-4.922-.176-4.922s-3.02 2.147-3.536 3.428" fill="#EDBC7C"/><path d="M118 23s3 2 3 6-3 10-1 14c-3 0-6-4-6-8s4-7 4-12" fill="#fff"/><path d="M127.775 32s1.65 1.1 1.65 3.3c0 2.2-1.65 5.5-.55 7.7-1.65 0-3.3-2.2-3.3-4.4s2.2-3.85 2.2-6.6" fill="#fff"/><path d="M107.2 32s1.65 1.1 1.65 3.3c0 2.2-1.65 5.5-.55 7.7-1.65 0-3.3-2.2-3.3-4.4s2.2-3.85 2.2-6.6" fill="#fff"/><path d="M111.313 63.884C109.392 62.958 107.406 62 105 62c-1.956 0-3.886.65-5.754 1.276-2.802.94-5.447 1.828-8.297.88-1.573-.527-3.272.324-3.795 1.895-.525 1.573.325 3.272 1.897 3.796 4.753 1.585 8.828.217 12.103-.882 1.476-.496 2.87-.964 3.846-.964 1.037 0 2.214.57 3.706 1.288C111.21 70.496 114.328 72 119 72v-6c-3.3 0-5.53-1.076-7.687-2.116" fill="#EDBC7C"/><path d="M119 72c-4.672 0-7.79-1.504-10.295-2.712-1.49-.72-2.67-1.288-3.705-1.288-.976 0-2.37.468-3.845.963-2.357.79-5.13 1.716-8.27 1.584l2.204 11.576C95.627 84.953 98.1 87 100.982 87H119V72z" fill="#A97A45"/></g></g></g></g></g></svg>