<svg width="512" height="512" viewBox="0 0 512 512" xmlns="http://www.w3.org/2000/svg"><title>activity_off</title><desc>Created with Sketch.</desc><path d="M242.92 2.075c15.808 0 31.62-.203 47.427.06 14.813.247 19.526 7.198 14.476 20.713-15.932 42.65-31.937 85.274-47.744 127.964-1.027 2.78-4.25 6.1-1.425 8.84 2.17 2.1 5.574-.066 8.387-.752 34.478-8.422 68.957-16.843 103.442-25.258 2.555-.62 5.103-1.262 7.685-1.785 5.923-1.21 11.172.11 15.084 4.773 3.872 4.623 2.9 9.526.476 14.594-14.832 31.156-29.56 62.364-44.3 93.56C307.206 327.78 268 410.78 228.796 493.786c-.834 1.765-1.615 3.55-2.488 5.296-4.362 8.637-11.412 12.148-19.004 9.402-9.187-3.328-9.856-10.174-7.837-18.307 10.902-43.86 21.73-87.733 32.56-131.607 8.492-34.404 16.818-68.855 25.55-103.202 1.7-6.708.8-7.807-6.157-6.054-36.3 9.186-72.717 17.922-109.102 26.814-2.548.628-5.09 1.327-7.684 1.76-12.993 2.15-20.03-5.33-16.892-18.1 13.63-55.577 27.303-111.14 40.978-166.704 6.302-25.572 12.888-51.08 18.812-76.73 2.303-9.977 7.962-14.33 17.95-14.28 15.82.066 31.626.007 47.44 0z" fill="#2A4D50" fill-rule="evenodd"/></svg>