<svg width="512" height="512" viewBox="0 0 512 512" xmlns="http://www.w3.org/2000/svg"><title>apps_off</title><desc>Created with Sketch.</desc><path d="M153.574 332.774H0v-153.6h153.574v153.6zm0-332.774h-128C11.444 0 0 11.47 0 25.574v128h153.574V0zm179.2 153.574V0h-153.6v153.574h153.6zm-153.6 179.2h153.6v-153.6h-153.6v153.6zM0 358.374v128c0 14.208 11.443 25.6 25.574 25.6h128v-153.6H0zM486.4 0H358.374v153.574h153.6v-128C511.974 11.47 500.53 0 486.4 0zM358.374 332.774h153.6v-153.6h-153.6v153.6zm-179.2 25.6v153.6h153.6v-153.6h-153.6zm179.2 153.6H486.4c14.13 0 25.574-11.392 25.574-25.6v-128h-153.6v153.6z" fill="#2A4D50" fill-rule="evenodd"/></svg>