<?xml version="1.0" encoding="UTF-8" standalone="no"?>
<svg width="24px" height="24px" viewBox="0 0 512 512" version="1.1" xmlns="http://www.w3.org/2000/svg" xmlns:xlink="http://www.w3.org/1999/xlink" xmlns:sketch="http://www.bohemiancoding.com/sketch/ns">
    <!-- Generator: Sketch 3.0.4 (8053) - http://www.bohemiancoding.com/sketch -->
    <title>discover_off</title>
    <desc>Created with Sketch.</desc>
    <defs></defs>
    <g id="Icons" stroke="none" stroke-width="1" fill="none" fill-rule="evenodd" sketch:type="MSPage">
        <g id="discover_off" sketch:type="MSArtboardGroup" fill="#2A4D50">
            <path d="M359.694,117.914 C352.295,111.929 340.899,111.859 333.458,117.76 L213.877,212.47 C211.504,214.339 209.6,216.712 208.221,219.498 L142.799,350.482 C139.985,356.131 140.062,362.634 142.89,368.521 L143.296,369.368 C146.922,376.529 153.985,380.967 161.839,380.967 C164.926,380.967 167.922,380.281 170.715,378.93 C173.172,377.768 174.789,376.382 176.035,375.129 L293.047,284.304 C295.532,282.365 297.583,279.859 298.962,277.066 L365.28,143.569 C369.683,134.714 367.394,124.172 359.694,117.914 L359.694,117.914 Z M239.343,228.99 C242.906,227.282 246.693,226.421 250.606,226.421 C260.588,226.421 269.828,232.231 274.154,241.219 C280.37,254.19 274.889,269.807 261.918,276.037 C258.355,277.745 254.568,278.613 250.655,278.613 C240.666,278.613 231.426,272.796 227.107,263.801 C224.097,257.522 223.705,250.438 226.015,243.865 C228.325,237.292 233.057,232.014 239.343,228.99 L239.343,228.99 Z" id="Fill-1" sketch:type="MSShapeGroup"></path>
            <path d="M254.652,2.316 C114.834,2.316 1.077,116.066 1.077,255.884 C1.077,395.702 114.834,509.452 254.652,509.452 C394.47,509.452 508.22,395.702 508.22,255.884 C508.22,116.066 394.47,2.316 254.652,2.316 L254.652,2.316 Z M253.098,400 L252.909,400 C237.523,400 225,412.516 225,427.902 L225,448.426 C139.649,435.378 72.512,366.659 61.466,281 L85.098,281 C100.484,281 113,268.484 113,252.909 C113,237.523 100.484,225 85.098,225 L62.292,225 C75.571,141.063 140.979,76.068 225,63.321 L225,85.098 C225,100.484 237.516,113 253.091,113 C268.484,113 281,100.484 281,85.098 L281,62.838 C365.441,74.318 433.551,140.853 446.998,225 L427.902,225 C412.516,225 400,237.516 400,253.091 C400,268.484 412.516,281 427.902,281 L447.845,281 C436.631,368.206 368.108,437.17 281,448.923 L281,427.902 C281,412.516 268.484,400 253.098,400 L253.098,400 Z" id="Fill-2" sketch:type="MSShapeGroup"></path>
        </g>
    </g>
</svg>