<svg width="24" height="24" viewBox="0 0 512 512" xmlns="http://www.w3.org/2000/svg"><title>discover_off</title><desc>Created with Sketch.</desc><g fill="#2A4D50" fill-rule="evenodd"><path d="M359.694 117.914c-7.4-5.985-18.795-6.055-26.236-.154l-119.58 94.71c-2.374 1.87-4.278 4.242-5.657 7.028L142.8 350.482c-2.815 5.65-2.738 12.152.09 18.04l.406.846c3.626 7.16 10.69 11.6 18.543 11.6 3.085 0 6.08-.687 8.874-2.038 2.457-1.162 4.074-2.548 5.32-3.8l117.012-90.826c2.485-1.94 4.536-4.445 5.915-7.238l66.32-133.496c4.403-8.856 2.114-19.398-5.586-25.656zM239.344 228.99c3.562-1.708 7.35-2.57 11.262-2.57 9.982 0 19.222 5.81 23.548 14.8 6.216 12.97.735 28.587-12.236 34.817-3.563 1.708-7.35 2.576-11.263 2.576-9.99 0-19.23-5.817-23.548-14.812-3.01-6.277-3.402-13.36-1.092-19.934 2.31-6.573 7.042-11.85 13.328-14.875zM254.652 2.316c-139.818 0-253.575 113.75-253.575 253.568s113.757 253.568 253.575 253.568c139.818 0 253.568-113.75 253.568-253.568S394.47 2.316 254.652 2.316zM253.098 400h-.19C237.524 400 225 412.516 225 427.902v20.524C139.65 435.378 72.512 366.66 61.466 281h23.632C100.484 281 113 268.484 113 252.91c0-15.387-12.516-27.91-27.902-27.91H62.292C75.572 141.063 140.98 76.068 225 63.32V85.1c0 15.384 12.516 27.9 28.09 27.9 15.394 0 27.91-12.516 27.91-27.902v-22.26C365.44 74.318 433.55 140.853 446.998 225h-19.096C412.516 225 400 237.516 400 253.09c0 15.394 12.516 27.91 27.902 27.91h19.943C436.63 368.206 368.108 437.17 281 448.923v-21.02C281 412.515 268.484 400 253.098 400z"/></g></svg>