<svg width="512" height="512" viewBox="0 0 512 512" xmlns="http://www.w3.org/2000/svg"><title>me_off</title><desc>Created with Sketch.</desc><path d="M259.85 216.615c60.76 0 110.05-45.784 110.05-105.787C369.9 50.846 320.61 0 259.85 0S149.82 50.846 149.82 110.828c0 60.003 49.27 105.787 110.03 105.787zm192.753 151.808v-.04c0-52.538-44.383-97.85-108.654-119.393l-84.06 83.042-84.118-83.042C111.502 270.513 67.12 315.825 67.12 368.384v.04H67C67 421.14 77.632 470.234 95.704 512h328.274c18.072-41.767 28.704-90.86 28.704-143.577h-.08z" fill="#2A4D50" fill-rule="evenodd"/></svg>