<svg width="46" height="40" viewBox="0 0 46 40" xmlns="http://www.w3.org/2000/svg"><title>align-right</title><path d="M28.75 25.713c0 1.58-1.287 2.858-2.876 2.858h-23C1.287 28.57 0 27.294 0 25.714c0-1.577 1.287-2.856 2.874-2.856h23c1.59 0 2.876 1.28 2.876 2.856zm14.374 8.573H2.874C1.287 34.286 0 35.564 0 37.142 0 38.722 1.287 40 2.874 40h40.25C44.714 40 46 38.72 46 37.142s-1.287-2.856-2.876-2.856zm0-22.857H2.874C1.287 11.43 0 12.706 0 14.284c0 1.58 1.287 2.858 2.874 2.858h40.25c1.59 0 2.876-1.28 2.876-2.858s-1.287-2.856-2.876-2.856zM2.874 5.713h23c1.59 0 2.876-1.278 2.876-2.858C28.75 1.28 27.463 0 25.874 0h-23C1.287 0 0 1.28 0 2.856c0 1.58 1.287 2.858 2.874 2.858z" fill="#677986" fill-rule="evenodd"/></svg>