<svg width="21" height="21" viewBox="0 0 21 21" xmlns="http://www.w3.org/2000/svg"><title>B</title><path d="M18.365 11.464c.625.43 1.133.97 1.524 1.62.39.648.585 1.412.585 2.29 0 1.056-.223 1.947-.667 2.674-.444.728-1.08 1.302-1.912 1.722-.878.45-1.892.766-3.04.952-1.147.185-2.497.278-4.05.278H.012v-1.143c.303-.03.684-.073 1.143-.13.46-.06.782-.128.967-.206.36-.146.608-.34.74-.578.132-.24.198-.55.198-.93V3.362c0-.35-.054-.643-.162-.878-.107-.234-.366-.44-.776-.615-.303-.128-.654-.233-1.055-.316-.4-.083-.752-.15-1.054-.198V.214h11.295c2.84 0 4.892.39 6.152 1.172 1.26.78 1.89 1.933 1.89 3.457 0 .703-.142 1.32-.425 1.853-.283.532-.69.993-1.216 1.384-.478.36-1.05.674-1.714.938-.664.263-1.377.483-2.138.66v.277c.76.078 1.552.247 2.373.505.82.26 1.533.594 2.138 1.004zM13.648 5.21c0-1.153-.324-2.052-.974-2.696-.65-.645-1.623-.967-2.922-.967-.186 0-.427.007-.725.022l-.77.035V9.31h.763c1.582 0 2.75-.368 3.5-1.105.752-.738 1.128-1.736 1.128-2.996zm1.026 9.975c0-1.446-.43-2.554-1.29-3.326-.86-.772-2.094-1.158-3.705-1.158-.187 0-.433.007-.74.022-.31.015-.536.027-.682.037v7.603c.088.362.36.667.82.916.46.248 1.016.372 1.67.372 1.162 0 2.107-.39 2.835-1.172.727-.78 1.09-1.88 1.09-3.295z" fill="#677986" fill-rule="evenodd"/></svg>