<svg width="27" height="25" viewBox="0 0 27 25" xmlns="http://www.w3.org/2000/svg"><title></title><path d="M6.914 14.332c1.602 0 2.97.566 4.102 1.7 1.132 1.132 1.523 2.558 1.171 4.277-.546 2.5-2.304 4.002-5.273 4.51-1.133.196-2.45.127-3.955-.205C1.454 24.283.47 23.668 0 22.77c1.328-.508 1.992-1.465 1.992-2.872 0-1.523.45-2.832 1.348-3.925.898-1.094 2.09-1.64 3.574-1.64zM25.547 1.266c.898.898.996 1.777.293 2.636l-9.024 10.254c.118.547.06.996-.175 1.348l-2.93 3.398c-.116.118-.233.118-.35 0-.04-.04-.06-.097-.06-.175v-.06c.04-1.483-.448-2.714-1.464-3.69-1.016-.977-2.266-1.504-3.75-1.582H7.97c-.08 0-.118-.02-.118-.06-.118-.116-.118-.233 0-.35l3.457-2.872c.31-.195.76-.234 1.346-.117L22.91.973c.86-.703 1.738-.606 2.637.293z" fill="#669EFF" fill-rule="evenodd"/></svg>