<?xml version="1.0" encoding="utf-8"?>
<!-- Generator: Adobe Illustrator 18.1.1, SVG Export Plug-In . SVG Version: 6.00 Build 0)  -->
<!DOCTYPE svg PUBLIC "-//W3C//DTD SVG 1.1//EN" "http://www.w3.org/Graphics/SVG/1.1/DTD/svg11.dtd">
<svg version="1.1" id="Layer_1" xmlns="http://www.w3.org/2000/svg" xmlns:xlink="http://www.w3.org/1999/xlink" x="0px" y="0px"
	 viewBox="0 0 50 50" enable-background="new 0 0 50 50" xml:space="preserve">
<path fill="#7A8C98" d="M44.1,6.2c0.8,0,1.4,0.3,2,0.8c0.5,0.5,0.8,1.2,0.8,2v32c0,0.8-0.3,1.4-0.8,2c-0.5,0.5-1.2,0.8-2,0.8H5.9
	c-0.8,0-1.4-0.3-2-0.8c-0.5-0.5-0.8-1.2-0.8-2V9c0-0.8,0.3-1.4,0.8-2c0.5-0.5,1.2-0.8,2-0.8H44.1z M32.8,25c0.5,0,0.9,0.2,1.3,0.6
	l9.7,10.4V10.5c0-0.8-0.4-1.2-1.3-1.2h-35c-0.7,0-1.1,0.4-1.3,1.2v25.4l12.3-14.8c0.5-0.5,1.1-0.8,1.7-0.8c0.7,0,1.3,0.2,1.7,0.7
	l5.3,5.8l0.4,0.4c0.4,0.3,0.7,0.4,1.1,0.4c0.3,0,0.7-0.2,1.2-0.5l1.8-1.6C32,25.2,32.4,25,32.8,25L32.8,25z M39.3,20.5
	c-0.9,0.9-2,1.4-3.3,1.4c-1.3,0-2.4-0.5-3.3-1.4c-0.9-0.9-1.4-2-1.4-3.3c0-1.3,0.5-2.4,1.4-3.3c0.9-0.9,2-1.4,3.3-1.4
	c1.3,0,2.4,0.5,3.3,1.4c0.9,0.9,1.4,2,1.4,3.3C40.6,18.5,40.2,19.6,39.3,20.5z"/>
</svg>
