<svg width="27" height="23" viewBox="0 0 27 23" xmlns="http://www.w3.org/2000/svg"><title></title><path d="M9.434 13.156c0-2.46 1.23-3.69 3.69-3.69 2.462 0 3.692 1.23 3.692 3.69s-1.23 3.692-3.69 3.692c-2.462 0-3.692-1.23-3.692-3.692zm14.472-10.78c.625 0 1.172.233 1.64.702.47.47.704 1.016.704 1.64v15.938c0 .625-.234 1.172-.703 1.64-.47.47-1.016.704-1.64.704H2.343c-.625 0-1.172-.234-1.64-.703-.47-.47-.704-1.016-.704-1.64V4.718c0-.626.234-1.173.703-1.642.47-.47 1.016-.703 1.64-.703H7.5L9.375.5h7.5l1.875 1.875h5.156zm-10.78 17.343c1.796 0 3.34-.646 4.628-1.935 1.29-1.29 1.933-2.832 1.933-4.63 0-1.796-.644-3.34-1.933-4.628-1.29-1.29-2.832-1.933-4.63-1.933-1.796 0-3.34.644-4.628 1.933-1.29 1.29-1.934 2.832-1.934 4.63 0 1.796.645 3.34 1.934 4.628 1.29 1.29 2.832 1.934 4.63 1.934z" fill="#669EFF" fill-rule="evenodd"/></svg>