<svg xmlns="http://www.w3.org/2000/svg" viewBox="0 0 50 50" enable-background="new 0 0 50 50"><path fill="#7A8C98" d="M44.1 6.2c.8 0 1.4.3 2 .8.5.5.8 1.2.8 2v32c0 .8-.3 1.4-.8 2-.5.5-1.2.8-2 .8H5.9c-.8 0-1.4-.3-2-.8-.5-.5-.8-1.2-.8-2V9c0-.8.3-1.4.8-2 .5-.5 1.2-.8 2-.8h38.2zM32.8 25c.5 0 .9.2 1.3.6L43.8 36V10.5c0-.8-.4-1.2-1.3-1.2h-35c-.7 0-1.1.4-1.3 1.2v25.4l12.3-14.8c.5-.5 1.1-.8 1.7-.8.7 0 1.3.2 1.7.7l5.3 5.8.4.4c.4.3.7.4 1.1.4.3 0 .7-.2 1.2-.5l1.8-1.6c.3-.3.7-.5 1.1-.5zm6.5-4.5c-.9.9-2 1.4-3.3 1.4-1.3 0-2.4-.5-3.3-1.4-.9-.9-1.4-2-1.4-3.3 0-1.3.5-2.4 1.4-3.3.9-.9 2-1.4 3.3-1.4 1.3 0 2.4.5 3.3 1.4.9.9 1.4 2 1.4 3.3-.1 1.3-.5 2.4-1.4 3.3z"/></svg>