<svg version="1" xmlns="http://www.w3.org/2000/svg" width="64" height="64" viewBox="5.5 -3.5 64 64" enable-background="new 5.5 -3.5 64 64">
    <circle fill="#fff" cx="37.785" cy="28.501" r="28.836"/>
    <path d="M37.44-3.5c8.952 0 16.573 3.125 22.858 9.372 3.008 3.01 5.295 6.448 6.857 10.314 1.56 3.867 2.344 7.97 2.344 12.314 0 4.38-.774 8.486-2.315 12.313-1.543 3.828-3.82 7.21-6.828 10.143-3.123 3.085-6.666 5.448-10.63 7.086-3.96 1.638-8.056 2.457-12.284 2.457s-8.276-.81-12.143-2.43c-3.866-1.618-7.333-3.96-10.4-7.027-3.067-3.066-5.4-6.524-7-10.372S5.5 32.768 5.5 28.5c0-4.23.81-8.295 2.428-12.2 1.62-3.905 3.972-7.4 7.057-10.486C21.08-.394 28.565-3.5 37.44-3.5zm.117 5.772c-7.314 0-13.467 2.553-18.458 7.657-2.516 2.552-4.45 5.418-5.8 8.6-1.355 3.18-2.03 6.504-2.03 9.97 0 3.43.675 6.735 2.03 9.914 1.352 3.183 3.284 6.02 5.8 8.516 2.513 2.496 5.35 4.4 8.514 5.715 3.16 1.314 6.476 1.97 9.943 1.97 3.428 0 6.75-.664 9.973-1.998 3.22-1.335 6.12-3.257 8.713-5.77 4.99-4.877 7.484-10.99 7.484-18.345 0-3.543-.648-6.895-1.943-10.057-1.293-3.162-3.18-5.98-5.654-8.458-5.146-5.143-11.335-7.715-18.573-7.715zm-.4 20.915l-4.288 2.23c-.46-.952-1.02-1.62-1.686-2-.667-.38-1.286-.572-1.858-.572-2.856 0-4.286 1.885-4.286 5.657 0 1.714.362 3.084 1.085 4.113.724 1.03 1.79 1.544 3.2 1.544 1.868 0 3.182-.916 3.945-2.744l3.942 2c-.838 1.563-2 2.79-3.486 3.686-1.484.896-3.123 1.343-4.914 1.343-2.857 0-5.163-.875-6.915-2.63-1.752-1.75-2.628-4.19-2.628-7.312 0-3.048.885-5.466 2.656-7.257 1.77-1.79 4.01-2.686 6.715-2.686 3.964-.002 6.8 1.54 8.516 4.627zm18.456 0l-4.23 2.23c-.456-.952-1.02-1.62-1.685-2-.668-.38-1.307-.572-1.914-.572-2.857 0-4.287 1.885-4.287 5.657 0 1.714.363 3.084 1.086 4.113.723 1.03 1.79 1.544 3.2 1.544 1.866 0 3.18-.916 3.942-2.744l4 2c-.875 1.563-2.057 2.79-3.54 3.686-1.487.896-3.106 1.343-4.858 1.343-2.896 0-5.21-.875-6.94-2.63-1.737-1.75-2.603-4.19-2.603-7.312 0-3.048.885-5.466 2.658-7.257 1.77-1.79 4.008-2.686 6.713-2.686 3.962-.002 6.783 1.54 8.458 4.627z"/>
</svg>
