<?xml version="1.0" encoding="UTF-8" standalone="no"?>
<svg width="27px" height="23px" viewBox="0 0 27 23" version="1.1" xmlns="http://www.w3.org/2000/svg" xmlns:xlink="http://www.w3.org/1999/xlink" xmlns:sketch="http://www.bohemiancoding.com/sketch/ns">
    <!-- Generator: Sketch 3.2.2 (9983) - http://www.bohemiancoding.com/sketch -->
    <title>change-image</title>
    <desc>Created with Sketch.</desc>
    <defs></defs>
    <g id="Colour-/-Text-Options" stroke="none" stroke-width="1" fill="none" fill-rule="evenodd" sketch:type="MSPage">
        <g id="Edit-Element-Opacity" sketch:type="MSArtboardGroup" transform="translate(-189.000000, -447.000000)" fill="#677986">
            <g id="Change-Image-2" sketch:type="MSLayerGroup" transform="translate(30.000000, 429.000000)">
                <g id="-+-Change-Image" transform="translate(159.000000, 15.000000)" sketch:type="MSShapeGroup">
                    <path d="M19.6875,12.875 C18.9062461,12.875 18.2421902,12.6015652 17.6953125,12.0546875 C17.1484348,11.5078098 16.875,10.8437539 16.875,10.0625 C16.875,9.28124609 17.1484348,8.61719023 17.6953125,8.0703125 C18.2421902,7.52343477 18.9062461,7.25 19.6875,7.25 C20.4687539,7.25 21.1328098,7.52343477 21.6796875,8.0703125 C22.2265652,8.61719023 22.5,9.28124609 22.5,10.0625 C22.5,10.8437539 22.2265652,11.5078098 21.6796875,12.0546875 C21.1328098,12.6015652 20.4687539,12.875 19.6875,12.875 L19.6875,12.875 Z M24.609375,3.5 C25.0781273,3.5 25.4687484,3.65624844 25.78125,3.96875 C26.0937516,4.28125156 26.25,4.67187266 26.25,5.140625 L26.25,24.359375 C26.25,24.8281273 26.0937516,25.2187484 25.78125,25.53125 C25.4687484,25.8437516 25.0781273,26 24.609375,26 L1.640625,26 C1.17187266,26 0.781251563,25.8437516 0.46875,25.53125 C0.156248438,25.2187484 0,24.8281273 0,24.359375 L0,5.140625 C0,4.67187266 0.156248438,4.28125156 0.46875,3.96875 C0.781251563,3.65624844 1.17187266,3.5 1.640625,3.5 L24.609375,3.5 Z M18.5742188,15.1015625 L24.375,21.3125 L24.375,6.078125 C24.375,5.60937266 24.1210963,5.375 23.6132812,5.375 L2.63671875,5.375 C2.2070291,5.375 1.95312539,5.60937266 1.875,6.078125 L1.875,21.3125 L9.2578125,12.40625 C9.57031406,12.0937484 9.90234199,11.9375 10.2539062,11.9375 C10.6835959,11.9375 11.0156238,12.0742174 11.25,12.3476562 L14.4140625,15.8046875 L14.6484375,16.0390625 C14.8828137,16.1953133 15.0976553,16.2734375 15.2929688,16.2734375 C15.4882822,16.2734375 15.7226549,16.1757822 15.9960938,15.9804688 L17.0507812,15.0429688 C17.3242201,14.8476553 17.5781238,14.75 17.8125,14.75 C18.1250016,14.75 18.3789053,14.8671863 18.5742188,15.1015625 L18.5742188,15.1015625 Z" id="change-image"></path>
                </g>
            </g>
        </g>
    </g>
</svg>