<svg width="27" height="23" viewBox="0 0 27 23" xmlns="http://www.w3.org/2000/svg"><title>change-image</title><path d="M19.688 9.875c-.782 0-1.446-.273-1.993-.82-.547-.547-.82-1.21-.82-1.992s.273-1.446.82-1.993c.547-.547 1.21-.82 1.992-.82s1.446.273 1.993.82c.547.547.82 1.21.82 1.992s-.273 1.446-.82 1.993c-.547.547-1.21.82-1.992.82zM24.608.5c.47 0 .86.156 1.173.47.314.31.47.702.47 1.17v19.22c0 .468-.156.86-.47 1.17-.31.314-.702.47-1.17.47H1.64c-.468 0-.86-.156-1.17-.47-.314-.31-.47-.702-.47-1.17V2.14c0-.468.156-.86.47-1.17C.78.655 1.17.5 1.64.5h22.97zm-6.034 11.602l5.8 6.21V3.079c0-.47-.253-.703-.76-.703H2.636c-.43 0-.684.234-.762.703v15.235l7.383-8.907c.312-.312.644-.47.996-.47.43.002.762.138.996.412l3.164 3.457.234.234c.235.155.45.233.645.233s.43-.097.703-.293l1.055-.937c.274-.195.528-.293.762-.293.313 0 .567.117.762.352z" fill="#677986" fill-rule="evenodd"/></svg>