<svg width="15" height="19" viewBox="0 0 15 19" xmlns="http://www.w3.org/2000/svg">
    <g fill="none" fill-rule="evenodd">
        <g fill="#677986">
            <g>
                <g>
                    <g>
                        <path d="M14.14 6.61c.313-.053.6-.13.86-.235 0 .47-.117.937-.352 1.406-.703 1.277-1.7 2.312-2.988 3.107-1.29.794-2.65.853-4.082.175-1.9-.91-3.424-1.223-4.57-.937h-.04l-.077.04c-.39.13-.73.142-1.015.038V2.508c0-.313.124-.6.37-.86.248-.26.554-.43.92-.507 2.577-.468 4.504.495 5.78 2.89 1.12 2.11 2.852 2.97 5.196 2.58zM.938.75c.21 0 .313.104.313.313v16.875c0 .208-.104.312-.313.312H.313c-.208 0-.312-.104-.312-.313V1.063C0 .855.104.75.313.75h.625z"/>
                    </g>
                </g>
            </g>
        </g>
    </g>
</svg>
