<?xml version="1.0" encoding="UTF-8" standalone="no"?>
<svg width="239px" height="35px" viewBox="0 0 239 35" version="1.1" xmlns="http://www.w3.org/2000/svg" xmlns:xlink="http://www.w3.org/1999/xlink" xmlns:sketch="http://www.bohemiancoding.com/sketch/ns">
    <!-- Generator: Sketch 3.3.2 (12043) - http://www.bohemiancoding.com/sketch -->
    <title>full-wordmark</title>
    <desc>Created with Sketch.</desc>
    <defs></defs>
    <g id="UI-Toolkit" stroke="none" stroke-width="1" fill="none" fill-rule="evenodd" sketch:type="MSPage">
        <g id="Icons" sketch:type="MSArtboardGroup" transform="translate(-516.000000, -227.000000)" fill="#FFFFFF">
            <g id="full-wordmark" sketch:type="MSLayerGroup" transform="translate(516.000000, 227.000000)">
                <path d="M34.759188,16.354 C34.7395487,16.0286667 34.7145836,15.7526667 34.6766365,15.432 C34.2305919,14.657 33.1274638,14.2036667 32.013351,14.3183333 C30.0430989,14.5206667 28.2788928,15.688 26.6631462,16.8213333 L26.6631462,24.2346667 C28.3527897,22.513 30.1579387,20.7403333 31.392883,19.4743333 C32.8105724,18.02 34.3604109,16.5593333 34.4183301,16.501 C34.5198552,16.3993333 34.652337,16.341 34.759188,16.354" id="Fill-1" sketch:type="MSShapeGroup"></path>
                <path d="M34.7708384,16.895 C34.7688412,16.848 34.7758315,16.766 34.7738343,16.719 C34.7112549,16.6993333 34.6373579,16.759 34.5817688,16.8143333 L33.7282925,17.662 C33.8391379,17.6823333 33.8477925,17.7186667 33.9316755,17.757 L34.7708384,16.895" id="Fill-2" sketch:type="MSShapeGroup"></path>
                <path d="M32.2603398,19.1176667 C32.1841128,19.194 32.1754582,19.299 32.232046,19.3443333 C32.2886337,19.3893333 32.376844,19.3366667 32.4527382,19.2596667 L33.4493482,18.2896667 C33.3814429,18.324 33.3474903,18.324 33.264273,18.3293333 C33.2136769,18.3326667 33.1257994,18.3213333 33.0865209,18.2953333 L32.2603398,19.1176667" id="Fill-3" sketch:type="MSShapeGroup"></path>
                <path d="M34.7987994,17.366 L34.1833245,18.01 C34.6826281,18.5386667 34.3161393,19.9763333 34.5631281,20.327 C34.7165808,19.3983333 34.8004638,18.447 34.8004638,17.474 C34.8004638,17.456 34.7987994,17.3853333 34.7987994,17.366" id="Fill-4" sketch:type="MSShapeGroup"></path>
                <path d="M34.0921184,20.0013333 C34.0641574,19.4743333 34.2212716,18.778 33.8970571,18.305 C33.4150627,18.7983333 32.1455,20.062 31.2876964,20.8956667 C27.8464958,24.24 22.6171226,29.4706667 18.606383,33.3273333 C18.1037507,33.811 17.4653078,34.4286667 17.0981532,34.84 C17.2655864,34.8446667 17.299539,34.8316667 17.467305,34.8316667 C25.8309735,34.8316667 32.8348719,28.8386667 34.4649318,20.9473333 C34.2459039,20.7686667 34.1140877,20.4083333 34.0921184,20.0013333" id="Fill-5" sketch:type="MSShapeGroup"></path>
                <path d="M12.2529109,14.4483333 L12.2529109,22.353 C13.4778691,22.5163333 14.7247967,22.4236667 15.9587423,22.09 L15.9587423,15.551 C15.9587423,13.7866667 15.7034318,13.3736667 14.6745334,13.3736667 C13.9911532,13.3736667 13.0491337,13.7253333 12.2529109,14.4483333" id="Fill-6" sketch:type="MSShapeGroup"></path>
                <path d="M17.9722674,33.2366667 C20.3113384,30.8096667 23.4226657,27.6176667 26.2307493,24.7563333 L23.0731532,24.7563333 L23.0731532,19.211 C21.9224248,19.9703333 20.7134443,20.7176667 19.4568635,21.3746667 L19.4568635,24.7563333 L15.9587423,24.7563333 L15.9587423,22.623 C14.9092061,22.8946667 13.8383663,23.022 12.7515487,22.941 C12.5837827,22.9286667 12.4180139,22.9093333 12.2529109,22.8866667 L12.2529109,24.7563333 L8.64128134,24.7563333 L8.64128134,21.414 C6.54121031,19.8516667 5.30293733,17.536 5.75364206,14.403 C5.99463928,12.7323333 6.62575905,10.9123333 8.03679109,9.80233333 C9.22080641,8.871 10.810922,9.419 11.4543579,10.364 C11.6733858,10.6863333 11.8091964,11.0826667 11.9466713,11.799 C12.908663,10.8593333 14.0976713,10.364 15.3898691,10.364 C16.559571,10.364 17.5215627,10.744 18.2638607,11.5196667 C18.461585,11.715 18.6543162,11.966 18.8227479,12.213 C20.1159443,10.8866667 21.2703343,10.364 22.8205056,10.364 C23.9246323,10.364 24.9735028,10.694 25.6122786,11.244 C26.4075028,11.9343333 26.6631462,12.7656667 26.6631462,14.6993333 L26.6631462,16.219 C27.1611184,15.8893333 27.663085,15.5666667 28.1727075,15.2563333 C29.6453203,14.3606667 31.6235613,13.5076667 33.3867688,13.969 C33.8757535,14.0973333 34.2632131,14.3156667 34.5568036,14.5876667 C33.1833858,6.37633333 26.0573245,0.117333333 17.467305,0.117333333 C7.89432312,0.117333333 0.13414624,7.888 0.13414624,17.474 C0.13414624,26.75 7.28983287,34.3216667 16.432415,34.8023333 C16.8944373,34.3103333 17.4080543,33.8226667 17.9722674,33.2366667" id="Fill-7" sketch:type="MSShapeGroup"></path>
                <path d="M7.61404735,10.9316667 C6.78653482,11.879 6.35080919,13.4463333 6.23297354,14.657 C5.99730223,17.084 6.664039,19.2276667 8.64128134,20.782 L8.64128134,14.8896667 C8.64128134,12.847 8.49881337,11.966 8.11368384,11.271 C8.11368384,11.271 10.6464847,10.601 10.8834875,10.5363333 C10.59489,10.1736667 9.90784819,9.74766667 9.19617409,9.83933333 C8.65626045,9.90866667 8.12433565,10.3476667 7.61404735,10.9316667" id="Fill-8" sketch:type="MSShapeGroup"></path>
                <path d="M21.9141031,13.3996667 C21.2217354,13.3996667 20.2530864,13.871 19.4568635,14.5876667 L19.4568635,20.8146667 C20.5120585,20.2683333 21.525312,19.6523333 22.4669986,19.0463333 C22.6697159,18.9153333 22.8717674,18.783 23.0731532,18.649 L23.0731532,15.4186667 C23.0731532,13.7253333 22.8760947,13.3996667 21.9141031,13.3996667" id="Fill-9" sketch:type="MSShapeGroup"></path>
                <path d="M142.968935,24.8186667 L141.128834,24.8186667 L137.897008,14.0796667 C137.743556,13.6046667 137.572128,13.006 137.382726,12.2806667 C137.191992,11.558 137.093795,11.122 137.086139,10.9763333 C136.926695,11.9413333 136.670053,12.9983333 136.319542,14.1466667 L133.186578,24.8186667 L131.346811,24.8186667 L127.086419,8.78233333 L129.058003,8.78233333 L131.587475,18.6866667 C131.937986,20.0763333 132.194628,21.3346667 132.354405,22.46 C132.551464,21.1226667 132.844056,19.813 133.230517,18.5343333 L136.100514,8.78233333 L138.072097,8.78233333 L141.085228,18.622 C141.435407,19.755 141.730662,21.035 141.971659,22.46 C142.110798,21.4223333 142.373765,20.1576667 142.760226,18.6656667 L145.279379,8.78233333 L147.250962,8.78233333 L142.968935,24.8186667" id="Fill-10" sketch:type="MSShapeGroup"></path>
                <path d="M154.333418,25.038 C152.559226,25.038 151.15818,24.4973333 150.13261,23.4146667 C149.106708,22.332 148.593756,20.83 148.593756,18.906 C148.593756,16.969 149.069426,15.4293333 150.023096,14.2886667 C150.975435,13.1476667 152.256315,12.5773333 153.861742,12.5773333 C155.367309,12.5773333 156.556318,13.073 157.432762,14.064 C158.309206,15.055 158.747262,16.361 158.747262,17.9846667 L158.747262,19.137 L150.477795,19.137 C150.514078,20.5483333 150.869582,21.6196667 151.544974,22.3513333 C152.221696,23.0816667 153.17237,23.4483333 154.399326,23.4483333 C155.691857,23.4483333 156.968742,23.1773333 158.232979,22.6353333 L158.232979,24.2586667 C157.590209,24.5373333 156.981724,24.736 156.408524,24.8573333 C155.835989,24.9776667 155.144287,25.038 154.333418,25.038 L154.333418,25.038 Z M153.840106,14.103 C152.876117,14.103 152.108188,14.4163333 151.534655,15.045 C150.961454,15.6743333 150.623592,16.5443333 150.521734,17.6566667 L156.797648,17.6566667 C156.797648,16.508 156.542337,15.6283333 156.030717,15.018 C155.520429,14.4073333 154.790114,14.103 153.840106,14.103 L153.840106,14.103 Z" id="Fill-11" sketch:type="MSShapeGroup"></path>
                <path d="M167.209792,12.5993333 C168.787259,12.5993333 170.011552,13.139 170.885333,14.2176667 C171.75745,15.2966667 172.193175,16.8233333 172.193175,18.7973333 C172.193175,20.7716667 171.753455,22.305 170.873682,23.398 C169.993244,24.491 168.771614,25.038 167.209792,25.038 C166.42755,25.038 165.71521,24.8936667 165.068113,24.6043333 C164.422347,24.3153333 163.880103,23.8713333 163.442047,23.2726667 L163.310564,23.2726667 L162.926433,24.8186667 L161.623584,24.8186667 L161.623584,7.75133333 L163.442047,7.75133333 L163.442047,11.8973333 C163.442047,12.8263333 163.412089,13.66 163.35417,14.3983333 L163.442047,14.3983333 C164.288533,13.1996667 165.545114,12.5993333 167.209792,12.5993333 L167.209792,12.5993333 Z M166.946826,14.1233333 C165.704891,14.1233333 164.810472,14.4806667 164.262903,15.1933333 C163.715,15.907 163.442047,17.107 163.442047,18.7973333 C163.442047,20.4853333 163.722989,21.6946667 164.284539,22.4223333 C164.847753,23.15 165.748497,23.5126667 166.990765,23.5126667 C168.107873,23.5126667 168.940379,23.1063333 169.488281,22.2906667 C170.035851,21.4753333 170.309136,20.3033333 170.309136,18.7743333 C170.309136,17.2103333 170.035851,16.0436667 169.488281,15.2756667 C168.940379,14.508 168.092561,14.1233333 166.946826,14.1233333 L166.946826,14.1233333 Z" id="Fill-12" sketch:type="MSShapeGroup"></path>
                <path d="M190.448382,24.8186667 L190.448382,16.9986667 C190.448382,16.0396667 190.243334,15.321 189.834904,14.842 C189.425142,14.3636667 188.789695,14.1233333 187.928896,14.1233333 C186.796142,14.1233333 185.961306,14.45 185.419728,15.1003333 C184.880148,15.7506667 184.609525,16.7536667 184.609525,18.1056667 L184.609525,24.8186667 L182.791061,24.8186667 L182.791061,16.9986667 C182.791061,16.0396667 182.587345,15.321 182.177584,14.842 C181.769153,14.3636667 181.130045,14.1233333 180.261589,14.1233333 C179.122178,14.1233333 178.28701,14.4653333 177.757748,15.1493333 C177.229485,15.8333333 176.963855,16.9546667 176.963855,18.511 L176.963855,24.8186667 L175.145391,24.8186667 L175.145391,12.797 L176.624662,12.797 L176.919916,14.4423333 L177.007794,14.4423333 C177.351648,13.8576667 177.834974,13.4006667 178.45877,13.0706667 C179.083565,12.7426667 179.783589,12.5773333 180.556511,12.5773333 C182.433893,12.5773333 183.660848,13.2573333 184.236712,14.6173333 L184.324589,14.6173333 C184.682756,13.9893333 185.200701,13.4913333 185.880086,13.126 C186.559139,12.7606667 187.333726,12.5773333 188.201848,12.5773333 C189.56062,12.5773333 190.577202,12.9273333 191.252593,13.6253333 C191.928983,14.3236667 192.266513,15.4396667 192.266513,16.9753333 L192.266513,24.8186667 L190.448382,24.8186667" id="Fill-13" sketch:type="MSShapeGroup"></path>
                <path d="M203.169639,24.8186667 L202.808809,23.1076667 L202.721597,23.1076667 C202.122433,23.8613333 201.525599,24.3706667 200.930096,24.638 C200.334926,24.9053333 199.592628,25.038 198.700872,25.038 C197.511198,25.038 196.578499,24.731 195.901776,24.117 C195.226717,23.5026667 194.888855,22.629 194.888855,21.4943333 C194.888855,19.0673333 196.828483,17.795 200.706075,17.6773333 L202.743234,17.613 L202.743234,16.867 C202.743234,15.9223333 202.539851,15.227 202.135082,14.7763333 C201.728982,14.3273333 201.082217,14.103 200.190461,14.103 C199.190522,14.103 198.0591,14.4096667 196.794864,15.024 L196.236642,13.6306667 C196.828483,13.3093333 197.476579,13.0563333 198.180265,12.8743333 C198.884948,12.691 199.592628,12.5993333 200.299975,12.5993333 C201.731645,12.5993333 202.792499,12.9183333 203.48187,13.553 C204.172574,14.1903333 204.517759,15.21 204.517759,16.614 L204.517759,24.8186667 L203.169639,24.8186667 L203.169639,24.8186667 Z M199.062701,23.536 C200.194455,23.536 201.083549,23.225 201.728982,22.603 C202.376079,21.981 202.699628,21.1113333 202.699628,19.9926667 L202.699628,18.906 L200.881164,18.9833333 C199.435514,19.0346667 198.392968,19.2593333 197.753526,19.6583333 C197.114418,20.057 196.794864,20.6763333 196.794864,21.518 C196.794864,22.1756667 196.994918,22.6766667 197.391365,23.02 C197.789809,23.363 198.346366,23.536 199.062701,23.536 L199.062701,23.536 Z" id="Fill-14" sketch:type="MSShapeGroup"></path>
                <path d="M209.836341,18.6656667 C210.149238,18.2193333 210.628903,17.6333333 211.270341,16.9106667 L215.147933,12.797 L217.306256,12.797 L212.443039,17.92 L217.64545,24.8186667 L215.444187,24.8186667 L211.204766,19.137 L209.836341,20.3216667 L209.836341,24.8186667 L208.039847,24.8186667 L208.039847,7.75133333 L209.836341,7.75133333 L209.836341,16.7996667 C209.836341,17.2023333 209.806383,17.8246667 209.748464,18.6656667 L209.836341,18.6656667" id="Fill-15" sketch:type="MSShapeGroup"></path>
                <path d="M224.66233,25.038 C222.887805,25.038 221.487092,24.4973333 220.461189,23.4146667 C219.43562,22.332 218.922669,20.83 218.922669,18.906 C218.922669,16.969 219.397673,15.4293333 220.351675,14.2886667 C221.304014,13.1476667 222.584561,12.5773333 224.190655,12.5773333 C225.695556,12.5773333 226.884897,13.073 227.761341,14.064 C228.637453,15.055 229.075508,16.361 229.075508,17.9846667 L229.075508,19.137 L220.806708,19.137 C220.842325,20.5483333 221.198494,21.6196667 221.873553,22.3513333 C222.549943,23.0816667 223.50095,23.4483333 224.727905,23.4483333 C226.020436,23.4483333 227.297655,23.1773333 228.561558,22.6353333 L228.561558,24.2586667 C227.918455,24.5373333 227.310304,24.736 226.73677,24.8573333 C226.164568,24.9776667 225.472533,25.038 224.66233,25.038 L224.66233,25.038 Z M224.168352,14.103 C223.204696,14.103 222.436435,14.4163333 221.863234,15.045 C221.289701,15.6743333 220.952171,16.5443333 220.850313,17.6566667 L227.125894,17.6566667 C227.125894,16.508 226.870916,15.6283333 226.359297,15.018 C225.849008,14.4073333 225.118361,14.103 224.168352,14.103 L224.168352,14.103 Z" id="Fill-16" sketch:type="MSShapeGroup"></path>
                <path d="M237.428858,12.5773333 C237.961116,12.5773333 238.440447,12.6213333 238.863191,12.7093333 L238.611875,14.3983333 C238.114568,14.2886667 237.67618,14.2343333 237.297375,14.2343333 C236.32573,14.2343333 235.495887,14.6293333 234.805184,15.419 C234.115479,16.2086667 233.770294,17.192 233.770294,18.369 L233.770294,24.8186667 L231.95183,24.8186667 L231.95183,12.797 L233.452071,12.797 L233.66078,15.024 L233.748657,15.024 C234.193038,14.241 234.730621,13.6383333 235.358079,13.214 C235.986869,12.789 236.676241,12.5773333 237.428858,12.5773333" id="Fill-17" sketch:type="MSShapeGroup"></path>
                <path d="M46.7694373,10.989 C47.00411,11.3503333 47.1072994,11.673 47.2384499,12.353 C48.150844,11.46 49.2796031,10.989 50.5065585,10.989 C51.6186741,10.989 52.5320669,11.3503333 53.236085,12.0846667 C53.424156,12.2716667 53.6082326,12.5103333 53.7666783,12.745 C54.9962967,11.4843333 56.0931003,10.989 57.5657131,10.989 C58.6122535,10.989 59.6095292,11.3023333 60.2150181,11.824 C60.9702981,12.4806667 61.2126267,13.2693333 61.2126267,15.1066667 L61.2126267,24.6576667 L57.8040474,24.6576667 L57.8040474,15.788 C57.8040474,14.1816667 57.6173078,13.8716667 56.703915,13.8716667 C56.0451671,13.8716667 55.1274471,14.3196667 54.369837,14.9996667 L54.369837,24.6576667 L51.0478036,24.6576667 L51.0478036,15.9146667 C51.0478036,14.2396667 50.8054749,13.8473333 49.8285042,13.8473333 C49.1790766,13.8473333 48.2849903,14.1816667 47.5297103,14.868 L47.5297103,24.6576667 L44.0991616,24.6576667 L44.0991616,15.2873333 C44.0991616,13.3466667 43.9626852,12.5103333 43.5968621,11.851 L46.7694373,10.989" id="Fill-18" sketch:type="MSShapeGroup"></path>
                <path d="M73.7538022,12.98 C74.827305,14.2396667 75.305305,15.7106667 75.305305,17.8836667 C75.305305,20.195 74.7770418,21.7716667 73.6226518,23.0803333 C72.6044053,24.234 71.2656058,24.9453333 69.1984889,24.9453333 C65.5529067,24.9453333 63.1738914,22.2156667 63.1738914,17.9923333 C63.1738914,13.766 65.5788705,10.9606667 69.1984889,10.9606667 C71.1094903,10.9606667 72.6044053,11.6163333 73.7538022,12.98 L73.7538022,12.98 Z M67.4419387,14.9196667 C67.2026058,15.6306667 67.0761156,16.5753333 67.0761156,17.916 C67.0761156,19.458 67.2318983,20.6193333 67.5208287,21.2996667 C67.8377201,22.0326667 68.6276184,22.4003333 69.3003468,22.4003333 C70.8208928,22.4003333 71.4729833,21.0363333 71.4729833,17.862 C71.4729833,16.0513333 71.2359805,14.868 70.766968,14.264 C70.4291058,13.819 69.8805376,13.5556667 69.251415,13.5556667 C68.4085905,13.5556667 67.7282061,14.077 67.4419387,14.9196667 L67.4419387,14.9196667 Z" id="Fill-19" sketch:type="MSShapeGroup"></path>
                <path d="M86.5992201,11.2223333 L86.5992201,13.6356667 L80.6738175,22.2156667 L86.8288997,22.2156667 L85.9910682,24.6576667 L76.1158412,24.6576667 L76.1158412,22.4803333 L82.4240432,13.6896667 L76.6431058,13.6896667 L76.6431058,11.2223333 L86.5992201,11.2223333" id="Fill-20" sketch:type="MSShapeGroup"></path>
                <path d="M92.5359401,7.524 C92.5359401,8.73066667 91.5759457,9.69733333 90.362305,9.69733333 C89.1892744,9.69733333 88.221624,8.73066667 88.221624,7.524 C88.221624,6.31733333 89.2202312,5.34566667 90.4215557,5.34566667 C91.5992465,5.34566667 92.5359401,6.31733333 92.5359401,7.524 L92.5359401,7.524 Z M92.1238482,10.9063333 L92.1238482,24.6576667 L88.6134109,24.6576667 L88.6134109,11.46 L92.1238482,10.9063333 L92.1238482,10.9063333 Z" id="Fill-21" sketch:type="MSShapeGroup"></path>
                <path d="M98.5169318,8.73066667 L98.5169318,19.199 C98.5169318,21.514 98.5425627,21.8236667 98.7539345,22.19 C98.8904109,22.4273333 99.1736825,22.5553333 99.4626128,22.5553333 C99.5927646,22.5553333 99.6663287,22.5553333 99.8567298,22.5073333 L100.454896,24.6056667 C99.8567298,24.8383333 99.1224206,24.9696667 98.3621476,24.9696667 C96.8645696,24.9696667 95.6612479,24.2653333 95.2434972,23.1373333 C94.9782006,22.456 94.9239429,22.0326667 94.9239429,20.1176667 L94.9239429,10.0906667 C94.9239429,8.33433333 94.8773412,7.262 94.7435279,6.05033333 L98.3361838,5.236 C98.4626741,5.969 98.5169318,6.839 98.5169318,8.73066667" id="Fill-22" sketch:type="MSShapeGroup"></path>
                <path d="M105.797777,8.73066667 L105.797777,19.199 C105.797777,21.514 105.828734,21.8236667 106.045099,22.19 C106.166263,22.4273333 106.452531,22.5553333 106.746121,22.5553333 C106.876273,22.5553333 106.957493,22.5553333 107.142901,22.5073333 L107.742398,24.6056667 C107.142901,24.8383333 106.405929,24.9696667 105.642993,24.9696667 C104.149742,24.9696667 102.942093,24.2653333 102.525674,23.1373333 C102.256383,22.456 102.212444,22.0326667 102.212444,20.1176667 L102.212444,10.0906667 C102.212444,8.33433333 102.158187,7.262 102.027036,6.05033333 L105.609706,5.236 C105.753838,5.969 105.797777,6.839 105.797777,8.73066667" id="Fill-23" sketch:type="MSShapeGroup"></path>
                <path d="M111.305429,11.7206667 C112.614603,11.171 113.733376,10.9346667 114.97065,10.9346667 C117.228169,10.9346667 118.772015,11.771 119.300279,13.2693333 C119.475368,13.819 119.555256,14.2396667 119.538613,15.685 L119.45473,20.195 L119.45473,20.4313333 C119.45473,21.8753333 119.691733,22.4273333 120.717635,23.1853333 L118.856897,25.3426667 C118.03704,24.998 117.302731,24.393 116.962539,23.7143333 C116.705897,23.9776667 116.414969,24.234 116.149673,24.42 C115.497582,24.8936667 114.548905,25.1583333 113.447109,25.1583333 C110.462604,25.1583333 108.836539,23.6326667 108.836539,20.9616667 C108.836539,17.8076667 111.018163,16.3366667 115.284879,16.3366667 C115.542519,16.3366667 115.782185,16.3366667 116.073446,16.365 L116.073446,15.8166667 C116.073446,14.3196667 115.782185,13.819 114.490986,13.819 C113.37887,13.819 112.058046,14.3686667 110.619719,15.3413333 L109.123805,12.8213333 C109.837809,12.375 110.360747,12.1143333 111.305429,11.7206667 L111.305429,11.7206667 Z M115.859411,18.7796667 C113.431797,18.7796667 112.579985,19.2233333 112.579985,20.83 C112.579985,21.8753333 113.241063,22.5836667 114.135149,22.5836667 C114.784577,22.5836667 115.446986,22.2406667 115.9626,21.6663333 L116.021851,18.7796667 L115.859411,18.7796667 L115.859411,18.7796667 Z" id="Fill-24" sketch:type="MSShapeGroup"></path>
            </g>
        </g>
    </g>
</svg>