<svg width="15" height="21" viewBox="0 0 15 21" xmlns="http://www.w3.org/2000/svg"><title>I</title><path d="M14.506.214l-.22.967c-.303.01-.698.054-1.186.133-.49.078-.85.15-1.084.22-.41.126-.703.32-.88.585-.175.264-.302.552-.38.864L7.24 18.172c-.02.07-.034.147-.044.235-.01.088-.014.166-.014.235 0 .224.048.415.146.57.098.157.274.294.527.41.147.07.47.15.967.243.498.093.87.15 1.114.168l-.22.967H.356l.22-.967 1.17-.088c.51-.04.87-.097 1.085-.175.382-.137.67-.325.865-.564.196-.24.327-.53.396-.872L7.593 3.13c.02-.09.034-.177.044-.265.01-.088.014-.176.014-.263 0-.196-.04-.367-.124-.513-.083-.148-.256-.28-.52-.397-.264-.117-.623-.227-1.077-.33-.455-.102-.79-.163-1.004-.182l.22-.966h9.36z" fill="#677986" fill-rule="evenodd"/></svg>