<?xml version="1.0" encoding="UTF-8" standalone="no"?>
<svg width="23px" height="23px" viewBox="0 0 23 23" version="1.1" xmlns="http://www.w3.org/2000/svg" xmlns:xlink="http://www.w3.org/1999/xlink" xmlns:sketch="http://www.bohemiancoding.com/sketch/ns">
    <!-- Generator: Sketch 3.3.1 (12002) - http://www.bohemiancoding.com/sketch -->
    <title></title>
    <desc>Created with Sketch.</desc>
    <defs></defs>
    <g id="Page-1" stroke="none" stroke-width="1" fill="none" fill-rule="evenodd" sketch:type="MSPage">
        <path d="M19.9804688,20.4804688 L19.9804688,12.6875 L22.5,12.6875 L22.5,20.4804688 C22.5,21.1445346 22.2460963,21.7304662 21.7382812,22.2382812 C21.2304662,22.7460963 20.6445346,23 19.9804688,23 L2.51953125,23 C1.85546543,23 1.26953379,22.7460963 0.76171875,22.2382812 C0.253903711,21.7304662 0,21.1445346 0,20.4804688 L0,3.01953125 C0,2.35546543 0.253903711,1.76953379 0.76171875,1.26171875 C1.26953379,0.753903711 1.85546543,0.5 2.51953125,0.5 L10.3125,0.5 L10.3125,3.01953125 L2.51953125,3.01953125 L2.51953125,20.4804688 L19.9804688,20.4804688 Z M13.125,0.5 L22.5,0.5 L22.5,9.875 L19.9804688,9.875 L19.9804688,4.77734375 L7.3828125,17.375 L5.625,15.6171875 L18.2226562,3.01953125 L13.125,3.01953125 L13.125,0.5 Z" id="" fill="#669EFF" sketch:type="MSShapeGroup"></path>
    </g>
</svg>