<svg width="7" height="25" viewBox="0 0 7 25" xmlns="http://www.w3.org/2000/svg">
    <g fill="none" fill-rule="evenodd">
        <g fill="#6D7886">
            <g>
                <path d="M3.494 6.03c1.658 0 3.002-1.344 3.002-3.002C6.496 1.37 5.152.026 3.494.026 1.834.026.49 1.37.49 3.028c0 1.658 1.345 3.003 3.004 3.003zm0 9.008c1.658 0 3.002-1.344 3.002-3.002 0-1.658-1.344-3.003-3.002-3.003-1.66 0-3.003 1.345-3.003 3.003 0 1.658 1.345 3.002 3.004 3.002zm0 9.008c1.658 0 3.002-1.344 3.002-3.002 0-1.66-1.344-3.003-3.002-3.003-1.66 0-3.003 1.345-3.003 3.004 0 1.658 1.345 3.002 3.004 3.002z"/>
            </g>
        </g>
    </g>
</svg>
