<svg width="52" height="52" viewBox="0 0 52 52" xmlns="http://www.w3.org/2000/svg" xmlns:xlink="http://www.w3.org/1999/xlink">
    <defs>
        <path id="a" d="M25 50c13.807 0 25-11.193 25-25S38.807 0 25 0 0 11.193 0 25s11.193 25 25 25z"/>
    </defs>
    <g fill="none" fill-rule="evenodd">
        <g>
            <g>
                <g transform="translate(-247 -642) translate(248 643)">
                    <use fill="#FAFAFA" xlink:href="#a"/>
                    <use xlink:href="#a"/>
                    <use xlink:href="#a"/>
                    <use stroke="#A4A8AD" stroke-width=".5" xlink:href="#a"/>
                </g>
                <path d="M36.438 22.603c.407-.067.78-.17 1.118-.304 0 .608-.153 1.217-.457 1.827-.916 1.66-2.21 3.004-3.886 4.037-1.676 1.032-3.445 1.11-5.307.228-2.47-1.185-4.452-1.59-5.94-1.218h-.052l-.102.05c-.507.17-.948.187-1.32.05V17.272c0-.405.16-.777.482-1.116.322-.338.72-.56 1.194-.66 3.35-.61 5.856.643 7.514 3.758 1.456 2.742 3.707 3.86 6.754 3.35zm-17.164-7.617c.27 0 .407.136.407.406V37.33c0 .27-.135.406-.406.406h-.812c-.27 0-.406-.135-.406-.406V15.392c0-.27.135-.406.406-.406h.812z" fill="#669EFF"/>
            </g>
        </g>
    </g>
</svg>
