<svg width="52" height="52" viewBox="0 0 52 52" xmlns="http://www.w3.org/2000/svg" xmlns:xlink="http://www.w3.org/1999/xlink">
    <defs>
        <circle id="a" cx="25" cy="25" r="25"/>
    </defs>
    <g fill="none" fill-rule="evenodd">
        <g>
            <g>
                <g transform="translate(-246 -426) translate(247 427)">
                    <use fill="#FAFAFA" xlink:href="#a"/>
                    <use xlink:href="#a"/>
                    <use xlink:href="#a"/>
                    <use stroke="#A4A8AD" stroke-width=".5" xlink:href="#a"/>
                </g>
                <path d="M25.913 11.498c2.677 0 4.952.936 6.825 2.81 1.874 1.874 2.81 4.15 2.81 6.825 0 2.23-.802 5.04-2.408 8.43-1.606 3.39-3.212 6.224-4.818 8.5l-2.41 3.412c-.713-.982-1.605-2.242-2.675-3.78-1.07-1.54-2.498-4.127-4.283-7.763-1.784-3.635-2.676-6.568-2.676-8.8 0-2.675.937-4.95 2.81-6.824 1.874-1.874 4.15-2.81 6.825-2.81zm0 12.78c.892 0 1.64-.3 2.242-.903.602-.603.903-1.35.903-2.242 0-.892-.3-1.64-.903-2.24-.602-.604-1.35-.905-2.242-.905-.892 0-1.64.3-2.24.904-.604.602-.905 1.35-.905 2.24 0 .893.3 1.64.904 2.243.602.602 1.35.903 2.24.903z" fill="#669EFF"/>
            </g>
        </g>
    </g>
</svg>
