<?xml version="1.0" encoding="UTF-8" standalone="no"?>
<svg width="32px" height="33px" viewBox="0 0 32 33" version="1.1" xmlns="http://www.w3.org/2000/svg" xmlns:xlink="http://www.w3.org/1999/xlink" xmlns:sketch="http://www.bohemiancoding.com/sketch/ns">
    <!-- Generator: Sketch 3.3.1 (12002) - http://www.bohemiancoding.com/sketch -->
    <title>pencil</title>
    <desc>Created with Sketch.</desc>
    <defs></defs>
    <g id="Page-1" stroke="none" stroke-width="1" fill="none" fill-rule="evenodd" sketch:type="MSPage">
        <path d="M31.1231097,2.87264777 L29.303142,1.00148988 C28.0043533,-0.33382996 25.9251823,-0.33382996 24.7553022,1.00148988 L21.506251,4.34192713 C20.2074623,3.54030769 18.5177894,3.67355466 17.4782039,4.74238057 L14.2291528,8.08281781 L15.1391366,9.01768421 L3.70369648,20.7747692 C2.40421465,22.1115142 2.14431829,23.981247 2.66411102,25.5844858 L0.975131166,27.3216842 C-0.325043722,28.6577166 -0.325043722,30.7953684 0.975131166,31.9974413 C2.27391994,33.3341862 4.35309087,33.3341862 5.52297105,31.9974413 L7.21264396,30.2609555 C8.77202216,30.7953684 10.7208984,30.5281619 11.8907786,29.1921296 L23.3262187,17.4350445 L24.2355094,18.3706235 L27.4845605,15.0301862 C28.6537477,13.8274008 28.7833493,12.090915 27.8740586,10.8888421 L31.1231097,7.54840486 C32.2922968,6.34561943 32.2922968,4.20796761 31.1231097,2.87264777 L31.1231097,2.87264777 Z M12.2802766,25.1840324 L7.73243669,20.5082753 L16.9584112,11.0220891 L21.506251,15.6985587 L12.2802766,25.1840324 Z" id="Imported-Layers" opacity="0.9" fill="#FAFAFA" sketch:type="MSShapeGroup"></path>
    </g>
</svg>