<svg width="32" height="33" viewBox="0 0 32 33" xmlns="http://www.w3.org/2000/svg"><title>pencil</title><path d="M31.123 2.873L29.303 1c-1.3-1.334-3.378-1.334-4.548 0l-3.25 3.342c-1.298-.802-2.987-.668-4.027.4l-3.25 3.34.91.936L3.705 20.775c-1.3 1.337-1.56 3.206-1.04 4.81L.974 27.32c-1.3 1.336-1.3 3.473 0 4.675 1.3 1.337 3.38 1.337 4.55 0l1.69-1.736c1.558.535 3.507.268 4.677-1.068l11.436-11.757.91.936 3.25-3.34c1.168-1.203 1.297-2.94.388-4.14l3.25-3.342c1.168-1.202 1.168-3.34 0-4.675zM12.28 25.183L7.732 20.51l9.226-9.486 4.548 4.677-9.226 9.484z" opacity=".9" fill="#FAFAFA" fill-rule="evenodd"/></svg>