<svg width="49" height="49" viewBox="0 0 49 49" xmlns="http://www.w3.org/2000/svg">
    <path d="M44.365 20.293c1.077 0 1.988.394 2.733 1.182.746.787 1.118 1.72 1.118 2.797 0 1.078-.372 2.01-1.118 2.798-.745.787-1.656 1.18-2.733 1.18H28.34v16.04c0 1.08-.392 1.99-1.18 2.737-.786.746-1.718 1.12-2.794 1.12-1.077 0-2.008-.374-2.795-1.12-.78-.746-1.18-1.658-1.18-2.736V28.25H4.37c-1.076 0-1.987-.393-2.733-1.18-.745-.788-1.12-1.72-1.12-2.798 0-1.077.374-2.01 1.12-2.797.745-.788 1.656-1.182 2.732-1.182h16.02V4.253c0-1.078.39-1.99 1.18-2.735.78-.746 1.72-1.12 2.79-1.12 1.074 0 2.01.374 2.793 1.12.79.746 1.18 1.657 1.18 2.735v16.04h16.03z" fill="#C4C8CC" fill-rule="evenodd"/>
</svg>
