<?xml version="1.0" encoding="UTF-8" standalone="no"?>
<svg width="130px" height="130px" viewBox="0 0 130 130" version="1.1" xmlns="http://www.w3.org/2000/svg" xmlns:xlink="http://www.w3.org/1999/xlink" xmlns:sketch="http://www.bohemiancoding.com/sketch/ns">
    <!-- Generator: Sketch 3.3.2 (12043) - http://www.bohemiancoding.com/sketch -->
    <title>single-wordmark</title>
    <desc>Created with Sketch.</desc>
    <defs></defs>
    <g id="UI-Toolkit" stroke="none" stroke-width="1" fill="none" fill-rule="evenodd" sketch:type="MSPage">
        <g id="Icons" sketch:type="MSArtboardGroup" transform="translate(-625.000000, -61.000000)" fill="#FFFFFF">
            <g id="single-wordmark" sketch:type="MSLayerGroup" transform="translate(625.000000, 61.000000)">
                <path d="M129.369458,60.7571975 C129.297476,59.5449682 129.203154,58.5173885 129.061672,57.3225478 C127.400289,54.436051 123.289855,52.748535 119.136397,53.1757962 C111.794208,53.9284713 105.219831,58.2772611 99.1981439,62.496879 L99.1981439,90.1073885 C105.494521,83.6951592 112.221965,77.0933121 116.824691,72.377707 C122.108353,66.9624204 127.88348,61.521465 128.099426,61.3045223 C128.47754,60.9261146 128.97066,60.7083439 129.369458,60.7571975" id="Fill-1" sketch:type="MSShapeGroup"></path>
                <path d="M129.413309,62.7726115 C129.405863,62.5970701 129.431512,62.2907006 129.424065,62.1168153 C129.191571,62.043121 128.915225,62.2658599 128.70838,62.4712102 L125.527923,65.6292994 C125.941614,65.7046497 125.973055,65.8404459 126.286632,65.9812102 L129.413309,62.7726115" id="Fill-2" sketch:type="MSShapeGroup"></path>
                <path d="M120.057273,71.0495541 C119.774308,71.3335669 119.741213,71.726051 119.952195,71.8941401 C120.16235,72.0614013 120.490821,71.8651592 120.774613,71.5786624 L124.488731,67.9659873 C124.235552,68.0935032 124.108135,68.0935032 123.797867,68.1142038 C123.610051,68.1257962 123.282408,68.0843949 123.136789,67.9866879 L120.057273,71.0495541" id="Fill-3" sketch:type="MSShapeGroup"></path>
                <path d="M129.516732,64.5255414 L127.224056,66.9243312 C129.084838,68.8933758 127.718003,74.2473885 128.639707,75.5540127 C129.210601,72.0953503 129.523351,68.5514013 129.523351,64.9279618 C129.523351,64.8617197 129.516732,64.5984076 129.516732,64.5255414" id="Fill-4" sketch:type="MSShapeGroup"></path>
                <path d="M126.884002,74.3409554 C126.779752,72.377707 127.364711,69.7843312 126.157561,68.023121 C124.360487,69.8613376 119.629516,74.5670064 116.432512,77.6729299 C103.608918,90.1272611 84.1199334,109.609045 69.174104,123.972803 C67.2992562,125.77293 64.9205328,128.074841 63.5528703,129.606688 C64.175889,129.624076 64.3024784,129.575223 64.9279793,129.575223 C96.097116,129.575223 122.19771,107.25414 128.273177,77.8642038 C127.456551,77.1976433 126.965913,75.856242 126.884002,74.3409554" id="Fill-5" sketch:type="MSShapeGroup"></path>
                <path d="M45.4944296,53.6593631 L45.4944296,83.0998089 C50.0607512,83.7075796 54.7081562,83.363121 59.3067456,82.1194268 L59.3067456,57.7671975 C59.3067456,51.1951592 58.3536015,49.6575159 54.5203404,49.6575159 C51.9736585,49.6575159 48.4630764,50.9666242 45.4944296,53.6593631" id="Fill-6" sketch:type="MSShapeGroup"></path>
                <path d="M66.8102735,123.634968 C75.525916,114.594586 87.1225029,102.70828 97.5864037,92.0499363 L85.8202035,92.0499363 L85.8202035,71.3973248 C81.5310549,74.2258599 77.0251323,77.0096815 72.3429772,79.4556688 L72.3429772,92.0499363 L59.3067456,92.0499363 L59.3067456,84.1050318 C55.3948833,85.116051 51.4044196,85.5913376 47.3527297,85.2899363 C46.7288836,85.2435669 46.1108292,85.1723567 45.4944296,85.0878981 L45.4944296,92.0499363 L32.0362331,92.0499363 L32.0362331,79.6030573 C24.2100263,73.7828662 19.5948892,65.1589809 21.2753021,53.4912739 C22.1730117,47.2686624 24.5252588,40.4896178 29.7840992,36.3561146 C34.1957003,32.8875159 40.1222379,34.9285987 42.5199911,38.447707 C43.3366172,39.6475159 43.8421476,41.1238854 44.3534698,43.7926115 C47.9393436,40.2925478 52.3708019,38.447707 57.1861654,38.447707 C61.5456414,38.447707 65.1298605,39.8636306 67.8974535,42.7517834 C68.6329961,43.4804459 69.3511637,44.4152866 69.9791467,45.3335669 C74.7978198,40.3943949 79.1018612,38.447707 84.876988,38.447707 C88.9932137,38.447707 92.9017665,39.6764968 95.2821447,41.7258599 C98.2449998,44.296051 99.1981439,47.3920382 99.1981439,54.5942038 L99.1981439,60.254586 C101.053962,59.0257962 102.924673,57.8251592 104.823515,56.6700637 C110.312367,53.333121 117.683514,50.1559873 124.255409,51.8741401 C126.076477,52.3527389 127.521086,53.1658599 128.615713,54.178535 C123.497527,23.596242 96.9410457,0.284840764 64.9279793,0.284840764 C29.2529199,0.284840764 0.332607586,29.2259873 0.332607586,64.9279618 C0.332607586,99.4756688 26.9999586,127.674904 61.0723789,129.466752 C62.7933336,127.633503 64.7070683,125.816815 66.8102735,123.634968" id="Fill-7" sketch:type="MSShapeGroup"></path>
                <path d="M28.2079364,40.5616561 C25.1234561,44.0898726 23.5001325,49.9274522 23.0607926,54.436051 C22.1829402,63.4756051 24.6683959,71.4594268 32.0362331,77.2481529 L32.0362331,55.3029936 C32.0362331,47.6959236 31.5050538,44.4152866 30.0703734,41.826879 C30.0703734,41.826879 39.5091478,39.3303822 40.3919645,39.0902548 C39.3171952,37.7389172 36.7556204,36.1524204 34.1038609,36.4943949 C32.0916677,36.7527389 30.1100877,38.3864331 28.2079364,40.5616561" id="Fill-8" sketch:type="MSShapeGroup"></path>
                <path d="M81.4996144,49.7543949 C78.9198372,49.7543949 75.3099693,51.5098089 72.3429772,54.178535 L72.3429772,77.3707006 C76.2755241,75.334586 80.0508685,73.0409554 83.5606231,70.783758 C84.3160229,70.296051 85.0681132,69.8033758 85.8202035,69.3040764 L85.8202035,57.2728662 C85.8202035,50.9666242 85.0846609,49.7543949 81.4996144,49.7543949" id="Fill-9" sketch:type="MSShapeGroup"></path>
            </g>
        </g>
    </g>
</svg>