<?xml version="1.0" encoding="utf-8"?>
<!-- Generator: Adobe Illustrator 18.1.1, SVG Export Plug-In . SVG Version: 6.00 Build 0)  -->
<!DOCTYPE svg PUBLIC "-//W3C//DTD SVG 1.1//EN" "http://www.w3.org/Graphics/SVG/1.1/DTD/svg11.dtd">
<svg version="1.1" id="Layer_1" xmlns="http://www.w3.org/2000/svg" xmlns:xlink="http://www.w3.org/1999/xlink" x="0px" y="0px"
	 viewBox="0 0 50 50" enable-background="new 0 0 50 50" xml:space="preserve">
<path fill="#7A8C98" d="M43,9.4c1,0,2,0.4,2.7,1.2s1.2,1.7,1.2,2.7v26.6c0,1-0.4,2-1.2,2.7S44,43.8,43,43.8H7c-1,0-2-0.4-2.7-1.2
	s-1.2-1.7-1.2-2.7V13.3c0-1,0.4-2,1.2-2.7S6,9.4,7,9.4h8.6l3.1-3.1h12.5l3.1,3.1H43z M17.3,35.1c2.1,2.1,4.7,3.2,7.7,3.2
	c3,0,5.6-1.1,7.7-3.2s3.2-4.7,3.2-7.7c0-3-1.1-5.6-3.2-7.7S28,16.4,25,16.4c-3,0-5.6,1.1-7.7,3.2s-3.2,4.7-3.2,7.7
	C14.1,30.3,15.1,32.9,17.3,35.1z M25,33.5c-4.1,0-6.2-2.1-6.2-6.2s2.1-6.2,6.2-6.2s6.2,2.1,6.2,6.2S29.1,33.5,25,33.5z"/>
</svg>
