<svg xmlns="http://www.w3.org/2000/svg" viewBox="0 0 50 50" enable-background="new 0 0 50 50"><path fill="#7A8C98" d="M43 9.4c1 0 2 .4 2.7 1.2s1.2 1.7 1.2 2.7v26.6c0 1-.4 2-1.2 2.7S44 43.8 43 43.8H7c-1 0-2-.4-2.7-1.2s-1.2-1.7-1.2-2.7V13.3c0-1 .4-2 1.2-2.7S6 9.4 7 9.4h8.6l3.1-3.1h12.5l3.1 3.1H43zM17.3 35.1c2.1 2.1 4.7 3.2 7.7 3.2s5.6-1.1 7.7-3.2 3.2-4.7 3.2-7.7-1.1-5.6-3.2-7.7-4.7-3.3-7.7-3.3-5.6 1.1-7.7 3.2-3.2 4.7-3.2 7.7 1 5.6 3.2 7.8zm7.7-1.6c-4.1 0-6.2-2.1-6.2-6.2s2.1-6.2 6.2-6.2 6.2 2.1 6.2 6.2-2.1 6.2-6.2 6.2z"/></svg>