<svg width="31" height="19" viewBox="0 0 31 19" xmlns="http://www.w3.org/2000/svg"><title>Aa</title><path d="M.125 18v-1.5l2.05-.475 5.7-15.4 2.5-.125 5.55 15.525L18 16.5V18h-7.25v-1.5l2.325-.475-.95-2.775h-6.5l-.975 2.775L7 16.5V18H.125zm8.8-14.275L6.3 11.25h5.15L8.925 3.725zM19.5 5.5c1.8-.667 3.45-1 4.95-1 1.467 0 2.592.296 3.375.888.783.59 1.175 1.587 1.175 2.987V16l2 .5v1.375L27.125 18l-.525-1.75c-1.333 1.333-2.65 2-3.95 2-1.3 0-2.275-.325-2.925-.975-.65-.65-.975-1.575-.975-2.775 0-2.583 1.917-3.875 5.75-3.875h2v-2c0-1.5-.792-2.25-2.375-2.25-.9 0-1.642.092-2.225.275l-.3.1-.35 1.875h-1.625L19.5 5.5zm7 6.75h-1.75c-1.25 0-2.137.162-2.663.488-.525.325-.787.83-.787 1.512 0 .65.154 1.146.462 1.488.31.34.755.512 1.338.512.283 0 .57-.05.862-.15.292-.1.575-.225.85-.375.276-.15.52-.312.738-.487.217-.176.392-.338.525-.488l.425-.5v-2z" fill="#669EFF" fill-rule="evenodd"/></svg>