<svg width="208" height="147" viewBox="0 0 208 147" xmlns="http://www.w3.org/2000/svg" xmlns:xlink="http://www.w3.org/1999/xlink">
    <defs>
        <path id="a" d="M4.944.71l82.6 22.656c.867.212 1.385 1.105 1.14 1.968L85.74 35.74c-.24.846-1.126 1.333-1.967 1.08L2.546 10.152C1.74 9.91 1.268 9.077 1.47 8.258l1.57-6.39C3.25 1.022 4.1.505 4.945.712"/>
        <path id="b" d="M92.093 32.015c.762 0 1.472-.618 1.562-1.378.646-5.448 1.24-28.628-24.16-29.126-20.326-.4-48.36-.3-61.962-.59-.21-.002-.676.91-1.07.466 0 0-2.093.02-3.674-.19-1.17-.153-1.88.627-1.53 1.75l6.02 29.08"/>
    </defs>
    <g fill="none" fill-rule="evenodd">
        <g transform="rotate(-8 159.856 49.011) translate(114.97 30.039)">
            <mask>
                <use xlink:href="#a"/>
            </mask>
            <use fill="#FD6E1E" xlink:href="#a"/>
        </g>
        <path d="M.263 42.95c0 56.402 50.766 57.17 50.766 57.17l-20.02 29.43 16.03 7.353 7.76-11.58-2.45 13.796 17.94 7.02 1.57-31.87s19.984-1.53 31.643-8.73c9.964-6.16 19.585-16.15 19.253-40.71-.334-24.57.006-60.13.006-60.13l-7.587-3.48S99.025-.808 85.2 5.112c-13.826 5.915-28.33 19.74-32.495 39.44L3.593 20.713c-.828-.4-1.816-.02-2.15.84" fill="#1C394B"/>
        <path d="M176.328.912h-52.5" fill="#fff"/>
        <g transform="translate(113.395)">
            <mask>
                <use xlink:href="#b"/>
            </mask>
            <use fill="#FD6E1E" xlink:href="#b"/>
        </g>
        <path d="M115.188 1.23S99.035-.802 85.208 5.115c-13.827 5.916-28.33 19.74-32.496 39.44L3.594 20.715c-.828-.4-2.13.628-2.463 1.488l-.95 20.2c0 5.653.35 10.853 1.27 15.442.65 2.557 2.11 7.174 2.82 9.712 10.69 31.42 42.11 32.346 46.29 32.546 52.05-23.18 44.998-72.698 44.998-72.698l23.624-15.282c-4.02 3.31-.262-7.115-.262-7.115L115.2 1.23l3.42 28.24" fill="#375365"/>
        <path d="M120.928.912l-8.205.097c-.123 0-.235.01-.354.04-2.23.57-25.23 7-25.23 30.7 0 27.16 27.36 27.15 34.072 26.73.83-.05 2.02-1.23 2.016-2.067l-.717-53.93c-.003-.88-.72-1.59-1.594-1.58" fill="#FFCE36"/>
        <path d="M115.616 24.77c0-8.946-7.223-16.196-16.132-16.196-8.91 0-16.134 7.25-16.134 16.196 0 6.85 2.747 16.194 16.134 16.194 12.86 0 16.132-9.608 16.132-16.194" fill="#fff"/>
        <path d="M108.67 24.506c0-4.22-3.408-7.64-7.61-7.64-4.206 0-7.614 3.42-7.614 7.64s3.408 7.64 7.613 7.64c4.2 0 7.61-3.42 7.61-7.64l-5.91 2.393" fill="#4A4A4A"/>
    </g>
</svg>
