<?xml version="1.0" encoding="UTF-8" standalone="no"?>
<svg width="208px" height="147px" viewBox="0 0 208 147" version="1.1" xmlns="http://www.w3.org/2000/svg" xmlns:xlink="http://www.w3.org/1999/xlink" xmlns:sketch="http://www.bohemiancoding.com/sketch/ns">
    <!-- Generator: Sketch 3.2.2 (9983) - http://www.bohemiancoding.com/sketch -->
    <title>Untitled 3</title>
    <desc>Created with Sketch.</desc>
    <defs>
        <path id="path-1" d="M4.94372388,0.711454353 L87.5428136,23.365742 C88.4106033,23.5775973 88.9287572,24.4708677 88.6846421,25.334099 L85.737937,35.7387237 C85.4985468,36.5861449 84.6118578,37.0730958 83.770842,36.8201343 L2.54509646,10.1516631 C1.7403042,9.90976863 1.26782342,9.07657654 1.46941522,8.25761353 L3.04120128,1.86875343 C3.24909282,1.02133225 4.10113316,0.504342086 4.94372388,0.711454353"></path>
        <path id="path-3" d="M92.0928035,32.0154459 C92.8550725,32.0154459 93.5653686,31.3972711 93.6551399,30.6368055 C94.3008637,25.1886461 94.8946145,2.0094633 69.4940478,1.51144525 C49.1694997,1.1114498 21.1340652,1.20314836 7.53291855,0.912242582 C7.32345207,0.907499553 6.85727103,1.82132314 6.46353705,1.37547842 C6.46353705,1.37547842 4.3704472,1.39445053 2.78921153,1.18575726 C1.62533388,1.03239932 0.908738031,1.81183709 1.25994874,2.93593496 L7.28407867,32.0154459"></path>
    </defs>
    <g id="Page-1" stroke="none" stroke-width="1" fill="none" fill-rule="evenodd" sketch:type="MSPage">
        <g id="toucan2" sketch:type="MSLayerGroup">
            <g id="Fill-1" transform="translate(159.855997, 49.011300) rotate(-8.000000) translate(-159.855997, -49.011300) translate(114.970323, 30.039184)">
                <mask id="mask-2" sketch:name="Fill 1" fill="white">
                    <use xlink:href="#path-1"></use>
                </mask>
                <use fill="#FD6E1E" sketch:type="MSShapeGroup" xlink:href="#path-1"></use>
            </g>
            <path d="M0.2630143,42.9512898 C0.2630143,99.3522289 51.029499,100.1206 51.029499,100.1206 L31.0152132,129.547933 L47.0449111,136.901209 L54.8046204,125.320313 L52.3618948,139.116203 L70.300415,146.140629 L71.8722011,114.272217 C71.8722011,114.272217 91.8549882,112.7418 103.514239,105.540301 C113.478858,99.3854301 123.100142,89.398192 122.767831,64.8324637 C122.433944,40.2667354 122.77413,4.7066658 122.77413,4.7066658 L115.187664,1.23002553 C115.187664,1.23002553 99.0351211,-0.801571905 85.2071836,5.11456629 C71.3808211,11.0307045 56.8788111,24.8550531 52.7115306,44.5560146 L3.59400379,20.7143887 C2.76558749,20.3128123 1.77810266,20.6938356 1.44421625,21.5539049" id="Fill-2" fill="#1C394B" sketch:type="MSShapeGroup"></path>
            <path d="M176.328252,0.912242582 L123.829337,0.912242582" id="Fill-3" fill="#FFFFFF" sketch:type="MSShapeGroup"></path>
            <g id="Fill-4-+-Rectangle-84" transform="translate(113.395387, 0.000000)">
                <mask id="mask-4" sketch:name="Fill 4" fill="white">
                    <use xlink:href="#path-3"></use>
                </mask>
                <use id="Fill-4" fill="#FD6E1E" sketch:type="MSShapeGroup" xlink:href="#path-3"></use>
            </g>
            <path d="M115.187664,1.23002553 C115.187664,1.23002553 99.0351211,-0.801571905 85.2071836,5.11456629 C71.3808211,11.0307045 56.8788111,24.8550531 52.7115306,44.5560146 L3.59400379,20.7143887 C2.76558749,20.3128123 1.4651026,21.3420002 1.13121619,22.2020694 L0.176872687,42.4031735 C0.176872687,48.0552831 0.529129255,53.254594 1.44574197,57.8442651 C2.09461557,60.4007577 3.55625454,65.01822 4.26340078,67.5557405 C14.9524909,98.9751457 46.3676887,99.9024203 50.5522934,100.101627 C102.602351,76.9208637 95.546638,27.4036407 95.546638,27.4036407 L119.170677,12.1216012 C115.149865,15.4306544 118.907663,5.00705764 118.907663,5.00705764 L115.187664,1.23002553 L118.60621,29.4632887" id="Fill-5" fill="#375365" sketch:type="MSShapeGroup"></path>
            <path d="M120.928305,0.912242582 L112.722889,1.00868417 C112.600044,1.01026518 112.488224,1.02291326 112.368529,1.05295244 C110.143144,1.62053492 87.1459297,8.0568253 87.1459297,31.7514173 C87.1459297,58.9163255 114.512016,58.8989344 121.222818,58.4862909 C122.05281,58.4341175 123.241886,57.2578463 123.238736,56.4230732 L122.522141,2.48850923 C122.518991,1.60946785 121.80397,0.901175514 120.928305,0.912242582" id="Fill-6" fill="#FFCE36" sketch:type="MSShapeGroup"></path>
            <path d="M115.616047,24.7696786 C115.616047,15.8243258 108.39339,8.57381546 99.4839778,8.57381546 C90.5729903,8.57381546 83.3503341,15.8243258 83.3503341,24.7696786 C83.3503341,31.6201935 86.0970224,40.9639606 99.4839778,40.9639606 C112.344905,40.9639606 115.616047,31.3561649 115.616047,24.7696786" id="Fill-7" fill="#FFFFFF" sketch:type="MSShapeGroup"></path>
            <path d="M108.670579,24.5056499 C108.670579,20.2859351 105.262418,16.8646302 101.058914,16.8646302 C96.8538348,16.8646302 93.4456735,20.2859351 93.4456735,24.5056499 C93.4456735,28.7253648 96.8538348,32.1466697 101.058914,32.1466697 C105.262418,32.1466697 108.670579,28.7253648 108.670579,24.5056499 L102.761493,26.8987798" id="Fill-8" fill="#4A4A4A" sketch:type="MSShapeGroup"></path>
        </g>
    </g>
</svg>