<svg width="20" height="26" viewBox="0 0 20 26" xmlns="http://www.w3.org/2000/svg"><title>U</title><g fill="#677986" fill-rule="evenodd"><path d="M1 24h19v2H1zM19.96 1.57c-.256.01-.63.064-1.122.164-.492.1-.893.25-1.203.452-.31.21-.524.642-.643 1.298-.118.657-.178 1.46-.178 2.407v8.436c0 1.076-.223 2.01-.67 2.803-.446.792-1.034 1.444-1.763 1.954-.72.492-1.478.845-2.276 1.06-.797.214-1.56.32-2.29.32-1.166 0-2.205-.152-3.117-.457-.91-.306-1.677-.718-2.297-1.237-.61-.52-1.07-1.115-1.38-1.785-.31-.67-.465-1.37-.465-2.098V3.417c0-.32-.053-.587-.158-.8-.104-.215-.316-.413-.635-.596-.228-.126-.52-.23-.875-.306C.53 1.636.24 1.59.012 1.57V.6h8.08v.97c-.255.01-.577.05-.964.123s-.672.142-.855.205c-.31.11-.517.292-.622.547-.103.256-.156.534-.156.834v10.718c0 .52.057 1.064.17 1.634.115.57.34 1.1.678 1.593.355.5.838.91 1.45 1.23.61.32 1.448.48 2.515.48 1.002 0 1.843-.16 2.522-.48.678-.32 1.214-.738 1.606-1.258.373-.492.638-1.007.793-1.545.153-.537.23-1.08.23-1.627V6.068c0-1.01-.072-1.84-.218-2.48-.146-.644-.36-1.065-.642-1.266-.32-.228-.755-.405-1.306-.533-.55-.13-.973-.2-1.265-.22V.6h7.93v.97z"/></g></svg>