<?xml version="1.0" encoding="utf-8"?>
<!-- Generator: Adobe Illustrator 18.0.0, SVG Export Plug-In . SVG Version: 6.00 Build 0)  -->
<!DOCTYPE svg PUBLIC "-//W3C//DTD SVG 1.1//EN" "http://www.w3.org/Graphics/SVG/1.1/DTD/svg11.dtd">
<svg version="1.1" id="Layer_12" xmlns="http://www.w3.org/2000/svg" xmlns:xlink="http://www.w3.org/1999/xlink" x="0px" y="0px"
	 viewBox="0 0 1024 1024" enable-background="new 0 0 1024 1024" xml:space="preserve">
<g>
	<path fill="#F2F6FC" d="M1022.1,512.3c0,396.5-102.7,495.7-509.8,495.7S2.4,908.8,2.4,512.3S105.1,16.6,512.2,16.6
		S1022.1,115.7,1022.1,512.3z"/>
	<g>
		<linearGradient id="SVGID_1_" gradientUnits="userSpaceOnUse" x1="272.1682" y1="512.2812" x2="757.7773" y2="512.2812">
			<stop  offset="5.641727e-02" style="stop-color:#FF5E72"/>
			<stop  offset="1" style="stop-color:#F89458"/>
		</linearGradient>
		<path fill="url(#SVGID_1_)" d="M706.7,173.2h-51.1c-43.8,0-63.9,17.3-76.7,43.8L272.2,843.2c8.2,3.7,17.3,8.2,44.7,8.2h63.9
			c39.3,0,58.4-17.3,71.2-43.8l305.8-625.3C745.9,175.9,733.1,173.2,706.7,173.2z"/>
		<linearGradient id="SVGID_2_" gradientUnits="userSpaceOnUse" x1="760.972" y1="851.386" x2="760.972" y2="182.3045">
			<stop  offset="0.4188" style="stop-color:#FF8065"/>
			<stop  offset="0.5094" style="stop-color:#F7B5A1"/>
			<stop  offset="0.6206" style="stop-color:#ED8F70"/>
			<stop  offset="0.7438" style="stop-color:#E46B40"/>
			<stop  offset="0.8526" style="stop-color:#DD501D"/>
			<stop  offset="0.9417" style="stop-color:#D94008"/>
			<stop  offset="1" style="stop-color:#D73A00"/>
		</linearGradient>
		<path fill="url(#SVGID_2_)" d="M757.8,182.3l-76.7,156.1l64.8,132.4c8.2,16.4,12.8,29.2,12.8,41.1c0,11.9-4.6,23.7-12.8,41.1
			L604.4,843.2c9.1,4.6,21,8.2,37.4,8.2h69.4c34.7,0,55.7-11.9,70.3-35.6l125.1-256.5c7.3-16.4,11-31.9,11-47.5
			c0-16.4-4.6-33.8-13.7-52.9L786.1,217C778.8,201.5,771.5,189.6,757.8,182.3z"/>
		<linearGradient id="SVGID_3_" gradientUnits="userSpaceOnUse" x1="262.5839" y1="173.1765" x2="262.5839" y2="843.1709">
			<stop  offset="0.4799" style="stop-color:#FF686E"/>
			<stop  offset="0.5759" style="stop-color:#EE0030"/>
			<stop  offset="1" style="stop-color:#C00000"/>
		</linearGradient>
		<path fill="url(#SVGID_3_)" d="M279.5,552.9c-8.2-16.4-11-27.4-11-41.1c0-11.9,3.7-26.5,11-41.1L418.2,185
			c-11.9-8.2-26.5-11.9-60.2-11.9h-47.5c-35.6,0-57.5,13.7-72.1,43.8L116.1,466.2c-6.4,16.4-9.1,31.9-9.1,46.6
			c0,16.4,3.7,32.9,11.9,50.2l119.6,244.6c8.2,16.4,19.2,29.2,33.8,35.6L347,690.7L279.5,552.9z"/>
		<path fill="#D71400" d="M418.2,185l-74.8,154.3L431,518.2h0.9l79.4-163.4L443.8,217C437.4,204.2,430.1,192.3,418.2,185z"/>
		<path fill="#DD2B00" d="M591.6,521l-80.3,164.3l59.3,122.3c8.2,15.5,19.2,27.4,33.8,35.6l73-148.8L591.6,521z"/>
	</g>
</g>
</svg>
