<svg width="11" height="11" viewBox="0 0 11 11" xmlns="http://www.w3.org/2000/svg">
    <path d="M10.227 9.332c.182.2.273.438.273.71 0 .274-.09.502-.273.685-.183.182-.41.273-.684.273-.273 0-.51-.09-.71-.273L5.25 7.145l-3.582 3.582c-.2.182-.428.273-.684.273C.73 11 .5 10.91.3 10.727c-.2-.183-.3-.41-.3-.684 0-.273.1-.51.3-.71L3.856 5.75.3 2.168c-.2-.2-.3-.438-.3-.71C0 1.183.1.955.3.772.5.59.73.5.985.5c.256 0 .483.09.684.273l3.58 3.582L8.832.773C9.032.59 9.27.5 9.542.5c.274 0 .502.09.685.273.182.183.273.41.273.684 0 .273-.09.51-.273.71L6.645 5.75l3.582 3.582z" fill="#E6EAFF" fill-rule="evenodd"/>
</svg>
