<svg width="43" height="31" viewBox="0 0 43 31" xmlns="http://www.w3.org/2000/svg">
    <g transform="translate(-.296 -.337)" fill="#FAFAFA" fill-rule="evenodd">
        <rect x="29.088" y="8.96" width="13.912" height="3.84" rx="8"/>
        <rect x="34.147" y="3.84" width="3.794" height="14.08" rx="8"/>
        <path d="M21.813 13.522c0-2.506-.88-4.65-2.64-6.43-1.76-1.782-3.878-2.673-6.354-2.673-2.48 0-4.6.89-6.36 2.67-1.76 1.78-2.64 3.92-2.64 6.43s.88 4.65 2.64 6.43c1.76 1.78 3.88 2.67 6.35 2.67 2.473 0 4.59-.89 6.35-2.67 1.76-1.78 2.64-3.93 2.64-6.43zm8.012 14.917c0 .62-.225 1.15-.674 1.61-.44.45-.98.68-1.59.68-.64 0-1.17-.23-1.59-.68L19.9 23.92c-2.114 1.48-4.47 2.22-7.07 2.22-1.69 0-3.303-.33-4.844-1-1.54-.665-2.87-1.56-3.986-2.69s-2.006-2.47-2.662-4.03c-.654-1.558-.98-3.194-.98-4.9 0-1.71.326-3.345.982-4.905C1.99 7.06 2.878 5.71 3.99 4.58c1.118-1.13 2.447-2.026 3.988-2.69 1.54-.66 3.155-.99 4.844-.99 1.687 0 3.302.332 4.844.996 1.54.663 2.87 1.56 3.985 2.69 1.12 1.128 2 2.473 2.66 4.033.66 1.56.99 3.19.99 4.9 0 2.63-.73 5.01-2.195 7.15l6.076 6.15c.436.44.655.98.655 1.61z"/>
    </g>
</svg>
