<?xml version="1.0" encoding="utf-8"?>
<!-- Generator: Adobe Illustrator 17.0.0, SVG Export Plug-In . SVG Version: 6.00 Build 0)  -->
<!DOCTYPE svg PUBLIC "-//W3C//DTD SVG 1.1//EN" "http://www.w3.org/Graphics/SVG/1.1/DTD/svg11.dtd">
<svg version="1.1" id="Layer_1" xmlns="http://www.w3.org/2000/svg" xmlns:xlink="http://www.w3.org/1999/xlink" x="0px" y="0px"
	 width="33px" height="24px" viewBox="0 0 33 24" enable-background="new 0 0 33 24" xml:space="preserve">
<g>
	<path fill="#FFFFFF" d="M28,7L28,7c2.761,0,5,0.672,5,1.5l0,0c0,0.828-2.239,1.5-5,1.5l0,0c-2.761,0-5-0.672-5-1.5l0,0
		C23,7.672,25.239,7,28,7z"/>
	<path fill="#FFFFFF" d="M17.247,10.564c0-1.958-0.695-3.632-2.087-5.024s-3.066-2.087-5.024-2.087S6.503,4.148,5.111,5.54
		c-1.39,1.392-2.08,3.066-2.08,5.024s0.7,3.633,2.09,5.024c1.396,1.392,3.07,2.088,5.03,2.088c1.957,0,3.63-0.696,5.023-2.088
		c1.39-1.39,2.087-3.066,2.087-5.024H17.247z M23.582,22.218c0,0.485-0.177,0.906-0.532,1.26c-0.355,0.355-0.775,0.533-1.26,0.533
		c-0.505,0-0.925-0.17-1.26-0.53l-4.806-4.79c-1.67,1.16-3.534,1.74-5.588,1.74c-1.336,0-2.613-0.26-3.83-0.77
		c-1.22-0.52-2.27-1.22-3.153-2.1c-0.882-0.885-1.582-1.935-2.1-3.154c-0.52-1.22-0.778-2.495-0.778-3.83
		c0-1.336,0.26-2.613,0.777-3.832c0.52-1.217,1.22-2.27,2.1-3.15C4.036,2.7,5.086,2,6.305,1.484c1.218-0.52,2.495-0.78,3.83-0.78
		c1.336,0,2.613,0.26,3.832,0.778c1.218,0.52,2.27,1.22,3.15,2.102c0.883,0.882,1.584,1.933,2.102,3.15
		c0.51,1.22,0.77,2.497,0.77,3.832c0,2.055-0.58,3.917-1.74,5.59l4.802,4.803c0.345,0.34,0.52,0.76,0.52,1.26L23.582,22.218z"/>
</g>
</svg>
