<svg xmlns="http://www.w3.org/2000/svg" viewBox="0 0 62 62" enable-background="new 0 0 62 62"><title>link</title><desc>Created with Sketch.</desc><g transform="translate(-54 -328) translate(54 328)"><circle fill="none" stroke="#fff" stroke-width="1.8" cx="31" cy="31" r="29.9"/><path fill="#fff" d="M37.7 25.2c1.3 0 2.5.5 3.4 1.4s1.4 2.1 1.4 3.4v2c0 1.3-.5 2.5-1.4 3.4s-2.1 1.4-3.4 1.4H31c-2 0-3.5-1-4.4-2.9-.3-.7-.4-1.3-.4-1.9v-2h2.9v2c0 .6.2 1 .5 1.4.4.4.8.5 1.4.5h6.7c.6 0 1-.2 1.4-.5.4-.4.5-.8.5-1.4v-2c0-.6-.2-1-.5-1.4-.4-.4-.8-.5-1.4-.5h-1c-.1-.6-.3-1.1-.7-1.6s-.6-.8-.9-1l-.4-.3h3zm-2.2 2.9c.2.6.4 1.2.4 1.9v2H33v-2c0-.6-.2-1-.5-1.4-.4-.4-.8-.5-1.4-.5h-6.7c-.6 0-1 .2-1.4.5s-.5.8-.5 1.4v2c0 .6.2 1 .5 1.4.4.4.8.5 1.4.5h1c.1.6.3 1.1.7 1.6.3.5.6.8.9 1l.4.3h-2.9c-1.3 0-2.5-.5-3.4-1.4-.9-.9-1.4-2.1-1.4-3.4v-2c0-1.3.5-2.5 1.4-3.4.9-.9 2.1-1.4 3.4-1.4H31c1 0 1.9.3 2.7.8.8.6 1.4 1.3 1.8 2.1z"/></g></svg>