<?xml version="1.0" encoding="utf-8"?>
<!-- Generator: Adobe Illustrator 18.0.0, SVG Export Plug-In . SVG Version: 6.00 Build 0)  -->
<!DOCTYPE svg PUBLIC "-//W3C//DTD SVG 1.1//EN" "http://www.w3.org/Graphics/SVG/1.1/DTD/svg11.dtd">
<svg version="1.1" id="Layer_1" xmlns:sketch="http://www.bohemiancoding.com/sketch/ns"
	 xmlns="http://www.w3.org/2000/svg" xmlns:xlink="http://www.w3.org/1999/xlink" x="0px" y="0px" viewBox="0 0 62 62"
	 enable-background="new 0 0 62 62" xml:space="preserve">
<title>link</title>
<desc>Created with Sketch.</desc>
<g id="Add-LInk" sketch:type="MSPage">
	<g id="Link-2" transform="translate(-54.000000, -328.000000)" sketch:type="MSArtboardGroup">
		<g id="link" transform="translate(54.000000, 328.000000)" sketch:type="MSLayerGroup">
			<circle id="Oval-105" sketch:type="MSShapeGroup" fill="none" stroke="#FFFFFF" stroke-width="1.8" cx="31" cy="31" r="29.9">
			</circle>
			<path id="ion-link" sketch:type="MSShapeGroup" fill="#FFFFFF" d="M37.7,25.2c1.3,0,2.5,0.5,3.4,1.4s1.4,2.1,1.4,3.4V32
				c0,1.3-0.5,2.5-1.4,3.4s-2.1,1.4-3.4,1.4H31c-2,0-3.5-1-4.4-2.9c-0.3-0.7-0.4-1.3-0.4-1.9V30h2.9V32c0,0.6,0.2,1,0.5,1.4
				c0.4,0.4,0.8,0.5,1.4,0.5h6.7c0.6,0,1-0.2,1.4-0.5c0.4-0.4,0.5-0.8,0.5-1.4V30c0-0.6-0.2-1-0.5-1.4c-0.4-0.4-0.8-0.5-1.4-0.5h-1
				c-0.1-0.6-0.3-1.1-0.7-1.6s-0.6-0.8-0.9-1l-0.4-0.3H37.7z M35.5,28.1c0.2,0.6,0.4,1.2,0.4,1.9V32h-2.9V30c0-0.6-0.2-1-0.5-1.4
				c-0.4-0.4-0.8-0.5-1.4-0.5h-6.7c-0.6,0-1,0.2-1.4,0.5s-0.5,0.8-0.5,1.4V32c0,0.6,0.2,1,0.5,1.4c0.4,0.4,0.8,0.5,1.4,0.5h1
				c0.1,0.6,0.3,1.1,0.7,1.6c0.3,0.5,0.6,0.8,0.9,1l0.4,0.3h-2.9c-1.3,0-2.5-0.5-3.4-1.4c-0.9-0.9-1.4-2.1-1.4-3.4V30
				c0-1.3,0.5-2.5,1.4-3.4c0.9-0.9,2.1-1.4,3.4-1.4H31c1,0,1.9,0.3,2.7,0.8C34.5,26.6,35.1,27.3,35.5,28.1L35.5,28.1z"/>
		</g>
	</g>
</g>
</svg>
