<svg xmlns="http://www.w3.org/2000/svg" viewBox="0 0 62 62" enable-background="new 0 0 62 62"><title>counter-grey</title><desc>Created with Sketch.</desc><g transform="translate(-92 -328) translate(92 328)"><circle fill="#CFD7E6" stroke="#fff" cx="31" cy="31" r="30.5"/><path fill="#fff" d="M15 19h32c1.7 0 3 1.3 3 3v18c0 1.7-1.3 3-3 3H15c-1.7 0-3-1.3-3-3V22c0-1.7 1.3-3 3-3z"/><path fill="#CFD6E6" d="M20 30.7h7c.6 0 1 .4 1 .8s-.4.8-1 .8h-7c-.6 0-1-.4-1-.8s.4-.8 1-.8zm3.5-3.7c.4 0 .8.4.8 1v7c0 .6-.4 1-.8 1s-.8-.4-.8-1v-7c0-.6.4-1 .8-1zM35 30.7h7c.6 0 1 .4 1 .8s-.4.8-1 .8h-7c-.6 0-1-.4-1-.8s.4-.8 1-.8z"/></g></svg>