<svg width="79" height="56" viewBox="0 0 79 56" xmlns="http://www.w3.org/2000/svg"><title>no-internet</title><desc>Created with Sketch.</desc><g fill="none" fill-rule="evenodd"><g fill="#CFD6E6"><path d="M23.204 37.25c-1.562 1.56-1.562 4.094 0 5.655 1.56 1.562 4.096 1.562 5.656 0 6.042-6.042 15.876-6.044 21.922 0 .78.78 1.805 1.172 2.828 1.172s2.048-.39 2.828-1.172c1.562-1.562 1.562-4.095 0-5.656-9.165-9.167-24.073-9.164-33.234 0zm-10.43-10.43c-1.562 1.56-1.562 4.094 0 5.655.78.78 1.805 1.172 2.828 1.172s2.048-.39 2.828-1.172c11.794-11.792 30.985-11.793 42.78 0 1.563 1.562 4.097 1.562 5.657 0 1.562-1.562 1.562-4.095 0-5.656-14.913-14.917-39.18-14.917-54.093 0zm65.054-10.96C56.87-5.1 22.77-5.098 1.815 15.86c-1.562 1.56-1.562 4.094 0 5.656 1.562 1.562 4.096 1.562 5.656 0 17.84-17.836 46.86-17.838 64.7 0 .784.78 1.808 1.17 2.83 1.17 1.024 0 2.05-.39 2.83-1.17 1.563-1.562 1.563-4.095 0-5.657z"/><circle cx="39.821" cy="51" r="4"/></g><path d="M59.933 38c-1.268.024-2.476.266-3.57.75l-1.172.658-1.104.784C52.196 41.825 51 44.244 51 46.934c0 2.69 1.196 5.108 3.084 6.745 0 0 1.032.882 2.233 1.42 1.18.42 2.33.768 3.616.768.532 0 1.052-.046 1.557-.14.37-.09 1.46-.4 1.672-.465 3.334-1.298 5.704-4.545 5.704-8.332 0-3.75-2.316-6.96-5.598-8.283 0 0-2.02-.675-3.335-.65z" fill="#fff"/><path d="M63.333 48.388c.537.537.537 1.407 0 1.944-.266.27-.62.404-.973.404s-.706-.133-.972-.404l-1.45-1.444-1.443 1.444c-.27.27-.624.404-.977.404-.348 0-.7-.133-.973-.404-.536-.537-.536-1.407 0-1.944l1.45-1.45-1.45-1.443c-.536-.54-.536-1.408 0-1.95.542-.536 1.413-.536 1.95 0l1.444 1.45 1.446-1.45c.537-.536 1.408-.536 1.944 0 .538.542.538 1.408 0 1.95l-1.443 1.444 1.445 1.446" fill="#CFD6E6"/></g></svg>