<svg width="133" height="93" viewBox="0 0 133 93" xmlns="http://www.w3.org/2000/svg" xmlns:xlink="http://www.w3.org/1999/xlink"><title>toucan1</title><desc>Created with Sketch.</desc><defs><path id="a" d="M3.14.45l52.445 14.33c.55.133.88.698.725 1.244l-1.87 6.58c-.153.537-.716.845-1.25.685L1.616 6.42c-.51-.152-.81-.68-.683-1.197l.998-4.04C2.065.645 2.606.318 3.14.45"/><path id="c" d="M58.474 20.25c.484 0 .935-.39.992-.872.41-3.446.787-18.107-15.34-18.422C31.22.703 13.418.76 4.782.576c-.133-.002-.43.576-.68.294 0 0-1.328.012-2.332-.12C1.033.653.578 1.146.8 1.857L4.625 20.25"/></defs><g fill="none" fill-rule="evenodd"><g transform="translate(73 23)"><mask id="b"><use xlink:href="#a"/></mask><use fill="#FD6E1E" xlink:href="#a"/><path d="M4-1l16.96 3.734-5.097 10.6L4 13V-1z" fill="#EDB81A" mask="url(#b)"/><path d="M20.623 3.3l-5.437 11.17 18.337 7.832L41.34 6.034 20.622 3.3z" fill="#FFCE36" mask="url(#b)"/><path d="M39.623 9.3l-5.437 11.17 18.337 7.832 7.816-16.268L39.62 9.3z" fill="#EDB81A" mask="url(#b)"/></g><path d="M1.167 27.167c0 35.674 32.234 36.16 32.234 36.16L20.695 81.94l10.178 4.65 4.928-7.324-1.55 8.726 11.39 4.443.997-20.157s12.688-.968 20.09-5.523c6.328-3.893 12.437-10.21 12.226-25.748-.21-15.538.005-38.03.005-38.03L74.14.777S63.883-.506 55.103 3.237C46.322 6.976 37.115 15.72 34.47 28.18L3.28 13.102c-.526-.254-1.153-.013-1.365.53" fill="#1C394B"/><path d="M112.96.577H79.624" fill="#fff"/><g transform="translate(73)"><mask id="d"><use xlink:href="#c"/></mask><use fill="#FD6E1E" xlink:href="#c"/><path fill="#EEB91A" mask="url(#d)" d="M4-2h18v24H4z"/><path fill="#FFCE36" mask="url(#d)" d="M22-2h18v24H22z"/><path fill="#EDB81A" mask="url(#d)" d="M40-2h20v24H40z"/></g><path d="M74.138.778S63.882-.507 55.102 3.235C46.322 6.977 37.115 15.72 34.47 28.182L3.28 13.102c-.526-.254-1.352.397-1.564.94L1.112 26.82c0 3.575.224 6.864.806 9.767.412 1.617 1.34 4.537 1.79 6.142 6.785 19.87 26.732 20.46 29.39 20.584 33.05-14.662 28.57-45.982 28.57-45.982l15-9.666c-2.555 2.093-.17-4.5-.17-4.5L74.14.776l2.17 17.86" fill="#375365"/><path d="M77.783.577l-5.21.06c-.078.002-.15.01-.225.03-1.413.358-16.015 4.43-16.015 19.416 0 17.182 17.376 17.17 21.637 16.91.527-.033 1.282-.777 1.28-1.305l-.455-34.114c-.002-.556-.456-1.004-1.012-.997" fill="#FFCE36"/><path d="M74.41 15.667c0-5.658-4.586-10.244-10.243-10.244-5.658 0-10.244 4.586-10.244 10.244 0 4.333 1.744 10.243 10.244 10.243 8.166 0 10.243-6.077 10.243-10.243" fill="#fff"/><path d="M71 12.5c0-2.67-2.164-4.833-4.833-4.833-2.67 0-4.834 2.164-4.834 4.833 0 2.67 2.164 4.833 4.834 4.833 2.67 0 4.833-2.164 4.833-4.833l-3.752 1.514" fill="#4A4A4A"/><path d="M34.66 28.185L1.953 12.43S-9.223 60.32 33.307 63.343c.584-33.058 1.353-35.157 1.353-35.157z" fill="#375365"/></g></svg>