<?xml version="1.0" encoding="utf-8"?>
<!DOCTYPE svg PUBLIC "-//W3C//DTD SVG 1.1//EN" "http://www.w3.org/Graphics/SVG/1.1/DTD/svg11.dtd">
<svg version="1.1" id="Layer_1" xmlns="http://www.w3.org/2000/svg" xmlns:xlink="http://www.w3.org/1999/xlink" x="0px" y="0px"
	 viewBox="60.2 -179.8 500 500" enable-background="new 60.2 -179.8 500 500" xml:space="preserve">
<text opacity="0" font-family="'MyriadPro-Regular'" font-size="1">a</text>
<g>
	<path fill="#F1F1F5" d="M237.1-41.1c31.5,10,60.6,19,89.4,28.3c37.3,12,74.6,24.1,112,36.3c3.9,1.2,7.4,2.5,11.8,0.9
		c5.6-1.9,9.3,2.3,12.1,6.5c11.1,15.8,10.9,53,0,69.2c-3.2,4.8-7,7.9-13.2,6.3s-11.4,1.8-16.9,3.3c-10,3-20.1,6.3-30.3,9.3
		c-3.7,1.1-5.6,2.3-5.1,7.2c3.7,29.8-12.1,55.1-39.4,63.7c-26.8,8.5-54.4-3-68.3-29c-2.8-5.3-5.5-4.6-9.5-3.3
		c-24.6,7.7-49.3,15-73.6,23.2c-10.4,3.5-18.3,0.9-25.5-6.2c-12-12-18-27.3-22.2-43.3c-12.9-50.4-12-100.4,5.6-149.6
		c3.3-9.5,8.1-18.3,15.1-25.5c11.4-11.8,25.7-11.6,36.8,1.1c12.9,15,18.1,33.3,22,51.9c3.5,16.4,5.3,32.9,5.3,49.8
		c0,5.5-0.2,11.8,7.2,11.4c7.2-0.4,6.9-6.7,6.7-12.1C256.5,24.8,253.7-8.3,237.1-41.1z M206.7-31c-9-8.6-15-8.6-22.2-0.5
		c-6.9,7.6-10.4,17.1-13,26.6c-11.8,43.8-12,88-2.5,132.2c2.5,11.4,6,22.7,12.9,32.6c8.6,12.5,18.7,12.3,27.3,0
		c3.7-5.3,6.3-11.3,8.5-17.3c7.6-21.8,10.2-44.5,10.7-67.4c0.7-22.7-23.6-38.6-44.5-28.9c-2.6,1.2-4.6,3.7-8.3,3.5
		c1.8-21.7,4.8-43.1,14.1-63C193.1-20.7,197.5-27.5,206.7-31z M337.5,173.2c24.6-0.2,42.6-18.8,41.4-39.3c-0.2-4-0.2-7.6-6.5-5.5
		c-20.6,6.9-41.2,13.2-61.8,19.5c-4.6,1.4-4.8,3.3-2.5,6.9C315.8,166.9,326.9,172.8,337.5,173.2z"/>
</g>
</svg>
