<?xml version="1.0" encoding="utf-8"?>
<!DOCTYPE svg PUBLIC "-//W3C//DTD SVG 1.1//EN" "http://www.w3.org/Graphics/SVG/1.1/DTD/svg11.dtd">
<svg version="1.1" xmlns="http://www.w3.org/2000/svg" xmlns:xlink="http://www.w3.org/1999/xlink" x="0px" y="0px"
	 viewBox="0 0 300 299.9" enable-background="new 0 0 300 299.9" xml:space="preserve">
<g>
	<path fill="#F1F1F5" d="M113.3,86.2c17.9,5.7,34.4,10.8,50.8,16.1c21.2,6.8,42.4,13.7,63.6,20.6c2.2,0.7,4.2,1.4,6.7,0.5
		c3.2-1.1,5.3,1.3,6.9,3.7c6.3,9,6.2,30.1,0,39.3c-1.8,2.7-4,4.5-7.5,3.6c-3.5-0.9-6.5,1-9.6,1.9c-5.7,1.7-11.4,3.6-17.2,5.3
		c-2.1,0.6-3.2,1.3-2.9,4.1c2.1,16.9-6.9,31.3-22.4,36.2c-15.2,4.8-30.9-1.7-38.8-16.5c-1.6-3-3.1-2.6-5.4-1.9
		c-14,4.4-28,8.5-41.8,13.2c-5.9,2-10.4,0.5-14.5-3.5c-6.8-6.8-10.2-15.5-12.6-24.6c-7.3-28.6-6.8-57,3.2-85
		c1.9-5.4,4.6-10.4,8.6-14.5c6.5-6.7,14.6-6.6,20.9,0.6c7.3,8.5,10.3,18.9,12.5,29.5c2,9.3,3,18.7,3,28.3c0,3.1-0.1,6.7,4.1,6.5
		c4.1-0.2,3.9-3.8,3.8-6.9C124.3,123.6,122.7,104.8,113.3,86.2z M96,91.9c-5.1-4.9-8.5-4.9-12.6-0.3c-3.9,4.3-5.9,9.7-7.4,15.1
		c-6.7,24.9-6.8,50-1.4,75.1c1.4,6.5,3.4,12.9,7.3,18.5c4.9,7.1,10.6,7,15.5,0c2.1-3,3.6-6.4,4.8-9.8c4.3-12.4,5.8-25.3,6.1-38.3
		c0.4-12.9-13.4-21.9-25.3-16.4c-1.5,0.7-2.6,2.1-4.7,2c1-12.3,2.7-24.5,8-35.8C88.3,97.8,90.8,93.9,96,91.9z M170.3,207.9
		c14-0.1,24.2-10.7,23.5-22.3c-0.1-2.3-0.1-4.3-3.7-3.1c-11.7,3.9-23.4,7.5-35.1,11.1c-2.6,0.8-2.7,1.9-1.4,3.9
		C158,204.3,164.3,207.7,170.3,207.9z"/>
</g>
</svg>
