<svg xmlns="http://www.w3.org/2000/svg" viewBox="60.2 -179.8 500 500" enable-background="new 60.2 -179.8 500 500"><path fill="#F1F1F5" d="M237.1-41.1c31.5 10 60.6 19 89.4 28.3 37.3 12 74.6 24.1 112 36.3 3.9 1.2 7.4 2.5 11.8.9 5.6-1.9 9.3 2.3 12.1 6.5 11.1 15.8 10.9 53 0 69.2-3.2 4.8-7 7.9-13.2 6.3s-11.4 1.8-16.9 3.3c-10 3-20.1 6.3-30.3 9.3-3.7 1.1-5.6 2.3-5.1 7.2 3.7 29.8-12.1 55.1-39.4 63.7-26.8 8.5-54.4-3-68.3-29-2.8-5.3-5.5-4.6-9.5-3.3-24.6 7.7-49.3 15-73.6 23.2-10.4 3.5-18.3.9-25.5-6.2-12-12-18-27.3-22.2-43.3-12.9-50.4-12-100.4 5.6-149.6 3.3-9.5 8.1-18.3 15.1-25.5 11.4-11.8 25.7-11.6 36.8 1.1 12.9 15 18.1 33.3 22 51.9 3.5 16.4 5.3 32.9 5.3 49.8 0 5.5-.2 11.8 7.2 11.4 7.2-.4 6.9-6.7 6.7-12.1-.6-33.5-3.4-66.6-20-99.4zM206.7-31c-9-8.6-15-8.6-22.2-.5-6.9 7.6-10.4 17.1-13 26.6-11.8 43.8-12 88-2.5 132.2 2.5 11.4 6 22.7 12.9 32.6 8.6 12.5 18.7 12.3 27.3 0 3.7-5.3 6.3-11.3 8.5-17.3 7.6-21.8 10.2-44.5 10.7-67.4.7-22.7-23.6-38.6-44.5-28.9-2.6 1.2-4.6 3.7-8.3 3.5 1.8-21.7 4.8-43.1 14.1-63 3.4-7.5 7.8-14.3 17-17.8zm130.8 204.2c24.6-.2 42.6-18.8 41.4-39.3-.2-4-.2-7.6-6.5-5.5-20.6 6.9-41.2 13.2-61.8 19.5-4.6 1.4-4.8 3.3-2.5 6.9 7.7 12.1 18.8 18 29.4 18.4z"/></svg>