<?xml version="1.0" encoding="UTF-8" standalone="no"?>
<svg width="52px" height="52px" viewBox="0 0 52 52" version="1.1" xmlns="http://www.w3.org/2000/svg" xmlns:xlink="http://www.w3.org/1999/xlink" xmlns:sketch="http://www.bohemiancoding.com/sketch/ns">
    <!-- Generator: Sketch 3.2.1 (9971) - http://www.bohemiancoding.com/sketch -->
    <title>blog</title>
    <desc>Created with Sketch.</desc>
    <defs></defs>
    <g id="Page-1" stroke="none" stroke-width="1" fill="none" fill-rule="evenodd" sketch:type="MSPage">
        <g id="blog" sketch:type="MSLayerGroup" transform="translate(13.000000, 16.000000)" fill="#F2FAFF" opacity="0.9">
            <g id="Main" sketch:type="MSShapeGroup">
                <g id="Make-7">
                    <g id="Start-from-Scratch-+-Choosing-this-option-2-+-Oval-19-+-">
                        <g id="blog">
                            <path d="M13.1428571,5.8571429 L8.2142857,5.8571429 L8.2142857,10.7857143 L13.1428571,10.7857143 L13.1428571,5.8571429 L13.1428571,5.8571429 Z M14.7857143,14.0714286 L14.7857143,15.7142857 L6.5714286,15.7142857 L6.5714286,14.0714286 L14.7857143,14.0714286 L14.7857143,14.0714286 Z M14.7857143,4.2142857 L14.7857143,12.4285714 L6.5714286,12.4285714 L6.5714286,4.2142857 L14.7857143,4.2142857 L14.7857143,4.2142857 Z M23,14.0714286 L23,15.7142857 L16.4285714,15.7142857 L16.4285714,14.0714286 L23,14.0714286 L23,14.0714286 Z M23,10.7857143 L23,12.4285714 L16.4285714,12.4285714 L16.4285714,10.7857143 L23,10.7857143 L23,10.7857143 Z M23,7.5 L23,9.1428571 L16.4285714,9.1428571 L16.4285714,7.5 L23,7.5 L23,7.5 Z M23,4.2142857 L23,5.8571429 L16.4285714,5.8571429 L16.4285714,4.2142857 L23,4.2142857 L23,4.2142857 Z M3.2857143,16.5357143 L3.2857143,4.2142857 L1.6428571,4.2142857 L1.6428571,16.5357143 C1.6428571,16.7581856 1.7241435,16.950706 1.8867188,17.1132813 C2.049294,17.2758565 2.2418144,17.3571429 2.4642857,17.3571429 C2.6867571,17.3571429 2.8792775,17.2758565 3.0418527,17.1132813 C3.2044279,16.950706 3.2857143,16.7581856 3.2857143,16.5357143 L3.2857143,16.5357143 L3.2857143,16.5357143 Z M24.6428571,16.5357143 L24.6428571,2.5714286 L4.9285714,2.5714286 L4.9285714,16.5357143 C4.9285714,16.8180818 4.8815109,17.0918886 4.7873884,17.3571429 L23.8214286,17.3571429 C24.0438999,17.3571429 24.2364203,17.2758565 24.3989955,17.1132813 C24.5615708,16.950706 24.6428571,16.7581856 24.6428571,16.5357143 L24.6428571,16.5357143 L24.6428571,16.5357143 Z M26.2857143,0.9285714 L26.2857143,16.5357143 C26.2857143,17.2202415 26.0461333,17.8020809 25.5669643,18.28125 C25.0877952,18.7604191 24.5059558,19 23.8214286,19 L2.4642857,19 C1.7797585,19 1.1979191,18.7604191 0.71875,18.28125 C0.2395809,17.8020809 0,17.2202415 0,16.5357143 L0,2.5714286 L3.2857143,2.5714286 L3.2857143,0.9285714 L26.2857143,0.9285714 L26.2857143,0.9285714 Z" id=""></path>
                        </g>
                    </g>
                </g>
            </g>
        </g>
    </g>
</svg>