<?xml version="1.0" encoding="utf-8"?>

<!DOCTYPE svg PUBLIC "-//W3C//DTD SVG 1.1//EN" "http://www.w3.org/Graphics/SVG/1.1/DTD/svg11.dtd">
<svg version="1.1" id="Layer_1" xmlns="http://www.w3.org/2000/svg" xmlns:xlink="http://www.w3.org/1999/xlink" x="0px" y="0px"
	 viewBox="58.2 -177.1 500 500" enable-background="new 58.2 -177.1 500 500" xml:space="preserve">
<text opacity="0" font-family="'MyriadPro-Regular'" font-size="1">a</text>
<g>
	<path fill="#F1F1F5" d="M309.1-59.1c33.8,0,67.5,0,101.3,0c22.5,0,36.1,13.6,36.1,36.3c0,40.9,0,81.5,0,122.4
		c0,23.6-13.6,36.8-37.3,36.8c-28.2,0-56.4,0.2-84.5-0.2c-5.5,0-9.3,1.6-13,5.5c-18.5,18.8-37.2,37.5-55.7,56.4
		c-4.8,4.8-9.5,9.2-16.9,5.8c-7-3.2-7.7-9.5-7.6-16.2c0.2-14.6-0.2-29.4,0.2-44c0.2-5.8-1.9-7.7-7.6-7.4c-7,0.4-14.1,0.4-21.1,0
		c-18.7-0.5-32.8-14.6-32.8-33.3c-0.2-42.8-0.2-85.6,0-128.6c0.2-19.5,14.6-33.5,34.3-33.5C239.3-59.1,274.2-59.1,309.1-59.1z
		 M376,21.7c-9.3-0.2-16.9,7-16.9,16.2c0,8.8,7.9,16.9,16.7,16.9s16-7.2,16.2-16.2C392.2,29.3,385.3,21.9,376,21.7z M262,37.7
		c-0.2-9.2-7-16-16.4-16c-9.5,0-16.7,7.2-16.6,16.7c0.2,9,7.6,16.4,16.4,16.4C254.5,55,262.2,47.1,262,37.7z M326.7,38.4
		c0.2-9.3-7-16.7-16.4-16.7c-8.8,0-16.4,7-16.7,15.7c-0.4,8.8,7.4,17.1,16.2,17.4C318.6,55.2,326.5,47.6,326.7,38.4z"/>
</g>
</svg>
