<?xml version="1.0" encoding="utf-8"?>
<!DOCTYPE svg PUBLIC "-//W3C//DTD SVG 1.1//EN" "http://www.w3.org/Graphics/SVG/1.1/DTD/svg11.dtd">
<svg version="1.1" xmlns="http://www.w3.org/2000/svg" xmlns:xlink="http://www.w3.org/1999/xlink" x="0px" y="0px"
	 viewBox="0 0 300 299.8" enable-background="new 0 0 300 299.8" xml:space="preserve">
<g>
	<path fill="#F1F1F5" d="M153,82.8c19.2,0,38.3,0,57.5,0c12.8,0,20.5,7.7,20.5,20.6c0,23.2,0,46.3,0,69.5c0,13.4-7.7,20.9-21.2,20.9
		c-16,0-32,0.1-48-0.1c-3.1,0-5.3,0.9-7.4,3.1c-10.5,10.7-21.1,21.3-31.6,32c-2.7,2.7-5.4,5.2-9.6,3.3c-4-1.8-4.4-5.4-4.3-9.2
		c0.1-8.3-0.1-16.7,0.1-25c0.1-3.3-1.1-4.4-4.3-4.2c-4,0.2-8,0.2-12,0c-10.6-0.3-18.6-8.3-18.6-18.9c-0.1-24.3-0.1-48.6,0-73
		c0.1-11.1,8.3-19,19.5-19C113.4,82.8,133.2,82.8,153,82.8z M191,128.7c-5.3-0.1-9.6,4-9.6,9.2c0,5,4.5,9.6,9.5,9.6
		c5,0,9.1-4.1,9.2-9.2C200.2,133,196.3,128.8,191,128.7z M126.3,137.8c-0.1-5.2-4-9.1-9.3-9.1c-5.4,0-9.5,4.1-9.4,9.5
		c0.1,5.1,4.3,9.3,9.3,9.3C122,147.6,126.4,143.1,126.3,137.8z M163,138.2c0.1-5.3-4-9.5-9.3-9.5c-5,0-9.3,4-9.5,8.9
		c-0.2,5,4.2,9.7,9.2,9.9C158.4,147.7,162.9,143.4,163,138.2z"/>
</g>
</svg>
