<?xml version="1.0" encoding="utf-8"?>

<!DOCTYPE svg PUBLIC "-//W3C//DTD SVG 1.1//EN" "http://www.w3.org/Graphics/SVG/1.1/DTD/svg11.dtd">
<svg version="1.1" id="Layer_1" xmlns="http://www.w3.org/2000/svg" xmlns:xlink="http://www.w3.org/1999/xlink" x="0px" y="0px"
	 viewBox="112.8 -330.5 500 500" enable-background="new 112.8 -330.5 500 500" xml:space="preserve">
<text opacity="0" font-family="'MyriadPro-Regular'" font-size="1">a</text>
<path id="_xF1EA_" fill="#F1F1F5" d="M362.3-123.3h-52.6v52.6h52.6V-123.3L362.3-123.3z M380.5-35.5v17.1h-88v-17.1L380.5-35.5
	L380.5-35.5z M380.5-141.6v88h-88v-88H380.5L380.5-141.6z M468.4-35.5v17.1h-70.8v-17.1L468.4-35.5L468.4-35.5z M468.4-70.8v17.1
	h-70.8v-17.1H468.4L468.4-70.8z M468.4-106.2v17.1h-70.8v-17.1H468.4L468.4-106.2z M468.4-141.6v17.1h-70.8v-17.1H468.4L468.4-141.6
	z M257.1-9.7v-131.9h-18.3V-9.7c0,2.1,1.1,4.3,2.1,6.4s4.3,2.1,6.4,2.1s4.3-1.1,6.4-2.1C256.1-4.3,257.1-6.4,257.1-9.7L257.1-9.7
	L257.1-9.7z M485.5-9.7v-150.1H274.3V-9.6c0,3.2,0,6.4-1.1,8.6H477c2.1,0,4.3-1.1,6.4-2.1C485.5-4.3,485.5-6.4,485.5-9.7L485.5-9.7
	L485.5-9.7z M503.8-177V-9.7c0,7.5-2.1,13.9-7.5,18.3c-5.4,5.4-11.8,7.5-18.3,7.5H248.6c-7.5,0-13.9-2.1-18.3-7.5
	s-8.6-10.8-8.6-18.3v-150.1h35.4v-17.1h246.7V-177z"/>
</svg>
