<svg xmlns="http://www.w3.org/2000/svg" viewBox="58.2 -177.1 500 500" enable-background="new 58.2 -177.1 500 500"><path fill="#F1F1F5" d="M309.1-59.1h101.3c22.5 0 36.1 13.6 36.1 36.3V99.6c0 23.6-13.6 36.8-37.3 36.8-28.2 0-56.4.2-84.5-.2-5.5 0-9.3 1.6-13 5.5-18.5 18.8-37.2 37.5-55.7 56.4-4.8 4.8-9.5 9.2-16.9 5.8-7-3.2-7.7-9.5-7.6-16.2.2-14.6-.2-29.4.2-44 .2-5.8-1.9-7.7-7.6-7.4-7 .4-14.1.4-21.1 0-18.7-.5-32.8-14.6-32.8-33.3-.2-42.8-.2-85.6 0-128.6.2-19.5 14.6-33.5 34.3-33.5h104.6zM376 21.7c-9.3-.2-16.9 7-16.9 16.2 0 8.8 7.9 16.9 16.7 16.9s16-7.2 16.2-16.2c.2-9.3-6.7-16.7-16-16.9zm-114 16c-.2-9.2-7-16-16.4-16-9.5 0-16.7 7.2-16.6 16.7.2 9 7.6 16.4 16.4 16.4 9.1.2 16.8-7.7 16.6-17.1zm64.7.7c.2-9.3-7-16.7-16.4-16.7-8.8 0-16.4 7-16.7 15.7-.4 8.8 7.4 17.1 16.2 17.4 8.8.4 16.7-7.2 16.9-16.4z"/></svg>