<svg xmlns="http://www.w3.org/2000/svg" viewBox="112.8 -330.5 500 500" enable-background="new 112.8 -330.5 500 500"><path fill="#F1F1F5" d="M362.3-123.3h-52.6v52.6h52.6v-52.6zm18.2 87.8v17.1h-88v-17.1h88zm0-106.1v88h-88v-88h88zm87.9 106.1v17.1h-70.8v-17.1h70.8zm0-35.3v17.1h-70.8v-17.1h70.8zm0-35.4v17.1h-70.8v-17.1h70.8zm0-35.4v17.1h-70.8v-17.1h70.8zM257.1-9.7v-131.9h-18.3V-9.7c0 2.1 1.1 4.3 2.1 6.4s4.3 2.1 6.4 2.1 4.3-1.1 6.4-2.1c2.4-1 3.4-3.1 3.4-6.4zm228.4 0v-150.1H274.3V-9.6c0 3.2 0 6.4-1.1 8.6H477c2.1 0 4.3-1.1 6.4-2.1 2.1-1.2 2.1-3.3 2.1-6.6zM503.8-177V-9.7c0 7.5-2.1 13.9-7.5 18.3-5.4 5.4-11.8 7.5-18.3 7.5H248.6c-7.5 0-13.9-2.1-18.3-7.5s-8.6-10.8-8.6-18.3v-150.1h35.4v-17.1h246.7v-.1z"/></svg>