<?xml version="1.0" encoding="utf-8"?>
<!DOCTYPE svg PUBLIC "-//W3C//DTD SVG 1.1//EN" "http://www.w3.org/Graphics/SVG/1.1/DTD/svg11.dtd">
<svg version="1.1" id="Layer_1" xmlns:sketch="http://www.bohemiancoding.com/sketch/ns"
	 xmlns="http://www.w3.org/2000/svg" xmlns:xlink="http://www.w3.org/1999/xlink" x="0px" y="0px" viewBox="0 0 52 52"
	 enable-background="new 0 0 52 52" xml:space="preserve">
<g transform="translate(13.000000, 16.000000)">
  <path id="_xF1EA_" fill="#F1F1F5" d="M13.1,5.9H8.2v4.9h4.9V5.9L13.1,5.9z M14.8,14.1v1.6H6.6v-1.6H14.8L14.8,14.1z M14.8,4.2
    v8.2H6.6V4.2H14.8L14.8,4.2z M23,14.1v1.6h-6.6v-1.6H23L23,14.1z M23,10.8v1.6h-6.6v-1.6H23L23,10.8z M23,7.5v1.6h-6.6V7.5H23
    L23,7.5z M23,4.2v1.6h-6.6V4.2H23L23,4.2z M3.3,16.5V4.2H1.6v12.3c0,0.2,0.1,0.4,0.2,0.6s0.4,0.2,0.6,0.2
    c0.2,0,0.4-0.1,0.6-0.2S3.3,16.8,3.3,16.5L3.3,16.5L3.3,16.5z M24.6,16.5v-14H4.9v14c0,0.3,0,0.6-0.1,0.8h19
    c0.2,0,0.4-0.1,0.6-0.2C24.6,17,24.6,16.8,24.6,16.5L24.6,16.5L24.6,16.5z M26.3,0.9v15.6c0,0.7-0.2,1.3-0.7,1.7
    c-0.5,0.5-1.1,0.7-1.7,0.7H2.5c-0.7,0-1.3-0.2-1.7-0.7S0,17.2,0,16.5v-14h3.3V0.9H26.3L26.3,0.9z"/>
</g>
</svg>
