<?xml version="1.0" encoding="utf-8"?>

<!DOCTYPE svg PUBLIC "-//W3C//DTD SVG 1.1//EN" "http://www.w3.org/Graphics/SVG/1.1/DTD/svg11.dtd">
<svg version="1.1" id="Layer_1" xmlns="http://www.w3.org/2000/svg" xmlns:xlink="http://www.w3.org/1999/xlink" x="0px" y="0px"
	 viewBox="113.8 -356.8 500 500" enable-background="new 113.8 -356.8 500 500" xml:space="preserve">
<text opacity="0" font-family="'MyriadPro-Regular'" font-size="1">a</text>
<path id="_xF19C_" fill="#F1F1F5" d="M363.3-229.6L495.2-177v17.1h-17.1c0,2.1-1.1,4.3-3.2,6.4s-4.3,2.1-6.4,2.1H258.3
	c-2.1,0-4.3-1.1-6.4-2.1s-3.2-3.2-3.2-5.4h-17.1V-177L363.3-229.6L363.3-229.6z M266.8-141.6h35.4v106.1h17.1v-106.1h35.4v106.1
	h17.1v-106.1h35.4v106.1h17.1v-106.1h35.4v106.1h8.6c2.1,0,4.3,1.1,6.4,2.1c2.1,2.1,3.2,4.3,3.2,6.4v8.6H248.5v-8.6
	c0-2.1,1.1-4.3,3.2-6.4s4.3-2.1,6.4-2.1h8.6v-106.1H266.8z M486.5-9.7c2.1,0,4.3,1.1,6.4,2.1c2.1,2.1,3.2,4.3,3.2,6.4V16H231.4V-1.2
	c0-2.1,1.1-4.3,3.2-6.4s4.3-2.1,6.4-2.1H486.5L486.5-9.7z"/>
</svg>
