<svg xmlns="http://www.w3.org/2000/svg" viewBox="113.8 -356.8 500 500" enable-background="new 113.8 -356.8 500 500"><path fill="#F1F1F5" d="M363.3-229.6L495.2-177v17.1h-17.1c0 2.1-1.1 4.3-3.2 6.4s-4.3 2.1-6.4 2.1H258.3c-2.1 0-4.3-1.1-6.4-2.1s-3.2-3.2-3.2-5.4h-17.1V-177l131.7-52.6zm-96.5 88h35.4v106.1h17.1v-106.1h35.4v106.1h17.1v-106.1h35.4v106.1h17.1v-106.1h35.4v106.1h8.6c2.1 0 4.3 1.1 6.4 2.1 2.1 2.1 3.2 4.3 3.2 6.4v8.6H248.5V-27c0-2.1 1.1-4.3 3.2-6.4s4.3-2.1 6.4-2.1h8.6v-106.1h.1zM486.5-9.7c2.1 0 4.3 1.1 6.4 2.1 2.1 2.1 3.2 4.3 3.2 6.4V16H231.4V-1.2c0-2.1 1.1-4.3 3.2-6.4s4.3-2.1 6.4-2.1h245.5z"/></svg>