<svg width="13" height="12" viewBox="0 0 13 12" xmlns="http://www.w3.org/2000/svg"><title>checkmark</title><desc>Created with Sketch.</desc><g fill="none" fill-rule="evenodd"><g fill="#fff"><g><path d="M12.5.25c.27.208.437.484.5.828s-.01.662-.22.953l-6.467 9.44c-.21.27-.474.436-.797.5-.323.06-.62-.012-.89-.22-.168-.125-.605-.568-1.314-1.328-.708-.76-1.374-1.495-2-2.203L.345 7.155C.114 6.906 0 6.604 0 6.25s.125-.656.375-.906.542-.37.875-.36c.333.01.615.15.844.422L5.188 8.75 10.813.53c.208-.27.473-.436.796-.5.322-.06.62.012.89.22z"/></g></g></g></svg>