<?xml version="1.0" encoding="utf-8"?>

<!DOCTYPE svg PUBLIC "-//W3C//DTD SVG 1.1//EN" "http://www.w3.org/Graphics/SVG/1.1/DTD/svg11.dtd">
<svg version="1.1" id="Layer_1" xmlns="http://www.w3.org/2000/svg" xmlns:xlink="http://www.w3.org/1999/xlink" x="0px" y="0px"
	 viewBox="114.6 -328 500 500" enable-background="new 114.6 -328 500 500" xml:space="preserve">
<text opacity="0" font-family="'MyriadPro-Regular'" font-size="1">a</text>
<path id="_xF0E6_" fill="#F1F1F5" d="M337.6-159.3c-13.9,0-26.8,2.1-39.7,7.5c-12.9,5.4-21.4,10.7-28.9,19.3
	c-7.5,8.6-10.8,17.1-10.8,26.8c0,7.5,2.1,15,7.5,21.4c5.4,6.4,11.8,12.9,20.4,18.3l12.9,7.5l-4.3,11.8c3.2-2.1,6.4-3.2,8.6-5.4
	l6.4-4.3l7.5,1.1c7.5,1.1,13.9,2.1,21.4,2.1c13.9,0,26.8-2.1,39.7-7.5c11.8-4.3,21.4-10.8,28.9-19.3c7.5-8.6,10.8-17.1,10.8-26.8
	s-3.2-18.3-10.8-26.8s-17-15-28.8-19.2C366.5-157.1,351.5-159.3,337.6-159.3L337.6-159.3L337.6-159.3z M337.6-176.5
	c17.1,0,33.3,3.2,48.3,9.6c15,6.4,26.8,15,35.4,25.8c8.6,10.8,12.9,22.5,12.9,35.4s-4.3,24.7-12.9,35.4
	c-8.6,10.8-20.4,19.3-35.4,25.8s-31,9.6-48.3,9.6c-7.5,0-16.1-1.1-24.7-2.1c-11.8,8.6-24.7,13.9-38.6,17.1
	c-3.2,1.1-7.5,1.1-11.8,2.1l0,0c-1.1,0-2.1,0-3.2-1.1s0-2.1,0-3.2v-1.1v-1.1v-1.1c0,0,0,0,0-1.1c0,0,0,0,0-1.1s0-1.1,1.1-1.1
	c0,0,0,0,1.1-1.1s0,0,1.1-1.1c0-1.1,1.1-2.1,3.2-3.2c2.1-2.1,3.2-3.2,3.2-4.3c1.1-1.1,2.1-2.1,3.2-4.3c1.1,1.1,2.1-1.1,3.2-2.1
	c1.1-2.1,2.1-4.3,3.2-6.4c-11.8-6.4-20.4-15-26.8-24.7c-7.5-9.6-10.8-19.3-10.8-31s4.3-23.5,12.9-35.4c8.6-11.8,20.8-19.3,35.8-24.7
	S320.5-176.5,337.6-176.5L337.6-176.5L337.6-176.5z M451.2-15.7c1.1,2.1,2.1,4.3,3.2,6.4s2.1,3.2,3.2,5.4c1.1,2.1,2.1,3.2,3.2,4.3
	c1.1,1.1,2.1,2.1,3.2,4.3c2.1,2.1,3.2,3.2,3.2,3.2s0,0,1.1,1.1c0,0,0,1.1,1.1,1.1c0,0,0,0,1.1,1.1v1.1c0,0,0,0,0,1.1v1.1v1.1v1.1
	c0,1.1-1.1,2.1-2.1,3.2s-2.1,1.1-3.2,1.1c-4.3-1.1-8.6-1.1-11.8-2.1c-13.9-3.2-26.8-9.6-38.6-17.1c-7.5-3.2-16.1-2.1-23.5-2.1
	c-24.7,0-46.1-6.4-65.4-18.3c5.4,0,9.6,1.1,11.8,1.1c15,0,28.9-2.1,42.9-6.4c13.9-4.3,25.8-9.6,36.4-18.3
	c11.8-8.6,20.4-18.3,26.8-28.9c6.4-10.7,9.6-22.5,9.6-35.4c0-7.5-1.1-13.9-3.2-21.4c11.8,6.4,21.4,15,27.9,24.7
	c6.4,9.7,10.8,20.4,10.8,32.2c0,10.8-3.2,21.4-9.6,31C471.6-30.7,462-22.1,451.2-15.7L451.2-15.7L451.2-15.7z"/>
</svg>
