<?xml version="1.0" encoding="utf-8"?>
<!DOCTYPE svg PUBLIC "-//W3C//DTD SVG 1.1//EN" "http://www.w3.org/Graphics/SVG/1.1/DTD/svg11.dtd">
<svg version="1.1" id="Layer_1" xmlns:sketch="http://www.bohemiancoding.com/sketch/ns"
	 xmlns="http://www.w3.org/2000/svg" xmlns:xlink="http://www.w3.org/1999/xlink" x="0px" y="0px" viewBox="0 0 52 52"
	 enable-background="new 0 0 52 52" xml:space="preserve">
<g transform="translate(15.000000, 17.000000)">
  <path id="_xF0E6_" fill="#F1F1F5" d="M9,2.2c-1.3,0-2.5,0.2-3.7,0.7s-2,1-2.7,1.8s-1,1.6-1,2.5c0,0.7,0.2,1.4,0.7,2
    s1.1,1.2,1.9,1.7l1.2,0.7L5,12.7c0.3-0.2,0.6-0.3,0.8-0.5l0.6-0.4l0.7,0.1c0.7,0.1,1.3,0.2,2,0.2c1.3,0,2.5-0.2,3.7-0.7
    c1.1-0.4,2-1,2.7-1.8s1-1.6,1-2.5s-0.3-1.7-1-2.5s-1.6-1.4-2.7-1.8S10.3,2.2,9,2.2L9,2.2L9,2.2z M9,0.6c1.6,0,3.1,0.3,4.5,0.9
    s2.5,1.4,3.3,2.4s1.2,2.1,1.2,3.3s-0.4,2.3-1.2,3.3s-1.9,1.8-3.3,2.4s-2.9,0.9-4.5,0.9c-0.7,0-1.5-0.1-2.3-0.2
    c-1.1,0.8-2.3,1.3-3.6,1.6c-0.3,0.1-0.7,0.1-1.1,0.2h0c-0.1,0-0.2,0-0.3-0.1S1.7,15.1,1.7,15c0,0,0-0.1,0-0.1s0-0.1,0-0.1
    c0,0,0-0.1,0-0.1c0,0,0,0,0-0.1c0,0,0,0,0-0.1s0-0.1,0.1-0.1c0,0,0,0,0.1-0.1s0,0,0.1-0.1c0-0.1,0.1-0.2,0.3-0.3
    c0.2-0.2,0.3-0.3,0.3-0.4c0.1-0.1,0.2-0.2,0.3-0.4C3,13.2,3.1,13,3.2,12.9c0.1-0.2,0.2-0.4,0.3-0.6c-1.1-0.6-1.9-1.4-2.5-2.3
    C0.3,9.1,0,8.2,0,7.1C0,6,0.4,4.9,1.2,3.8S3.1,2,4.5,1.5S7.4,0.6,9,0.6L9,0.6L9,0.6z M19.6,15.6c0.1,0.2,0.2,0.4,0.3,0.6
    c0.1,0.2,0.2,0.3,0.3,0.5c0.1,0.2,0.2,0.3,0.3,0.4c0.1,0.1,0.2,0.2,0.3,0.4c0.2,0.2,0.3,0.3,0.3,0.3c0,0,0,0,0.1,0.1
    c0,0,0,0.1,0.1,0.1c0,0,0,0,0.1,0.1c0,0,0,0.1,0,0.1c0,0,0,0,0,0.1c0,0,0,0.1,0,0.1c0,0,0,0.1,0,0.1c0,0,0,0.1,0,0.1
    c0,0.1-0.1,0.2-0.2,0.3s-0.2,0.1-0.3,0.1c-0.4-0.1-0.8-0.1-1.1-0.2c-1.3-0.3-2.5-0.9-3.6-1.6C15.5,16.9,14.7,17,14,17
    c-2.3,0-4.3-0.6-6.1-1.7c0.5,0,0.9,0.1,1.1,0.1c1.4,0,2.7-0.2,4-0.6c1.3-0.4,2.4-0.9,3.4-1.7c1.1-0.8,1.9-1.7,2.5-2.7
    s0.9-2.1,0.9-3.3c0-0.7-0.1-1.3-0.3-2c1.1,0.6,2,1.4,2.6,2.3s1,1.9,1,3c0,1-0.3,2-0.9,2.9C21.5,14.2,20.6,15,19.6,15.6
    L19.6,15.6L19.6,15.6z"/>
</g>
</svg>
