<svg xmlns="http://www.w3.org/2000/svg" viewBox="114.6 -328 500 500" enable-background="new 114.6 -328 500 500"><path fill="#F1F1F5" d="M337.6-159.3c-13.9 0-26.8 2.1-39.7 7.5-12.9 5.4-21.4 10.7-28.9 19.3-7.5 8.6-10.8 17.1-10.8 26.8 0 7.5 2.1 15 7.5 21.4 5.4 6.4 11.8 12.9 20.4 18.3l12.9 7.5-4.3 11.8c3.2-2.1 6.4-3.2 8.6-5.4l6.4-4.3 7.5 1.1c7.5 1.1 13.9 2.1 21.4 2.1 13.9 0 26.8-2.1 39.7-7.5 11.8-4.3 21.4-10.8 28.9-19.3 7.5-8.6 10.8-17.1 10.8-26.8s-3.2-18.3-10.8-26.8-17-15-28.8-19.2c-11.9-4.3-26.9-6.5-40.8-6.5zm0-17.2c17.1 0 33.3 3.2 48.3 9.6 15 6.4 26.8 15 35.4 25.8 8.6 10.8 12.9 22.5 12.9 35.4s-4.3 24.7-12.9 35.4c-8.6 10.8-20.4 19.3-35.4 25.8s-31 9.6-48.3 9.6c-7.5 0-16.1-1.1-24.7-2.1-11.8 8.6-24.7 13.9-38.6 17.1-3.2 1.1-7.5 1.1-11.8 2.1-1.1 0-2.1 0-3.2-1.1s0-2.1 0-3.2v-5.5s0-1.1 1.1-1.1l1.1-1.1 1.1-1.1c0-1.1 1.1-2.1 3.2-3.2 2.1-2.1 3.2-3.2 3.2-4.3 1.1-1.1 2.1-2.1 3.2-4.3 1.1 1.1 2.1-1.1 3.2-2.1 1.1-2.1 2.1-4.3 3.2-6.4-11.8-6.4-20.4-15-26.8-24.7-7.5-9.6-10.8-19.3-10.8-31s4.3-23.5 12.9-35.4c8.6-11.8 20.8-19.3 35.8-24.7s30.8-9.5 47.9-9.5zM451.2-15.7c1.1 2.1 2.1 4.3 3.2 6.4s2.1 3.2 3.2 5.4c1.1 2.1 2.1 3.2 3.2 4.3 1.1 1.1 2.1 2.1 3.2 4.3l3.2 3.2 1.1 1.1s0 1.1 1.1 1.1l1.1 1.1v5.5c0 1.1-1.1 2.1-2.1 3.2s-2.1 1.1-3.2 1.1c-4.3-1.1-8.6-1.1-11.8-2.1-13.9-3.2-26.8-9.6-38.6-17.1-7.5-3.2-16.1-2.1-23.5-2.1-24.7 0-46.1-6.4-65.4-18.3 5.4 0 9.6 1.1 11.8 1.1 15 0 28.9-2.1 42.9-6.4 13.9-4.3 25.8-9.6 36.4-18.3 11.8-8.6 20.4-18.3 26.8-28.9 6.4-10.7 9.6-22.5 9.6-35.4 0-7.5-1.1-13.9-3.2-21.4 11.8 6.4 21.4 15 27.9 24.7 6.4 9.7 10.8 20.4 10.8 32.2 0 10.8-3.2 21.4-9.6 31-7.7 9.3-17.3 17.9-28.1 24.3z"/></svg>