<svg xmlns="http://www.w3.org/2000/svg" viewBox="58.9 -191.2 500 500" enable-background="new 58.9 -191.2 500 500"><path d="M335 65.7c3.9 20.1 7.7 40.2 11.8 60.2 1.1 5.1-.4 6.7-5.6 6.9-17.4.5-17.4.7-17.4 18.5v23.8c0 3.7.2 7-5.3 7-5.8 0-4.8-4.1-4.8-7.4v-35.2c0-3 1.1-6.7-4.2-6.9-5.5-.2-5.1 3.5-5.1 7v35.2c0 3.5.5 7.2-5.1 7-5.8 0-4.8-3.9-4.9-7.2 0-11.8-.2-23.4 0-35.2.2-5.3-1.6-7-7-7-17.8-.4-17.8-.5-14.4-17.6 3.2-16.4 6.2-32.8 9.2-49.1l-.2.2c17.8-1.1 35.4-.9 53-.2zm-52.8 0c-7.2.9-9.9-2.3-9.2-9.5.5-5.5.2-11.1.2-16.7 0-25 5.5-32.9 28.9-43.3-1.6-2.5-4.6-2.5-6.9-3.5-12-6-18.1-17.6-16.6-31.2 1.4-12.2 11.1-22.5 23.6-25.4 12-2.6 25.4 2.8 31.7 14.1 2.6 4.6 5.3 7.4 10.9 8.6 7.7 1.8 11.1 9.2 15.5 15 1.9 2.5-1.1 3.7-2.5 4.8-4.8 3.3-10.2 5.6-15.7 4.4-5.6-1.2-9.2-.4-12.7 4.2-3.9 4.9-10 6.7-16.6 9 24.1 7.9 31.2 18 31.3 42.8 0 5.8-.5 11.8.2 17.6.7 7.4-2.3 10.2-9.3 9.5l.2.2c-.2-10.7-.2-21.7-.4-32.4 0-7.2-2.3-13.7-7.4-19.2-2.3-2.5-3.9-3.3-6.9-.2-8.5 8.8-15.5 8.8-23.6 0-3.2-3.3-4.6-2.1-6.9.2-5.6 5.8-7.4 13-7.4 21-.1 9.7-.4 20-.4 30zm25.8-80c10.4-.2 19.4-7.9 20.1-16.9.4-3.2.4-6-3.9-6.5-9-1.1-19-6.5-24.5 6.2-.5 1.2-1.9 2.3-3.2 3-7 3.9-4.6 7.2.4 10.6 3.6 2.4 7.4 3.5 11.1 3.6zm-4.2-39.8c-10.2 3.5-14.3 9.3-16 19.7 7.7-5.8 11.8-11.4 16-19.7zM233 95.3c9.3 5.1 11.8 12.9 11.3 21.8-.7 11.1 3 21.3 5.6 31.9 1.1 4.4 2.6 9-5.1 8.1-4.6-.5-5.1 2.5-5.1 6 .2 4.8 0 9.3 0 14.1 0 3.3-1.2 4.8-4.6 4.8-3.5 0-5.6-1.1-5.5-4.9.2-4.1.2-8.3-.2-12.3-.2-2.6 1.4-6.9-2.8-7-4.6-.2-3 4.1-3.2 6.7-.4 4.1-.2 8.3 0 12.3 0 3.5-1.2 5.3-5.1 5.3s-5.1-1.8-4.9-5.3c.2-3 0-5.8 0-8.8.2-6 1.2-12.2-8.3-11.1-3.7.4-3.2-2.6-2.5-4.9 4.1-13.9 6.7-27.8 6.9-42.3 0-6.3 4.2-10.7 11.1-14.4-4.2-2.1-6-6.2-10.7-1.9-1.9 1.8-6.2 2.3-7.7-.4-1.4-2.3 1.2-4.9 3.3-6.5 1.9-1.6 3.9-2.1 3.7-5.8-.9-10.7 4.4-18.1 13-20.1 8.8-1.9 16.9 1.8 20.8 9.3 4.1 8.3 1.8 16.2-6.7 23.1-.8.5-1.5 1-3.3 2.3zm-6.3-21.5c-2.6 2.3-7.6 2.3-7.2 6.7.4 3.3 3.5 5.1 7.2 5.1 3.9 0 7.2-1.8 7.6-5.8.1-5-5.3-3.4-7.6-6zM382 95.1c-11.6-11.8-13.2-22-4.9-30.3 7.2-7.2 18.8-7 25.9.5 7.7 8.3 5.6 19.2-6 29.8 10.9 5.5 14.4 14.6 13.6 26.2-.4 4.9 0 10-.2 15 0 1.8 0 4.8-.7 4.9-11.6 4.1-5.5 13.6-6.5 20.8-.9 4.9-.2 9.9-.2 15 0 3.7-1.4 5.1-5.3 5.3-4.1 0-4.9-1.9-4.9-5.5.2-9.2.2-18.1 0-27.3 0-2.3 1.1-6-3-6.2-4.8-.2-3.7 3.7-3.7 6.3-.2 8.8 0 17.6 0 26.4 0 3 .2 5.8-4.4 6-4.8.2-5.1-2.6-5.1-6.2v-25.5c0-1.9 0-5.5-.9-5.8-13.9-5.5-5.5-17.1-6.9-25.7-1.4-10.3 3.7-18.6 13.2-23.7zm7.6-9.9c5.3-.2 8.5-3 8.3-8.1 0-4.6-3-7.6-7.7-7.7-5.3-.2-8.1 3.2-8.3 8.1-.1 4.7 2.8 7.6 7.7 7.7zm52.3 10.1c-3.5-3.5-6.2-5.1-10.2-1.8-1.9 1.6-6.2 1.8-7.4-.2-1.8-2.8 1.2-5.5 3.7-7 2.5-1.6 3.5-2.8 3.2-6.2-.7-10 4.4-17.4 12.5-19.5 8.8-2.3 17.8 1.6 21.3 9.7 3.9 8.5 1.4 16.2-7.2 22.9-.7.5-1.4 1.1-2.5 1.9 9.7 5.5 12 14.1 11.1 24.1-.9 10.9 3.3 20.8 5.8 30.8 1.1 4.4 1.4 7.6-4.6 6.9-5.5-.7-6.3 2.6-6 7 .2 3.9 0 7.6 0 11.4 0 3.2.4 6.5-4.6 6.5-5.5.2-5.3-3.3-5.3-6.9 0-4.4 0-8.8-.2-13.2 0-2.1-.2-4.4-3-4.4-3 0-3 2.3-3 4.4-.2 4.9-.2 10 0 15 0 3.7-1.4 5.1-5.3 5.1s-5.1-1.8-5.1-5.5c.2-3.5-.2-7 0-10.6.4-5.5.2-10-7.6-9.2-4.2.5-3.9-2.6-3.2-5.3 4.1-14.1 7.6-28.2 7-43.1.4-5.6 5.7-9.1 10.6-12.8zm6.9 51.6c1.2 0 2.3-.2 3.5 0 8.1 1.2 9.7-2.1 7-9.2-2.6-7.2-3-14.8-2.6-22.4.2-5.3-.7-10.4-7.4-10.7-6.7-.2-8.3 4.6-8.3 10 0 9 0 18.1-3.2 26.8-1.2 3.5-.2 5.6 3.9 5.5 2.3-.2 4.6 0 7.1 0zm.3-61.3c3.3-.4 6.9-1.8 7-5.8.2-4.8-4.9-4.9-7.6-5.3-2.6-.2-6.9 1.8-7 5.1-.1 4.1 3.4 5.6 7.6 6zm-275.6 9.2c11.1 9 17.8 32.8 12.5 45.3-.2.4-.2.7-.2.9-13.6 5.6-5.3 17.4-7.2 26.4-.9 3.7-.2 7.6-.2 11.4 0 2.6-1.8 3.3-4.1 3.3-2.5 0-4.9 0-5.1-3.3v-32.6c0-.5.2-1.4.5-1.6 13.6-8.1 4.6-20.8 6-31.3.7-5.5-4.6-9.2-10.9-8.8-5.8.4-9.5 3.7-9.9 9.3-.5 7.9-.2 15.9-.2 23.8 0 1.1.2 3 .9 3.2 10.7 3.9 5.6 13 6.5 19.9.5 5.3 0 10.6.2 15.9 0 3.3-.5 5.6-4.8 5.6-4.4.2-5.5-2.1-5.5-6 .2-8.8 0-17.6 0-26.4 0-3.2.4-6.7-4.4-7-2.1-.2-2.8-1.8-2.8-3.7.2-9.7-.4-19.4.7-28.9.7-7.2 6.3-11.6 12.5-15-11.8-11.3-13.7-21.8-5.3-30.3 6.9-6.9 18.3-7 25.4-.2 8.4 8.2 7 18.3-4.6 30.1zm-.2-17.7c-.5-4.8-3-7.7-7.9-7.6-4.8.2-7.9 3-7.9 7.7 0 5.1 3 8.3 8.5 7.9 4.9 0 7-3.2 7.3-8z" fill="#F1F1F5"/></svg>