<?xml version="1.0" encoding="utf-8"?>
<!DOCTYPE svg PUBLIC "-//W3C//DTD SVG 1.1//EN" "http://www.w3.org/Graphics/SVG/1.1/DTD/svg11.dtd">
<svg version="1.1" xmlns="http://www.w3.org/2000/svg" xmlns:xlink="http://www.w3.org/1999/xlink" x="0px" y="0px"
	 viewBox="0 0 300.2 299.8" enable-background="new 0 0 300.2 299.8" xml:space="preserve">
<g>
	<path fill="#F1F1F5" d="M168.2,140.8c2.2,11.4,4.4,22.8,6.7,34.2c0.6,2.9-0.2,3.8-3.2,3.9c-9.9,0.3-9.9,0.4-9.9,10.5
		c0,4.5,0,9,0,13.5c0,2.1,0.1,4-3,4c-3.3,0-2.7-2.3-2.7-4.2c0-6.7,0-13.3,0-20c0-1.7,0.6-3.8-2.4-3.9c-3.1-0.1-2.9,2-2.9,4
		c0,6.7,0,13.3,0,20c0,2,0.3,4.1-2.9,4c-3.3,0-2.7-2.2-2.8-4.1c0-6.7-0.1-13.3,0-20c0.1-3-0.9-4-4-4c-10.1-0.2-10.1-0.3-8.2-10
		c1.8-9.3,3.5-18.6,5.2-27.9l-0.1,0.1C148.2,140.3,158.2,140.4,168.2,140.8L168.2,140.8z"/>
	<path fill="#F1F1F5" d="M138.2,140.8c-4.1,0.5-5.6-1.3-5.2-5.4c0.3-3.1,0.1-6.3,0.1-9.5c0-14.2,3.1-18.7,16.4-24.6
		c-0.9-1.4-2.6-1.4-3.9-2c-6.8-3.4-10.3-10-9.4-17.7c0.8-6.9,6.3-12.8,13.4-14.4c6.8-1.5,14.4,1.6,18,8c1.5,2.6,3,4.2,6.2,4.9
		c4.4,1,6.3,5.2,8.8,8.5c1.1,1.4-0.6,2.1-1.4,2.7c-2.7,1.9-5.8,3.2-8.9,2.5c-3.2-0.7-5.2-0.2-7.2,2.4c-2.2,2.8-5.7,3.8-9.4,5.1
		c13.7,4.5,17.7,10.2,17.8,24.3c0,3.3-0.3,6.7,0.1,10c0.4,4.2-1.3,5.8-5.3,5.4c0,0,0.1,0.1,0.1,0.1c-0.1-6.1-0.1-12.3-0.2-18.4
		c0-4.1-1.3-7.8-4.2-10.9c-1.3-1.4-2.2-1.9-3.9-0.1c-4.8,5-8.8,5-13.4,0c-1.8-1.9-2.6-1.2-3.9,0.1c-3.2,3.3-4.2,7.4-4.2,11.9
		C138.4,129.3,138.2,135.1,138.2,140.8L138.2,140.8z M152.9,95.4c5.9-0.1,11-4.5,11.4-9.6c0.2-1.8,0.2-3.4-2.2-3.7
		c-5.1-0.6-10.8-3.7-13.9,3.5c-0.3,0.7-1.1,1.3-1.8,1.7c-4,2.2-2.6,4.1,0.2,6C148.6,94.7,150.8,95.3,152.9,95.4z M150.5,72.8
		c-5.8,2-8.1,5.3-9.1,11.2C145.8,80.7,148.1,77.5,150.5,72.8z"/>
	<path fill="#F1F1F5" d="M110.3,157.6c5.3,2.9,6.7,7.3,6.4,12.4c-0.4,6.3,1.7,12.1,3.2,18.1c0.6,2.5,1.5,5.1-2.9,4.6
		c-2.6-0.3-2.9,1.4-2.9,3.4c0.1,2.7,0,5.3,0,8c0,1.9-0.7,2.7-2.6,2.7c-2,0-3.2-0.6-3.1-2.8c0.1-2.3,0.1-4.7-0.1-7
		c-0.1-1.5,0.8-3.9-1.6-4c-2.6-0.1-1.7,2.3-1.8,3.8c-0.2,2.3-0.1,4.7,0,7c0,2-0.7,3-2.9,3c-2.2,0-2.9-1-2.8-3c0.1-1.7,0-3.3,0-5
		c0.1-3.4,0.7-6.9-4.7-6.3c-2.1,0.2-1.8-1.5-1.4-2.8c2.3-7.9,3.8-15.8,3.9-24c0-3.6,2.4-6.1,6.3-8.2c-2.4-1.2-3.4-3.5-6.1-1.1
		c-1.1,1-3.5,1.3-4.4-0.2c-0.8-1.3,0.7-2.8,1.9-3.7c1.1-0.9,2.2-1.2,2.1-3.3c-0.5-6.1,2.5-10.3,7.4-11.4c5-1.1,9.6,1,11.8,5.3
		c2.3,4.7,1,9.2-3.8,13.1C111.7,156.6,111.3,156.9,110.3,157.6z M106.7,145.4c-1.5,1.3-4.3,1.3-4.1,3.8c0.2,1.9,2,2.9,4.1,2.9
		c2.2,0,4.1-1,4.3-3.3C111.1,146,108,146.9,106.7,145.4z"/>
	<path fill="#F1F1F5" d="M194.9,157.5c-6.6-6.7-7.5-12.5-2.8-17.2c4.1-4.1,10.7-4,14.7,0.3c4.4,4.7,3.2,10.9-3.4,16.9
		c6.2,3.1,8.2,8.3,7.7,14.9c-0.2,2.8,0,5.7-0.1,8.5c0,1,0,2.7-0.4,2.8c-6.6,2.3-3.1,7.7-3.7,11.8c-0.5,2.8-0.1,5.6-0.1,8.5
		c0,2.1-0.8,2.9-3,3c-2.3,0-2.8-1.1-2.8-3.1c0.1-5.2,0.1-10.3,0-15.5c0-1.3,0.6-3.4-1.7-3.5c-2.7-0.1-2.1,2.1-2.1,3.6
		c-0.1,5,0,10,0,15c0,1.7,0.1,3.3-2.5,3.4c-2.7,0.1-2.9-1.5-2.9-3.5c0-4.8,0-9.6,0-14.5c0-1.1,0-3.1-0.5-3.3
		c-7.9-3.1-3.1-9.7-3.9-14.6C186.6,165.1,189.5,160.4,194.9,157.5z M199.2,151.9c3-0.1,4.8-1.7,4.7-4.6c0-2.6-1.7-4.3-4.4-4.4
		c-3-0.1-4.6,1.8-4.7,4.6C194.8,150.2,196.4,151.8,199.2,151.9z"/>
	<path fill="#F1F1F5" d="M228.9,157.6c-2-2-3.5-2.9-5.8-1c-1.1,0.9-3.5,1-4.2-0.1c-1-1.6,0.7-3.1,2.1-4c1.4-0.9,2-1.6,1.8-3.5
		c-0.4-5.7,2.5-9.9,7.1-11.1c5-1.3,10.1,0.9,12.1,5.5c2.2,4.8,0.8,9.2-4.1,13c-0.4,0.3-0.8,0.6-1.4,1.1c5.5,3.1,6.8,8,6.3,13.7
		c-0.5,6.2,1.9,11.8,3.3,17.5c0.6,2.5,0.8,4.3-2.6,3.9c-3.1-0.4-3.6,1.5-3.4,4c0.1,2.2,0,4.3,0,6.5c0,1.8,0.2,3.7-2.6,3.7
		c-3.1,0.1-3-1.9-3-3.9c0-2.5,0-5-0.1-7.5c0-1.2-0.1-2.5-1.7-2.5c-1.7,0-1.7,1.3-1.7,2.5c-0.1,2.8-0.1,5.7,0,8.5
		c0,2.1-0.8,2.9-3,2.9c-2.2,0-2.9-1-2.9-3.1c0.1-2-0.1-4,0-6c0.2-3.1,0.1-5.7-4.3-5.2c-2.4,0.3-2.2-1.5-1.8-3c2.3-8,4.3-16,4-24.5
		C223.1,161.7,226.1,159.7,228.9,157.6z M232.8,186.9C232.8,186.9,232.8,186.9,232.8,186.9c0.7,0,1.3-0.1,2,0c4.6,0.7,5.5-1.2,4-5.2
		c-1.5-4.1-1.7-8.4-1.5-12.7c0.1-3-0.4-5.9-4.2-6.1c-3.8-0.1-4.7,2.6-4.7,5.7c0,5.1,0,10.3-1.8,15.2c-0.7,2-0.1,3.2,2.2,3.1
		C230.1,186.8,231.4,186.9,232.8,186.9z M233,152.1c1.9-0.2,3.9-1,4-3.3c0.1-2.7-2.8-2.8-4.3-3c-1.5-0.1-3.9,1-4,2.9
		C228.6,151,230.6,151.9,233,152.1z"/>
	<path fill="#F1F1F5" d="M76.5,157.3c6.3,5.1,10.1,18.6,7.1,25.7c-0.1,0.2-0.1,0.4-0.1,0.5c-7.7,3.2-3,9.9-4.1,15
		c-0.5,2.1-0.1,4.3-0.1,6.5c0,1.5-1,1.9-2.3,1.9c-1.4,0-2.8,0-2.9-1.9c0-6.2,0-12.3,0-18.5c0-0.3,0.1-0.8,0.3-0.9
		c7.7-4.6,2.6-11.8,3.4-17.8c0.4-3.1-2.6-5.2-6.2-5c-3.3,0.2-5.4,2.1-5.6,5.3c-0.3,4.5-0.1,9-0.1,13.5c0,0.6,0.1,1.7,0.5,1.8
		c6.1,2.2,3.2,7.4,3.7,11.3c0.3,3,0,6,0.1,9c0,1.9-0.3,3.2-2.7,3.2c-2.5,0.1-3.1-1.2-3.1-3.4c0.1-5,0-10,0-15c0-1.8,0.2-3.8-2.5-4
		c-1.2-0.1-1.6-1-1.6-2.1c0.1-5.5-0.2-11,0.4-16.4c0.4-4.1,3.6-6.6,7.1-8.5c-6.7-6.4-7.8-12.4-3-17.2c3.9-3.9,10.4-4,14.4-0.1
		C83.9,144.9,83.1,150.6,76.5,157.3z M76.4,147.3c-0.3-2.7-1.7-4.4-4.5-4.3c-2.7,0.1-4.5,1.7-4.5,4.4c0,2.9,1.7,4.7,4.8,4.5
		C75,151.8,76.2,150,76.4,147.3z"/>
</g>
</svg>
