<?xml version="1.0" encoding="utf-8"?>

<!DOCTYPE svg PUBLIC "-//W3C//DTD SVG 1.1//EN" "http://www.w3.org/Graphics/SVG/1.1/DTD/svg11.dtd">
<svg version="1.1" id="Layer_1" xmlns="http://www.w3.org/2000/svg" xmlns:xlink="http://www.w3.org/1999/xlink" x="0px" y="0px"
	 viewBox="58.9 -191.2 500 500" enable-background="new 58.9 -191.2 500 500" xml:space="preserve">
<text opacity="0" font-family="'MyriadPro-Regular'" font-size="1">a</text>
<g>
	<path fill="#F1F1F5" d="M335,65.7c3.9,20.1,7.7,40.2,11.8,60.2c1.1,5.1-0.4,6.7-5.6,6.9c-17.4,0.5-17.4,0.7-17.4,18.5
		c0,7.9,0,15.9,0,23.8c0,3.7,0.2,7-5.3,7c-5.8,0-4.8-4.1-4.8-7.4c0-11.8,0-23.4,0-35.2c0-3,1.1-6.7-4.2-6.9c-5.5-0.2-5.1,3.5-5.1,7
		c0,11.8,0,23.4,0,35.2c0,3.5,0.5,7.2-5.1,7c-5.8,0-4.8-3.9-4.9-7.2c0-11.8-0.2-23.4,0-35.2c0.2-5.3-1.6-7-7-7
		c-17.8-0.4-17.8-0.5-14.4-17.6c3.2-16.4,6.2-32.8,9.2-49.1l-0.2,0.2C299.8,64.8,317.4,65,335,65.7L335,65.7z"/>
	<path fill="#F1F1F5" d="M282.2,65.7c-7.2,0.9-9.9-2.3-9.2-9.5c0.5-5.5,0.2-11.1,0.2-16.7c0-25,5.5-32.9,28.9-43.3
		c-1.6-2.5-4.6-2.5-6.9-3.5c-12-6-18.1-17.6-16.6-31.2c1.4-12.2,11.1-22.5,23.6-25.4c12-2.6,25.4,2.8,31.7,14.1
		c2.6,4.6,5.3,7.4,10.9,8.6c7.7,1.8,11.1,9.2,15.5,15c1.9,2.5-1.1,3.7-2.5,4.8c-4.8,3.3-10.2,5.6-15.7,4.4
		c-5.6-1.2-9.2-0.4-12.7,4.2c-3.9,4.9-10,6.7-16.6,9c24.1,7.9,31.2,18,31.3,42.8c0,5.8-0.5,11.8,0.2,17.6c0.7,7.4-2.3,10.2-9.3,9.5
		l0.2,0.2c-0.2-10.7-0.2-21.7-0.4-32.4c0-7.2-2.3-13.7-7.4-19.2c-2.3-2.5-3.9-3.3-6.9-0.2c-8.5,8.8-15.5,8.8-23.6,0
		c-3.2-3.3-4.6-2.1-6.9,0.2c-5.6,5.8-7.4,13-7.4,21C282.5,45.4,282.2,55.7,282.2,65.7L282.2,65.7z M308-14.3
		c10.4-0.2,19.4-7.9,20.1-16.9c0.4-3.2,0.4-6-3.9-6.5c-9-1.1-19-6.5-24.5,6.2c-0.5,1.2-1.9,2.3-3.2,3c-7,3.9-4.6,7.2,0.4,10.6
		C300.5-15.5,304.3-14.4,308-14.3z M303.8-54.1c-10.2,3.5-14.3,9.3-16,19.7C295.5-40.2,299.6-45.8,303.8-54.1z"/>
	<path fill="#F1F1F5" d="M233,95.3c9.3,5.1,11.8,12.9,11.3,21.8c-0.7,11.1,3,21.3,5.6,31.9c1.1,4.4,2.6,9-5.1,8.1
		c-4.6-0.5-5.1,2.5-5.1,6c0.2,4.8,0,9.3,0,14.1c0,3.3-1.2,4.8-4.6,4.8c-3.5,0-5.6-1.1-5.5-4.9c0.2-4.1,0.2-8.3-0.2-12.3
		c-0.2-2.6,1.4-6.9-2.8-7c-4.6-0.2-3,4.1-3.2,6.7c-0.4,4.1-0.2,8.3,0,12.3c0,3.5-1.2,5.3-5.1,5.3s-5.1-1.8-4.9-5.3
		c0.2-3,0-5.8,0-8.8c0.2-6,1.2-12.2-8.3-11.1c-3.7,0.4-3.2-2.6-2.5-4.9c4.1-13.9,6.7-27.8,6.9-42.3c0-6.3,4.2-10.7,11.1-14.4
		c-4.2-2.1-6-6.2-10.7-1.9c-1.9,1.8-6.2,2.3-7.7-0.4c-1.4-2.3,1.2-4.9,3.3-6.5c1.9-1.6,3.9-2.1,3.7-5.8c-0.9-10.7,4.4-18.1,13-20.1
		c8.8-1.9,16.9,1.8,20.8,9.3c4.1,8.3,1.8,16.2-6.7,23.1C235.5,93.5,234.8,94,233,95.3z M226.7,73.8c-2.6,2.3-7.6,2.3-7.2,6.7
		c0.4,3.3,3.5,5.1,7.2,5.1c3.9,0,7.2-1.8,7.6-5.8C234.4,74.8,229,76.4,226.7,73.8z"/>
	<path fill="#F1F1F5" d="M382,95.1c-11.6-11.8-13.2-22-4.9-30.3c7.2-7.2,18.8-7,25.9,0.5c7.7,8.3,5.6,19.2-6,29.8
		c10.9,5.5,14.4,14.6,13.6,26.2c-0.4,4.9,0,10-0.2,15c0,1.8,0,4.8-0.7,4.9c-11.6,4.1-5.5,13.6-6.5,20.8c-0.9,4.9-0.2,9.9-0.2,15
		c0,3.7-1.4,5.1-5.3,5.3c-4.1,0-4.9-1.9-4.9-5.5c0.2-9.2,0.2-18.1,0-27.3c0-2.3,1.1-6-3-6.2c-4.8-0.2-3.7,3.7-3.7,6.3
		c-0.2,8.8,0,17.6,0,26.4c0,3,0.2,5.8-4.4,6c-4.8,0.2-5.1-2.6-5.1-6.2c0-8.5,0-16.9,0-25.5c0-1.9,0-5.5-0.9-5.8
		c-13.9-5.5-5.5-17.1-6.9-25.7C367.4,108.5,372.5,100.2,382,95.1z M389.6,85.2c5.3-0.2,8.5-3,8.3-8.1c0-4.6-3-7.6-7.7-7.7
		c-5.3-0.2-8.1,3.2-8.3,8.1C381.8,82.2,384.7,85.1,389.6,85.2z"/>
	<path fill="#F1F1F5" d="M441.9,95.3c-3.5-3.5-6.2-5.1-10.2-1.8c-1.9,1.6-6.2,1.8-7.4-0.2c-1.8-2.8,1.2-5.5,3.7-7
		c2.5-1.6,3.5-2.8,3.2-6.2c-0.7-10,4.4-17.4,12.5-19.5c8.8-2.3,17.8,1.6,21.3,9.7c3.9,8.5,1.4,16.2-7.2,22.9
		c-0.7,0.5-1.4,1.1-2.5,1.9c9.7,5.5,12,14.1,11.1,24.1c-0.9,10.9,3.3,20.8,5.8,30.8c1.1,4.4,1.4,7.6-4.6,6.9c-5.5-0.7-6.3,2.6-6,7
		c0.2,3.9,0,7.6,0,11.4c0,3.2,0.4,6.5-4.6,6.5c-5.5,0.2-5.3-3.3-5.3-6.9c0-4.4,0-8.8-0.2-13.2c0-2.1-0.2-4.4-3-4.4c-3,0-3,2.3-3,4.4
		c-0.2,4.9-0.2,10,0,15c0,3.7-1.4,5.1-5.3,5.1s-5.1-1.8-5.1-5.5c0.2-3.5-0.2-7,0-10.6c0.4-5.5,0.2-10-7.6-9.2
		c-4.2,0.5-3.9-2.6-3.2-5.3c4.1-14.1,7.6-28.2,7-43.1C431.7,102.5,437,99,441.9,95.3z M448.8,146.9L448.8,146.9c1.2,0,2.3-0.2,3.5,0
		c8.1,1.2,9.7-2.1,7-9.2c-2.6-7.2-3-14.8-2.6-22.4c0.2-5.3-0.7-10.4-7.4-10.7c-6.7-0.2-8.3,4.6-8.3,10c0,9,0,18.1-3.2,26.8
		c-1.2,3.5-0.2,5.6,3.9,5.5C444,146.7,446.3,146.9,448.8,146.9z M449.1,85.6c3.3-0.4,6.9-1.8,7-5.8c0.2-4.8-4.9-4.9-7.6-5.3
		c-2.6-0.2-6.9,1.8-7,5.1C441.4,83.7,444.9,85.2,449.1,85.6z"/>
	<path fill="#F1F1F5" d="M173.5,94.8c11.1,9,17.8,32.8,12.5,45.3c-0.2,0.4-0.2,0.7-0.2,0.9c-13.6,5.6-5.3,17.4-7.2,26.4
		c-0.9,3.7-0.2,7.6-0.2,11.4c0,2.6-1.8,3.3-4.1,3.3c-2.5,0-4.9,0-5.1-3.3c0-10.9,0-21.7,0-32.6c0-0.5,0.2-1.4,0.5-1.6
		c13.6-8.1,4.6-20.8,6-31.3c0.7-5.5-4.6-9.2-10.9-8.8c-5.8,0.4-9.5,3.7-9.9,9.3c-0.5,7.9-0.2,15.9-0.2,23.8c0,1.1,0.2,3,0.9,3.2
		c10.7,3.9,5.6,13,6.5,19.9c0.5,5.3,0,10.6,0.2,15.9c0,3.3-0.5,5.6-4.8,5.6c-4.4,0.2-5.5-2.1-5.5-6c0.2-8.8,0-17.6,0-26.4
		c0-3.2,0.4-6.7-4.4-7c-2.1-0.2-2.8-1.8-2.8-3.7c0.2-9.7-0.4-19.4,0.7-28.9c0.7-7.2,6.3-11.6,12.5-15c-11.8-11.3-13.7-21.8-5.3-30.3
		c6.9-6.9,18.3-7,25.4-0.2C186.5,72.9,185.1,83,173.5,94.8z M173.3,77.1c-0.5-4.8-3-7.7-7.9-7.6c-4.8,0.2-7.9,3-7.9,7.7
		c0,5.1,3,8.3,8.5,7.9C170.9,85.1,173,81.9,173.3,77.1z"/>
</g>
</svg>
