<?xml version="1.0" encoding="utf-8"?>
<!DOCTYPE svg PUBLIC "-//W3C//DTD SVG 1.1//EN" "http://www.w3.org/Graphics/SVG/1.1/DTD/svg11.dtd">
<svg version="1.1" xmlns="http://www.w3.org/2000/svg" xmlns:xlink="http://www.w3.org/1999/xlink" x="0px" y="0px"
	 viewBox="0 0 300 299.6" enable-background="new 0 0 300 299.6" xml:space="preserve">
<g>
	<path fill="#F1F1F5" d="M115,58.9c0-3,0-6,0-9c0-1.7-0.6-3-2.3-3.3c-1.9-0.3-2.7,1.1-3.2,2.5c-0.6,1.5-1.1,3.1-1.4,4.8
		c-0.6,3.5-1.8,5.3-6.1,5c-6.2-0.4-10,3.7-9.9,9.9c0,4.1-0.8,7.9-2.2,11.7c-1.9,5.2-3.1,10.5-3.6,16c-1,12.2,2.5,20.7,12.9,25.5
		c6.6,3,12.5,7.5,18.8,11.2c6.5,3.8,9.5,9.4,10,16.7c1.5,20,1.5,39.9-1.6,59.7c-2.5,15.9,3.6,29,22,29.3c6.2,0.1,12.3,0.4,18.4,0.7
		c8.4,0.4,11.1,2.5,13.7,10.3c0.5,1.5,1.2,3.1,2.2,4.4c3.4,4.3,7.5,3.9,9.3-1.2c4-11.1,2.1-26.7-16.1-27.6
		c-3.7-0.2-7.3-0.5-10.9-0.9c-2-0.2-4-0.6-5.8-1.2c-4.3-1.5-6.7-3.8-6.6-9.1c0.2-7.3,2-14.1,4-21c0.5-1.6,1.1-2.6,2.9-2.8
		c9.1-0.8,18.2-1.9,27.3-0.1c6.7,1.3,8.4,3.3,9,9.9c0.6,7,1.1,13.9,0.4,20.9c-0.3,2.7,0.3,5.4,3.2,6c7.9,1.6,15.9,2.1,23.6-0.7
		c3.8-1.4,4-4.6,1.1-7.5c-2.2-2.2-5.1-3.2-8-3.8c-4.1-0.8-5.4-3.2-5.1-7.1c0.4-4.3,0.9-8.6,0.7-12.9c-0.6-16.1-6.9-24.9-21.6-25.9
		c-4.1-0.3-8.1-1.9-12.1-2.8c-2.6-0.6-4-1.9-4.1-4.8c-0.2-5.1-0.9-10.3-0.8-15.4c0.3-17.1,3.4-19.1,20.5-18.6c0.5,0,1,0.1,1.5,0.2
		c10,1.7,14.5,6.7,15.8,17c0.4,3.6,1.1,7.2,1.7,10.8c0.4,2.5,0.9,5.2,4.2,5.3c3.4,0.2,6.3-1.1,7.7-4.4c1-2.3,1.5-4.7,1.4-7.3
		c-0.1-6.2-1.5-12.2-2.8-18.2c-1.3-6.3-4.8-10.9-10-14.3c-7.1-4.7-15.2-6.6-23.5-7.2c-16.5-1.3-32.5,2.3-48.4,5.7
		c-12.3,2.6-23,0.5-32.6-7.7c-3.3-2.8-5-6-4.1-10.5c0.7-3.4,0.8-7,1.6-10.3c0.6-2.5-0.1-5.7,2.1-7.5C115.1,73.8,115.8,66.7,115,58.9
		z M145.5,70.6c-11.4,0-19.4,8-19.5,19.4c0,10.6,9.6,20.1,20.6,20.2c10.2,0.1,19.4-9.3,19.3-19.6C165.8,79.1,157,70.5,145.5,70.6z
		 M209.7,253.3c1.6-2,2.7-3.5,3.8-4.8c1.1-1.3,1-2.3-0.4-3.3c-3.5-2.5-7-5.1-10.4-7.6c-0.2,0.2-0.4,0.4-0.6,0.6
		C204.5,243,207,247.8,209.7,253.3z M175.7,200.2c-6.5,4.8-6.5,4.9-1.5,9.8c1.8,1.8,3.7,3.6,6.1,6.1
		C179.5,210,177.1,205.5,175.7,200.2z M197,241.6c-0.3,0.1-0.5,0.1-0.8,0.2c-0.3,2.3-0.6,4.6-0.7,6.9c-0.1,1.2-1.3,2.9,0.6,3.4
		c1.3,0.3,3.1,0,4.3-0.7c1.4-0.8-0.2-2.1-0.5-3C199.1,246,198,243.8,197,241.6z M204.8,234.2c3.7,1.2,7.2,2.4,10.9,3.5
		C216,231.3,213.9,230.7,204.8,234.2z M186.6,214c0.9-3.2,1.8-5.5,2.2-7.9c0.2-1.1,1.4-2.7-0.3-3.4c-1.1-0.5-2.8-0.5-3.8,0
		c-1.7,0.7-0.5,2.3-0.2,3.4C185,208.5,185.7,210.8,186.6,214z M167.4,213.9c-1,6.4-0.5,6.6,9.9,5.1
		C173.9,217.2,170.8,215.7,167.4,213.9z"/>
	<path fill="#FFFFFF" d="M134.7,98.3c8.2,0.9,15.6,2.4,23.1-0.1C153.8,107.6,143.1,107.9,134.7,98.3z"/>
</g>
</svg>
