<?xml version="1.0" encoding="utf-8"?>

<!DOCTYPE svg PUBLIC "-//W3C//DTD SVG 1.1//EN" "http://www.w3.org/Graphics/SVG/1.1/DTD/svg11.dtd">
<svg version="1.1" id="Layer_1" xmlns="http://www.w3.org/2000/svg" xmlns:xlink="http://www.w3.org/1999/xlink" x="0px" y="0px"
	 viewBox="379.2 -211.5 500 500" enable-background="new 379.2 -211.5 500 500" xml:space="preserve">
<text opacity="0" font-family="'MyriadPro-Regular'" font-size="1">a</text>
<path fill="#F1F1F5" d="M561.8-113.7c0-4.9,0-9.9,0-14.8c0-2.7-0.8-4.9-3.8-5.5c-3.2-0.6-4.4,1.9-5.3,4c-0.8,2.3-1.9,5.1-2.3,7.8
	c-0.8,5.7-3,8.7-10.1,8.2c-10.1-0.8-16.5,6.1-16.3,16.3c0,6.8-1.3,13.1-3.6,19.2c-3.2,8.7-5.1,17.3-5.9,26.2
	c-1.7,20.1,4,33.8,21.1,41.8c10.8,4.9,20.5,12.2,30.8,18.4c10.6,6.1,15.6,15.4,16.5,27.5c2.3,32.7,2.3,65.5-2.5,97.8
	c-4,26,5.9,47.7,36.1,47.9c10.1,0.2,20.1,0.8,30.2,1.1c13.7,0.8,18.2,4,22.6,16.9c0.8,2.3,2.1,5.1,3.6,7.2c5.5,7,12.2,6.3,15.2-2.1
	c6.5-18.2,3.6-43.7-26.4-45.2c-6.1-0.4-11.8-0.8-18-1.5c-3.4-0.4-6.5-0.8-9.5-2.1c-7-2.3-11-6.1-10.8-14.8c0.4-11.8,3.4-23,6.5-34.4
	c0.8-2.5,1.9-4.2,4.9-4.6c14.8-1.3,29.8-3.2,44.8-0.2c11,2.1,13.7,5.5,14.8,16.3c0.8,11.6,1.9,22.8,0.8,34.2
	c-0.6,4.4,0.6,8.9,5.3,9.9c13.1,2.5,26,3.6,38.6-1.1c6.1-2.3,6.5-7.6,1.9-12.2c-3.6-3.6-8.4-5.3-13.1-6.1c-6.8-1.3-8.9-5.3-8.4-11.8
	c0.8-7,1.5-14.2,1.1-21.1c-0.8-26.4-11.4-40.8-35.3-42.5c-6.8-0.6-13.3-3.2-19.9-4.6c-4.2-0.8-6.5-3.2-6.8-7.8
	c-0.4-8.4-1.5-16.9-1.3-25.3C658.1,1,663-2.2,691-1.6c0.8,0,1.7,0.2,2.3,0.4c16.5,2.7,23.9,11,25.8,27.9c0.8,5.9,1.9,11.8,2.7,17.7
	c0.8,4,1.5,8.7,7,8.7c5.5,0.4,10.3-1.9,12.7-7.2c1.7-3.8,2.3-7.6,2.3-11.8c-0.2-10.1-2.3-20.1-4.6-29.8c-2.1-10.3-7.8-18-16.5-23.4
	c-11.8-7.6-24.9-10.8-38.4-11.8c-27-2.1-53.2,3.8-79.2,9.3c-20.1,4.2-37.8,0.8-53.4-12.7c-5.5-4.6-8.2-9.9-6.8-17.3
	c1.1-5.5,1.3-11.6,2.5-16.9c0.8-4-0.2-9.3,3.6-12.2C561.8-89.2,563.1-100.8,561.8-113.7z M611.6-94.5c-18.6,0-31.9,13.1-32.1,31.9
	c0,17.3,15.8,32.9,33.8,33.2c16.7,0.2,31.9-15.2,31.7-32.1C645-80.6,630.6-94.7,611.6-94.5z M717,205.2c2.5-3.4,4.4-5.7,6.1-7.8
	c1.9-2.1,1.7-3.8-0.8-5.5c-5.7-4-11.6-8.4-17.1-12.5c-0.4,0.4-0.8,0.8-0.8,0.8C708.6,188.3,712.6,196.1,717,205.2z M661.3,118
	c-10.6,7.8-10.6,8-2.3,16.1c3,3,6.1,5.9,10.1,10.1C667.6,134,663.6,126.8,661.3,118z M696.1,186c-0.6,0.2-0.8,0.2-1.3,0.4
	c-0.6,3.8-0.8,7.6-1.1,11.4c-0.2,2.1-2.1,4.9,0.8,5.5c2.1,0.6,5.1,0,7-1.1c2.3-1.3-0.4-3.6-0.8-4.9
	C699.7,193.2,697.8,189.6,696.1,186z M709,173.9c6.1,2.1,11.8,4,18,5.7C727.4,169.1,724,168,709,173.9z M679.2,140.8
	c1.5-5.3,3-8.9,3.6-13.1c0.4-1.9,2.3-4.4-0.6-5.5c-1.9-0.8-4.6-0.8-6.1,0c-2.7,1.1-0.8,3.8-0.4,5.5
	C676.5,131.7,677.7,135.5,679.2,140.8z M647.5,140.6c-1.7,10.3-0.8,10.8,16.3,8.4C658.5,146.1,653.2,143.5,647.5,140.6z M594.1-49.1
	c13.3,1.5,25.6,4,38-0.2C625.4-33.9,607.8-33.3,594.1-49.1z"/>
</svg>
