<svg xmlns="http://www.w3.org/2000/svg" viewBox="379.2 -211.5 500 500" enable-background="new 379.2 -211.5 500 500"><path fill="#F1F1F5" d="M561.8-113.7v-14.8c0-2.7-.8-4.9-3.8-5.5-3.2-.6-4.4 1.9-5.3 4-.8 2.3-1.9 5.1-2.3 7.8-.8 5.7-3 8.7-10.1 8.2-10.1-.8-16.5 6.1-16.3 16.3 0 6.8-1.3 13.1-3.6 19.2-3.2 8.7-5.1 17.3-5.9 26.2-1.7 20.1 4 33.8 21.1 41.8 10.8 4.9 20.5 12.2 30.8 18.4C577 14 582 23.3 582.9 35.4c2.3 32.7 2.3 65.5-2.5 97.8-4 26 5.9 47.7 36.1 47.9 10.1.2 20.1.8 30.2 1.1 13.7.8 18.2 4 22.6 16.9.8 2.3 2.1 5.1 3.6 7.2 5.5 7 12.2 6.3 15.2-2.1 6.5-18.2 3.6-43.7-26.4-45.2-6.1-.4-11.8-.8-18-1.5-3.4-.4-6.5-.8-9.5-2.1-7-2.3-11-6.1-10.8-14.8.4-11.8 3.4-23 6.5-34.4.8-2.5 1.9-4.2 4.9-4.6 14.8-1.3 29.8-3.2 44.8-.2 11 2.1 13.7 5.5 14.8 16.3.8 11.6 1.9 22.8.8 34.2-.6 4.4.6 8.9 5.3 9.9 13.1 2.5 26 3.6 38.6-1.1 6.1-2.3 6.5-7.6 1.9-12.2-3.6-3.6-8.4-5.3-13.1-6.1-6.8-1.3-8.9-5.3-8.4-11.8.8-7 1.5-14.2 1.1-21.1-.8-26.4-11.4-40.8-35.3-42.5-6.8-.6-13.3-3.2-19.9-4.6-4.2-.8-6.5-3.2-6.8-7.8-.4-8.4-1.5-16.9-1.3-25.3C658.1 1 663-2.2 691-1.6c.8 0 1.7.2 2.3.4 16.5 2.7 23.9 11 25.8 27.9.8 5.9 1.9 11.8 2.7 17.7.8 4 1.5 8.7 7 8.7 5.5.4 10.3-1.9 12.7-7.2 1.7-3.8 2.3-7.6 2.3-11.8-.2-10.1-2.3-20.1-4.6-29.8-2.1-10.3-7.8-18-16.5-23.4-11.8-7.6-24.9-10.8-38.4-11.8-27-2.1-53.2 3.8-79.2 9.3-20.1 4.2-37.8.8-53.4-12.7-5.5-4.6-8.2-9.9-6.8-17.3 1.1-5.5 1.3-11.6 2.5-16.9.8-4-.2-9.3 3.6-12.2 10.8-8.5 12.1-20.1 10.8-33zm49.8 19.2c-18.6 0-31.9 13.1-32.1 31.9 0 17.3 15.8 32.9 33.8 33.2 16.7.2 31.9-15.2 31.7-32.1 0-19.1-14.4-33.2-33.4-33zM717 205.2c2.5-3.4 4.4-5.7 6.1-7.8 1.9-2.1 1.7-3.8-.8-5.5-5.7-4-11.6-8.4-17.1-12.5l-.8.8c4.2 8.1 8.2 15.9 12.6 25zM661.3 118c-10.6 7.8-10.6 8-2.3 16.1 3 3 6.1 5.9 10.1 10.1-1.5-10.2-5.5-17.4-7.8-26.2zm34.8 68c-.6.2-.8.2-1.3.4-.6 3.8-.8 7.6-1.1 11.4-.2 2.1-2.1 4.9.8 5.5 2.1.6 5.1 0 7-1.1 2.3-1.3-.4-3.6-.8-4.9-1-4.1-2.9-7.7-4.6-11.3zm12.9-12.1c6.1 2.1 11.8 4 18 5.7.4-10.5-3-11.6-18-5.7zm-29.8-33.1c1.5-5.3 3-8.9 3.6-13.1.4-1.9 2.3-4.4-.6-5.5-1.9-.8-4.6-.8-6.1 0-2.7 1.1-.8 3.8-.4 5.5.8 4 2 7.8 3.5 13.1zm-31.7-.2c-1.7 10.3-.8 10.8 16.3 8.4-5.3-2.9-10.6-5.5-16.3-8.4zM594.1-49.1c13.3 1.5 25.6 4 38-.2-6.7 15.4-24.3 16-38 .2z"/></svg>