<?xml version="1.0" encoding="utf-8"?>
<!DOCTYPE svg PUBLIC "-//W3C//DTD SVG 1.1//EN" "http://www.w3.org/Graphics/SVG/1.1/DTD/svg11.dtd">
<svg version="1.1" id="Layer_1" xmlns="http://www.w3.org/2000/svg" x="0px" y="0px"
	 viewBox="323.4 -7 250 250" enable-background="new 323.4 -7 250 250" xml:space="preserve">
    <text transform="matrix(1 0 0 1 7.1079 13.5215)" opacity="0" font-family="'MyriadPro-Regular'" font-size="12">a</text>
    <path fill="#F1F1F5" d="M416.3,45.7c0-2.3,0-4.7,0-7c0-1.3-0.4-2.3-1.8-2.6c-1.5-0.3-2.1,0.9-2.5,1.9c-0.4,1.1-0.9,2.4-1.1,3.7
        c-0.4,2.7-1.4,4.1-4.8,3.9c-4.8-0.4-7.8,2.9-7.7,7.7c0,3.2-0.6,6.2-1.7,9.1c-1.5,4.1-2.4,8.2-2.8,12.4c-0.8,9.5,1.9,16,10,19.8
        c5.1,2.3,9.7,5.8,14.6,8.7c5,2.9,7.4,7.3,7.8,13c1.1,15.5,1.1,31-1.2,46.3c-1.9,12.3,2.8,22.6,17.1,22.7c4.8,0.1,9.5,0.4,14.3,0.5
        c6.5,0.4,8.6,1.9,10.7,8c0.4,1.1,1,2.4,1.7,3.4c2.6,3.3,5.8,3,7.2-1c3.1-8.6,1.7-20.7-12.5-21.4c-2.9-0.2-5.6-0.4-8.5-0.7
        c-1.6-0.2-3.1-0.4-4.5-1c-3.3-1.1-5.2-2.9-5.1-7c0.2-5.6,1.6-10.9,3.1-16.3c0.4-1.2,0.9-2,2.3-2.2c7-0.6,14.1-1.5,21.2-0.1
        c5.2,1,6.5,2.6,7,7.7c0.4,5.5,0.9,10.8,0.4,16.2c-0.3,2.1,0.3,4.2,2.5,4.7c6.2,1.2,12.3,1.7,18.3-0.5c2.9-1.1,3.1-3.6,0.9-5.8
        c-1.7-1.7-4-2.5-6.2-2.9c-3.2-0.6-4.2-2.5-4-5.6c0.4-3.3,0.7-6.7,0.5-10c-0.4-12.5-5.4-19.3-16.7-20.1c-3.2-0.3-6.3-1.5-9.4-2.2
        c-2-0.4-3.1-1.5-3.2-3.7c-0.2-4-0.7-8-0.6-12c0.3-13.3,2.6-14.8,15.9-14.5c0.4,0,0.8,0.1,1.1,0.2c7.8,1.3,11.3,5.2,12.2,13.2
        c0.4,2.8,0.9,5.6,1.3,8.4c0.4,1.9,0.7,4.1,3.3,4.1c2.6,0.2,4.9-0.9,6-3.4c0.8-1.8,1.1-3.6,1.1-5.6c-0.1-4.8-1.1-9.5-2.2-14.1
        c-1-4.9-3.7-8.5-7.8-11.1c-5.6-3.6-11.8-5.1-18.2-5.6c-12.8-1-25.2,1.8-37.5,4.4c-9.5,2-17.9,0.4-25.3-6c-2.6-2.2-3.9-4.7-3.2-8.2
        c0.5-2.6,0.6-5.5,1.2-8c0.4-1.9-0.1-4.4,1.7-5.8C416.3,57.3,416.9,51.8,416.3,45.7z M439.9,54.8c-8.8,0-15.1,6.2-15.2,15.1
        c0,8.2,7.5,15.6,16,15.7c7.9,0.1,15.1-7.2,15-15.2C455.7,61.4,448.9,54.7,439.9,54.8z M489.8,196.7c1.2-1.6,2.1-2.7,2.9-3.7
        c0.9-1,0.8-1.8-0.4-2.6c-2.7-1.9-5.5-4-8.1-5.9c-0.2,0.2-0.4,0.4-0.4,0.4C485.8,188.7,487.7,192.4,489.8,196.7z M463.4,155.4
        c-5,3.7-5,3.8-1.1,7.6c1.4,1.4,2.9,2.8,4.8,4.8C466.4,163,464.5,159.6,463.4,155.4z M479.9,187.6c-0.3,0.1-0.4,0.1-0.6,0.2
        c-0.3,1.8-0.4,3.6-0.5,5.4c-0.1,1-1,2.3,0.4,2.6c1,0.3,2.4,0,3.3-0.5c1.1-0.6-0.2-1.7-0.4-2.3C481.6,191,480.7,189.3,479.9,187.6z
         M486,181.9c2.9,1,5.6,1.9,8.5,2.7C494.7,179.6,493.1,179.1,486,181.9z M471.9,166.2c0.7-2.5,1.4-4.2,1.7-6.2
        c0.2-0.9,1.1-2.1-0.3-2.6c-0.9-0.4-2.2-0.4-2.9,0c-1.3,0.5-0.4,1.8-0.2,2.6C470.6,161.9,471.2,163.7,471.9,166.2z M456.9,166.1
        c-0.8,4.9-0.4,5.1,7.7,4C462.1,168.7,459.6,167.5,456.9,166.1z M431.6,76.3c6.3,0.7,12.1,1.9,18-0.1
        C446.4,83.5,438.1,83.8,431.6,76.3z"/>
</svg>
