<svg xmlns="http://www.w3.org/2000/svg" viewBox="55.6 -180.7 500 500" enable-background="new 55.6 -180.7 500 500"><path d="M305.6 192.7H193c-28.9 0-50.2-21.1-50.2-49.8-.2-38.2.2-76.2-.2-114.4 0-6.3 1.6-8.6 8.3-8.6 20.6.4 41-.2 61.6.4 7.6.2 10.2-1.6 10-9.7-.5-18.5 0-37-.4-55.4-.2-6.5 1.2-9.2 8.6-9.2 76.6.4 152.9.2 229.5 0 6.9 0 8.3 2.3 8.3 8.6-.2 63 0 126-.2 189 0 27.6-21.6 48.8-49.3 48.9-37.7.2-75.6.2-113.4.2zm40.5-227.5c-31.3 0-62.7.4-94.2-.2-8.3-.2-10.9 1.9-10.9 10.7.4 55.1.2 110.2.2 165.3 0 9-1.2 17.8-5.8 25.3-4 6.9-1.6 7.6 4.8 7.6 59.1-.2 118.4 0 177.6-.2 19.7 0 31.5-12.3 31.5-32.2.2-55.6 0-111.4.2-167 0-7.2-2.3-9.5-9.5-9.5-31.1.3-62.6.2-93.9.2zM161.6 95.7V145c.9 16.4 13.4 28.5 29.7 28.7 16.7.2 29.9-11.8 30.8-28.5.4-8.4 0-17.1.2-25.5.2-4.9-1.8-6.9-6.7-6.7-9.3.2-18.8-.5-28.2.2-8.3.5-7.7-4.2-7.9-9.9-.2-6.2.5-10 8.3-9.3 9 .7 18.1-.2 27.3.4 7 .4 7.4-3.5 7.2-8.6 0-5.3.2-9.9-7.6-9.5-9.7.5-19.4-.2-29 .2-7.9.2-6.2-5.3-6.2-9.7 0-4.4-1.8-9.9 6.2-9.5 9.7.4 19.4-.4 29 .2 6.9.4 7.7-3 7.4-8.6-.2-5.1.5-9.9-7.4-9.7-15.3.4-30.4.4-45.8 0-6.5-.2-7.9 2.8-7.7 8.4.6 15.9.4 32 .4 48.1zm144-19.7c-12.8 0-25.7-.2-38.7 0-5.5.2-7.9-1.2-7.9-7.4.2-26.4.2-52.6 0-79 0-4.8 1.4-6.9 6.5-6.7 26.6.2 53.3.2 79.9 0 5.1 0 6.5 1.9 6.5 6.7-.2 26.4-.2 52.6 0 79 0 6-2.5 7.4-7.9 7.4-12.7-.1-25.5 0-38.4 0zm40.5 37c-26 0-52.3-.4-78.3.2-8.3.2-8.6-3.7-8.8-10.2 0-6.5 1.4-9.2 8.6-9.2 51.9.4 103.8.4 155.8 0 7.9 0 8.3 3.7 8.1 9.5 0 5.8-.2 9.9-8.1 9.7-25.7-.2-51.4 0-77.3 0zM400.8 2.1c-8.1 0-16.4-.2-24.5 0-7.7.4-6.3-5.1-6.3-9.5 0-4.2-1.8-9.7 6.2-9.5 16.4.4 32.7.4 49.1 0 7-.2 6.7 4 6.3 8.6-.4 4.4 2.5 10.7-6.2 10.6-8.2-.4-16.5-.2-24.6-.2zm.2 37c-8.3 0-16.4-.4-24.6 0-8.4.4-6.3-5.6-6.5-10.2-.4-4.9-.7-9.2 6.9-9 16 .5 32.2.4 48.2 0 7.7-.2 6.5 4.8 6.5 9.2 0 4.8 1.4 10.4-6.9 9.9-7.8-.3-15.7.1-23.6.1zm-.2 17.9c8.3 0 16.4.4 24.6 0 8.1-.4 6 5.5 6 9.7.2 4.4 1.6 9.7-6.3 9.5-16.4-.4-32.7-.2-49.1 0-8.6 0-5.6-6.3-6-10.6-.4-4.4-.7-9 6.3-8.6 8.2.4 16.4 0 24.5 0z" fill="#F1F1F5"/></svg>