<?xml version="1.0" encoding="utf-8"?>

<!DOCTYPE svg PUBLIC "-//W3C//DTD SVG 1.1//EN" "http://www.w3.org/Graphics/SVG/1.1/DTD/svg11.dtd">
<svg version="1.1" id="Layer_1" xmlns="http://www.w3.org/2000/svg" xmlns:xlink="http://www.w3.org/1999/xlink" x="0px" y="0px"
	 viewBox="55.6 -180.7 500 500" enable-background="new 55.6 -180.7 500 500" xml:space="preserve">
<text opacity="0" font-family="'MyriadPro-Regular'" font-size="1">a</text>
<g>
	<path fill="#F1F1F5" d="M305.6,192.7c-37.5,0-75,0-112.6,0c-28.9,0-50.2-21.1-50.2-49.8c-0.2-38.2,0.2-76.2-0.2-114.4
		c0-6.3,1.6-8.6,8.3-8.6c20.6,0.4,41-0.2,61.6,0.4c7.6,0.2,10.2-1.6,10-9.7c-0.5-18.5,0-37-0.4-55.4c-0.2-6.5,1.2-9.2,8.6-9.2
		c76.6,0.4,152.9,0.2,229.5,0c6.9,0,8.3,2.3,8.3,8.6c-0.2,63,0,126-0.2,189c0,27.6-21.6,48.8-49.3,48.9
		C381.3,192.7,343.4,192.7,305.6,192.7z M346.1-34.8c-31.3,0-62.7,0.4-94.2-0.2c-8.3-0.2-10.9,1.9-10.9,10.7
		c0.4,55.1,0.2,110.2,0.2,165.3c0,9-1.2,17.8-5.8,25.3c-4,6.9-1.6,7.6,4.8,7.6c59.1-0.2,118.4,0,177.6-0.2
		c19.7,0,31.5-12.3,31.5-32.2c0.2-55.6,0-111.4,0.2-167c0-7.2-2.3-9.5-9.5-9.5C408.9-34.7,377.4-34.8,346.1-34.8z M161.6,95.7
		L161.6,95.7c0,15.8,0,31.7,0,47.5c0,0.5,0,1.2,0,1.8c0.9,16.4,13.4,28.5,29.7,28.7c16.7,0.2,29.9-11.8,30.8-28.5
		c0.4-8.4,0-17.1,0.2-25.5c0.2-4.9-1.8-6.9-6.7-6.7c-9.3,0.2-18.8-0.5-28.2,0.2c-8.3,0.5-7.7-4.2-7.9-9.9c-0.2-6.2,0.5-10,8.3-9.3
		c9,0.7,18.1-0.2,27.3,0.4c7,0.4,7.4-3.5,7.2-8.6c0-5.3,0.2-9.9-7.6-9.5c-9.7,0.5-19.4-0.2-29,0.2c-7.9,0.2-6.2-5.3-6.2-9.7
		c0-4.4-1.8-9.9,6.2-9.5c9.7,0.4,19.4-0.4,29,0.2c6.9,0.4,7.7-3,7.4-8.6c-0.2-5.1,0.5-9.9-7.4-9.7c-15.3,0.4-30.4,0.4-45.8,0
		c-6.5-0.2-7.9,2.8-7.7,8.4C161.8,63.5,161.6,79.6,161.6,95.7z"/>
	<path fill="#F1F1F5" d="M305.6,76c-12.8,0-25.7-0.2-38.7,0c-5.5,0.2-7.9-1.2-7.9-7.4c0.2-26.4,0.2-52.6,0-79c0-4.8,1.4-6.9,6.5-6.7
		c26.6,0.2,53.3,0.2,79.9,0c5.1,0,6.5,1.9,6.5,6.7c-0.2,26.4-0.2,52.6,0,79c0,6-2.5,7.4-7.9,7.4C331.3,75.9,318.5,76,305.6,76z"/>
	<path fill="#F1F1F5" d="M346.1,113c-26,0-52.3-0.4-78.3,0.2c-8.3,0.2-8.6-3.7-8.8-10.2c0-6.5,1.4-9.2,8.6-9.2
		c51.9,0.4,103.8,0.4,155.8,0c7.9,0,8.3,3.7,8.1,9.5c0,5.8-0.2,9.9-8.1,9.7C397.7,112.8,372,113,346.1,113z"/>
	<path fill="#F1F1F5" d="M400.8,2.1c-8.1,0-16.4-0.2-24.5,0C368.6,2.5,370-3,370-7.4c0-4.2-1.8-9.7,6.2-9.5
		c16.4,0.4,32.7,0.4,49.1,0c7-0.2,6.7,4,6.3,8.6c-0.4,4.4,2.5,10.7-6.2,10.6C417.2,1.9,408.9,2.1,400.8,2.1z"/>
	<path fill="#F1F1F5" d="M401,39.1c-8.3,0-16.4-0.4-24.6,0c-8.4,0.4-6.3-5.6-6.5-10.2c-0.4-4.9-0.7-9.2,6.9-9
		c16,0.5,32.2,0.4,48.2,0c7.7-0.2,6.5,4.8,6.5,9.2c0,4.8,1.4,10.4-6.9,9.9C416.8,38.7,408.9,39.1,401,39.1z"/>
	<path fill="#F1F1F5" d="M400.8,57c8.3,0,16.4,0.4,24.6,0c8.1-0.4,6,5.5,6,9.7c0.2,4.4,1.6,9.7-6.3,9.5c-16.4-0.4-32.7-0.2-49.1,0
		c-8.6,0-5.6-6.3-6-10.6c-0.4-4.4-0.7-9,6.3-8.6C384.5,57.4,392.7,57,400.8,57z"/>
</g>
</svg>
