<?xml version="1.0" encoding="utf-8"?>
<!DOCTYPE svg PUBLIC "-//W3C//DTD SVG 1.1//EN" "http://www.w3.org/Graphics/SVG/1.1/DTD/svg11.dtd">
<svg version="1.1" xmlns="http://www.w3.org/2000/svg" xmlns:xlink="http://www.w3.org/1999/xlink" x="0px" y="0px"
	 viewBox="0 0 299.9 300" enable-background="new 0 0 299.9 300" xml:space="preserve">
<g>
	<path fill="#F1F1F5" d="M149.5,219c-21.3,0-42.6,0-64,0c-16.4,0-28.5-12-28.5-28.3c-0.1-21.7,0.1-43.3-0.1-65
		c0-3.6,0.9-4.9,4.7-4.9c11.7,0.2,23.3-0.1,35,0.2c4.3,0.1,5.8-0.9,5.7-5.5c-0.3-10.5,0-21-0.2-31.5c-0.1-3.7,0.7-5.2,4.9-5.2
		c43.5,0.2,86.9,0.1,130.4,0c3.9,0,4.7,1.3,4.7,4.9c-0.1,35.8,0,71.6-0.1,107.4c0,15.7-12.3,27.7-28,27.8
		C192.5,219,171,219,149.5,219z M172.5,89.7c-17.8,0-35.6,0.2-53.5-0.1c-4.7-0.1-6.2,1.1-6.2,6.1c0.2,31.3,0.1,62.6,0.1,93.9
		c0,5.1-0.7,10.1-3.3,14.4c-2.3,3.9-0.9,4.3,2.7,4.3c33.6-0.1,67.3,0,100.9-0.1c11.2,0,17.9-7,17.9-18.3c0.1-31.6,0-63.3,0.1-94.9
		c0-4.1-1.3-5.4-5.4-5.4C208.2,89.8,190.3,89.7,172.5,89.7z M67.7,163.9C67.7,163.9,67.7,163.9,67.7,163.9c0,9,0,18,0,27
		c0,0.3,0,0.7,0,1c0.5,9.3,7.6,16.2,16.9,16.3c9.5,0.1,17-6.7,17.5-16.2c0.2-4.8,0-9.7,0.1-14.5c0.1-2.8-1-3.9-3.8-3.8
		c-5.3,0.1-10.7-0.3-16,0.1c-4.7,0.3-4.4-2.4-4.5-5.6c-0.1-3.5,0.3-5.7,4.7-5.3c5.1,0.4,10.3-0.1,15.5,0.2c4,0.2,4.2-2,4.1-4.9
		c0-3,0.1-5.6-4.3-5.4c-5.5,0.3-11-0.1-16.5,0.1c-4.5,0.1-3.5-3-3.5-5.5c0-2.5-1-5.6,3.5-5.4c5.5,0.2,11-0.2,16.5,0.1
		c3.9,0.2,4.4-1.7,4.2-4.9c-0.1-2.9,0.3-5.6-4.2-5.5c-8.7,0.2-17.3,0.2-26,0c-3.7-0.1-4.5,1.6-4.4,4.8
		C67.8,145.6,67.7,154.7,67.7,163.9z"/>
	<path fill="#F1F1F5" d="M149.5,152.7c-7.3,0-14.6-0.1-22,0c-3.1,0.1-4.5-0.7-4.5-4.2c0.1-15,0.1-29.9,0-44.9c0-2.7,0.8-3.9,3.7-3.8
		c15.1,0.1,30.3,0.1,45.4,0c2.9,0,3.7,1.1,3.7,3.8c-0.1,15-0.1,29.9,0,44.9c0,3.4-1.4,4.2-4.5,4.2
		C164.1,152.6,156.8,152.7,149.5,152.7z"/>
	<path fill="#F1F1F5" d="M172.5,173.7c-14.8,0-29.7-0.2-44.5,0.1c-4.7,0.1-4.9-2.1-5-5.8c0-3.7,0.8-5.2,4.9-5.2
		c29.5,0.2,59,0.2,88.5,0c4.5,0,4.7,2.1,4.6,5.4c0,3.3-0.1,5.6-4.6,5.5C201.8,173.6,187.2,173.7,172.5,173.7z"/>
	<path fill="#F1F1F5" d="M203.6,110.7c-4.6,0-9.3-0.1-13.9,0c-4.4,0.2-3.6-2.9-3.6-5.4c0-2.4-1-5.5,3.5-5.4c9.3,0.2,18.6,0.2,27.9,0
		c4-0.1,3.8,2.3,3.6,4.9c-0.2,2.5,1.4,6.1-3.5,6C212.9,110.6,208.2,110.7,203.6,110.7z"/>
	<path fill="#F1F1F5" d="M203.7,131.7c-4.7,0-9.3-0.2-14,0c-4.8,0.2-3.6-3.2-3.7-5.8c-0.2-2.8-0.4-5.2,3.9-5.1
		c9.1,0.3,18.3,0.2,27.4,0c4.4-0.1,3.7,2.7,3.7,5.2c0,2.7,0.8,5.9-3.9,5.6C212.7,131.5,208.2,131.7,203.7,131.7z"/>
	<path fill="#F1F1F5" d="M203.6,141.9c4.7,0,9.3,0.2,14,0c4.6-0.2,3.4,3.1,3.4,5.5c0.1,2.5,0.9,5.5-3.6,5.4
		c-9.3-0.2-18.6-0.1-27.9,0c-4.9,0-3.2-3.6-3.4-6c-0.2-2.5-0.4-5.1,3.6-4.9C194.3,142.1,199,141.9,203.6,141.9z"/>
</g>
</svg>
