<?xml version="1.0" encoding="utf-8"?>
<!DOCTYPE svg PUBLIC "-//W3C//DTD SVG 1.1//EN" "http://www.w3.org/Graphics/SVG/1.1/DTD/svg11.dtd">
<svg version="1.1" xmlns="http://www.w3.org/2000/svg" xmlns:xlink="http://www.w3.org/1999/xlink" x="0px" y="0px"
	 viewBox="0 0 300 299.9" enable-background="new 0 0 300 299.9" xml:space="preserve">
<g>
	<path fill="#F1F1F5" d="M227,150.1c0,8.2-0.3,16.3,0.1,24.5c0.2,4.4-1.4,5.2-5.4,5.1c-12.3-0.2-24.7,0.1-37-0.2
		c-3.8-0.1-5.2,0.9-5.1,4.9c0.3,12.7,0,25.3,0.2,38c0.1,3.5-1,4.5-4.5,4.5c-17-0.2-34-0.2-51,0c-3.3,0-4.2-1-4.2-4.2
		c0.2-12.8-0.1-25.7,0.2-38.5c0.1-3.8-1.2-4.7-4.8-4.7c-12.7,0.2-25.3,0-38,0.1c-3.3,0-4.7-0.6-4.6-4.3c0.2-17,0.2-34,0-51
		c0-3.7,1.3-4.4,4.6-4.3c12.7,0.2,25.3-0.1,38,0.1c3.7,0.1,4.9-0.9,4.8-4.7c-0.2-12.8,0-25.7-0.2-38.5c0-3.2,0.9-4.3,4.2-4.2
		c17.2,0.2,34.3,0.1,51.5,0c3.1,0,4,1,3.9,4c-0.1,12.8,0.1,25.7-0.2,38.5c-0.1,4.1,1.3,5,5.1,4.9c12.2-0.2,24.3,0.2,36.5-0.2
		c5-0.2,6.1,1.5,5.9,6.2C226.7,134.1,227,142.1,227,150.1z"/>
</g>
</svg>
