<?xml version="1.0" encoding="utf-8"?>

<!DOCTYPE svg PUBLIC "-//W3C//DTD SVG 1.1//EN" "http://www.w3.org/Graphics/SVG/1.1/DTD/svg11.dtd">
<svg version="1.1" id="Layer_1" xmlns="http://www.w3.org/2000/svg" xmlns:xlink="http://www.w3.org/1999/xlink" x="0px" y="0px"
	 viewBox="56 -186 500 500" enable-background="new 56 -186 500 500" xml:space="preserve">
<text opacity="0" font-family="'MyriadPro-Regular'" font-size="1">a</text>
<g>
	<path fill="#F1F1F5" d="M441.6,64.5c0,14.4-0.5,28.7,0.2,43.1c0.4,7.7-2.5,9.2-9.5,9c-21.7-0.4-43.5,0.2-65.1-0.4
		c-6.7-0.2-9.2,1.6-9,8.6c0.5,22.4,0,44.5,0.4,66.9c0.2,6.2-1.8,7.9-7.9,7.9c-29.9-0.4-59.9-0.4-89.8,0c-5.8,0-7.4-1.8-7.4-7.4
		c0.4-22.5-0.2-45.2,0.4-67.8c0.2-6.7-2.1-8.3-8.5-8.3c-22.4,0.4-44.5,0-66.9,0.2c-5.8,0-8.3-1.1-8.1-7.6c0.4-29.9,0.4-59.9,0-89.8
		c0-6.5,2.3-7.7,8.1-7.6c22.4,0.4,44.5-0.2,66.9,0.2c6.5,0.2,8.6-1.6,8.5-8.3c-0.4-22.5,0-45.2-0.4-67.8c0-5.6,1.6-7.6,7.4-7.4
		c30.3,0.4,60.4,0.2,90.7,0c5.5,0,7,1.8,6.9,7c-0.2,22.5,0.2,45.2-0.4,67.8c-0.2,7.2,2.3,8.8,9,8.6c21.5-0.4,42.8,0.4,64.3-0.4
		c8.8-0.4,10.7,2.6,10.4,10.9C441,36.4,441.6,50.4,441.6,64.5z"/>
</g>
</svg>
