<svg xmlns="http://www.w3.org/2000/svg" viewBox="56 -186 500 500" enable-background="new 56 -186 500 500"><path fill="#F1F1F5" d="M441.6 64.5c0 14.4-.5 28.7.2 43.1.4 7.7-2.5 9.2-9.5 9-21.7-.4-43.5.2-65.1-.4-6.7-.2-9.2 1.6-9 8.6.5 22.4 0 44.5.4 66.9.2 6.2-1.8 7.9-7.9 7.9-29.9-.4-59.9-.4-89.8 0-5.8 0-7.4-1.8-7.4-7.4.4-22.5-.2-45.2.4-67.8.2-6.7-2.1-8.3-8.5-8.3-22.4.4-44.5 0-66.9.2-5.8 0-8.3-1.1-8.1-7.6.4-29.9.4-59.9 0-89.8 0-6.5 2.3-7.7 8.1-7.6 22.4.4 44.5-.2 66.9.2 6.5.2 8.6-1.6 8.5-8.3-.4-22.5 0-45.2-.4-67.8 0-5.6 1.6-7.6 7.4-7.4 30.3.4 60.4.2 90.7 0 5.5 0 7 1.8 6.9 7-.2 22.5.2 45.2-.4 67.8-.2 7.2 2.3 8.8 9 8.6 21.5-.4 42.8.4 64.3-.4 8.8-.4 10.7 2.6 10.4 10.9-.8 14.5-.2 28.5-.2 42.6z"/></svg>