<?xml version="1.0" encoding="utf-8"?>
<!DOCTYPE svg PUBLIC "-//W3C//DTD SVG 1.1//EN" "http://www.w3.org/Graphics/SVG/1.1/DTD/svg11.dtd">
<svg version="1.1" xmlns="http://www.w3.org/2000/svg" xmlns:xlink="http://www.w3.org/1999/xlink" x="0px" y="0px"
	 viewBox="0 0 300.2 300" enable-background="new 0 0 300.2 300" xml:space="preserve">
<g>
	<path fill="#F1F1F5" d="M214,133c0,16,0,32,0,48c0,19.5-15.9,31.7-34.9,27c-9.8-2.5-15.8-9.9-15.1-18.9c0.5-5.8,3.5-10.4,7.9-14
		c7.5-6.1,16.2-8.4,25.7-6.4c3.1,0.6,3.8-0.2,3.8-3.1c-0.1-14.7-0.1-29.3,0-44c0-3.8-1.9-3.9-4.7-3.6c-20,1.7-39.5,5.6-58.7,11.2
		c-3.1,0.9-3.1,2.8-3.1,5.2c0,21.3,0,42.6,0,64c0,15.4-10,25.8-25.6,26.6c-12.3,0.6-22.1-5.5-24.2-15c-2-9.2,4.8-19.4,15.9-23.7
		c5.5-2.1,11.3-3.2,17.1-1.6c3.7,1.1,4.7,0.3,4.7-3.7c-0.2-28,0-56-0.2-83.9c0-3.9,1.1-5.8,4.9-7.2c25.9-9.5,52.5-14.7,80-15
		c4.8,0,6.5,0.8,6.4,6.1C213.8,98.3,214,115.6,214,133z"/>
</g>
</svg>
