<?xml version="1.0" encoding="utf-8"?>
<!DOCTYPE svg PUBLIC "-//W3C//DTD SVG 1.1//EN" "http://www.w3.org/Graphics/SVG/1.1/DTD/svg11.dtd">
<svg version="1.1" xmlns="http://www.w3.org/2000/svg" x="0px" y="0px"
	 viewBox="55.4 -118 500 500" enable-background="new 55.4 -118 500 500" xml:space="preserve">
<text opacity="0" font-family="'MyriadPro-Regular'" font-size="1">a</text>
<g>
	<path fill="#F1F1F5" d="M419.1,102.1c0,28.2,0,56.3,0,84.5c0,34.3-28,55.8-61.4,47.5c-17.2-4.4-27.8-17.4-26.6-33.3
		c0.9-10.2,6.2-18.3,13.9-24.6c13.2-10.7,28.5-14.8,45.2-11.3c5.5,1.1,6.7-0.4,6.7-5.5c-0.2-25.9-0.2-51.6,0-77.4
		c0-6.7-3.3-6.9-8.3-6.3c-35.2,3-69.5,9.9-103.3,19.7c-5.5,1.6-5.5,4.9-5.5,9.2c0,37.5,0,75,0,112.6c0,27.1-17.6,45.4-45.1,46.8
		c-21.6,1.1-38.9-9.7-42.6-26.4c-3.5-16.2,8.4-34.1,28-41.7c9.7-3.7,19.9-5.6,30.1-2.8c6.5,1.9,8.3,0.5,8.3-6.5
		c-0.4-49.3,0-98.6-0.4-147.7c0-6.9,1.9-10.2,8.6-12.7C312.4,9.5,359.3,0.4,407.7-0.1c8.4,0,11.4,1.4,11.3,10.7
		C418.7,41,419.1,71.5,419.1,102.1z"/>
</g>
</svg>
