<svg xmlns="http://www.w3.org/2000/svg" viewBox="55.4 -118 500 500" enable-background="new 55.4 -118 500 500"><path fill="#F1F1F5" d="M419.1 102.1v84.5c0 34.3-28 55.8-61.4 47.5-17.2-4.4-27.8-17.4-26.6-33.3.9-10.2 6.2-18.3 13.9-24.6 13.2-10.7 28.5-14.8 45.2-11.3 5.5 1.1 6.7-.4 6.7-5.5-.2-25.9-.2-51.6 0-77.4 0-6.7-3.3-6.9-8.3-6.3-35.2 3-69.5 9.9-103.3 19.7-5.5 1.6-5.5 4.9-5.5 9.2v112.6c0 27.1-17.6 45.4-45.1 46.8-21.6 1.1-38.9-9.7-42.6-26.4-3.5-16.2 8.4-34.1 28-41.7 9.7-3.7 19.9-5.6 30.1-2.8 6.5 1.9 8.3.5 8.3-6.5-.4-49.3 0-98.6-.4-147.7 0-6.9 1.9-10.2 8.6-12.7C312.4 9.5 359.3.4 407.7-.1c8.4 0 11.4 1.4 11.3 10.7-.3 30.4.1 60.9.1 91.5z"/></svg>