<svg xmlns="http://www.w3.org/2000/svg" viewBox="61.3 -194.6 500 500" enable-background="new 61.3 -194.6 500 500"><path d="M361.4 184c-6 9.9-13 12.1-25.4 8.5-8.5-2.5-11.8-8.1-10.6-19.5 1.8-18.1 4-36.1 6.2-54.1 1.9-15.3-.5-19.2-15.1-23.1-18.5-4.9-36.6-10.6-53.7-19.2-7.6-3.9-15-1.4-22.2.4-3.7.9-4.2 4.9-4.4 7.9 0 18.5-7.7 34.7-14.3 51.2-3.7 9.3-3.5 18 1.2 26.9 3.7 7 8.1 13.6 9.3 21.7 1.6 11.1-3 14.6-13.4 11.3-10.6-3.3-16.7-10-20.1-20.2-3.7-11.4-7-22.9-6.2-35.2.2-3.3 0-6.7 0-11.6-4.2 2.8-4.6 5.6-5.1 8.3-3.2 17.6-3.9 34.9 3.2 51.9 1.8 4.2 5.1 9.7-.7 13.4-5.3 3.5-11.3 3.2-16.7.2-4-2.1-6.9-5.5-8.8-9.7-9.3-21-12.5-42.3-2.1-63.7 5.8-11.8 6.2-22.9 1.9-35.4-7.6-22.9-11.8-46.3 3-68.5 1.8-2.6.9-4.8-.5-7.2-9-16-11.4-33.6-12.3-51.6-.2-4-.2-8.6 5.5-9.5 5.5-.9 8.5 2.5 9.7 7 2.6 9.9 5.1 19.9 7.4 29.9 1.9 8.8 6.5 12.1 16 12.1 32.7-.2 65.2 1.1 97.8.5 15.7-.2 30.1-6.3 43.3-15.5 11.1-7.7 11.4-7.2 21.7 1.4C365.2.5 375.4 7 386.6 11.3c5.3 1.9 7 5.1 8.1 10.9 4.9 28.9-4.6 55.8-9.9 83.3-3.9 20.6-4.8 41.4-3 62.1.4 5.3 3 7.9 7.7 9.3 4.9 1.4 8.6 4 8.1 9.9-.7 6.5-5.8 7.2-10.9 7.9-13.7 2.2-19.6-.5-25.3-10.7zm-.9-5.1c.2-20.1.4-39.6-2.5-59.2-3.3 12.7-6.2 25.5-8.8 38.2-2.4 11.5-.6 14.9 11.3 21zm56.6-257.7c-6.5 11.1 2.5 17.1 10 23.6 3.2 2.6 6.2 5.6 8.6 8.8 5.6 7.6 13 11.1 22.4 12.1 8.8.9 11.3 5.3 9.2 13.9C462-.1 444.5 8.2 424.8-1.7c-7.7-3.9-13.6-4-19.2 2.3-3 3.2-6 3.7-10 1.6-12.7-6.3-24.5-13.7-35-23.1-4.6-4-5.6-7-1.1-12.1 6.7-7.4 12.5-15.5 18.7-23.2 6.9-8.8 13.6-17.6 17.8-28.2 2.3-5.8 6.2-10.9 13-9.5 6.5 1.5 7.4 8 8.1 15.1z" fill="#F1F1F5"/></svg>