<?xml version="1.0" encoding="utf-8"?>

<!DOCTYPE svg PUBLIC "-//W3C//DTD SVG 1.1//EN" "http://www.w3.org/Graphics/SVG/1.1/DTD/svg11.dtd">
<svg version="1.1" id="Layer_1" xmlns="http://www.w3.org/2000/svg" xmlns:xlink="http://www.w3.org/1999/xlink" x="0px" y="0px"
	 viewBox="61.3 -194.6 500 500" enable-background="new 61.3 -194.6 500 500" xml:space="preserve">
<text opacity="0" font-family="'MyriadPro-Regular'" font-size="1">a</text>
<g>
	<path fill="#F1F1F5" d="M361.4,184c-6,9.9-13,12.1-25.4,8.5c-8.5-2.5-11.8-8.1-10.6-19.5c1.8-18.1,4-36.1,6.2-54.1
		c1.9-15.3-0.5-19.2-15.1-23.1c-18.5-4.9-36.6-10.6-53.7-19.2c-7.6-3.9-15-1.4-22.2,0.4c-3.7,0.9-4.2,4.9-4.4,7.9
		c0,18.5-7.7,34.7-14.3,51.2c-3.7,9.3-3.5,18,1.2,26.9c3.7,7,8.1,13.6,9.3,21.7c1.6,11.1-3,14.6-13.4,11.3
		c-10.6-3.3-16.7-10-20.1-20.2c-3.7-11.4-7-22.9-6.2-35.2c0.2-3.3,0-6.7,0-11.6c-4.2,2.8-4.6,5.6-5.1,8.3
		c-3.2,17.6-3.9,34.9,3.2,51.9c1.8,4.2,5.1,9.7-0.7,13.4c-5.3,3.5-11.3,3.2-16.7,0.2c-4-2.1-6.9-5.5-8.8-9.7
		c-9.3-21-12.5-42.3-2.1-63.7c5.8-11.8,6.2-22.9,1.9-35.4c-7.6-22.9-11.8-46.3,3-68.5c1.8-2.6,0.9-4.8-0.5-7.2
		c-9-16-11.4-33.6-12.3-51.6c-0.2-4-0.2-8.6,5.5-9.5c5.5-0.9,8.5,2.5,9.7,7c2.6,9.9,5.1,19.9,7.4,29.9c1.9,8.8,6.5,12.1,16,12.1
		C225.9,6,258.4,7.3,291,6.7c15.7-0.2,30.1-6.3,43.3-15.5c11.1-7.7,11.4-7.2,21.7,1.4c9.2,7.9,19.4,14.4,30.6,18.7
		c5.3,1.9,7,5.1,8.1,10.9c4.9,28.9-4.6,55.8-9.9,83.3c-3.9,20.6-4.8,41.4-3,62.1c0.4,5.3,3,7.9,7.7,9.3c4.9,1.4,8.6,4,8.1,9.9
		c-0.7,6.5-5.8,7.2-10.9,7.9C373,196.9,367.1,194.2,361.4,184z M360.5,178.9c0.2-20.1,0.4-39.6-2.5-59.2
		c-3.3,12.7-6.2,25.5-8.8,38.2C346.8,169.4,348.6,172.8,360.5,178.9z"/>
	<path fill="#F1F1F5" d="M417.1-78.8c-6.5,11.1,2.5,17.1,10,23.6c3.2,2.6,6.2,5.6,8.6,8.8c5.6,7.6,13,11.1,22.4,12.1
		c8.8,0.9,11.3,5.3,9.2,13.9C462-0.1,444.5,8.2,424.8-1.7c-7.7-3.9-13.6-4-19.2,2.3c-3,3.2-6,3.7-10,1.6
		c-12.7-6.3-24.5-13.7-35-23.1c-4.6-4-5.6-7-1.1-12.1c6.7-7.4,12.5-15.5,18.7-23.2c6.9-8.8,13.6-17.6,17.8-28.2
		c2.3-5.8,6.2-10.9,13-9.5C415.5-92.4,416.4-85.9,417.1-78.8z"/>
</g>
</svg>
