<?xml version="1.0" encoding="utf-8"?>
<!DOCTYPE svg PUBLIC "-//W3C//DTD SVG 1.1//EN" "http://www.w3.org/Graphics/SVG/1.1/DTD/svg11.dtd">
<svg version="1.1" xmlns="http://www.w3.org/2000/svg" xmlns:xlink="http://www.w3.org/1999/xlink" x="0px" y="0px"
	 viewBox="0 0 300 299.9" enable-background="new 0 0 300 299.9" xml:space="preserve">
<g>
	<path fill="#F1F1F5" d="M184.5,221c-3.4,5.6-7.4,6.9-14.4,4.8c-4.8-1.4-6.7-4.6-6-11.1c1-10.3,2.3-20.5,3.5-30.7
		c1.1-8.7-0.3-10.9-8.6-13.1c-10.5-2.8-20.8-6-30.5-10.9c-4.3-2.2-8.5-0.8-12.6,0.2c-2.1,0.5-2.4,2.8-2.5,4.5
		c0,10.5-4.4,19.7-8.1,29.1c-2.1,5.3-2,10.2,0.7,15.3c2.1,4,4.6,7.7,5.3,12.3c0.9,6.3-1.7,8.3-7.6,6.4c-6-1.9-9.5-5.7-11.4-11.5
		c-2.1-6.5-4-13-3.5-20c0.1-1.9,0-3.8,0-6.6c-2.4,1.6-2.6,3.2-2.9,4.7c-1.8,10-2.2,19.8,1.8,29.5c1,2.4,2.9,5.5-0.4,7.6
		c-3,2-6.4,1.8-9.5,0.1c-2.3-1.2-3.9-3.1-5-5.5c-5.3-11.9-7.1-24-1.2-36.2c3.3-6.7,3.5-13,1.1-20.1c-4.3-13-6.7-26.3,1.7-38.9
		c1-1.5,0.5-2.7-0.3-4.1c-5.1-9.1-6.5-19.1-7-29.3c-0.1-2.3-0.1-4.9,3.1-5.4c3.1-0.5,4.8,1.4,5.5,4c1.5,5.6,2.9,11.3,4.2,17
		c1.1,5,3.7,6.9,9.1,6.9c18.5-0.1,37,0.6,55.5,0.3c8.9-0.1,17.1-3.6,24.6-8.8c6.3-4.4,6.5-4.1,12.3,0.8c5.2,4.5,11,8.2,17.4,10.6
		c3,1.1,4,2.9,4.6,6.2c2.8,16.4-2.6,31.7-5.6,47.3c-2.2,11.7-2.7,23.5-1.7,35.3c0.2,3,1.7,4.5,4.4,5.3c2.8,0.8,4.9,2.3,4.6,5.6
		c-0.4,3.7-3.3,4.1-6.2,4.5C191.1,228.3,187.7,226.8,184.5,221z M184,218.1c0.1-11.4,0.2-22.5-1.4-33.6c-1.9,7.2-3.5,14.5-5,21.7
		C176.2,212.7,177.2,214.6,184,218.1z"/>
	<path fill="#F1F1F5" d="M216.1,71.7c-3.7,6.3,1.4,9.7,5.7,13.4c1.8,1.5,3.5,3.2,4.9,5c3.2,4.3,7.4,6.3,12.7,6.9
		c5,0.5,6.4,3,5.2,7.9c-3,11.5-12.9,16.2-24.1,10.6c-4.4-2.2-7.7-2.3-10.9,1.3c-1.7,1.8-3.4,2.1-5.7,0.9
		c-7.2-3.6-13.9-7.8-19.9-13.1c-2.6-2.3-3.2-4-0.6-6.9c3.8-4.2,7.1-8.8,10.6-13.2c3.9-5,7.7-10,10.1-16c1.3-3.3,3.5-6.2,7.4-5.4
		C215.2,64,215.7,67.7,216.1,71.7z"/>
</g>
</svg>
