<?xml version="1.0" encoding="utf-8"?>
<!DOCTYPE svg PUBLIC "-//W3C//DTD SVG 1.1//EN" "http://www.w3.org/Graphics/SVG/1.1/DTD/svg11.dtd">
<svg version="1.1" xmlns="http://www.w3.org/2000/svg" xmlns:xlink="http://www.w3.org/1999/xlink" x="0px" y="0px"
	 viewBox="0 0 300 299.5" enable-background="new 0 0 300 299.5" xml:space="preserve">
<g>
	<path fill="#F1F1F5" d="M150.8,229c-1-0.2-1.9-0.3-2.6-0.6c-17.3-7.3-33.7-15.9-46.9-29.7c-17.2-18.2-21.1-39.3-13.9-62.9
		c1.5-4.8,3.3-9.5,4.2-14.4c1.7-9.3,0.1-18-7.7-24.4c-1.5-1.2-2-1.8-0.6-3.4c6.4-7.2,12.8-14.5,19.2-21.7c1.1-1.3,2.1-1.3,3.4-0.3
		c1.5,1.1,3,2,4.6,3c12.6,7.4,25,7.1,36.9-1.6c2.2-1.6,3.7-2.3,6.4-0.4c13.4,9.7,25.9,9.8,39.7,0.4c3.4-2.3,5-1.9,7.5,1.1
		c5.2,6.5,10.9,12.6,16.4,18.8c1.1,1.3,2.4,2.2,0.3,4c-9,7.9-10,17.9-6.8,28.8c2.3,8,5.2,15.8,6.1,24.1c2.4,22.7-6.4,40.6-23.2,55.1
		c-11.7,10.1-25.3,17.2-39.4,23.2C153.2,228.5,151.9,228.7,150.8,229z M209.4,97.6c-1.3,1-2.7,2-3.9,3c-12.5,10-25,20-37.5,29.9
		c-22.5,18-45,36-67.6,53.9c-2.5,2-3,3.4-0.8,5.9c3.4,4.1,7.1,7.9,11,11.5c2.1,2,3.6,2,5.9,0.2c7.7-6.4,15.6-12.5,23.4-18.8
		c21.5-17.2,43-34.3,64.4-51.5c1.5-1.2,3.6-2,2.8-4.7C203.9,117.1,204.6,107.5,209.4,97.6z"/>
</g>
</svg>
