<?xml version="1.0" encoding="utf-8"?>

<!DOCTYPE svg PUBLIC "-//W3C//DTD SVG 1.1//EN" "http://www.w3.org/Graphics/SVG/1.1/DTD/svg11.dtd">
<svg version="1.1" id="Layer_1" xmlns="http://www.w3.org/2000/svg" xmlns:xlink="http://www.w3.org/1999/xlink" x="0px" y="0px"
	 viewBox="56.6 -187.5 500 500" enable-background="new 56.6 -187.5 500 500" xml:space="preserve">
<text opacity="0" font-family="'MyriadPro-Regular'" font-size="1">a</text>
<g>
	<path fill="#F1F1F5" d="M306.8,201.9c-1.8-0.4-3.3-0.5-4.6-1.1c-30.5-12.9-59.4-28-82.7-52.4c-30.3-32.1-37.2-69.3-24.5-110.9
		c2.6-8.5,5.8-16.7,7.4-25.4c3-16.4,0.2-31.7-13.6-43c-2.6-2.1-3.5-3.2-1.1-6c11.3-12.7,22.6-25.6,33.8-38.3c1.9-2.3,3.7-2.3,6-0.5
		c2.6,1.9,5.3,3.5,8.1,5.3c22.2,13,44.1,12.5,65.1-2.8c3.9-2.8,6.5-4.1,11.3-0.7c23.6,17.1,45.7,17.3,70,0.7c6-4.1,8.8-3.3,13.2,1.9
		c9.2,11.5,19.2,22.2,28.9,33.1c1.9,2.3,4.2,3.9,0.5,7.1c-15.9,13.9-17.6,31.6-12,50.8c4.1,14.1,9.2,27.9,10.8,42.5
		c4.2,40-11.3,71.6-40.9,97.1c-20.6,17.8-44.6,30.3-69.5,40.9C311.1,201,308.8,201.3,306.8,201.9z M410.1-29.8
		c-2.3,1.8-4.8,3.5-6.9,5.3c-22,17.6-44.1,35.3-66.1,52.7c-39.7,31.7-79.3,63.5-119.2,95c-4.4,3.5-5.3,6-1.4,10.4
		c6,7.2,12.5,13.9,19.4,20.3c3.7,3.5,6.3,3.5,10.4,0.4c13.6-11.3,27.5-22,41.3-33.1c37.9-30.3,75.8-60.5,113.5-90.8
		c2.6-2.1,6.3-3.5,4.9-8.3C400.5,4.6,401.7-12.3,410.1-29.8z"/>
</g>
</svg>
