<svg xmlns="http://www.w3.org/2000/svg" viewBox="54.7 -205.1 500 500" enable-background="new 54.7 -205.1 500 500"><path d="M362.5 168.4c12.8 0 24.4.2 36 0 4.9-.2 7.7.7 7.2 6.5-.9 8.1 3.3 18.5-1.6 23.7-4.6 4.9-14.9 1.4-22.9 1.6-53.6.2-107.3 0-160.9.2-6.7 0-9-1.4-9-8.6.2-23.4 0-23 23.2-23.4 20.2-.4 40.4 2.3 60.5-1.6 35.5-6.9 59.3-27.6 68-62.8 8.6-34.5-2.6-63.3-29.9-86.2-4.7-4-7.4-4.6-10.9 1.9-9.8 17.9-20.6 35.5-30.9 53.1-2.1 3.7-3.7 8.4-9.7 4.6-3.9-2.5-4.7 1.9-6.2 4-9.3 14.4-9.1 14.4-24.3 4.9-3.7-2.3-4-4-1.8-7.4 2.5-3.7 4.6-7.6 6.7-11.3 1.1-1.8 2.5-3.9-.5-5.1-6.5-2.6-4-6.2-1.6-10.2C282.7 4.1 311-44.4 339.5-92.9c1.9-3.2 2.5-7.6 9-5.3 4.6 1.6 5.3-5.1 7.2-8.3 2.6-4.7 5.1-6.7 10-2.8 2.1 1.6 4.6 2.6 6.9 3.9 11.3 6.3 11.3 6.3 5.5 17.4-1.4 2.5-3.5 4.7.4 7.4 3.7 2.6.2 5.3-1.1 7.6-10.4 17.6-20.7 35.3-31.3 52.9-2.5 4-2.5 6.2 1.8 9.1 59.3 40.4 69.1 124.1 16.5 176.4-.5.3-.7 1-1.9 3zm-152.1-83c1.9.9 3.5 1.6 4.9 2.5 22.3 12.7 44.7 25.7 67.2 38 5.5 3 5.1 5.3 2.5 10-2.8 4.6-4.4 7.2-10.4 3.5-22.3-13.2-45.2-25.8-67.7-38.9-1.8-.9-5.3-1.2-3.7-4.6 1.8-3.7 3.3-7.9 7.2-10.5z" fill="#F1F1F5"/></svg>