<?xml version="1.0" encoding="utf-8"?>
<!DOCTYPE svg PUBLIC "-//W3C//DTD SVG 1.1//EN" "http://www.w3.org/Graphics/SVG/1.1/DTD/svg11.dtd">
<svg version="1.1" xmlns="http://www.w3.org/2000/svg" xmlns:xlink="http://www.w3.org/1999/xlink" x="0px" y="0px"
	 viewBox="0 0 300 300.3" enable-background="new 0 0 300 300.3" xml:space="preserve">
<g>
	<path fill="#F1F1F5" d="M181.4,210.2c7.3,0,13.9,0.1,20.5,0c2.8-0.1,4.4,0.4,4.1,3.7c-0.5,4.6,1.9,10.5-0.9,13.5
		c-2.6,2.8-8.5,0.8-13,0.9c-30.5,0.1-61,0-91.5,0.1c-3.8,0-5.1-0.8-5.1-4.9c0.1-13.3,0-13.1,13.2-13.3c11.5-0.2,23,1.3,34.4-0.9
		c20.2-3.9,33.7-15.7,38.7-35.7c4.9-19.6-1.5-36-17-49c-2.7-2.3-4.2-2.6-6.2,1.1c-5.6,10.2-11.7,20.2-17.6,30.2
		c-1.2,2.1-2.1,4.8-5.5,2.6c-2.2-1.4-2.7,1.1-3.5,2.3c-5.3,8.2-5.2,8.2-13.8,2.8c-2.1-1.3-2.3-2.3-1-4.2c1.4-2.1,2.6-4.3,3.8-6.4
		c0.6-1,1.4-2.2-0.3-2.9c-3.7-1.5-2.3-3.5-0.9-5.8c16.2-27.5,32.3-55.1,48.5-82.7c1.1-1.8,1.4-4.3,5.1-3c2.6,0.9,3-2.9,4.1-4.7
		c1.5-2.7,2.9-3.8,5.7-1.6c1.2,0.9,2.6,1.5,3.9,2.2c6.4,3.6,6.4,3.6,3.1,9.9c-0.8,1.4-2,2.7,0.2,4.2c2.1,1.5,0.1,3-0.6,4.3
		C183.9,82.9,178,93,172,103c-1.4,2.3-1.4,3.5,1,5.2c33.7,23,39.3,70.6,9.4,100.3C182.2,208.7,182.1,209.1,181.4,210.2z"/>
	<path fill="#F1F1F5" d="M94.9,163c1.1,0.5,2,0.9,2.8,1.4c12.7,7.2,25.4,14.6,38.2,21.6c3.1,1.7,2.9,3,1.4,5.7
		c-1.6,2.6-2.5,4.1-5.9,2c-12.7-7.5-25.7-14.7-38.5-22.1c-1-0.5-3-0.7-2.1-2.6C91.8,166.9,92.7,164.5,94.9,163z"/>
</g>
</svg>
