<?xml version="1.0" encoding="utf-8"?>

<!DOCTYPE svg PUBLIC "-//W3C//DTD SVG 1.1//EN" "http://www.w3.org/Graphics/SVG/1.1/DTD/svg11.dtd">
<svg version="1.1" id="Layer_1" xmlns="http://www.w3.org/2000/svg" xmlns:xlink="http://www.w3.org/1999/xlink" x="0px" y="0px"
	 viewBox="114.3 -354.7 500 500" enable-background="new 114.3 -354.7 500 500" xml:space="preserve">
<text opacity="0" font-family="'MyriadPro-Regular'" font-size="1">a</text>
<path id="_xF0EB_" fill="#F1F1F5" d="M399.2-154.6c0,1.1,0,2.1-1.1,3.2s-2.1,1.1-3.2,1.1s-2.1,0-3.2-1.1s-2.1-2.1-2.1-3.2
	c0-4.3-3.2-8.6-8.6-10.8c-5.4-2.2-10.8-4.3-16.1-4.3c-1.1,0-2.1,0-3.2-1.1s-2.1-3.2-2.1-4.3c0-1.1,0-2.1,1.1-3.2s2.1-1.1,3.2-1.1
	c5.4,0,10.8,1.1,15,2.1s9.6,4.3,13.9,8.6C397.1-165.4,399.2-160,399.2-154.6L399.2-154.6L399.2-154.6z M423.8-154.6
	c0-7.5-2.1-13.9-5.4-20.4c-3.2-6.4-8.6-12.9-13.9-16.1c-5.4-4.3-11.8-7.5-19.3-9.6c-7.5-2.1-13.9-3.2-21.4-3.2
	c-7.5,0-13.9,1.1-21.4,3.2c-7.5,2.1-12.9,5.4-18.3,9.6s-10.6,9.6-13.8,16.1c-3.3,6.4-5.4,12.9-5.4,20.4c0,10.8,3.2,19.3,10.8,27.9
	c1.1,1.1,2.1,3.2,4.3,5.4c2.1,2.1,3.2,4.3,4.3,5.4c12.9,16.1,20.4,31,21.4,46.1h35.3c1.1-15,8.6-30,21.4-46.1
	c1.1-1.1,2.1-3.2,4.3-5.4c2.1-2.1,3.2-4.3,4.3-5.4C420.6-135.3,423.8-145,423.8-154.6L423.8-154.6L423.8-154.6z M444.2-154.6
	c0,16.1-5.4,30-16.1,41.8c-4.3,5.4-8.6,9.6-11.8,13.9c-3.2,4.3-6.4,8.6-9.6,15c-3.2,6.4-5.4,11.8-5.4,17.1c5.4,3.2,7.5,7.5,7.5,12.9
	c0,4.3-1.1,7.5-4.3,9.6c2.1,3.2,4.3,6.4,4.3,9.6c0,5.4-2.1,9.6-7.5,12.9c1.1,2.1,2.1,4.3,2.1,7.5c0,4.3-2.1,8.6-5.4,10.8
	c-3.2,2.1-7.5,4.3-11.8,4.3c-2.1,4.3-5.4,8.6-9.6,10.8c-4.3,3.2-8.6,4.3-13.9,4.3c-5.4,0-9.6-1.1-13.9-4.3
	c-4.3-3.2-7.5-6.4-9.6-10.8c-4.3,0-8.6-1.1-11.8-4.3c-3.2-3.2-5.4-6.4-5.4-10.8c0-2.1,1.1-5.4,2.1-7.5c-4.3-3.2-7.5-7.5-7.5-12.9
	c0-4.3,1.1-7.5,4.3-9.6c-2.1-3.2-4.3-6.4-4.3-9.6c0-5.4,2.1-9.6,7.5-12.9c0-5.4-2.1-10.8-5.4-17.1c-3.2-6.4-6.4-10.8-9.6-15
	c-3.2-4.3-4.3-9.6-8.6-13.9c-10.8-11.8-16.1-25.8-16.1-41.8c0-10.8,2.1-19.3,6.4-28.9c4.3-9.6,10.8-16.1,18.3-22.5
	c7.5-6.4,16.1-10.8,25.8-13.9c9.7-3.2,19.3-5.4,28.9-5.4c9.6,0,19.3,2.1,28.9,5.4c9.6,3.2,18.3,7.5,25.8,13.9
	c7.5,5.4,13.9,12.9,18.3,22.5C441-175,444.2-165.4,444.2-154.6L444.2-154.6L444.2-154.6z"/>
</svg>
