<?xml version="1.0" encoding="UTF-8" standalone="no"?>
<svg width="52px" height="52px" viewBox="0 0 52 52" version="1.1" xmlns="http://www.w3.org/2000/svg" xmlns:xlink="http://www.w3.org/1999/xlink" xmlns:sketch="http://www.bohemiancoding.com/sketch/ns">
    <!-- Generator: Sketch 3.2.1 (9971) - http://www.bohemiancoding.com/sketch -->
    <title>scratch</title>
    <desc>Created with Sketch.</desc>
    <defs></defs>
    <g id="Page-1" stroke="none" stroke-width="1" fill="none" fill-rule="evenodd" sketch:type="MSPage">
        <g id="Scratch" sketch:type="MSLayerGroup" transform="translate(19.000000, 14.000000)" fill="#F2FAFF">
            <g id="Main" sketch:type="MSShapeGroup">
                <g id="Make-7">
                    <g id="Start-from-Scratch-+-Choosing-this-option">
                        <g id="Scratch">
                            <path d="M10.6785714,7.0714286 C10.6785714,7.1971732 10.6326269,7.3059891 10.5407366,7.3978795 C10.4488463,7.4897698 10.3400304,7.5357143 10.2142857,7.5357143 C10.088541,7.5357143 9.9797252,7.4897698 9.8878348,7.3978795 C9.7959445,7.3059891 9.75,7.1971732 9.75,7.0714286 C9.75,6.6264859 9.4888419,6.2831113 8.9665179,6.0412946 C8.4441938,5.799478 7.9315501,5.6785714 7.4285714,5.6785714 C7.3028268,5.6785714 7.1940109,5.6326269 7.1021205,5.5407366 C7.0102302,5.4488463 6.9642857,5.3400304 6.9642857,5.2142857 C6.9642857,5.088541 7.0102302,4.9797252 7.1021205,4.8878348 C7.1940109,4.7959445 7.3028268,4.75 7.4285714,4.75 C7.9122048,4.75 8.3934128,4.8273802 8.8722098,4.9821429 C9.3510069,5.1369055 9.7717616,5.3980636 10.1344866,5.765625 C10.4972116,6.1331864 10.6785714,6.5684499 10.6785714,7.0714286 L10.6785714,7.0714286 L10.6785714,7.0714286 Z M13,7.0714286 C13,6.3749965 12.833149,5.7269375 12.499442,5.1272321 C12.1657349,4.5275268 11.7304714,4.0366463 11.1936384,3.6545759 C10.6568054,3.2725055 10.0619452,2.9726573 9.4090402,2.7550223 C8.7561351,2.5373873 8.0959855,2.4285714 7.4285714,2.4285714 C6.7611574,2.4285714 6.1010077,2.5373873 5.4481027,2.7550223 C4.7951976,2.9726573 4.2003375,3.2725055 3.6635045,3.6545759 C3.1266714,4.0366463 2.6914079,4.5275268 2.3577009,5.1272321 C2.0239939,5.7269375 1.8571429,6.3749965 1.8571429,7.0714286 C1.8571429,8.048368 2.1860086,8.918895 2.84375,9.6830357 C2.9404767,9.7894351 3.0879826,9.9490317 3.2862723,10.1618304 C3.484562,10.374629 3.632068,10.5342257 3.7287946,10.640625 C4.9668961,12.1205431 5.6488089,13.5617489 5.7745536,14.9642857 L9.0825893,14.9642857 C9.208334,13.5617489 9.8902468,12.1205431 11.1283482,10.640625 C11.2250749,10.5342257 11.3725809,10.374629 11.5708705,10.1618304 C11.7691602,9.9490317 11.9166662,9.7894351 12.0133929,9.6830357 C12.6711342,8.918895 13,8.048368 13,7.0714286 L13,7.0714286 L13,7.0714286 Z M14.8571429,7.0714286 C14.8571429,8.570692 14.359008,9.86681 13.3627232,10.9598214 C12.9274532,11.4337821 12.5671517,11.8545369 12.281808,12.2220982 C11.9964643,12.5896596 11.7087068,13.0515225 11.4185268,13.6077009 C11.1283468,14.1638793 10.9639139,14.6837773 10.9252232,15.1674107 C11.3798386,15.4382454 11.6071429,15.8348188 11.6071429,16.3571429 C11.6071429,16.7150316 11.4862363,17.0245523 11.2444196,17.2857143 C11.4862363,17.5468763 11.6071429,17.856397 11.6071429,18.2142857 C11.6071429,18.7172644 11.3895111,19.1090016 10.9542411,19.3895089 C11.0799857,19.6119803 11.1428571,19.8392846 11.1428571,20.0714286 C11.1428571,20.5163713 10.9905149,20.8597458 10.6858259,21.1015625 C10.3811369,21.3433792 10.0063266,21.4642857 9.5613839,21.4642857 C9.3679306,21.8898831 9.0777549,22.2284214 8.6908482,22.4799107 C8.3039415,22.7314001 7.8831868,22.8571429 7.4285714,22.8571429 C6.9739561,22.8571429 6.5532013,22.7314001 6.1662946,22.4799107 C5.7793879,22.2284214 5.4892123,21.8898831 5.2957589,21.4642857 C4.8508162,21.4642857 4.476006,21.3433792 4.171317,21.1015625 C3.8666279,20.8597458 3.7142857,20.5163713 3.7142857,20.0714286 C3.7142857,19.8392846 3.7771571,19.6119803 3.9029018,19.3895089 C3.4676318,19.1090016 3.25,18.7172644 3.25,18.2142857 C3.25,17.856397 3.3709065,17.5468763 3.6127232,17.2857143 C3.3709065,17.0245523 3.25,16.7150316 3.25,16.3571429 C3.25,15.8348188 3.4773043,15.4382454 3.9319196,15.1674107 C3.893229,14.6837773 3.7287961,14.1638793 3.4386161,13.6077009 C3.148436,13.0515225 2.8606785,12.5896596 2.5753348,12.2220982 C2.2899911,11.8545369 1.9296897,11.4337821 1.4944196,10.9598214 C0.4981349,9.86681 0,8.570692 0,7.0714286 C0,6.1138345 0.2152136,5.2215443 0.6456473,4.3945312 C1.076081,3.5675182 1.6419236,2.8807691 2.343192,2.3342634 C3.0444604,1.7877577 3.8376072,1.3573304 4.7226562,1.0429687 C5.6077053,0.7286071 6.509668,0.5714286 7.4285714,0.5714286 C8.3474748,0.5714286 9.2494375,0.7286071 10.1344866,1.0429687 C11.0195357,1.3573304 11.8126825,1.7877577 12.5139509,2.3342634 C13.2152193,2.8807691 13.7810618,3.5675182 14.2114955,4.3945312 C14.6419292,5.2215443 14.8571429,6.1138345 14.8571429,7.0714286 L14.8571429,7.0714286 L14.8571429,7.0714286 Z" id=""></path>
                        </g>
                    </g>
                </g>
            </g>
        </g>
    </g>
</svg>