<?xml version="1.0" encoding="utf-8"?>
<!DOCTYPE svg PUBLIC "-//W3C//DTD SVG 1.1//EN" "http://www.w3.org/Graphics/SVG/1.1/DTD/svg11.dtd">
<svg version="1.1" id="Layer_1" xmlns:sketch="http://www.bohemiancoding.com/sketch/ns"
	 xmlns="http://www.w3.org/2000/svg" xmlns:xlink="http://www.w3.org/1999/xlink" x="0px" y="0px" viewBox="0 0 52 52"
	 enable-background="new 0 0 52 52" xml:space="preserve">
<g transform="translate(19.000000, 14.000000)">
  <path id="_xF0EB_" fill="#F1F1F5" d="M10.7,7.1c0,0.1,0,0.2-0.1,0.3s-0.2,0.1-0.3,0.1s-0.2,0-0.3-0.1S9.8,7.2,9.8,7.1
    c0-0.4-0.3-0.8-0.8-1c-0.5-0.2-1-0.4-1.5-0.4c-0.1,0-0.2,0-0.3-0.1S7,5.3,7,5.2C7,5.1,7,5,7.1,4.9s0.2-0.1,0.3-0.1
    c0.5,0,1,0.1,1.4,0.2s0.9,0.4,1.3,0.8C10.5,6.1,10.7,6.6,10.7,7.1L10.7,7.1L10.7,7.1z M13,7.1c0-0.7-0.2-1.3-0.5-1.9
    S11.7,4,11.2,3.7C10.7,3.3,10.1,3,9.4,2.8c-0.7-0.2-1.3-0.3-2-0.3s-1.3,0.1-2,0.3S4.2,3.3,3.7,3.7s-1,0.9-1.3,1.5
    S1.9,6.4,1.9,7.1c0,1,0.3,1.8,1,2.6c0.1,0.1,0.2,0.3,0.4,0.5c0.2,0.2,0.3,0.4,0.4,0.5c1.2,1.5,1.9,2.9,2,4.3h3.3
    c0.1-1.4,0.8-2.8,2-4.3c0.1-0.1,0.2-0.3,0.4-0.5c0.2-0.2,0.3-0.4,0.4-0.5C12.7,8.9,13,8,13,7.1L13,7.1L13,7.1z M14.9,7.1
    c0,1.5-0.5,2.8-1.5,3.9c-0.4,0.5-0.8,0.9-1.1,1.3c-0.3,0.4-0.6,0.8-0.9,1.4c-0.3,0.6-0.5,1.1-0.5,1.6c0.5,0.3,0.7,0.7,0.7,1.2
    c0,0.4-0.1,0.7-0.4,0.9c0.2,0.3,0.4,0.6,0.4,0.9c0,0.5-0.2,0.9-0.7,1.2c0.1,0.2,0.2,0.4,0.2,0.7c0,0.4-0.2,0.8-0.5,1
    c-0.3,0.2-0.7,0.4-1.1,0.4c-0.2,0.4-0.5,0.8-0.9,1c-0.4,0.3-0.8,0.4-1.3,0.4c-0.5,0-0.9-0.1-1.3-0.4c-0.4-0.3-0.7-0.6-0.9-1
    c-0.4,0-0.8-0.1-1.1-0.4s-0.5-0.6-0.5-1c0-0.2,0.1-0.5,0.2-0.7c-0.4-0.3-0.7-0.7-0.7-1.2c0-0.4,0.1-0.7,0.4-0.9
    c-0.2-0.3-0.4-0.6-0.4-0.9c0-0.5,0.2-0.9,0.7-1.2c0-0.5-0.2-1-0.5-1.6c-0.3-0.6-0.6-1-0.9-1.4S1.9,11.4,1.5,11
    C0.5,9.9,0,8.6,0,7.1c0-1,0.2-1.8,0.6-2.7s1-1.5,1.7-2.1s1.5-1,2.4-1.3s1.8-0.5,2.7-0.5S9.2,0.7,10.1,1
    c0.9,0.3,1.7,0.7,2.4,1.3c0.7,0.5,1.3,1.2,1.7,2.1C14.6,5.2,14.9,6.1,14.9,7.1L14.9,7.1L14.9,7.1z"/>
</g>
</svg>
