<?xml version="1.0" encoding="utf-8"?>

<!DOCTYPE svg PUBLIC "-//W3C//DTD SVG 1.1//EN" "http://www.w3.org/Graphics/SVG/1.1/DTD/svg11.dtd">
<svg version="1.1" id="Layer_1" xmlns="http://www.w3.org/2000/svg" xmlns:xlink="http://www.w3.org/1999/xlink" x="0px" y="0px"
	 viewBox="-1279.5 997.3 500 500" enable-background="new -1279.5 997.3 500 500" xml:space="preserve">
<text opacity="0" font-family="'MyriadPro-Regular'" font-size="1">a</text>
<g>
	<path fill="#F1F1F5" d="M-1083.2,1159.4H-976c2.1,0,3.2-1.1,5.4-2.1c1.1-1.1,2.1-3.2,2.1-5.4V1139c0-6.4-2.1-11.8-6.4-16.1
		c-4.3-4.3-9.6-6.4-16.1-6.4h-11.8c-2.1-12.9-12.9-22.5-25.8-22.5c-12.9,0-23.5,9.6-25.8,22.5h-11.8c-12.9,0-22.5,10.8-22.5,22.5
		v12.9C-1089.6,1156.3-1086.4,1159.4-1083.2,1159.4L-1083.2,1159.4z M-1029.6,1111.2c5.4,0,9.6,4.3,9.6,9.6c0,5.3-4.3,9.6-9.6,9.6
		c-5.3,0-9.6-4.3-9.6-9.6C-1039.2,1115.5-1034.9,1111.2-1029.6,1111.2L-1029.6,1111.2z"/>
	<path fill="#F1F1F5" d="M-929.8,1146.5c-4.3-4.3-9.6-6.4-16.1-6.4c-2.1,0-4.3,1.1-5.4,2.1c-1.1,1.1-2.1,3.2-2.1,5.4v17.1
		c0,6.4-5.4,10.8-11.8,10.8H-1095c-6.4,0-10.8-5.4-11.8-10.8v-2.1v-15c0-4.3-3.2-7.5-6.4-7.5c-12.9,0-22.5,10.8-22.5,22.5v215.5
		c0,12.9,9.6,22.5,22.5,22.5H-946c12.9,0,22.5-10.8,22.5-22.5v-215.5C-922.3,1157.3-925.6,1151.9-929.8,1146.5z M-1015.7,1313.8
		v20.4c0,1.1,0,2.1-1.1,2.1c-1.1,1.1-1.1,1.1-2.1,1.1h-20.4c-1.1,0-2.1,0-2.1-1.1c-1.1-1.1-1.1-1.1-1.1-2.1v-20.4
		c0-1.1,0-2.1,1.1-2.1c1.1-1.1,1.1-1.1,2.1-1.1h20.4c1.1,0,2.1,0,2.1,1.1C-1015.7,1311.7-1015.7,1312.8-1015.7,1313.8z
		 M-988.9,1263.4c0,3.2,0,5.4-1.1,8.6c-1.1,2.1-2.1,4.3-3.2,6.4c-1.1,2.1-2.1,3.2-4.3,5.4c-2.1,2.1-3.2,3.2-4.3,3.2
		c-1.1,1.1-3.2,2.1-5.4,3.2c-2.1,1.1-4.3,3.2-5.4,5.4c-1.1,2.2-2.1,4.3-2.1,5.4c0,1.1,0,2.1-1.1,3.2c-1.1,1.1-1.1,1.1-2.1,1.1h-20.4
		c-1.1,0-1.1,0-2.1-1.1s-1.1-2.1-1.1-3.2v-4.3c0-4.3,2.1-8.6,5.4-12.9c3.2-4.3,7.5-7.5,11.8-9.6c3.2-1.1,5.4-3.2,7.5-4.3
		c2.1-1.2,2.1-4.3,2.1-6.4c0-2.1-1.1-4.3-4.3-6.4c-2.1-2.1-5.4-3.2-8.6-3.2s-6.4,1.1-8.6,2.1c-2.1,1.1-5.4,4.3-8.6,9.6
		c-1.1,1.1-1.1,1.1-2.1,1.1c-1.1,0-1.1,0-2.1-1.1l-13.9-10.8c-1.1-1.1-1.1-1.1-1.1-2.1s0-2.1,0-2.1c8.6-15,21.4-22.5,38.6-22.5
		c4.3,0,8.6,1.1,13.9,2.1c5.4,1.1,8.6,4.3,11.8,7.5c3.2,3.2,6.4,6.4,8.6,10.8C-989.9,1253.8-988.9,1258.1-988.9,1263.4
		L-988.9,1263.4z"/>
</g>
</svg>
