<svg xmlns="http://www.w3.org/2000/svg" viewBox="-1279.5 997.3 500 500" enable-background="new -1279.5 997.3 500 500"><path d="M-1083.2 1159.4H-976c2.1 0 3.2-1.1 5.4-2.1 1.1-1.1 2.1-3.2 2.1-5.4V1139c0-6.4-2.1-11.8-6.4-16.1-4.3-4.3-9.6-6.4-16.1-6.4h-11.8c-2.1-12.9-12.9-22.5-25.8-22.5s-23.5 9.6-25.8 22.5h-11.8c-12.9 0-22.5 10.8-22.5 22.5v12.9c-.9 4.4 2.3 7.5 5.5 7.5zm53.6-48.2c5.4 0 9.6 4.3 9.6 9.6s-4.3 9.6-9.6 9.6-9.6-4.3-9.6-9.6 4.3-9.6 9.6-9.6zm99.8 35.3c-4.3-4.3-9.6-6.4-16.1-6.4-2.1 0-4.3 1.1-5.4 2.1-1.1 1.1-2.1 3.2-2.1 5.4v17.1c0 6.4-5.4 10.8-11.8 10.8H-1095c-6.4 0-10.8-5.4-11.8-10.8v-17.1c0-4.3-3.2-7.5-6.4-7.5-12.9 0-22.5 10.8-22.5 22.5v215.5c0 12.9 9.6 22.5 22.5 22.5H-946c12.9 0 22.5-10.8 22.5-22.5v-215.5c1.2-5.3-2.1-10.7-6.3-16.1zm-85.9 167.3v20.4c0 1.1 0 2.1-1.1 2.1-1.1 1.1-1.1 1.1-2.1 1.1h-20.4c-1.1 0-2.1 0-2.1-1.1-1.1-1.1-1.1-1.1-1.1-2.1v-20.4c0-1.1 0-2.1 1.1-2.1 1.1-1.1 1.1-1.1 2.1-1.1h20.4c1.1 0 2.1 0 2.1 1.1 1.1 0 1.1 1.1 1.1 2.1zm26.8-50.4c0 3.2 0 5.4-1.1 8.6-1.1 2.1-2.1 4.3-3.2 6.4-1.1 2.1-2.1 3.2-4.3 5.4-2.1 2.1-3.2 3.2-4.3 3.2-1.1 1.1-3.2 2.1-5.4 3.2-2.1 1.1-4.3 3.2-5.4 5.4-1.1 2.2-2.1 4.3-2.1 5.4 0 1.1 0 2.1-1.1 3.2s-1.1 1.1-2.1 1.1h-20.4c-1.1 0-1.1 0-2.1-1.1s-1.1-2.1-1.1-3.2v-4.3c0-4.3 2.1-8.6 5.4-12.9 3.2-4.3 7.5-7.5 11.8-9.6 3.2-1.1 5.4-3.2 7.5-4.3 2.1-1.2 2.1-4.3 2.1-6.4 0-2.1-1.1-4.3-4.3-6.4-2.1-2.1-5.4-3.2-8.6-3.2s-6.4 1.1-8.6 2.1c-2.1 1.1-5.4 4.3-8.6 9.6-1.1 1.1-1.1 1.1-2.1 1.1-1.1 0-1.1 0-2.1-1.1l-13.9-10.8c-1.1-1.1-1.1-1.1-1.1-2.1v-2.1c8.6-15 21.4-22.5 38.6-22.5 4.3 0 8.6 1.1 13.9 2.1 5.4 1.1 8.6 4.3 11.8 7.5 3.2 3.2 6.4 6.4 8.6 10.8 1.2 5.3 2.2 9.6 2.2 14.9z" fill="#F1F1F5"/></svg>