<?xml version="1.0" encoding="utf-8"?>
<!-- Generator: Adobe Illustrator 18.1.1, SVG Export Plug-In . SVG Version: 6.00 Build 0)  -->
<!DOCTYPE svg PUBLIC "-//W3C//DTD SVG 1.1//EN" "http://www.w3.org/Graphics/SVG/1.1/DTD/svg11.dtd">
<svg version="1.1" id="Layer_1" xmlns:sketch="http://www.bohemiancoding.com/sketch/ns"
	 xmlns="http://www.w3.org/2000/svg" xmlns:xlink="http://www.w3.org/1999/xlink" x="0px" y="0px" viewBox="-1391 1391.7 52 52"
	 enable-background="new -1391 1391.7 52 52" xml:space="preserve">
<title>survey</title>
<desc>Created with Sketch.</desc>
<g id="Make-11" transform="translate(-15.000000, -617.000000)" sketch:type="MSArtboardGroup">
	
		<g id="Start-from-Scratch-_x2B_-Choosing-this-option-3-_x2B_-Oval-19-_x2B_-_xF0C3_-4" transform="translate(0.000000, 602.000000)" sketch:type="MSLayerGroup">
		<g id="survey" transform="translate(16.000000, 16.000000)" sketch:type="MSShapeGroup">
			<g id="Group" transform="translate(15.000000, 9.000000)">
				<path id="Shape" fill="#F2FAFF" d="M-1386.1,1397.7h10c0.2,0,0.3-0.1,0.5-0.2c0.1-0.1,0.2-0.3,0.2-0.5v-1.2
					c0-0.6-0.2-1.1-0.6-1.5c-0.4-0.4-0.9-0.6-1.5-0.6h-1.1c-0.2-1.2-1.2-2.1-2.4-2.1c-1.2,0-2.2,0.9-2.4,2.1h-1.1
					c-1.2,0-2.1,1-2.1,2.1v1.2C-1386.7,1397.4-1386.4,1397.7-1386.1,1397.7L-1386.1,1397.7z M-1381.1,1393.2c0.5,0,0.9,0.4,0.9,0.9
					s-0.4,0.9-0.9,0.9c-0.5,0-0.9-0.4-0.9-0.9S-1381.6,1393.2-1381.1,1393.2L-1381.1,1393.2z"/>
				<path id="Shape_1_" fill="#F2FAFF" d="M-1371.8,1396.5c-0.4-0.4-0.9-0.6-1.5-0.6c-0.2,0-0.4,0.1-0.5,0.2
					c-0.1,0.1-0.2,0.3-0.2,0.5l0,1.6c0,0.6-0.5,1-1.1,1h-12.1c-0.6,0-1-0.5-1.1-1l0-0.2v-1.4c0-0.4-0.3-0.7-0.6-0.7
					c-1.2,0-2.1,1-2.1,2.1v20.1c0,1.2,0.9,2.1,2.1,2.1h15.6c1.2,0,2.1-1,2.1-2.1l0-20.1C-1371.1,1397.5-1371.4,1397-1371.8,1396.5z
					 M-1379.8,1412.1v1.9c0,0.1,0,0.2-0.1,0.2c-0.1,0.1-0.1,0.1-0.2,0.1h-1.9c-0.1,0-0.2,0-0.2-0.1c-0.1-0.1-0.1-0.1-0.1-0.2v-1.9
					c0-0.1,0-0.2,0.1-0.2c0.1-0.1,0.1-0.1,0.2-0.1h1.9c0.1,0,0.2,0,0.2,0.1C-1379.8,1411.9-1379.8,1412-1379.8,1412.1z
					 M-1377.3,1407.4c0,0.3,0,0.5-0.1,0.8c-0.1,0.2-0.2,0.4-0.3,0.6c-0.1,0.2-0.2,0.3-0.4,0.5c-0.2,0.2-0.3,0.3-0.4,0.3
					c-0.1,0.1-0.3,0.2-0.5,0.3c-0.2,0.1-0.4,0.3-0.5,0.5c-0.1,0.2-0.2,0.4-0.2,0.5c0,0.1,0,0.2-0.1,0.3c-0.1,0.1-0.1,0.1-0.2,0.1
					h-1.9c-0.1,0-0.1,0-0.2-0.1s-0.1-0.2-0.1-0.3v-0.4c0-0.4,0.2-0.8,0.5-1.2c0.3-0.4,0.7-0.7,1.1-0.9c0.3-0.1,0.5-0.3,0.7-0.4
					s0.2-0.4,0.2-0.6c0-0.2-0.1-0.4-0.4-0.6c-0.2-0.2-0.5-0.3-0.8-0.3c-0.3,0-0.6,0.1-0.8,0.2c-0.2,0.1-0.5,0.4-0.8,0.9
					c-0.1,0.1-0.1,0.1-0.2,0.1c-0.1,0-0.1,0-0.2-0.1l-1.3-1c-0.1-0.1-0.1-0.1-0.1-0.2c0-0.1,0-0.2,0-0.2c0.8-1.4,2-2.1,3.6-2.1
					c0.4,0,0.8,0.1,1.3,0.2s0.8,0.4,1.1,0.7c0.3,0.3,0.6,0.6,0.8,1C-1377.4,1406.5-1377.3,1406.9-1377.3,1407.4L-1377.3,1407.4z"/>
			</g>
		</g>
	</g>
</g>
</svg>
