<svg xmlns="http://www.w3.org/2000/svg" viewBox="116.1 -329.4 500 500" enable-background="new 116.1 -329.4 500 500"><path fill="#F1F1F5" d="M451.8-88.5l2.1 43.9c0 6.4-3.2 11.8-11.8 17.1-7.5 5.4-18.3 9.6-32.2 12.9-13.9 3.2-28.9 4.4-43.9 4.4s-31-1.1-43.9-4.3-24.7-7.5-32.2-12.9c-7.5-5.4-11.8-11.8-11.8-17.1l2.1-43.9 79.5 24.6c2.1 1.1 4.3 1.1 6.4 1.1s4.3 0 6.4-1.1l79.3-24.7zm72.9-44c0 2.1-1.1 3.2-3.2 4.3L367.2-79.9H365l-90-29c-4.3 3.2-7.5 8.6-9.6 16.1-3.2 6.4-4.3 15-5.4 24.7 5.4 3.2 8.6 8.6 8.6 15s-2.1 10.8-7.5 15l7.5 60.1c0 1.1 0 2.1-1.1 3.2s-2.1 1.1-3.2 1.1h-25.8c-1.1 0-2.1 0-3.2-1.1s-1.1-2.1-1.1-3.2l7.5-60.1c-5.4-3.2-7.5-8.6-7.5-15s3.2-11.8 8.6-15c1.1-19.3 5.4-34.3 13.9-45l-46.1-15c-2.1-1.1-3.2-2.1-3.2-4.3 0-2.2 1.1-3.2 3.2-4.3L364.9-185h2.2l154.4 48.3c2.2 0 3.2 2.1 3.2 4.2z"/></svg>