<?xml version="1.0" encoding="utf-8"?>
<!DOCTYPE svg PUBLIC "-//W3C//DTD SVG 1.1//EN" "http://www.w3.org/Graphics/SVG/1.1/DTD/svg11.dtd">
<svg version="1.1" xmlns="http://www.w3.org/2000/svg" xmlns:xlink="http://www.w3.org/1999/xlink" x="0px" y="0px"
	 viewBox="0 0 300 300" enable-background="new 0 0 300 300" xml:space="preserve">
<g>
	<path fill="#F1F1F5" d="M152,84c23.7,0,47.3,0,71,0c6.7,0,7,0.3,7,7.2c0,33,0,66,0,99c0,6.8-0.3,7.1-7,7.1c-22,0-44,0.1-66-0.1
		c-4.4,0-5.5,1.1-4.3,5.4c1.3,4.6,1.7,9.5,2.6,14.2c0.5,2.4,0,4.5-2.6,5.1c-2.8,0.6-4-1.3-4.4-3.7c-2.4-12.4-4.7-24.9-6.9-37.3
		c-0.5-3.1,1-4.7,4.1-4.9c0.2,0,0.3,0,0.5,0c9.7,2.2,15.5-3,20.4-10.4c2.5-3.7,5.7-6.9,8.6-10.4c1.1-1.4,2.8-3,0.8-4.7
		c-2.1-1.7-3.6,0-4.9,1.6c-4,4.9-8.2,9.6-12.1,14.6c-2.3,3-4.9,4.4-8.8,4.2c-10.5-0.3-21,0.1-31.5-0.2c-7.3-0.1-12,3-14.7,9.6
		c-3.7,8.8-6.3,17.9-9.1,27c-0.6,1.9-0.6,3.5,1.3,4.2c2.5,0.9,3.2-1.2,3.7-3c2.4-8.3,5.3-16.5,8.4-24.6c0.9-2.5,1.8-5.6,5.4-4.4
		c3.2,1.1,2.5,3.8,2,6.3c-1.9,10.1-3.7,20.3-5.5,30.5c-0.4,2.1-0.5,4.5-3,5.3c-2.4,0.8-3.7-0.7-4.7-2.7c-0.8-1.6-1.9-0.6-3-0.4
		c-8.8,1.3-13.9-4.7-11.6-13.4c2.2-8.1,2.2-8.1-6.3-8.1c-7.3,0-7.5-0.1-7.5-7.7c0-32.8,0-65.7,0-98.5c0-6.8,0.3-7.1,7-7.1
		C104.7,84,128.4,84,152,84z M152.2,91.1c-22,0-44,0.1-66-0.1c-4.2,0-5.2,1.2-5.2,5.3c0.2,28.7,0.1,57.3,0.1,86c0,8.2,0,8.1,8,7.8
		c2.3-0.1,3.6-0.7,4.3-3c0.9-3,2.2-5.9,3.3-8.9c3.9-10,11.2-14.8,22-14.7c9.7,0.1,19.3-0.1,29,0.1c2.9,0,5-0.8,6.8-3.2
		c3.6-4.6,7.4-9,11.2-13.4c4.6-5.3,10.3-6.1,14.9-2.2c4.4,3.8,4.6,9.4,0.3,14.6c-4.5,5.5-9.4,10.9-13.7,16.5
		c-3.7,4.9-7.9,8-14.3,7.1c-3-0.4-3.5,0.8-3.1,3.7c0.4,3,1.9,3.3,4.4,3.3c21.5-0.1,43-0.1,64.5,0c3.6,0,4.4-1.2,4.4-4.6
		c-0.1-30-0.1-60,0-90c0-3.9-1.3-4.7-4.9-4.6C196.1,91.2,174.2,91.1,152.2,91.1z"/>
	<path fill="#F1F1F5" d="M128.2,160c-9.3,0-16.9-7.3-17-16.5c-0.2-9.3,7.8-17.2,17.1-17.1c9.2,0.1,16.8,7.7,16.8,16.9
		C144.9,152.6,137.5,160,128.2,160z M137.8,143.1c-0.1-5.4-4.7-9.5-10.2-9.3c-5.2,0.2-9.3,4.6-9.2,9.7c0.1,5.1,4.5,9.4,9.6,9.4
		C133.3,153,137.9,148.3,137.8,143.1z"/>
	<path fill="#F1F1F5" d="M185.4,130c-8.5,0-17,0-25.5,0c-2.8,0-5.8-0.2-5.7-3.9c0.1-3.4,3.1-3.3,5.7-3.3c17.3,0,34.6,0,52,0
		c2.6,0,5.5,0,5.7,3.3c0.1,3.7-2.9,3.9-5.7,3.8C203.1,130,194.2,130,185.4,130z"/>
	<path fill="#F1F1F5" d="M158.6,112c-7.1,0-14.3,0-21.4,0c-2.5,0-5-0.2-5.1-3.4c-0.2-3.5,2.5-3.8,5.2-3.8c14.3,0,28.6,0,42.9,0
		c2.5,0,4.9,0.4,4.9,3.6c0,3.1-2.4,3.6-4.9,3.6C172.9,112,165.7,112,158.6,112z"/>
</g>
</svg>
