<?xml version="1.0" encoding="utf-8"?>

<!DOCTYPE svg PUBLIC "-//W3C//DTD SVG 1.1//EN" "http://www.w3.org/Graphics/SVG/1.1/DTD/svg11.dtd">
<svg version="1.1" id="Layer_1" xmlns="http://www.w3.org/2000/svg" xmlns:xlink="http://www.w3.org/1999/xlink" x="0px" y="0px"
	 viewBox="116.1 -329.4 500 500" enable-background="new 116.1 -329.4 500 500" xml:space="preserve">
<text opacity="0" font-family="'MyriadPro-Regular'" font-size="1">a</text>
<path fill="#F1F1F5" d="M451.8-88.5l2.1,43.9c0,6.4-3.2,11.8-11.8,17.1c-7.5,5.4-18.3,9.6-32.2,12.9C396-11.4,381-10.2,366-10.2
	s-31-1.1-43.9-4.3s-24.7-7.5-32.2-12.9c-7.5-5.4-11.8-11.8-11.8-17.1l2.1-43.9l79.5,24.6c2.1,1.1,4.3,1.1,6.4,1.1s4.3,0,6.4-1.1
	L451.8-88.5L451.8-88.5z M524.7-132.5c0,2.1-1.1,3.2-3.2,4.3L367.2-79.9h-1.1c-1.1,0-1.1,0-1.1,0L275-108.9
	c-4.3,3.2-7.5,8.6-9.6,16.1c-3.2,6.4-4.3,15-5.4,24.7c5.4,3.2,8.6,8.6,8.6,15s-2.1,10.8-7.5,15l7.5,60.1c0,1.1,0,2.1-1.1,3.2
	s-2.1,1.1-3.2,1.1h-25.8c-1.1,0-2.1,0-3.2-1.1s-1.1-2.1-1.1-3.2l7.5-60.1c-5.4-3.2-7.5-8.6-7.5-15s3.2-11.8,8.6-15
	c1.1-19.3,5.4-34.3,13.9-45l-46.1-15c-2.1-1.1-3.2-2.1-3.2-4.3c0-2.2,1.1-3.2,3.2-4.3L364.9-185h1.1c1.1,0,1.1,0,1.1,0l154.4,48.3
	C523.7-136.7,524.7-134.6,524.7-132.5L524.7-132.5L524.7-132.5z"/>
</svg>
