<svg xmlns="http://www.w3.org/2000/svg" viewBox="57.7 -176.3 500 500" enable-background="new 57.7 -176.3 500 500"><path d="M307.8-47.5h125c11.8 0 12.3.5 12.3 12.7v174.2c0 12-.5 12.5-12.3 12.5-38.7 0-77.4.2-116.2-.2-7.7 0-9.7 1.9-7.6 9.5 2.3 8.1 3 16.7 4.6 25 .9 4.2 0 7.9-4.6 9-4.9 1.1-7-2.3-7.7-6.5-4.2-21.8-8.3-43.8-12.1-65.6-.9-5.5 1.8-8.3 7.2-8.6h.9c17.1 3.9 27.3-5.3 35.9-18.3 4.4-6.5 10-12.1 15.1-18.3 1.9-2.5 4.9-5.3 1.4-8.3-3.7-3-6.3 0-8.6 2.8-7 8.6-14.4 16.9-21.3 25.7-4 5.3-8.6 7.7-15.5 7.4-18.5-.5-37 .2-55.4-.4-12.8-.2-21.1 5.3-25.9 16.9-6.5 15.5-11.1 31.5-16 47.5-1.1 3.3-1.1 6.2 2.3 7.4 4.4 1.6 5.6-2.1 6.5-5.3 4.2-14.6 9.3-29 14.8-43.3 1.6-4.4 3.2-9.9 9.5-7.7 5.6 1.9 4.4 6.7 3.5 11.1-3.3 17.8-6.5 35.7-9.7 53.7-.7 3.7-.9 7.9-5.3 9.3-4.2 1.4-6.5-1.2-8.3-4.8-1.4-2.8-3.3-1.1-5.3-.7-15.5 2.3-24.5-8.3-20.4-23.6 3.9-14.3 3.9-14.3-11.1-14.3-12.8 0-13.2-.2-13.2-13.6V-35.7c0-12 .5-12.5 12.3-12.5 42 .7 83.7.7 125.2.7zm.4 12.5c-38.7 0-77.4.2-116.2-.2-7.4 0-9.2 2.1-9.2 9.3.4 50.5.2 100.9.2 151.4 0 14.4 0 14.3 14.1 13.7 4-.2 6.3-1.2 7.6-5.3 1.6-5.3 3.9-10.4 5.8-15.7 6.9-17.6 19.7-26 38.7-25.9 17.1.2 34-.2 51 .2 5.1 0 8.8-1.4 12-5.6 6.3-8.1 13-15.8 19.7-23.6 8.1-9.3 18.1-10.7 26.2-3.9 7.7 6.7 8.1 16.5.5 25.7-7.9 9.7-16.5 19.2-24.1 29-6.5 8.6-13.9 14.1-25.2 12.5-5.3-.7-6.2 1.4-5.5 6.5.7 5.3 3.3 5.8 7.7 5.8 37.8-.2 75.7-.2 113.5 0 6.3 0 7.7-2.1 7.7-8.1-.2-52.8-.2-105.6 0-158.4 0-6.9-2.3-8.3-8.6-8.1-38.7.8-77.2.7-115.9.7zM265.9 86.2c-16.4 0-29.7-12.8-29.9-29-.4-16.4 13.7-30.3 30.1-30.1 16.2.2 29.6 13.6 29.6 29.7-.4 16.4-13.4 29.4-29.8 29.4zm16.9-29.7c-.2-9.5-8.3-16.7-18-16.4-9.2.4-16.4 8.1-16.2 17.1.2 9 7.9 16.5 16.9 16.5 9.4.2 17.5-8.1 17.3-17.2zm83.8-23.1h-44.9c-4.9 0-10.2-.4-10-6.9.2-6 5.5-5.8 10-5.8h91.5c4.6 0 9.7 0 10 5.8.2 6.5-5.1 6.9-10 6.7-15.5.2-31.1.2-46.6.2zM319.4 1.7h-37.7c-4.4 0-8.8-.4-9-6-.4-6.2 4.4-6.7 9.2-6.7h75.5c4.4 0 8.6.7 8.6 6.3 0 5.5-4.2 6.3-8.6 6.3-12.8.1-25.5.1-38 .1z" fill="#F1F1F5"/></svg>