<?xml version="1.0" encoding="utf-8"?>
<!DOCTYPE svg PUBLIC "-//W3C//DTD SVG 1.1//EN" "http://www.w3.org/Graphics/SVG/1.1/DTD/svg11.dtd">
<svg version="1.1" id="Layer_1" xmlns:sketch="http://www.bohemiancoding.com/sketch/ns"
	 xmlns="http://www.w3.org/2000/svg" xmlns:xlink="http://www.w3.org/1999/xlink" x="0px" y="0px" viewBox="0 0 52 52"
	 enable-background="new 0 0 52 52" xml:space="preserve">
<g transform="translate(12.000000, 17.000000)">
  <path id="_xF19D_" fill="#F1F1F5" d="M22.8,10l0.2,4.1c0,0.6-0.3,1.1-1.1,1.6c-0.7,0.5-1.7,0.9-3,1.2
    c-1.3,0.3-2.7,0.4-4.1,0.4s-2.9-0.1-4.1-0.4s-2.3-0.7-3-1.2c-0.7-0.5-1.1-1.1-1.1-1.6L6.8,10l7.4,2.3c0.2,0.1,0.4,0.1,0.6,0.1
    s0.4,0,0.6-0.1L22.8,10L22.8,10z M29.6,5.9c0,0.2-0.1,0.3-0.3,0.4l-14.4,4.5c0,0-0.1,0-0.1,0c-0.1,0-0.1,0-0.1,0L6.3,8.1
    C5.9,8.4,5.6,8.9,5.4,9.6C5.1,10.2,5,11,4.9,11.9c0.5,0.3,0.8,0.8,0.8,1.4c0,0.6-0.2,1-0.7,1.4l0.7,5.6c0,0.1,0,0.2-0.1,0.3
    c-0.1,0.1-0.2,0.1-0.3,0.1H2.9c-0.1,0-0.2,0-0.3-0.1c-0.1-0.1-0.1-0.2-0.1-0.3l0.7-5.6c-0.5-0.3-0.7-0.8-0.7-1.4
    c0-0.6,0.3-1.1,0.8-1.4c0.1-1.8,0.5-3.2,1.3-4.2L0.3,6.3C0.1,6.2,0,6.1,0,5.9s0.1-0.3,0.3-0.4l14.4-4.5c0,0,0.1,0,0.1,0
    c0.1,0,0.1,0,0.1,0l14.4,4.5C29.5,5.5,29.6,5.7,29.6,5.9L29.6,5.9L29.6,5.9z"/>
</g>
</svg>
