<?xml version="1.0" encoding="utf-8"?>

<!DOCTYPE svg PUBLIC "-//W3C//DTD SVG 1.1//EN" "http://www.w3.org/Graphics/SVG/1.1/DTD/svg11.dtd">
<svg version="1.1" id="Layer_1" xmlns="http://www.w3.org/2000/svg" xmlns:xlink="http://www.w3.org/1999/xlink" x="0px" y="0px"
	 viewBox="57.7 -176.3 500 500" enable-background="new 57.7 -176.3 500 500" xml:space="preserve">
<text opacity="0" font-family="'MyriadPro-Regular'" font-size="1">a</text>
<g>
	<path fill="#F1F1F5" d="M307.8-47.5c41.7,0,83.2,0,125,0c11.8,0,12.3,0.5,12.3,12.7c0,58.1,0,116.2,0,174.2
		c0,12-0.5,12.5-12.3,12.5c-38.7,0-77.4,0.2-116.2-0.2c-7.7,0-9.7,1.9-7.6,9.5c2.3,8.1,3,16.7,4.6,25c0.9,4.2,0,7.9-4.6,9
		c-4.9,1.1-7-2.3-7.7-6.5c-4.2-21.8-8.3-43.8-12.1-65.6c-0.9-5.5,1.8-8.3,7.2-8.6c0.4,0,0.5,0,0.9,0c17.1,3.9,27.3-5.3,35.9-18.3
		c4.4-6.5,10-12.1,15.1-18.3c1.9-2.5,4.9-5.3,1.4-8.3c-3.7-3-6.3,0-8.6,2.8c-7,8.6-14.4,16.9-21.3,25.7c-4,5.3-8.6,7.7-15.5,7.4
		c-18.5-0.5-37,0.2-55.4-0.4c-12.8-0.2-21.1,5.3-25.9,16.9c-6.5,15.5-11.1,31.5-16,47.5c-1.1,3.3-1.1,6.2,2.3,7.4
		c4.4,1.6,5.6-2.1,6.5-5.3c4.2-14.6,9.3-29,14.8-43.3c1.6-4.4,3.2-9.9,9.5-7.7c5.6,1.9,4.4,6.7,3.5,11.1
		c-3.3,17.8-6.5,35.7-9.7,53.7c-0.7,3.7-0.9,7.9-5.3,9.3c-4.2,1.4-6.5-1.2-8.3-4.8c-1.4-2.8-3.3-1.1-5.3-0.7
		c-15.5,2.3-24.5-8.3-20.4-23.6c3.9-14.3,3.9-14.3-11.1-14.3c-12.8,0-13.2-0.2-13.2-13.6c0-57.7,0-115.6,0-173.4
		c0-12,0.5-12.5,12.3-12.5C224.6-47.5,266.3-47.5,307.8-47.5z M308.2-35c-38.7,0-77.4,0.2-116.2-0.2c-7.4,0-9.2,2.1-9.2,9.3
		C183.2,24.6,183,75,183,125.5c0,14.4,0,14.3,14.1,13.7c4-0.2,6.3-1.2,7.6-5.3c1.6-5.3,3.9-10.4,5.8-15.7
		c6.9-17.6,19.7-26,38.7-25.9c17.1,0.2,34-0.2,51,0.2c5.1,0,8.8-1.4,12-5.6c6.3-8.1,13-15.8,19.7-23.6c8.1-9.3,18.1-10.7,26.2-3.9
		c7.7,6.7,8.1,16.5,0.5,25.7c-7.9,9.7-16.5,19.2-24.1,29c-6.5,8.6-13.9,14.1-25.2,12.5c-5.3-0.7-6.2,1.4-5.5,6.5
		c0.7,5.3,3.3,5.8,7.7,5.8c37.8-0.2,75.7-0.2,113.5,0c6.3,0,7.7-2.1,7.7-8.1c-0.2-52.8-0.2-105.6,0-158.4c0-6.9-2.3-8.3-8.6-8.1
		C385.4-34.9,346.9-35,308.2-35z"/>
	<path fill="#F1F1F5" d="M265.9,86.2c-16.4,0-29.7-12.8-29.9-29c-0.4-16.4,13.7-30.3,30.1-30.1c16.2,0.2,29.6,13.6,29.6,29.7
		C295.3,73.2,282.3,86.2,265.9,86.2z M282.8,56.5c-0.2-9.5-8.3-16.7-18-16.4c-9.2,0.4-16.4,8.1-16.2,17.1c0.2,9,7.9,16.5,16.9,16.5
		C274.9,73.9,283,65.6,282.8,56.5z"/>
	<path fill="#F1F1F5" d="M366.6,33.4c-15,0-29.9,0-44.9,0c-4.9,0-10.2-0.4-10-6.9c0.2-6,5.5-5.8,10-5.8c30.4,0,60.9,0,91.5,0
		c4.6,0,9.7,0,10,5.8c0.2,6.5-5.1,6.9-10,6.7C397.7,33.4,382.1,33.4,366.6,33.4z"/>
	<path fill="#F1F1F5" d="M319.4,1.7c-12.5,0-25.2,0-37.7,0c-4.4,0-8.8-0.4-9-6c-0.4-6.2,4.4-6.7,9.2-6.7c25.2,0,50.3,0,75.5,0
		c4.4,0,8.6,0.7,8.6,6.3c0,5.5-4.2,6.3-8.6,6.3C344.6,1.7,331.9,1.7,319.4,1.7z"/>
</g>
</svg>
