<svg xmlns="http://www.w3.org/2000/svg" viewBox="56 -183.3 500 500" enable-background="new 56 -183.3 500 500"><path fill="#F1F1F5" d="M306.7-58.3c32.2 0 64.6.2 96.8-.2 5.5 0 8.3 1.6 10.6 6.7 14.6 31.7 29.6 63.2 44.4 94.7 7.6 16.4-1.9 31.5-19.9 31-6.7-.2-5.5 3.5-5.5 7.2 0 33.5-.2 66.9.2 100.4 0 7.7-1.6 11.1-10 10.4-10.2-.7-20.6-.4-30.8-.2-5.5.2-7-1.8-7-7 .2-19-.2-38.2.2-57.2.2-6-1.4-8.3-7.7-8.1-21.5.4-42.8.4-64.3 0-5.8 0-7.6 1.8-7.6 7.6.4 18.8-.2 37.5.2 56.3.2 6.3-1.2 8.6-8.1 8.6-37-.4-73.9-.4-110.9 0-7 0-8.1-2.5-8.1-8.6.2-33.8 0-67.4.2-101.2 0-6.3-.9-8.5-8.3-7.7-14.8 1.4-23.2-10.4-19.2-25.5 1.2-4.8 3.7-9.3 5.8-13.7 13.2-28.3 26.8-56.7 39.8-85.2 2.6-5.8 5.8-8.1 12.5-8.1 32.1.1 64.3-.2 96.7-.2zM187.9 52.9c0 15.7 4.8 21.5 16.5 21.3 11.8 0 16.9-6 16.7-20.4-.2-7.2 1.4-13.9 3.5-20.6 6.2-19 11.8-38 17.8-57 4.6-14.4 4.4-14.1-11.1-14.6-7.9-.4-12 1.9-14.8 9.7-7.9 21.7-16.7 43.1-25.4 64.6-2.1 6-3.9 11.8-3.2 17zm192.8-91.2c-15.3 0-14.8-.2-11.3 13.4 7.7 29 21.8 56.3 22.5 87.1.2 7.7 7.4 12.1 16.7 11.8 9.2-.2 15-5.1 15.5-13.2.7-9.2 0-18-3.7-26.6-8.6-20.2-16.6-40.6-24-61.2-3.2-8.8-7.4-13.5-15.7-11.3zm-98.3 0c-13.7.5-12.5-3.2-15.3 13.7C265-12 262.7.3 261 12.8c-2.3 15.7-6.7 31-5.6 47 .7 9.7 7 14.8 17.4 14.4 9.9-.4 15.3-5.5 15.7-15 .2-6.7.4-13.6.9-20.2 1.8-23.4 3.7-46.8 5.8-70.1.5-5.3-1.1-7.7-6.7-7.2-1.8.2-3.9 0-6.1 0zm74.5 85.8c-3-19-6.9-43.7-11.1-68.1-3-17.6-3.2-17.4-21.1-17.3-6.2 0-7.7 1.8-7.2 8.3 2.1 28.9 6 57.7 6.2 86.8.2 12.1 6.9 18.1 19 17.1 10.5-1.3 14.2-6.6 14.2-26.8zM229.3 104c-21.7 0-21.7 0-21.7 22 0 21.1 0 21.1 21.7 21.1 21.5 0 21.5 0 21.5-21.7 0-21.4 0-21.4-21.5-21.4z"/></svg>