<?xml version="1.0" encoding="utf-8"?>

<!DOCTYPE svg PUBLIC "-//W3C//DTD SVG 1.1//EN" "http://www.w3.org/Graphics/SVG/1.1/DTD/svg11.dtd">
<svg version="1.1" id="Layer_1" xmlns="http://www.w3.org/2000/svg" xmlns:xlink="http://www.w3.org/1999/xlink" x="0px" y="0px"
	 viewBox="56 -183.3 500 500" enable-background="new 56 -183.3 500 500" xml:space="preserve">
<text opacity="0" font-family="'MyriadPro-Regular'" font-size="1">a</text>
<g>
	<path fill="#F1F1F5" d="M306.7-58.3c32.2,0,64.6,0.2,96.8-0.2c5.5,0,8.3,1.6,10.6,6.7c14.6,31.7,29.6,63.2,44.4,94.7
		c7.6,16.4-1.9,31.5-19.9,31c-6.7-0.2-5.5,3.5-5.5,7.2c0,33.5-0.2,66.9,0.2,100.4c0,7.7-1.6,11.1-10,10.4
		c-10.2-0.7-20.6-0.4-30.8-0.2c-5.5,0.2-7-1.8-7-7c0.2-19-0.2-38.2,0.2-57.2c0.2-6-1.4-8.3-7.7-8.1c-21.5,0.4-42.8,0.4-64.3,0
		c-5.8,0-7.6,1.8-7.6,7.6c0.4,18.8-0.2,37.5,0.2,56.3c0.2,6.3-1.2,8.6-8.1,8.6c-37-0.4-73.9-0.4-110.9,0c-7,0-8.1-2.5-8.1-8.6
		c0.2-33.8,0-67.4,0.2-101.2c0-6.3-0.9-8.5-8.3-7.7c-14.8,1.4-23.2-10.4-19.2-25.5c1.2-4.8,3.7-9.3,5.8-13.7
		c13.2-28.3,26.8-56.7,39.8-85.2c2.6-5.8,5.8-8.1,12.5-8.1C242.1-58,274.3-58.3,306.7-58.3z M187.9,52.9c0,15.7,4.8,21.5,16.5,21.3
		c11.8,0,16.9-6,16.7-20.4c-0.2-7.2,1.4-13.9,3.5-20.6c6.2-19,11.8-38,17.8-57c4.6-14.4,4.4-14.1-11.1-14.6
		c-7.9-0.4-12,1.9-14.8,9.7c-7.9,21.7-16.7,43.1-25.4,64.6C189,41.9,187.2,47.7,187.9,52.9z M380.7-38.3c-15.3,0-14.8-0.2-11.3,13.4
		c7.7,29,21.8,56.3,22.5,87.1c0.2,7.7,7.4,12.1,16.7,11.8c9.2-0.2,15-5.1,15.5-13.2c0.7-9.2,0-18-3.7-26.6
		C411.8,14,403.8-6.4,396.4-27C393.2-35.8,389-40.5,380.7-38.3z M282.4-38.3c-13.7,0.5-12.5-3.2-15.3,13.7
		C265-12,262.7,0.3,261,12.8c-2.3,15.7-6.7,31-5.6,47c0.7,9.7,7,14.8,17.4,14.4c9.9-0.4,15.3-5.5,15.7-15c0.2-6.7,0.4-13.6,0.9-20.2
		c1.8-23.4,3.7-46.8,5.8-70.1c0.5-5.3-1.1-7.7-6.7-7.2C286.7-38.1,284.6-38.3,282.4-38.3z M356.9,47.5c-3-19-6.9-43.7-11.1-68.1
		c-3-17.6-3.2-17.4-21.1-17.3c-6.2,0-7.7,1.8-7.2,8.3c2.1,28.9,6,57.7,6.2,86.8c0.2,12.1,6.9,18.1,19,17.1
		C353.2,73,356.9,67.7,356.9,47.5z M229.3,104c-21.7,0-21.7,0-21.7,22c0,21.1,0,21.1,21.7,21.1c21.5,0,21.5,0,21.5-21.7
		C250.8,104,250.8,104,229.3,104z"/>
</g>
</svg>
