<?xml version="1.0" encoding="utf-8"?>
<!DOCTYPE svg PUBLIC "-//W3C//DTD SVG 1.1//EN" "http://www.w3.org/Graphics/SVG/1.1/DTD/svg11.dtd">
<svg version="1.1" xmlns="http://www.w3.org/2000/svg" xmlns:xlink="http://www.w3.org/1999/xlink" x="0px" y="0px"
	 viewBox="0 0 300 299.9" enable-background="new 0 0 300 299.9" xml:space="preserve">
<g>
	<path fill="#F1F1F5" d="M150.4,75.9c18.3,0,36.7,0.1,55-0.1c3.1,0,4.7,0.9,6,3.8c8.3,18,16.8,35.9,25.2,53.8
		c4.3,9.3-1.1,17.9-11.3,17.6c-3.8-0.1-3.1,2-3.1,4.1c0,19-0.1,38,0.1,57c0,4.4-0.9,6.3-5.7,5.9c-5.8-0.4-11.7-0.2-17.5-0.1
		c-3.1,0.1-4-1-4-4c0.1-10.8-0.1-21.7,0.1-32.5c0.1-3.4-0.8-4.7-4.4-4.6c-12.2,0.2-24.3,0.2-36.5,0c-3.3,0-4.3,1-4.3,4.3
		c0.2,10.7-0.1,21.3,0.1,32c0.1,3.6-0.7,4.9-4.6,4.9c-21-0.2-42-0.2-63,0c-4,0-4.6-1.4-4.6-4.9c0.1-19.2,0-38.3,0.1-57.5
		c0-3.6-0.5-4.8-4.7-4.4c-8.4,0.8-13.2-5.9-10.9-14.5c0.7-2.7,2.1-5.3,3.3-7.8c7.5-16.1,15.2-32.2,22.6-48.4
		c1.5-3.3,3.3-4.6,7.1-4.6C113.7,76.1,132,75.9,150.4,75.9z M82.9,139.1c0,8.9,2.7,12.2,9.4,12.1c6.7,0,9.6-3.4,9.5-11.6
		c-0.1-4.1,0.8-7.9,2-11.7c3.5-10.8,6.7-21.6,10.1-32.4c2.6-8.2,2.5-8-6.3-8.3c-4.5-0.2-6.8,1.1-8.4,5.5
		c-4.5,12.3-9.5,24.5-14.4,36.7C83.5,132.8,82.5,136.1,82.9,139.1z M192.4,87.3c-8.7,0-8.4-0.1-6.4,7.6c4.4,16.5,12.4,32,12.8,49.5
		c0.1,4.4,4.2,6.9,9.5,6.7c5.2-0.1,8.5-2.9,8.8-7.5c0.4-5.2,0-10.2-2.1-15.1c-4.9-11.5-9.5-23.1-13.7-34.8
		C199.5,88.7,197.1,86,192.4,87.3z M136.6,87.3c-7.8,0.3-7.1-1.8-8.7,7.8c-1.2,7.1-2.5,14.1-3.5,21.2c-1.3,8.9-3.8,17.6-3.2,26.7
		c0.4,5.5,4,8.4,9.9,8.2c5.6-0.2,8.7-3.1,8.9-8.5c0.1-3.8,0.2-7.7,0.5-11.5c1-13.3,2.1-26.6,3.3-39.8c0.3-3-0.6-4.4-3.8-4.1
		C139,87.4,137.8,87.3,136.6,87.3z M178.9,136c-1.7-10.8-3.9-24.8-6.3-38.7c-1.7-10-1.8-9.9-12-9.8c-3.5,0-4.4,1-4.1,4.7
		c1.2,16.4,3.4,32.8,3.5,49.3c0.1,6.9,3.9,10.3,10.8,9.7C176.8,150.5,178.9,147.5,178.9,136z M106.4,168.1c-12.3,0-12.3,0-12.3,12.5
		c0,12,0,12,12.3,12c12.2,0,12.2,0,12.2-12.3C118.6,168.1,118.6,168.1,106.4,168.1z"/>
</g>
</svg>
