<?xml version="1.0" encoding="UTF-8" standalone="no"?>
<svg width="11px" height="12px" viewBox="0 0 11 12" version="1.1" xmlns="http://www.w3.org/2000/svg" xmlns:xlink="http://www.w3.org/1999/xlink" xmlns:sketch="http://www.bohemiancoding.com/sketch/ns">
    <!-- Generator: Sketch 3.2.2 (9983) - http://www.bohemiancoding.com/sketch -->
    <title>delete</title>
    <desc>Created with Sketch.</desc>
    <defs></defs>
    <g id="Segmented-Control" stroke="none" stroke-width="1" fill="none" fill-rule="evenodd" sketch:type="MSPage">
        <g id="Editor---Edit-13" sketch:type="MSArtboardGroup" transform="translate(-33.000000, -248.000000)" fill="#DBF1FF">
            <path d="M37,252.75 L37,257.25 C37,257.322917 36.9765627,257.382812 36.9296875,257.429688 C36.8828123,257.476563 36.822917,257.5 36.75,257.5 L36.25,257.5 C36.177083,257.5 36.1171877,257.476563 36.0703125,257.429688 C36.0234373,257.382812 36,257.322917 36,257.25 L36,252.75 C36,252.677083 36.0234373,252.617188 36.0703125,252.570312 C36.1171877,252.523437 36.177083,252.5 36.25,252.5 L36.75,252.5 C36.822917,252.5 36.8828123,252.523437 36.9296875,252.570312 C36.9765627,252.617188 37,252.677083 37,252.75 L37,252.75 Z M39,252.75 L39,257.25 C39,257.322917 38.9765627,257.382812 38.9296875,257.429688 C38.8828123,257.476563 38.822917,257.5 38.75,257.5 L38.25,257.5 C38.177083,257.5 38.1171877,257.476563 38.0703125,257.429688 C38.0234373,257.382812 38,257.322917 38,257.25 L38,252.75 C38,252.677083 38.0234373,252.617188 38.0703125,252.570312 C38.1171877,252.523437 38.177083,252.5 38.25,252.5 L38.75,252.5 C38.822917,252.5 38.8828123,252.523437 38.9296875,252.570312 C38.9765627,252.617188 39,252.677083 39,252.75 L39,252.75 Z M41,252.75 L41,257.25 C41,257.322917 40.9765627,257.382812 40.9296875,257.429688 C40.8828123,257.476563 40.822917,257.5 40.75,257.5 L40.25,257.5 C40.177083,257.5 40.1171877,257.476563 40.0703125,257.429688 C40.0234373,257.382812 40,257.322917 40,257.25 L40,252.75 C40,252.677083 40.0234373,252.617188 40.0703125,252.570312 C40.1171877,252.523437 40.177083,252.5 40.25,252.5 L40.75,252.5 C40.822917,252.5 40.8828123,252.523437 40.9296875,252.570312 C40.9765627,252.617188 41,252.677083 41,252.75 L41,252.75 Z M42,258.40625 L42,251 L35,251 L35,258.40625 C35,258.520834 35.018229,258.626302 35.0546875,258.722656 C35.091146,258.819011 35.1289061,258.889323 35.1679688,258.933594 C35.2070314,258.977865 35.2343749,259 35.25,259 L41.75,259 C41.7656251,259 41.7929686,258.977865 41.8320312,258.933594 C41.8710939,258.889323 41.908854,258.819011 41.9453125,258.722656 C41.981771,258.626302 42,258.520834 42,258.40625 L42,258.40625 Z M36.75,250 L40.25,250 L39.875,249.085938 C39.8385415,249.039062 39.7942711,249.010417 39.7421875,249 L37.265625,249 C37.2135414,249.010417 37.169271,249.039062 37.1328125,249.085938 L36.75,250 Z M44,250.25 L44,250.75 C44,250.822917 43.9765627,250.882812 43.9296875,250.929688 C43.8828123,250.976563 43.822917,251 43.75,251 L43,251 L43,258.40625 C43,258.838544 42.8776054,259.212238 42.6328125,259.527344 C42.3880196,259.842449 42.0937517,260 41.75,260 L35.25,260 C34.9062483,260 34.6119804,259.847658 34.3671875,259.542969 C34.1223946,259.23828 34,258.869794 34,258.4375 L34,251 L33.25,251 C33.177083,251 33.1171877,250.976563 33.0703125,250.929688 C33.0234373,250.882812 33,250.822917 33,250.75 L33,250.25 C33,250.177083 33.0234373,250.117188 33.0703125,250.070312 C33.1171877,250.023437 33.177083,250 33.25,250 L35.6640625,250 L36.2109375,248.695312 C36.2890629,248.502603 36.4296865,248.338542 36.6328125,248.203125 C36.8359385,248.067708 37.0416656,248 37.25,248 L39.75,248 C39.9583344,248 40.1640615,248.067708 40.3671875,248.203125 C40.5703135,248.338542 40.7109371,248.502603 40.7890625,248.695312 L41.3359375,250 L43.75,250 C43.822917,250 43.8828123,250.023437 43.9296875,250.070312 C43.9765627,250.117188 44,250.177083 44,250.25 L44,250.25 Z" id="delete" sketch:type="MSShapeGroup"></path>
        </g>
    </g>
</svg>