<svg width="10" height="11" viewBox="0 0 10 11" xmlns="http://www.w3.org/2000/svg"><title>delete</title><desc>Created with Sketch.</desc><g fill="none" fill-rule="evenodd"><g fill="#5BA1E8"><g><g><path d="M3.636 4.354V8.48c0 .066-.02.12-.064.164-.042.043-.097.064-.163.064h-.455c-.067 0-.12-.02-.164-.064-.04-.043-.063-.098-.063-.165V4.353c0-.067.022-.122.064-.165.044-.044.098-.065.165-.065h.454c.065 0 .12.02.162.064.043.042.064.097.064.164zm1.82 0V8.48c0 .066-.023.12-.065.164-.042.043-.096.064-.163.064h-.454c-.067 0-.12-.02-.164-.064-.043-.043-.065-.098-.065-.165V4.353c0-.067.022-.122.064-.165.042-.044.096-.065.163-.065h.454c.067 0 .12.02.164.064.043.042.065.097.065.164zm1.817 0V8.48c0 .066-.022.12-.064.164-.044.043-.098.064-.165.064H6.59c-.065 0-.12-.02-.162-.064-.043-.043-.064-.098-.064-.165V4.353c0-.067.02-.122.064-.165.042-.044.097-.065.163-.065h.455c.067 0 .12.02.164.064.04.042.063.097.063.164zm.91 5.185V2.75H1.817v6.79c0 .104.017.2.05.29.033.087.067.152.103.192.036.04.06.06.075.06h5.91c.014 0 .04-.02.074-.06.035-.04.07-.105.102-.193.033-.09.05-.186.05-.29zM3.408 1.832h3.18L6.25.995c-.033-.043-.073-.07-.12-.078H3.877c-.048.01-.088.035-.12.078l-.35.838zm6.59.23v.458c0 .068-.02.123-.064.166-.043.043-.097.064-.163.064H9.09v6.79c0 .395-.11.738-.333 1.027-.222.29-.49.433-.802.433h-5.91c-.312 0-.58-.14-.802-.42C1.02 10.303.91 9.965.91 9.57V2.75H.226c-.066 0-.12-.02-.163-.064C.02 2.643 0 2.588 0 2.52v-.458c0-.066.02-.12.064-.164.043-.043.097-.065.163-.065h2.195L2.92.637c.07-.176.198-.327.383-.45.184-.125.37-.187.56-.187h2.273c.19 0 .377.062.56.186.186.124.314.275.385.45l.498 1.197h2.195c.066 0 .12.022.163.065.043.043.064.098.064.165z"/></g></g></g></g></svg>
