<svg width="11" height="12" viewBox="0 0 11 12" xmlns="http://www.w3.org/2000/svg"><title>delete</title><desc>Created with Sketch.</desc><path d="M4 4.75v4.5c0 .073-.023.133-.07.18-.047.047-.107.07-.18.07h-.5c-.073 0-.133-.023-.18-.07-.047-.047-.07-.107-.07-.18v-4.5c0-.073.023-.133.07-.18.047-.047.107-.07.18-.07h.5c.073 0 .133.023.18.07.047.047.07.107.07.18zm2 0v4.5c0 .073-.023.133-.07.18-.047.047-.107.07-.18.07h-.5c-.073 0-.133-.023-.18-.07-.047-.047-.07-.107-.07-.18v-4.5c0-.073.023-.133.07-.18.047-.047.107-.07.18-.07h.5c.073 0 .133.023.18.07.047.047.07.107.07.18zm2 0v4.5c0 .073-.023.133-.07.18-.047.047-.107.07-.18.07h-.5c-.073 0-.133-.023-.18-.07-.047-.047-.07-.107-.07-.18v-4.5c0-.073.023-.133.07-.18.047-.047.107-.07.18-.07h.5c.073 0 .133.023.18.07.047.047.07.107.07.18zm1 5.656V3H2v7.406c0 .115.018.22.055.317.036.096.074.166.113.21.04.045.066.067.082.067h6.5c.016 0 .043-.022.082-.066.04-.045.077-.115.113-.21.037-.098.055-.203.055-.318zM3.75 2h3.5l-.375-.914C6.84 1.04 6.795 1.01 6.742 1H4.266c-.052.01-.097.04-.133.086L3.75 2zm7.25.25v.5c0 .073-.023.133-.07.18-.047.047-.107.07-.18.07H10v7.406c0 .433-.122.806-.367 1.12-.245.316-.54.474-.883.474h-6.5c-.344 0-.638-.152-.883-.457C1.122 11.238 1 10.87 1 10.438V3H.25c-.073 0-.133-.023-.18-.07C.023 2.883 0 2.823 0 2.75v-.5c0-.073.023-.133.07-.18C.117 2.023.177 2 .25 2h2.414L3.21.695c.08-.192.22-.356.423-.492C3.836.068 4.043 0 4.25 0h2.5c.208 0 .414.068.617.203.203.136.344.3.422.492L8.334 2h2.414c.072 0 .132.023.18.07.046.047.07.107.07.18z" fill="#DBF1FF" fill-rule="evenodd"/></svg>