<svg width="13" height="12" viewBox="0 0 13 12" xmlns="http://www.w3.org/2000/svg"><title>down</title><desc>Created with Sketch.</desc><path d="M12.586 5.5c0 .276-.096.51-.29.703L7.21 11.297c-.2.193-.44.29-.71.29-.275 0-.51-.097-.702-.29L.71 6.203C.514 6.016.415 5.78.415 5.5c0-.276.1-.513.297-.71l.58-.587c.202-.193.44-.29.71-.29.276 0 .51.097.703.29L5 6.5V1c0-.27.1-.505.297-.703C5.495.1 5.73 0 6 0h1c.27 0 .505.1.703.297C7.9.495 8 .73 8 1v5.5l2.297-2.297c.193-.193.427-.29.703-.29.27 0 .508.097.71.29l.587.586c.193.2.29.44.29.71z" fill="#DBF1FF" fill-rule="evenodd"/></svg>