<?xml version="1.0" encoding="UTF-8" standalone="no"?>
<svg width="13px" height="12px" viewBox="0 0 13 12" version="1.1" xmlns="http://www.w3.org/2000/svg" xmlns:xlink="http://www.w3.org/1999/xlink" xmlns:sketch="http://www.bohemiancoding.com/sketch/ns">
    <!-- Generator: Sketch 3.2.2 (9983) - http://www.bohemiancoding.com/sketch -->
    <title>down</title>
    <desc>Created with Sketch.</desc>
    <defs></defs>
    <g id="Segmented-Control" stroke="none" stroke-width="1" fill="none" fill-rule="evenodd" sketch:type="MSPage">
        <g id="Editor---Edit-13" sketch:type="MSArtboardGroup" transform="translate(-276.000000, -248.000000)" fill="#DBF1FF">
            <path d="M288.585938,253.5 C288.585938,253.776043 288.489584,254.010416 288.296875,254.203125 L283.210938,259.296875 C283.007811,259.489584 282.770835,259.585938 282.5,259.585938 C282.223957,259.585938 281.989584,259.489584 281.796875,259.296875 L276.710938,254.203125 C276.51302,254.015624 276.414062,253.781251 276.414062,253.5 C276.414062,253.223957 276.51302,252.98698 276.710938,252.789062 L277.289062,252.203125 C277.492189,252.010416 277.729165,251.914062 278,251.914062 C278.276043,251.914062 278.510416,252.010416 278.703125,252.203125 L281,254.5 L281,249 C281,248.729165 281.098957,248.494793 281.296875,248.296875 C281.494793,248.098957 281.729165,248 282,248 L283,248 C283.270835,248 283.505207,248.098957 283.703125,248.296875 C283.901043,248.494793 284,248.729165 284,249 L284,254.5 L286.296875,252.203125 C286.489584,252.010416 286.723957,251.914062 287,251.914062 C287.270835,251.914062 287.507811,252.010416 287.710938,252.203125 L288.296875,252.789062 C288.489584,252.992189 288.585938,253.229165 288.585938,253.5 L288.585938,253.5 Z" id="down" sketch:type="MSShapeGroup"></path>
        </g>
    </g>
</svg>