<?xml version="1.0" encoding="UTF-8" standalone="no"?>
<svg width="14px" height="14px" viewBox="0 0 14 14" version="1.1" xmlns="http://www.w3.org/2000/svg" xmlns:xlink="http://www.w3.org/1999/xlink" xmlns:sketch="http://www.bohemiancoding.com/sketch/ns">
    <!-- Generator: Sketch 3.2.2 (9983) - http://www.bohemiancoding.com/sketch -->
    <title>duplicate</title>
    <desc>Created with Sketch.</desc>
    <defs></defs>
    <g id="Segmented-Control" stroke="none" stroke-width="1" fill="none" fill-rule="evenodd" sketch:type="MSPage">
        <g id="Editor---Edit-13" sketch:type="MSArtboardGroup" transform="translate(-92.000000, -247.000000)" fill="#DBF1FF">
            <path d="M105.25,250 C105.458334,250 105.635416,250.072916 105.78125,250.21875 C105.927084,250.364584 106,250.541666 106,250.75 L106,260.25 C106,260.458334 105.927084,260.635416 105.78125,260.78125 C105.635416,260.927084 105.458334,261 105.25,261 L97.75,261 C97.5416656,261 97.3645841,260.927084 97.21875,260.78125 C97.0729159,260.635416 97,260.458334 97,260.25 L97,258 L92.75,258 C92.5416656,258 92.3645841,257.927084 92.21875,257.78125 C92.0729159,257.635416 92,257.458334 92,257.25 L92,252 C92,251.791666 92.0520828,251.562501 92.15625,251.3125 C92.2604172,251.062499 92.3854159,250.864584 92.53125,250.71875 L95.71875,247.53125 C95.8645841,247.385416 96.0624988,247.260417 96.3125,247.15625 C96.5625012,247.052083 96.7916656,247 97,247 L100.25,247 C100.458334,247 100.635416,247.072916 100.78125,247.21875 C100.927084,247.364584 101,247.541666 101,247.75 L101,250.3125 C101.354168,250.104166 101.687498,250 102,250 L105.25,250 Z M101,251.664062 L98.6640625,254 L101,254 L101,251.664062 Z M96,248.664062 L93.6640625,251 L96,251 L96,248.664062 Z M97.53125,253.71875 L100,251.25 L100,248 L97,248 L97,251.25 C97,251.458334 96.9270841,251.635416 96.78125,251.78125 C96.6354159,251.927084 96.4583344,252 96.25,252 L93,252 L93,257 L97,257 L97,255 C97,254.791666 97.0520828,254.562501 97.15625,254.3125 C97.2604172,254.062499 97.3854159,253.864584 97.53125,253.71875 L97.53125,253.71875 Z M105,260 L105,251 L102,251 L102,254.25 C102,254.458334 101.927084,254.635416 101.78125,254.78125 C101.635416,254.927084 101.458334,255 101.25,255 L98,255 L98,260 L105,260 Z" id="duplicate" sketch:type="MSShapeGroup"></path>
        </g>
    </g>
</svg>