<svg width="14" height="14" viewBox="0 0 14 14" xmlns="http://www.w3.org/2000/svg"><title>duplicate</title><desc>Created with Sketch.</desc><path d="M13.25 3c.208 0 .385.073.53.22.147.145.22.322.22.53v9.5c0 .208-.073.385-.22.53-.145.147-.322.22-.53.22h-7.5c-.208 0-.385-.073-.53-.22-.147-.145-.22-.322-.22-.53V11H.75c-.208 0-.385-.073-.53-.22-.147-.145-.22-.322-.22-.53V5c0-.208.052-.437.156-.688.104-.25.23-.447.375-.593L3.72.53c.145-.145.342-.27.592-.374C4.562.052 4.792 0 5 0h3.25c.208 0 .385.073.53.22.147.145.22.322.22.53v2.563c.354-.21.687-.313 1-.313h3.25zM9 4.664L6.664 7H9V4.664zm-5-3L1.664 4H4V1.664zM5.53 6.72L8 4.25V1H5v3.25c0 .208-.073.385-.22.53-.145.147-.322.22-.53.22H1v5h4V8c0-.208.052-.437.156-.688.104-.25.23-.447.375-.593zM13 13V4h-3v3.25c0 .208-.073.385-.22.53-.145.147-.322.22-.53.22H6v5h7z" fill="#DBF1FF" fill-rule="evenodd"/></svg>