<svg width="24" height="24" viewBox="0 0 24 24" xmlns="http://www.w3.org/2000/svg"><title>edit</title><desc>Created with Sketch.</desc><g fill="none" fill-rule="evenodd"><path d="M22.572 8.903L10.71 20.753l-7.784 2.482c-.124-.496-.378-.964-.763-1.348-.384-.385-.852-.64-1.348-.763l2.475-7.79L15.147 1.48l7.425 7.425z" fill="#CDE4FD"/><path d="M15.147 1.478L3.29 13.335l-2.475 7.79c.487.12.943.37 1.324.74L18.834 5.167l-3.69-3.69z" fill="#fff"/><path d="M23.086 8.388l-.53.53-7.424-7.424.53-.53c1.172-1.172 3.07-1.172 4.243 0l3.18 3.182c1.173 1.172 1.173 3.07 0 4.242" fill="#CDE4FD"/><path d="M2.926 23.235l-2.634.755c-.066.02-.136 0-.184-.048-.05-.048-.067-.118-.048-.184l.755-2.634c.49.13.955.387 1.34.772.384.384.64.848.77 1.34" fill="#0C333D"/><path d="M22.556 8.92l-1.575 1.574L13.56 3.07l1.575-1.577 7.424 7.425z" fill="#B8DBFF"/><path d="M20.965 10.51L10.78 20.695c-.088.087-.225.087-.313 0-.082-.083-.106-.207-.06-.316.235-.55.132-1.206-.314-1.65-.44-.44-1.08-.548-1.628-.325-.105.048-.255.03-.358-.07-.098-.1-.13-.242-.077-.365.223-.545.117-1.187-.323-1.627-.44-.44-1.082-.546-1.628-.323-.124.053-.267.02-.36-.072-.11-.11-.126-.255-.077-.363.223-.547.117-1.188-.323-1.628-.445-.446-1.1-.55-1.65-.313-.107.045-.232.02-.314-.06-.088-.09-.088-.226 0-.314L13.54 3.085l7.425 7.425z" fill="#B8DCFF"/><path d="M18.58 8.123L8.276 18.425c-.064-.01-.125-.045-.17-.09-.106-.107-.126-.25-.076-.364.223-.544.117-1.186-.323-1.626-.44-.44-1.082-.546-1.628-.323-.117.05-.26.03-.366-.076-.045-.045-.08-.106-.09-.17L15.927 5.47l2.652 2.653z" fill="#CDE4FD"/><path d="M19.904.963c-1.172-1.17-3.07-1.17-4.242 0l-.53.53 3.688 3.69 2.652-2.652L19.904.965z" fill="#fff"/></g></svg>