<svg width="16" height="19" viewBox="0 0 16 19" xmlns="http://www.w3.org/2000/svg"><title>editor-pencil</title><desc>Created with Sketch.</desc><g fill="none" fill-rule="evenodd"><path d="M.212 16.435c.435.043.86.26 1.192.65.334.39.52.883.556 1.39l-1.92.203.172-2.243zM.212 16.435L.04 18.678h.01l1.358-1.59-.004-.004c-.333-.39-.756-.606-1.192-.65z" fill="#0C333D"/><path d="M4.642 17.86c-.033-.04-.042-.097-.024-.146.215-.587.122-1.29-.288-1.77-.41-.477-1.012-.585-1.515-.334-.042.02-.09.01-.123-.028-.034-.04-.043-.096-.025-.145.215-.587.123-1.29-.287-1.77-.412-.48-1.017-.586-1.52-.332-.04.02-.085.01-.115-.025l-.316.358-.22 2.767c.436.043.86.26 1.193.65.334.39.52.883.556 1.39l2.37-.252.31-.364z" fill="#fff"/><path d="M11.312 1.345c1.063-.836 2.516-.453 3.457.39l.037.047c.958.985 1.214 2.305.498 3.546L11.31 1.345z" fill="#D6EAFF"/><path d="M10.36 2.25l.39-.546c.127-.148.37-.292.516-.406l4.04 4.03c-.097.168-.21.325-.336.473l-.41.48-4.2-4.03z" fill="#fff"/><path d="M10.375 2.254L.74 13.304c.035.04.08.05.12.03.503-.253 1.108-.146 1.52.334.41.48.502 1.182.287 1.77-.018.048-.008.106.024.144.035.038.084.05.126.028.503-.25 1.105-.143 1.515.335.41.48.504 1.183.29 1.77-.02.05-.01.105.023.144l9.92-11.58-4.187-4.027z" fill="#64A8EE"/><path d="M2.69 15.582c-.032-.038-.04-.096-.023-.145.215-.587.123-1.29-.287-1.77-.412-.48-1.017-.586-1.52-.332-.04.02-.085.01-.115-.025l-.004-.005-.31.363-.217 2.767c.435.043.86.26 1.192.65L2.69 15.58z" fill="#fff"/></g></svg>