<svg width="10" height="10" viewBox="0 0 10 10" xmlns="http://www.w3.org/2000/svg"><title>share</title><desc>Created with Sketch.</desc><path d="M7.917 5.833c.577 0 1.068.203 1.474.61.41.405.61.896.61 1.474 0 .577-.2 1.068-.61 1.474-.403.41-.894.61-1.47.61-.58 0-1.07-.2-1.476-.61-.406-.403-.61-.894-.61-1.47 0-.053.006-.127.014-.223L3.503 6.523c-.4.374-.873.56-1.42.56-.577 0-1.068-.203-1.474-.608C.2 6.07 0 5.577 0 5c0-.577.203-1.07.61-1.475.405-.405.896-.608 1.473-.608.547 0 1.02.186 1.42.56l2.343-1.172c-.008-.096-.013-.17-.013-.222 0-.577.203-1.068.61-1.474C6.847.2 7.338 0 7.916 0c.577 0 1.068.203 1.474.61.407.405.61.896.61 1.473 0 .578-.203 1.07-.61 1.475-.405.406-.896.61-1.473.61-.547 0-1.02-.188-1.42-.56l-2.343 1.17c.008.096.013.17.013.222 0 .052-.005.126-.013.22l2.343 1.173c.4-.373.873-.56 1.42-.56z" fill="#5BA1E8" fill-rule="evenodd"/></svg>