<?xml version="1.0" encoding="UTF-8" standalone="no"?>
<svg width="13px" height="12px" viewBox="0 0 13 12" version="1.1" xmlns="http://www.w3.org/2000/svg" xmlns:xlink="http://www.w3.org/1999/xlink" xmlns:sketch="http://www.bohemiancoding.com/sketch/ns">
    <!-- Generator: Sketch 3.2.2 (9983) - http://www.bohemiancoding.com/sketch -->
    <title>up</title>
    <desc>Created with Sketch.</desc>
    <defs></defs>
    <g id="Segmented-Control" stroke="none" stroke-width="1" fill="none" fill-rule="evenodd" sketch:type="MSPage">
        <g id="Editor---Edit-13" sketch:type="MSArtboardGroup" transform="translate(-215.000000, -248.000000)" fill="#DBF1FF">
            <path d="M227.585938,254.585938 C227.585938,254.851564 227.489584,255.085936 227.296875,255.289062 L226.710938,255.875 C226.51302,256.072918 226.276043,256.171875 226,256.171875 C225.718749,256.171875 225.484376,256.072918 225.296875,255.875 L223,253.585938 L223,259.085938 C223,259.356772 222.902345,259.576822 222.707031,259.746094 C222.511718,259.915365 222.276043,260 222,260 L221,260 C220.723957,260 220.488282,259.915365 220.292969,259.746094 C220.097655,259.576822 220,259.356772 220,259.085938 L220,253.585938 L217.703125,255.875 C217.515624,256.072918 217.281251,256.171875 217,256.171875 C216.718749,256.171875 216.484376,256.072918 216.296875,255.875 L215.710938,255.289062 C215.51302,255.091145 215.414062,254.856772 215.414062,254.585938 C215.414062,254.309894 215.51302,254.072918 215.710938,253.875 L220.796875,248.789062 C220.979168,248.596353 221.21354,248.5 221.5,248.5 C221.781251,248.5 222.018228,248.596353 222.210938,248.789062 L227.296875,253.875 C227.489584,254.078126 227.585938,254.315103 227.585938,254.585938 L227.585938,254.585938 Z" id="up" sketch:type="MSShapeGroup"></path>
        </g>
    </g>
</svg>