<svg width="13" height="12" viewBox="0 0 13 12" xmlns="http://www.w3.org/2000/svg"><title>up</title><desc>Created with Sketch.</desc><path d="M12.586 6.586c0 .266-.096.5-.29.703l-.585.584c-.196.198-.433.297-.71.297-.28 0-.515-.1-.702-.296L8 5.584v5.5c0 .273-.098.493-.293.66-.195.17-.43.256-.707.256H6c-.276 0-.512-.085-.707-.254-.195-.17-.293-.39-.293-.66v-5.5l-2.297 2.29c-.187.197-.422.296-.703.296-.28 0-.516-.1-.703-.297L.71 7.29c-.197-.2-.296-.433-.296-.704 0-.276.1-.513.297-.71L5.8.788C5.98.595 6.214.5 6.5.5c.28 0 .518.096.71.29l5.087 5.085c.193.203.29.44.29.71z" fill="#DBF1FF" fill-rule="evenodd"/></svg>