<svg width="351" height="81" viewBox="0 0 351 81" xmlns="http://www.w3.org/2000/svg"><title>mobile</title><desc>Created with Sketch.</desc><g id="Page-1" fill="none" fill-rule="evenodd"><g id="mobile"><g><g><path d="M351 633c0 .04-.11 32.21-50 49-26.995 9.64-94.62 8.99-125 9-31.36-.01-101.388.64-128-9C-2.273 665.21.02 633.04 0 633c0 0 .02-9.727 0-15C.02 428.877 0 50 0 50c.02-.15-2.405-26.952 48-42C74.55.346 144.74 0 176 0c30.28 0 98.068.346 125 8 50.016 15.046 50 41.844 50 42v583zM15 81v539h319V81H15z" fill="#4A4A4A"/><path d="M301 41.634c4.244 0 7.683-3.46 7.683-7.73 0-4.27-3.44-7.73-7.682-7.73-4.24 0-7.68 3.46-7.68 7.73 0 4.27 3.44 7.73 7.68 7.73zM175.753 18.7c-19.843 0-37.68 1.11-37.68 1.11-1.297.074-1.728.99-.963 2.05l4.076 5.63c.765 1.057 2.452 1.914 3.74 1.914H206.4c1.3 0 2.978-.873 3.738-1.937l3.987-5.585c.763-1.07.317-2-.98-2.074 0 0-17.55-1.108-37.392-1.108z" fill="#303030"/></g></g></g></g></svg>