<svg width="351" height="71" viewBox="0 0 351 71" xmlns="http://www.w3.org/2000/svg"><title>mobile</title><desc>Created with Sketch.</desc><g id="Page-1" fill="none" fill-rule="evenodd"><g id="mobile" fill="#4A4A4A"><g><path d="M351 13c0 .04-.11 32.21-50 49-26.995 9.64-94.62 8.99-125 9-31.36-.01-101.388.64-128-9C-2.273 45.21.02 13.04 0 13c0 0 .02-9.727 0-15 .02-189.123 0-568 0-568 .02-.15-2.405-26.952 48-42 26.55-7.654 96.74-8 128-8 30.28 0 98.068.346 125 8 50.016 15.046 50 41.844 50 42V13zM15-539V0h319v-539H15z"/></g></g></g></svg>